<svg xmlns="http://www.w3.org/2000/svg" xmlns:xlink="http://www.w3.org/1999/xlink" width="1080" zoomAndPan="magnify" viewBox="0 0 810 809.999993" height="1080" preserveAspectRatio="xMidYMid meet" version="1.0"><defs><g/><clipPath id="2f722f4a63"><path d="M 155 160.320312 L 295 160.320312 L 295 331 L 155 331 Z M 155 160.320312 " clip-rule="nonzero"/></clipPath><clipPath id="98f94f5644"><path d="M 520 441 L 723 441 L 723 728.820312 L 520 728.820312 Z M 520 441 " clip-rule="nonzero"/></clipPath><clipPath id="26481b8661"><path d="M 578 365 L 742.5 365 L 742.5 616 L 578 616 Z M 578 365 " clip-rule="nonzero"/></clipPath><clipPath id="de37a8b156"><path d="M 117 35 L 693 35 L 693 141 L 117 141 Z M 117 35 " clip-rule="nonzero"/></clipPath></defs><rect x="-81" width="972" fill="#ffffff" y="-80.999999" height="971.999992" fill-opacity="1"/><rect x="-81" width="972" fill="#fff9f0" y="-80.999999" height="971.999992" fill-opacity="1"/><path fill="#ffb6b6" d="M 403.515625 578.734375 C 419.25 583.640625 429.472656 595.730469 426.347656 605.738281 C 423.222656 615.746094 407.933594 619.882812 392.191406 614.972656 C 385.875 613.09375 380.101562 609.738281 375.351562 605.175781 L 308.9375 583.542969 L 319.757812 552.613281 L 384.082031 577.222656 C 390.585938 576.167969 397.25 576.6875 403.515625 578.734375 Z M 403.515625 578.734375 " fill-opacity="1" fill-rule="nonzero"/><path fill="#e6e6e6" d="M 261.234375 351.785156 C 245.398438 349.910156 230.820312 360.609375 227.867188 376.269531 C 217.347656 432.132812 195 552.929688 197.941406 555.871094 C 201.773438 559.699219 344.816406 601.820312 344.816406 601.820312 L 361.417969 566.082031 L 266.910156 520.132812 L 287.636719 386.523438 C 290.269531 369.5625 278.292969 353.804688 261.234375 351.785156 Z M 261.234375 351.785156 " fill-opacity="1" fill-rule="nonzero"/><path fill="#a0616a" d="M 433.566406 636.839844 C 418.214844 642.832031 402.671875 639.773438 398.855469 630.007812 C 395.042969 620.242188 404.394531 607.46875 419.757812 601.476562 C 425.859375 598.996094 432.46875 598.015625 439.03125 598.613281 L 504.410156 574.035156 L 515.296875 604.945312 L 449.6875 625.890625 C 445.265625 630.773438 439.738281 634.527344 433.566406 636.839844 Z M 433.566406 636.839844 " fill-opacity="1" fill-rule="nonzero"/><path fill="#e6e6e6" d="M 527.851562 371.558594 C 543.527344 368.625 558.792969 378.320312 562.792969 393.746094 C 577.046875 448.777344 607.46875 567.800781 604.726562 570.933594 C 601.164062 575.011719 461.273438 626.644531 461.273438 626.644531 L 442.304688 592.101562 L 533.511719 539.90625 L 503.847656 407.992188 C 500.082031 391.246094 510.972656 374.71875 527.851562 371.558594 Z M 527.851562 371.558594 " fill-opacity="1" fill-rule="nonzero"/><path fill="#ffb6b6" d="M 250.019531 359.808594 L 257.808594 311.15625 L 205.226562 289.746094 L 197.4375 363.703125 Z M 250.019531 359.808594 " fill-opacity="1" fill-rule="nonzero"/><path fill="#a0616a" d="M 557.113281 367.46875 L 549.324219 318.8125 L 601.90625 297.40625 L 609.695312 371.359375 Z M 557.113281 367.46875 " fill-opacity="1" fill-rule="nonzero"/><path fill="#ffb6b6" d="M 290.351562 273.210938 C 290.351562 274.964844 290.265625 276.714844 290.09375 278.460938 C 289.921875 280.207031 289.664062 281.941406 289.320312 283.664062 C 288.976562 285.386719 288.550781 287.085938 288.042969 288.765625 C 287.53125 290.445312 286.941406 292.09375 286.269531 293.714844 C 285.597656 295.335938 284.847656 296.921875 284.019531 298.46875 C 283.191406 300.019531 282.289062 301.519531 281.3125 302.980469 C 280.339844 304.441406 279.292969 305.847656 278.179688 307.203125 C 277.066406 308.5625 275.886719 309.859375 274.644531 311.101562 C 273.402344 312.34375 272.105469 313.519531 270.746094 314.632812 C 269.390625 315.746094 267.980469 316.789062 266.519531 317.765625 C 265.058594 318.738281 263.554688 319.640625 262.007812 320.46875 C 260.457031 321.296875 258.871094 322.046875 257.25 322.71875 C 255.628906 323.386719 253.976562 323.980469 252.296875 324.488281 C 250.617188 324.996094 248.914062 325.425781 247.191406 325.765625 C 245.46875 326.109375 243.734375 326.367188 241.988281 326.539062 C 240.238281 326.710938 238.488281 326.796875 236.730469 326.796875 C 234.976562 326.796875 233.222656 326.710938 231.476562 326.539062 C 229.726562 326.367188 227.992188 326.109375 226.269531 325.765625 C 224.546875 325.425781 222.847656 324.996094 221.164062 324.488281 C 219.484375 323.980469 217.832031 323.386719 216.210938 322.71875 C 214.589844 322.046875 213.003906 321.296875 211.453125 320.46875 C 209.90625 319.640625 208.402344 318.738281 206.941406 317.765625 C 205.480469 316.789062 204.074219 315.746094 202.714844 314.632812 C 201.355469 313.519531 200.058594 312.34375 198.816406 311.101562 C 197.574219 309.859375 196.394531 308.5625 195.28125 307.203125 C 194.167969 305.847656 193.125 304.441406 192.148438 302.980469 C 191.171875 301.519531 190.269531 300.019531 189.441406 298.46875 C 188.613281 296.921875 187.863281 295.335938 187.191406 293.714844 C 186.519531 292.09375 185.929688 290.445312 185.421875 288.765625 C 184.910156 287.085938 184.484375 285.386719 184.140625 283.664062 C 183.796875 281.941406 183.542969 280.207031 183.371094 278.460938 C 183.195312 276.714844 183.109375 274.964844 183.109375 273.210938 C 183.109375 271.453125 183.195312 269.703125 183.371094 267.957031 C 183.542969 266.210938 183.796875 264.476562 184.140625 262.753906 C 184.484375 261.035156 184.910156 259.332031 185.421875 257.65625 C 185.929688 255.976562 186.519531 254.324219 187.191406 252.703125 C 187.863281 251.082031 188.613281 249.496094 189.441406 247.949219 C 190.269531 246.402344 191.171875 244.898438 192.148438 243.4375 C 193.125 241.980469 194.167969 240.570312 195.28125 239.214844 C 196.394531 237.859375 197.574219 236.558594 198.816406 235.320312 C 200.058594 234.078125 201.355469 232.902344 202.714844 231.785156 C 204.074219 230.671875 205.480469 229.628906 206.941406 228.65625 C 208.402344 227.679688 209.90625 226.777344 211.453125 225.949219 C 213.003906 225.125 214.589844 224.375 216.210938 223.703125 C 217.832031 223.03125 219.484375 222.441406 221.164062 221.929688 C 222.847656 221.421875 224.546875 220.996094 226.269531 220.652344 C 227.992188 220.3125 229.726562 220.054688 231.476562 219.882812 C 233.222656 219.710938 234.976562 219.625 236.730469 219.625 C 238.488281 219.625 240.238281 219.710938 241.988281 219.882812 C 243.734375 220.054688 245.46875 220.3125 247.191406 220.652344 C 248.914062 220.996094 250.617188 221.421875 252.296875 221.929688 C 253.976562 222.441406 255.628906 223.03125 257.25 223.703125 C 258.871094 224.375 260.457031 225.125 262.007812 225.949219 C 263.554688 226.777344 265.058594 227.679688 266.519531 228.65625 C 267.980469 229.628906 269.390625 230.671875 270.746094 231.785156 C 272.105469 232.902344 273.402344 234.078125 274.644531 235.320312 C 275.886719 236.558594 277.066406 237.859375 278.179688 239.214844 C 279.292969 240.570312 280.339844 241.980469 281.3125 243.4375 C 282.289062 244.898438 283.191406 246.402344 284.019531 247.949219 C 284.847656 249.496094 285.597656 251.082031 286.269531 252.703125 C 286.941406 254.324219 287.53125 255.976562 288.042969 257.65625 C 288.550781 259.332031 288.976562 261.035156 289.320312 262.753906 C 289.664062 264.476562 289.921875 266.210938 290.09375 267.957031 C 290.265625 269.703125 290.351562 271.453125 290.351562 273.210938 Z M 290.351562 273.210938 " fill-opacity="1" fill-rule="nonzero"/><g clip-path="url(#2f722f4a63)"><path fill="#2f2e41" d="M 232.453125 201.167969 C 234.003906 202.070312 236.082031 200.703125 236.578125 198.976562 C 237.078125 197.25 236.496094 195.417969 235.921875 193.71875 L 233.027344 185.15625 C 230.976562 179.082031 228.800781 172.796875 224.355469 168.171875 C 217.648438 161.195312 206.988281 159.421875 197.394531 160.707031 C 185.070312 162.359375 172.914062 169.027344 167.183594 180.054688 C 161.453125 191.082031 163.894531 206.46875 174.246094 213.347656 C 159.492188 230.246094 154.347656 249.085938 155.160156 271.5 C 155.972656 293.914062 180.414062 314.542969 196.355469 330.335938 C 199.914062 328.179688 203.148438 318.070312 201.191406 314.402344 C 199.234375 310.730469 202.039062 306.476562 199.617188 303.09375 C 197.191406 299.710938 195.164062 305.097656 197.613281 301.734375 C 199.160156 299.613281 193.125 294.730469 195.421875 293.460938 C 206.542969 287.320312 210.238281 273.46875 217.222656 262.863281 C 225.648438 250.070312 240.0625 241.40625 255.320312 239.96875 C 263.726562 239.175781 272.601562 240.609375 279.492188 245.484375 C 286.378906 250.363281 290.839844 259.074219 289.242188 267.359375 C 293.378906 263.160156 295.4375 257.007812 294.660156 251.167969 C 293.882812 245.328125 290.289062 239.925781 285.199219 236.953125 C 288.292969 226.722656 285.640625 214.957031 278.457031 207.042969 C 271.273438 199.125 242.128906 200.472656 231.640625 202.558594 " fill-opacity="1" fill-rule="nonzero"/></g><path fill="#2f2e41" d="M 230.824219 240.277344 C 216.929688 241.777344 206.898438 253.800781 198.429688 264.910156 C 193.546875 271.308594 188.433594 278.378906 188.558594 286.425781 C 188.679688 294.5625 194.125 301.542969 196.726562 309.25 C 200.980469 321.855469 196.835938 336.851562 186.710938 345.484375 C 196.714844 347.382812 207.527344 339.886719 209.253906 329.863281 C 211.261719 318.191406 202.410156 306.925781 203.457031 295.128906 C 204.382812 284.734375 212.578125 276.734375 219.542969 268.964844 C 226.511719 261.191406 233.054688 250.878906 229.851562 240.949219 " fill-opacity="1" fill-rule="nonzero"/><path fill="#e6e6e6" d="M 256.09375 351.652344 L 195.386719 335.058594 L 132.804688 360.585938 L 105.984375 572.464844 L 259.246094 577.570312 L 259.246094 543.394531 C 259.246094 543.394531 286.066406 509.921875 280.957031 461.417969 L 275.847656 412.917969 Z M 256.09375 351.652344 " fill-opacity="1" fill-rule="nonzero"/><path fill="#3f3d56" d="M 284.152344 437.808594 L 164.097656 431.425781 L 131.527344 523.960938 C 131.527344 523.960938 91.296875 579.484375 84.910156 620.328125 C 78.527344 661.171875 82.355469 718.609375 82.355469 718.609375 L 274.558594 718.609375 L 259.246094 543.394531 C 259.246094 543.394531 294.992188 465.886719 290.847656 452.484375 C 286.703125 439.082031 284.152344 437.808594 284.152344 437.808594 Z M 284.152344 437.808594 " fill-opacity="1" fill-rule="nonzero"/><path fill="#3f3d56" d="M 162.820312 335.695312 L 192.195312 335.695312 L 192.195312 444.1875 L 162.820312 444.1875 Z M 162.820312 335.695312 " fill-opacity="1" fill-rule="nonzero"/><path fill="#3f3d56" d="M 253.5 359.949219 L 282.875 359.949219 L 282.875 449.292969 L 253.5 449.292969 Z M 253.5 359.949219 " fill-opacity="1" fill-rule="nonzero"/><path fill="#e6e6e6" d="M 548.484375 361.863281 L 609.191406 345.269531 L 671.773438 370.796875 L 698.59375 582.675781 L 545.332031 587.78125 L 545.332031 553.605469 C 545.332031 553.605469 529.65625 518.664062 544.695312 472.269531 C 559.382812 426.957031 528.730469 423.128906 528.730469 423.128906 Z M 548.484375 361.863281 " fill-opacity="1" fill-rule="nonzero"/><g clip-path="url(#98f94f5644)"><path fill="#3f3d56" d="M 520.429688 448.019531 L 640.484375 441.636719 L 673.050781 534.171875 C 673.050781 534.171875 692.847656 597.351562 699.234375 638.199219 C 705.617188 679.042969 722.222656 728.820312 722.222656 728.820312 L 530.023438 728.820312 L 524.257812 560.339844 Z M 520.429688 448.019531 " fill-opacity="1" fill-rule="nonzero"/></g><path fill="#3f3d56" d="M 612.382812 345.910156 L 641.757812 345.910156 L 641.757812 454.398438 L 612.382812 454.398438 Z M 612.382812 345.910156 " fill-opacity="1" fill-rule="nonzero"/><path fill="#3f3d56" d="M 521.707031 370.160156 L 551.082031 370.160156 L 551.082031 459.503906 L 521.707031 459.503906 Z M 521.707031 370.160156 " fill-opacity="1" fill-rule="nonzero"/><path fill="#a0616a" d="M 636.148438 267.128906 C 636.148438 268.226562 636.121094 269.324219 636.066406 270.421875 C 636.011719 271.519531 635.929688 272.613281 635.824219 273.707031 C 635.714844 274.800781 635.582031 275.890625 635.417969 276.976562 C 635.257812 278.0625 635.070312 279.144531 634.855469 280.222656 C 634.640625 281.296875 634.402344 282.371094 634.132812 283.433594 C 633.867188 284.5 633.574219 285.558594 633.253906 286.609375 C 632.9375 287.660156 632.589844 288.703125 632.222656 289.738281 C 631.851562 290.773438 631.453125 291.796875 631.035156 292.8125 C 630.613281 293.828125 630.167969 294.832031 629.699219 295.824219 C 629.230469 296.816406 628.734375 297.796875 628.214844 298.765625 C 627.699219 299.734375 627.15625 300.691406 626.59375 301.632812 C 626.027344 302.574219 625.4375 303.5 624.828125 304.414062 C 624.21875 305.328125 623.585938 306.226562 622.929688 307.109375 C 622.277344 307.992188 621.601562 308.855469 620.902344 309.707031 C 620.207031 310.554688 619.488281 311.386719 618.75 312.199219 C 618.011719 313.011719 617.253906 313.808594 616.476562 314.585938 C 615.699219 315.363281 614.902344 316.117188 614.089844 316.855469 C 613.273438 317.59375 612.441406 318.3125 611.59375 319.007812 C 610.742188 319.707031 609.878906 320.378906 608.996094 321.035156 C 608.113281 321.6875 607.214844 322.320312 606.300781 322.933594 C 605.386719 323.542969 604.457031 324.128906 603.515625 324.695312 C 602.570312 325.257812 601.617188 325.800781 600.648438 326.316406 C 599.675781 326.835938 598.695312 327.328125 597.703125 327.800781 C 596.707031 328.269531 595.703125 328.714844 594.6875 329.132812 C 593.671875 329.554688 592.648438 329.949219 591.613281 330.320312 C 590.578125 330.691406 589.535156 331.035156 588.484375 331.351562 C 587.433594 331.671875 586.371094 331.964844 585.308594 332.230469 C 584.242188 332.5 583.167969 332.738281 582.089844 332.953125 C 581.011719 333.167969 579.929688 333.355469 578.84375 333.515625 C 577.753906 333.675781 576.664062 333.8125 575.570312 333.917969 C 574.476562 334.027344 573.382812 334.109375 572.285156 334.160156 C 571.1875 334.214844 570.089844 334.242188 568.988281 334.242188 C 567.890625 334.242188 566.792969 334.214844 565.695312 334.160156 C 564.597656 334.109375 563.5 334.027344 562.40625 333.917969 C 561.3125 333.8125 560.222656 333.675781 559.136719 333.515625 C 558.046875 333.355469 556.964844 333.167969 555.886719 332.953125 C 554.808594 332.738281 553.738281 332.5 552.671875 332.230469 C 551.605469 331.964844 550.546875 331.671875 549.492188 331.351562 C 548.441406 331.035156 547.398438 330.691406 546.363281 330.320312 C 545.328125 329.949219 544.304688 329.554688 543.289062 329.132812 C 542.273438 328.714844 541.269531 328.269531 540.273438 327.800781 C 539.28125 327.328125 538.300781 326.835938 537.332031 326.316406 C 536.363281 325.800781 535.40625 325.257812 534.464844 324.695312 C 533.519531 324.128906 532.59375 323.542969 531.679688 322.933594 C 530.765625 322.320312 529.867188 321.6875 528.984375 321.035156 C 528.101562 320.378906 527.234375 319.707031 526.382812 319.007812 C 525.535156 318.3125 524.703125 317.59375 523.886719 316.855469 C 523.074219 316.117188 522.277344 315.363281 521.5 314.585938 C 520.722656 313.808594 519.964844 313.011719 519.226562 312.199219 C 518.492188 311.386719 517.773438 310.554688 517.074219 309.707031 C 516.378906 308.855469 515.703125 307.992188 515.046875 307.109375 C 514.394531 306.226562 513.761719 305.328125 513.148438 304.414062 C 512.539062 303.5 511.949219 302.574219 511.386719 301.632812 C 510.820312 300.691406 510.28125 299.734375 509.761719 298.765625 C 509.242188 297.796875 508.75 296.816406 508.277344 295.824219 C 507.808594 294.832031 507.363281 293.828125 506.945312 292.8125 C 506.523438 291.796875 506.128906 290.773438 505.757812 289.738281 C 505.386719 288.703125 505.042969 287.660156 504.722656 286.609375 C 504.402344 285.558594 504.109375 284.5 503.84375 283.433594 C 503.578125 282.371094 503.335938 281.296875 503.121094 280.222656 C 502.90625 279.144531 502.71875 278.0625 502.558594 276.976562 C 502.398438 275.890625 502.261719 274.800781 502.15625 273.707031 C 502.046875 272.613281 501.964844 271.519531 501.914062 270.421875 C 501.859375 269.324219 501.832031 268.226562 501.832031 267.128906 C 501.832031 266.027344 501.859375 264.929688 501.914062 263.835938 C 501.964844 262.738281 502.046875 261.640625 502.15625 260.550781 C 502.261719 259.457031 502.398438 258.367188 502.558594 257.28125 C 502.71875 256.191406 502.90625 255.109375 503.121094 254.035156 C 503.335938 252.957031 503.578125 251.886719 503.84375 250.820312 C 504.109375 249.753906 504.402344 248.695312 504.722656 247.644531 C 505.042969 246.59375 505.386719 245.550781 505.757812 244.515625 C 506.128906 243.484375 506.523438 242.457031 506.945312 241.445312 C 507.363281 240.429688 507.808594 239.425781 508.277344 238.433594 C 508.75 237.4375 509.242188 236.457031 509.761719 235.488281 C 510.28125 234.519531 510.820312 233.566406 511.386719 232.625 C 511.949219 231.679688 512.539062 230.753906 513.148438 229.839844 C 513.761719 228.925781 514.394531 228.027344 515.046875 227.148438 C 515.703125 226.265625 516.378906 225.398438 517.074219 224.550781 C 517.773438 223.699219 518.492188 222.871094 519.226562 222.054688 C 519.964844 221.242188 520.722656 220.445312 521.5 219.667969 C 522.277344 218.894531 523.074219 218.136719 523.890625 217.398438 C 524.703125 216.660156 525.535156 215.945312 526.382812 215.246094 C 527.234375 214.550781 528.101562 213.875 528.984375 213.21875 C 529.867188 212.566406 530.765625 211.933594 531.679688 211.324219 C 532.59375 210.710938 533.519531 210.125 534.464844 209.5625 C 535.40625 208.996094 536.363281 208.453125 537.332031 207.9375 C 538.300781 207.417969 539.28125 206.925781 540.273438 206.457031 C 541.269531 205.984375 542.273438 205.542969 543.289062 205.121094 C 544.304688 204.699219 545.328125 204.304688 546.363281 203.933594 C 547.398438 203.566406 548.441406 203.222656 549.492188 202.902344 C 550.546875 202.582031 551.605469 202.289062 552.671875 202.023438 C 553.738281 201.757812 554.808594 201.515625 555.886719 201.300781 C 556.964844 201.085938 558.046875 200.898438 559.136719 200.738281 C 560.222656 200.578125 561.3125 200.441406 562.40625 200.335938 C 563.5 200.226562 564.597656 200.148438 565.695312 200.09375 C 566.792969 200.039062 567.890625 200.011719 568.988281 200.011719 C 570.089844 200.011719 571.1875 200.039062 572.285156 200.09375 C 573.382812 200.148438 574.476562 200.226562 575.570312 200.335938 C 576.664062 200.441406 577.753906 200.578125 578.84375 200.738281 C 579.929688 200.898438 581.011719 201.085938 582.089844 201.300781 C 583.167969 201.515625 584.242188 201.757812 585.308594 202.023438 C 586.371094 202.289062 587.433594 202.582031 588.484375 202.902344 C 589.535156 203.222656 590.578125 203.566406 591.613281 203.933594 C 592.648438 204.304688 593.671875 204.699219 594.6875 205.121094 C 595.703125 205.542969 596.707031 205.984375 597.703125 206.457031 C 598.695312 206.925781 599.675781 207.417969 600.648438 207.9375 C 601.617188 208.453125 602.570312 208.996094 603.515625 209.5625 C 604.457031 210.125 605.386719 210.710938 606.300781 211.324219 C 607.214844 211.933594 608.113281 212.566406 608.996094 213.21875 C 609.878906 213.875 610.742188 214.550781 611.59375 215.246094 C 612.441406 215.945312 613.273438 216.660156 614.089844 217.398438 C 614.902344 218.136719 615.699219 218.894531 616.476562 219.667969 C 617.253906 220.445312 618.011719 221.242188 618.75 222.054688 C 619.488281 222.871094 620.207031 223.699219 620.902344 224.550781 C 621.601562 225.398438 622.277344 226.265625 622.929688 227.148438 C 623.585938 228.027344 624.21875 228.925781 624.828125 229.839844 C 625.4375 230.753906 626.027344 231.679688 626.59375 232.625 C 627.15625 233.566406 627.699219 234.519531 628.214844 235.488281 C 628.734375 236.457031 629.230469 237.4375 629.699219 238.433594 C 630.167969 239.425781 630.613281 240.429688 631.035156 241.445312 C 631.453125 242.457031 631.851562 243.484375 632.222656 244.515625 C 632.589844 245.550781 632.9375 246.59375 633.253906 247.644531 C 633.574219 248.695312 633.867188 249.753906 634.132812 250.820312 C 634.402344 251.886719 634.640625 252.957031 634.855469 254.035156 C 635.070312 255.109375 635.257812 256.191406 635.417969 257.28125 C 635.582031 258.367188 635.714844 259.457031 635.824219 260.550781 C 635.929688 261.640625 636.011719 262.738281 636.066406 263.835938 C 636.121094 264.929688 636.148438 266.027344 636.148438 267.128906 Z M 636.148438 267.128906 " fill-opacity="1" fill-rule="nonzero"/><path fill="#2f2e41" d="M 635.046875 303.535156 C 635.046875 303.535156 602.554688 264.570312 589.558594 267.816406 C 576.5625 271.066406 584.683594 275.9375 584.683594 275.9375 L 552.195312 240.21875 C 552.195312 240.21875 526.199219 230.476562 501.832031 261.324219 C 501.832031 261.324219 487.210938 235.347656 501.832031 220.734375 C 516.453125 206.125 521.328125 207.746094 524.574219 199.628906 C 527.824219 191.511719 550.570312 185.015625 550.570312 185.015625 C 550.570312 185.015625 549.265625 173.332031 556.414062 179.175781 C 563.566406 185.015625 581.421875 185.015625 581.421875 185.015625 C 581.421875 185.015625 581.527344 178.523438 588.792969 185.015625 C 596.058594 191.511719 604.179688 188.265625 604.179688 188.265625 C 604.179688 188.265625 604.179688 199.5 609.867188 199.566406 C 615.550781 199.628906 625.300781 191.511719 626.921875 198.003906 C 628.546875 204.5 639.921875 207.746094 641.542969 227.230469 C 643.167969 246.710938 635.046875 303.535156 635.046875 303.535156 Z M 635.046875 303.535156 " fill-opacity="1" fill-rule="nonzero"/><path fill="#3f3d56" d="M 385.972656 403.707031 L 437.96875 501.941406 L 430.84375 505.710938 L 378.847656 407.476562 C 378.09375 406.050781 378.636719 404.28125 380.066406 403.527344 L 382.023438 402.492188 C 383.449219 401.738281 385.21875 402.28125 385.972656 403.707031 Z M 385.972656 403.707031 " fill-opacity="1" fill-rule="nonzero"/><path fill="#3f3d56" d="M 472.597656 539.066406 C 459.371094 535.65625 445.53125 541.691406 438.894531 553.625 C 430.582031 568.566406 421.085938 580.824219 424.265625 551.609375 C 427.765625 519.449219 408.886719 493.476562 423.722656 485.632812 C 438.558594 477.789062 453.878906 501.625 477.996094 523.207031 C 500.34375 543.210938 487.457031 542.894531 472.597656 539.066406 Z M 472.597656 539.066406 " fill-opacity="1" fill-rule="nonzero"/><path fill="#ffb6b6" d="M 396.03125 423.582031 C 411.027344 416.738281 426.714844 418.925781 431.070312 428.460938 C 435.425781 438 426.800781 451.277344 411.796875 458.121094 C 405.84375 460.933594 399.300781 462.285156 392.714844 462.054688 L 328.8125 490.246094 L 316.214844 459.996094 L 380.550781 435.414062 C 384.691406 430.292969 390 426.234375 396.03125 423.582031 Z M 396.03125 423.582031 " fill-opacity="1" fill-rule="nonzero"/><path fill="#e6e6e6" d="M 138.515625 349.472656 C 125.46875 358.640625 121.753906 376.332031 130.019531 389.960938 C 159.488281 438.578125 223.519531 543.445312 227.675781 543.671875 C 233.085938 543.96875 367.738281 479.925781 367.738281 479.925781 L 356.234375 442.238281 L 255.167969 471.054688 L 181.375 357.734375 C 172.007812 343.347656 152.566406 339.601562 138.515625 349.472656 Z M 138.515625 349.472656 " fill-opacity="1" fill-rule="nonzero"/><path fill="#f8a62c" d="M 402.421875 574.445312 L 575.152344 483.132812 L 596.355469 523.191406 C 614.644531 557.746094 601.421875 600.640625 566.84375 618.921875 L 519.414062 643.996094 C 484.835938 662.273438 441.914062 649.058594 423.625 614.503906 L 402.421875 574.441406 Z M 402.421875 574.445312 " fill-opacity="1" fill-rule="nonzero"/><path fill="#a0616a" d="M 548.761719 635.824219 C 533.769531 642.667969 518.082031 640.484375 513.722656 630.945312 C 509.367188 621.410156 517.988281 608.132812 532.988281 601.289062 C 538.945312 598.46875 545.488281 597.121094 552.070312 597.347656 L 615.96875 569.148438 L 628.574219 599.398438 L 564.242188 623.988281 C 560.101562 629.109375 554.792969 633.167969 548.761719 635.824219 Z M 548.761719 635.824219 " fill-opacity="1" fill-rule="nonzero"/><g clip-path="url(#26481b8661)"><path fill="#e6e6e6" d="M 678.722656 365.824219 C 694.558594 363.953125 709.140625 374.648438 712.089844 390.308594 C 722.613281 446.171875 744.960938 566.96875 742.019531 569.910156 C 738.1875 573.742188 595.144531 615.859375 595.144531 615.859375 L 578.539062 580.121094 L 673.050781 534.171875 L 652.324219 400.566406 C 649.691406 383.601562 661.667969 367.84375 678.722656 365.824219 Z M 678.722656 365.824219 " fill-opacity="1" fill-rule="nonzero"/></g><g clip-path="url(#de37a8b156)"><path fill="#f8a62c" d="M 670.410156 44.058594 C 667.128906 42.90625 662.761719 42.476562 658.320312 42.101562 C 658.617188 41.875 658.734375 41.523438 658.699219 41.078125 C 656.210938 40.996094 655.167969 41.847656 652.472656 41.636719 C 653.308594 41.105469 652.632812 40.667969 651.296875 40.878906 C 652.066406 40.222656 654.484375 40.625 654.417969 41.363281 C 654.910156 41.292969 654.8125 40.855469 654.414062 40.855469 C 660.757812 41.199219 667.296875 40.144531 672.726562 41.226562 C 669.539062 39.027344 659.183594 39.070312 654.394531 37.792969 C 654.695312 37.203125 656.800781 37.527344 656.347656 38.289062 C 656.859375 38.027344 657.792969 38.035156 657.898438 37.511719 C 662.121094 38.347656 666.925781 38.664062 671.148438 38.4375 C 675.964844 40.273438 682.457031 40.996094 685.210938 44.207031 C 685.386719 46.28125 684.832031 47.386719 685.25 49.058594 C 684.007812 51.214844 682.636719 53.296875 680.226562 54.703125 C 681.921875 56.804688 682.914062 58.382812 683 60.554688 C 682.488281 60.972656 680.132812 61.496094 681.839844 61.84375 C 681.03125 62.164062 680.203125 62.476562 679.511719 62.882812 C 679.707031 63.546875 681.667969 63.726562 680.691406 64.398438 C 679.339844 64.617188 679.191406 64.03125 677.960938 64.164062 C 678.261719 65.664062 681.121094 66.285156 681.890625 68.21875 C 682.835938 70.597656 681.066406 73.449219 681.167969 76.390625 C 677.359375 76.417969 678.710938 80.167969 673.402344 79.765625 C 677.414062 81.398438 683.261719 83.078125 688.234375 83.226562 C 689.125 84.261719 690.410156 87 688.265625 87.820312 C 688.722656 88.285156 689.289062 88.675781 689.835938 89.085938 C 689.019531 89.71875 685.859375 89.121094 687.117188 90.382812 C 683.226562 91.015625 678.195312 90.101562 675.445312 92.253906 C 675.492188 92.90625 676.902344 92.652344 677.398438 93.003906 C 677.523438 93.65625 676.679688 94.5 677.027344 95.050781 C 679.210938 95.578125 678.128906 96.015625 680.152344 96.046875 C 679.671875 96.753906 678.929688 97.292969 677.433594 97.34375 C 678.625 98 680.808594 97.996094 681.339844 99.101562 C 676.898438 100.316406 674.960938 99.484375 670.046875 99.695312 C 677.09375 100.988281 683.394531 102.773438 689.171875 104.914062 C 689.246094 106.027344 689.320312 107.144531 688.40625 106.964844 C 689.144531 107.761719 689.722656 107.167969 690.351562 106.695312 C 690.777344 108.890625 690.996094 110.234375 693.117188 111.523438 C 692.347656 113.339844 689.632812 112.625 687.285156 113.09375 C 687.632812 114.320312 688.164062 115.421875 690.027344 115.628906 C 688.808594 117.953125 682.183594 117.628906 679.925781 118.507812 C 680.816406 120.03125 683.253906 118.769531 685.378906 118.464844 C 684.84375 119.503906 686.230469 119.265625 686.167969 119.992188 C 679.238281 120.25 678.617188 122.339844 671.375 121.632812 C 671.183594 128.277344 666.074219 131.757812 663.308594 136.746094 C 659.925781 136.128906 658.4375 137.253906 656.699219 138.328125 C 656.523438 139.039062 658.816406 138.109375 658.648438 138.820312 C 655.605469 139.714844 651.328125 139.574219 646.96875 139.929688 C 642.902344 140.265625 639.46875 140.273438 636.839844 139.242188 C 616.789062 141.773438 601.070312 139.777344 579.976562 140.933594 C 579.628906 140.121094 581.257812 140.578125 581.136719 139.910156 C 574.652344 139.878906 563.289062 141.792969 556.984375 140.339844 C 555.730469 140.578125 556.4375 139.511719 555.8125 139.324219 C 550.886719 139.480469 546.453125 141.121094 543.347656 139.417969 C 536.34375 139.027344 528.574219 141.121094 523.476562 139.566406 C 503.007812 139.917969 486.511719 140.839844 469.324219 138.945312 C 459.535156 138.472656 451.542969 139.152344 441.660156 138.640625 C 443.046875 137.417969 446.308594 137.402344 449.050781 137.054688 C 445.453125 136.632812 439.585938 136.550781 434.640625 136.90625 C 418.105469 138.097656 400.875 137.707031 384 137.023438 C 383.222656 136.4375 384.09375 136.738281 384.382812 136.253906 C 381.066406 135.4375 377.585938 136.578125 374.648438 136.839844 C 373.914062 136.359375 374.597656 136.199219 374.640625 135.558594 C 371.308594 135.234375 372.289062 136.328125 370.359375 136.609375 C 368.546875 136.851562 370.894531 135.949219 369.578125 135.851562 C 368.746094 135.738281 368.839844 136.222656 368.804688 136.625 C 364.339844 136.273438 360.769531 136.042969 355.558594 136.464844 C 353.953125 136.597656 355.859375 135.824219 354.773438 135.453125 C 348.222656 135.363281 338.929688 136.847656 331.796875 136.132812 C 328.410156 135.796875 326.265625 136.171875 322.445312 136.207031 C 319.175781 136.230469 315.976562 134.890625 312.304688 134.492188 C 309.289062 134.167969 304.796875 135.214844 300.230469 134.578125 C 300.3125 134.210938 301.390625 134.484375 301.390625 134.0625 C 288.140625 134.523438 271.878906 134.582031 259.332031 135.902344 C 244.195312 134.925781 226.683594 137.402344 212.988281 137.265625 C 213.320312 136.878906 213.964844 136.707031 214.933594 136.738281 C 201.539062 135.71875 180.96875 135.539062 163.898438 136.097656 C 162.28125 136.242188 162.238281 137.398438 160.011719 137.144531 C 158.980469 138.609375 155.847656 138.714844 153.792969 139.234375 C 153.433594 139.324219 152.273438 140 151.847656 140.011719 C 145.628906 140.277344 147.484375 135.558594 144.007812 133.179688 C 142.171875 133.929688 140.265625 134.222656 138.554688 133.222656 C 138.683594 131.609375 141.53125 131.757812 142.429688 130.644531 C 141.929688 130.285156 140.242188 129.824219 140.097656 130.660156 C 139.210938 130.148438 139.230469 129.332031 140.085938 128.875 C 138.703125 128.746094 139.136719 129.785156 137.753906 129.65625 C 137.585938 129.121094 138.015625 128.976562 138.140625 128.628906 C 136.894531 128.488281 136.9375 129.117188 136.1875 128.644531 C 136.082031 127.050781 136.28125 125.65625 137.722656 125.0625 C 129.890625 123.4375 123.542969 119.292969 117 116.035156 C 117.171875 114.453125 119.152344 114.035156 119.3125 112.445312 C 124.085938 111.507812 127.15625 111.039062 132.929688 110.8125 C 133.859375 110.304688 132.210938 109.386719 133.308594 108.765625 C 134.945312 109.007812 137.234375 108.933594 138.367188 107.707031 C 136.9375 107.34375 136.234375 107.632812 134.46875 107.226562 C 134.726562 106.632812 135.761719 106.53125 136.019531 105.9375 C 133.542969 104.476562 137.484375 102.199219 135.976562 100.578125 C 136.636719 99.988281 138.171875 100.980469 139.484375 100.808594 C 137.4375 100.023438 141.574219 100.355469 142.203125 99.765625 C 142.039062 99.238281 138.953125 100.34375 139.867188 99.273438 C 135.96875 99.675781 137.113281 99.109375 134.023438 99.320312 C 134.496094 95.4375 140.488281 93.9375 146.828125 92.078125 C 145.9375 91.304688 144.464844 89.828125 145.242188 88.773438 C 144.710938 88.285156 143.0625 89.210938 142.128906 89.300781 C 142.128906 88.539062 143.136719 88.429688 143.285156 87.765625 C 142.363281 87.152344 142.558594 88.152344 141.339844 88.03125 C 142.484375 86.53125 144.601562 87.015625 146.390625 86.210938 C 144.621094 85.242188 142.769531 86.167969 140.550781 86.257812 C 140.714844 85.851562 141.769531 86.023438 141.324219 85.230469 C 140.214844 85.191406 140.566406 86.097656 138.988281 85.757812 C 138.792969 84.957031 140.179688 85.167969 139.757812 84.222656 C 137.75 84.519531 135.300781 84.761719 133.527344 84.519531 C 133.519531 83.582031 134.882812 83.535156 135.464844 82.976562 C 134.171875 82.5625 133.265625 83.238281 131.574219 83.257812 C 131.414062 82.136719 131.402344 80.957031 134.28125 80.6875 C 134.152344 80.09375 134.339844 79.707031 134.660156 79.40625 C 133.027344 78.6875 132.308594 79.128906 128.8125 78.9375 C 128.191406 77.792969 130.425781 76.9375 129.960938 76.121094 C 128.886719 74.261719 126.714844 74.613281 123.703125 74.636719 C 124.953125 73.605469 124.371094 72.945312 125.632812 72.070312 C 123.6875 71.304688 125.121094 70.363281 125.21875 68.757812 C 125.917969 68.71875 126.042969 69.0625 126.777344 69 C 127.664062 66.269531 134.480469 67.363281 135.316406 64.601562 C 133.515625 64.09375 134.628906 61.644531 132.953125 61.042969 C 135.125 57.703125 133.167969 51.699219 140.28125 51.546875 C 139.867188 50.453125 138.597656 49.933594 136.375 50.046875 C 136.730469 48.875 135.542969 48.71875 134.03125 48.785156 C 134.652344 47.484375 134.886719 47.394531 133.238281 46.75 C 135.003906 44.503906 134.542969 42.242188 136.296875 39.070312 C 152.390625 39.960938 174.71875 39.917969 188.902344 40.722656 C 189.277344 40.714844 189.199219 40.410156 189.285156 40.210938 C 192.371094 41.621094 197.144531 40.796875 200.1875 39.875 C 199.984375 40.082031 199.789062 40.292969 199.808594 40.644531 C 201.507812 40.808594 201.996094 40.199219 203.699219 40.363281 C 207.050781 40.902344 219.464844 39.300781 227.449219 39.167969 C 236.214844 39.019531 245.339844 37.828125 249.636719 36.703125 C 251.03125 38.890625 255.488281 38.046875 260.164062 37.902344 C 261.347656 37.796875 260.832031 38.828125 261.726562 38.910156 C 264.117188 37.773438 271.054688 39.523438 273.796875 38.058594 C 274.03125 37.390625 273.636719 37.140625 272.628906 37.296875 C 275.386719 36.394531 278.851562 37.386719 281.972656 36.71875 C 281.714844 36.460938 281.074219 36.460938 281.1875 35.957031 C 286.515625 36.242188 292.171875 37.082031 295.617188 38.402344 C 297.511719 37.875 298.683594 38.667969 300.296875 38.878906 C 304.929688 39.480469 311.921875 38.304688 317.433594 38.238281 C 334.417969 38.027344 351.109375 39.429688 366.910156 38.386719 C 367.167969 38.640625 367.808594 38.640625 367.691406 39.144531 C 380.027344 38.949219 389.855469 38.027344 401.960938 38.128906 C 402.078125 37.453125 401.148438 37.476562 400.398438 37.371094 C 403.496094 37.097656 406.414062 38.050781 408.976562 38.582031 C 411.675781 36.796875 413.769531 38.828125 417.546875 38.777344 C 417.769531 39.339844 416.808594 39.144531 416.773438 39.550781 C 429.445312 40.429688 440.777344 36.457031 453.769531 38.507812 C 454.269531 38.070312 455.046875 37.808594 456.101562 37.730469 C 455.738281 39.363281 452.132812 38.894531 450.273438 39.554688 C 456.246094 39.597656 463.449219 38.761719 470.53125 40.171875 C 472.996094 37.78125 480.050781 39.234375 485.710938 38.53125 C 485.820312 38.945312 485.347656 38.972656 485.324219 39.300781 C 487.164062 39.273438 488.285156 39.730469 490.003906 39.773438 C 490.03125 38.90625 488.558594 39.03125 487.273438 39.03125 C 490.382812 37.765625 494.742188 39.941406 496.21875 37.429688 C 498.332031 37.726562 499.746094 37.726562 500.890625 36.882812 C 501.003906 37.296875 500.527344 37.324219 500.507812 37.65625 C 511.292969 39.070312 523.5625 38.898438 537.519531 38.914062 C 537.339844 37.925781 534.835938 38.484375 534.007812 37.921875 C 547.238281 36.648438 562.160156 40.421875 575.683594 37.609375 C 573.753906 36.816406 569.378906 36.96875 567.886719 36.652344 C 567.078125 36.507812 565.332031 36.988281 565.164062 36.414062 C 569.605469 36.515625 571.136719 35.757812 574.898438 35.832031 C 575.5 35.542969 575.703125 34.996094 576.839844 35.054688 C 575.996094 35.59375 577.039062 35.78125 576.851562 36.585938 C 578.535156 36.824219 579.007812 36.28125 579.964844 36.050781 C 582.101562 37.171875 584.078125 36.726562 586.589844 36 C 600.109375 38.480469 617.375 36.296875 632.5625 37.1875 C 628.894531 38.453125 623.445312 37.179688 620.105469 38.816406 C 620.78125 39.476562 623.972656 38.46875 623.234375 40.070312 C 624.902344 40.214844 624.816406 39.226562 626.347656 39.28125 C 626.847656 39.613281 626.851562 40.222656 626.355469 40.5625 C 629.519531 39.941406 635.386719 40.058594 639.214844 41.488281 C 638.046875 41.496094 636.882812 41.503906 635.707031 41.511719 C 643.804688 42.125 656.308594 43.601562 665.71875 43.335938 C 666.566406 44.636719 667.371094 43.371094 670.410156 44.058594 Z M 390.292969 39.746094 C 392.222656 39.609375 394.261719 39.910156 392.636719 40.746094 C 394.21875 40.839844 394.625 40.171875 395.742188 39.960938 C 394.097656 39.957031 394.816406 39.386719 395.347656 38.945312 C 393.84375 39.878906 390.527344 38.0625 390.292969 39.746094 Z M 579.601562 38.089844 C 579.113281 38.039062 578.800781 37.699219 578.820312 38.347656 C 580.816406 38.300781 582.714844 38.070312 583.886719 38.308594 C 583.765625 37.226562 580.511719 37.414062 579.601562 38.089844 Z M 472.128906 44.496094 C 471.757812 45.433594 474.308594 45.027344 474.078125 44.484375 C 473.109375 44.464844 472.871094 44.015625 472.128906 44.496094 Z M 474.859375 44.988281 C 476.167969 44.816406 478.480469 45.292969 479.144531 44.703125 C 477.066406 44.578125 476.195312 43.875 474.859375 44.988281 Z M 416.910156 57.160156 C 418.023438 57.925781 420.222656 56.96875 420.421875 57.898438 C 421.582031 57.90625 422.394531 57.132812 423.148438 57.625 C 423.144531 57.285156 423.144531 56.949219 423.140625 56.605469 C 421.207031 56.882812 418.550781 56.691406 416.910156 57.160156 Z M 599.3125 69.59375 C 600.480469 69.332031 602.144531 69.382812 602.421875 68.550781 C 600.894531 68.578125 599 68.375 599.3125 69.59375 Z M 607.894531 71.316406 C 613.285156 70.808594 605.5625 70.578125 604.777344 71.339844 C 606.074219 71.28125 607.089844 71.390625 607.894531 71.316406 Z M 254.695312 87.960938 C 255 88.167969 257.078125 88.214844 257.023438 87.4375 C 255.992188 87.449219 254.730469 87.3125 254.695312 87.960938 Z M 370.882812 101.90625 C 371.378906 100.957031 368.566406 100.910156 368.152344 101.417969 C 369.679688 101.164062 369.144531 102.296875 370.882812 101.90625 Z M 377.113281 101.855469 C 380.578125 102.300781 383.464844 101.847656 387.632812 102.035156 C 385.503906 101.675781 379.269531 100.878906 377.113281 101.855469 Z M 397.375 101.96875 C 396.761719 101.949219 396.023438 102.015625 396.203125 101.464844 C 393.84375 102.003906 390.261719 101.425781 388.410156 101.523438 C 392.695312 102.367188 394.730469 102.550781 397.375 101.96875 Z M 356.480469 103.289062 C 353.832031 103.703125 350.09375 102.628906 349.078125 103.597656 C 353.648438 104.28125 363.746094 104.554688 368.945312 103.449219 C 364.828125 103.1875 362.308594 102.585938 358.425781 103.019531 C 361.453125 103.945312 355.722656 102.695312 355.699219 102.785156 C 356.136719 102.835938 356.304688 103.066406 356.480469 103.289062 Z M 400.109375 102.964844 C 401.019531 102.960938 401.921875 102.953125 402.832031 102.945312 C 402.988281 101.917969 400.1875 102.542969 400.109375 102.964844 Z M 370.117188 103.441406 C 369.878906 103.457031 369.65625 103.488281 369.726562 103.699219 C 371.4375 103.820312 376.742188 103.488281 372.449219 103.425781 C 371.640625 102.871094 371.191406 103.660156 370.503906 103.183594 C 370.476562 103.027344 370.441406 102.882812 370.109375 102.929688 C 370.113281 103.101562 370.113281 103.273438 370.117188 103.441406 Z M 347.925781 105.136719 C 347.53125 105.652344 346.476562 105.734375 345.984375 106.171875 C 354.464844 106.570312 368.933594 106.222656 378.703125 105.929688 C 370.054688 104.554688 358.160156 106.011719 347.925781 105.136719 Z M 627.699219 115.316406 C 631.699219 116.933594 637.511719 117.53125 642.511719 117.253906 C 637.40625 117.027344 631.796875 114.523438 627.699219 115.316406 Z M 610.578125 118 C 611.832031 118.765625 615.136719 118.601562 616.417969 117.957031 C 616.316406 118.539062 616.519531 118.914062 617.207031 118.972656 C 617.875 118.445312 616.910156 118.476562 617.585938 117.945312 C 615.429688 116.945312 613.144531 117.460938 610.578125 118 Z M 603.566406 118.304688 C 605.125 118.210938 605.730469 118.742188 607.464844 118.53125 C 607.332031 117.230469 603.589844 117.773438 603.566406 118.304688 Z M 637.472656 120.351562 C 638.742188 120.570312 639.898438 120.523438 642.148438 120.574219 C 642.109375 119.398438 638.777344 120.132812 637.472656 120.351562 Z M 290.46875 132.105469 C 289.507812 132.542969 286.6875 131.644531 285.40625 132.398438 C 286.273438 133.167969 289.898438 133.023438 290.46875 132.105469 Z M 459.933594 133.410156 C 458.507812 133.605469 457.765625 132.796875 456.820312 133.433594 C 458.265625 134.585938 461.511719 134.226562 464.222656 134.140625 C 468.597656 134.003906 472.726562 133.359375 477.074219 133.792969 C 472.933594 132.394531 463.171875 133.171875 459.933594 133.410156 Z M 483.304688 133.488281 C 485.019531 133.796875 489.042969 133.511719 491.488281 132.917969 C 488.628906 133.222656 483.707031 131.960938 483.304688 133.488281 Z M 507.066406 132.800781 C 506.984375 133.933594 503.257812 132.71875 503.179688 133.851562 C 505.128906 134.257812 506.519531 133.90625 508.246094 133.5625 C 508.4375 134.230469 508.554688 134.417969 509.425781 135.082031 C 517.527344 132.835938 525.386719 136.414062 533.179688 134.140625 C 524.59375 133.03125 515.632812 134.269531 507.066406 132.800781 Z M 435.398438 134.351562 C 433.414062 134.355469 430.898438 133.269531 429.953125 134.90625 C 436.960938 135.316406 443.925781 135.121094 450.976562 133.730469 C 445.914062 133.707031 440.296875 134.339844 435.398438 134.351562 Z M 435.398438 134.351562 " fill-opacity="1" fill-rule="evenodd"/></g><g fill="#000000" fill-opacity="1"><g transform="translate(285.98164, 106.500015)"><g><path d="M 4.828125 -43.34375 C 4.828125 -43.945312 4.960938 -44.375 5.234375 -44.625 C 5.515625 -44.882812 5.9375 -45.015625 6.5 -45.015625 L 33.4375 -45.015625 C 34.59375 -45.015625 35.171875 -44.457031 35.171875 -43.34375 L 35.171875 -36.40625 C 35.171875 -35.800781 35.03125 -35.367188 34.75 -35.109375 C 34.476562 -34.859375 34.039062 -34.734375 33.4375 -34.734375 L 16.984375 -34.734375 C 16.597656 -34.734375 16.335938 -34.65625 16.203125 -34.5 C 16.078125 -34.351562 16.015625 -34.109375 16.015625 -33.765625 L 16.015625 -1.671875 C 16.015625 -1.066406 15.875 -0.632812 15.59375 -0.375 C 15.3125 -0.125 14.875 0 14.28125 0 L 6.5 0 C 5.9375 0 5.515625 -0.140625 5.234375 -0.421875 C 4.960938 -0.703125 4.828125 -1.117188 4.828125 -1.671875 Z M 4.828125 -43.34375 "/></g></g></g><g fill="#000000" fill-opacity="1"><g transform="translate(319.166735, 106.500015)"><g><path d="M 2.25 -15.625 C 2.25 -18.84375 2.988281 -21.71875 4.46875 -24.25 C 5.945312 -26.78125 8.003906 -28.75 10.640625 -30.15625 C 13.273438 -31.570312 16.285156 -32.28125 19.671875 -32.28125 C 23.066406 -32.28125 26.09375 -31.570312 28.75 -30.15625 C 31.40625 -28.75 33.472656 -26.789062 34.953125 -24.28125 C 36.429688 -21.769531 37.171875 -18.925781 37.171875 -15.75 C 37.171875 -12.582031 36.429688 -9.742188 34.953125 -7.234375 C 33.472656 -4.722656 31.394531 -2.757812 28.71875 -1.34375 C 26.039062 0.0625 23.003906 0.765625 19.609375 0.765625 C 16.222656 0.765625 13.210938 0.0703125 10.578125 -1.3125 C 7.941406 -2.707031 5.894531 -4.660156 4.4375 -7.171875 C 2.976562 -9.679688 2.25 -12.5 2.25 -15.625 Z M 19.609375 -8.9375 C 20.773438 -8.9375 21.847656 -9.222656 22.828125 -9.796875 C 23.816406 -10.378906 24.609375 -11.1875 25.203125 -12.21875 C 25.804688 -13.25 26.109375 -14.425781 26.109375 -15.75 C 26.109375 -17.082031 25.804688 -18.265625 25.203125 -19.296875 C 24.609375 -20.328125 23.816406 -21.128906 22.828125 -21.703125 C 21.847656 -22.285156 20.773438 -22.578125 19.609375 -22.578125 C 18.453125 -22.578125 17.390625 -22.285156 16.421875 -21.703125 C 15.460938 -21.128906 14.703125 -20.328125 14.140625 -19.296875 C 13.585938 -18.265625 13.3125 -17.082031 13.3125 -15.75 C 13.3125 -14.425781 13.585938 -13.25 14.140625 -12.21875 C 14.703125 -11.1875 15.460938 -10.378906 16.421875 -9.796875 C 17.390625 -9.222656 18.453125 -8.9375 19.609375 -8.9375 Z M 19.609375 -8.9375 "/></g></g></g><g fill="#000000" fill-opacity="1"><g transform="translate(355.631775, 106.500015)"><g><path d="M 9.84375 -21.09375 C 9.84375 -21.476562 9.765625 -21.734375 9.609375 -21.859375 C 9.460938 -21.992188 9.238281 -22.0625 8.9375 -22.0625 L 2.765625 -22.0625 C 2.203125 -22.0625 1.78125 -22.195312 1.5 -22.46875 C 1.226562 -22.75 1.09375 -23.171875 1.09375 -23.734375 L 1.09375 -29.78125 C 1.09375 -30.375 1.21875 -30.8125 1.46875 -31.09375 C 1.726562 -31.375 2.160156 -31.515625 2.765625 -31.515625 L 27.65625 -31.515625 C 28.257812 -31.515625 28.6875 -31.375 28.9375 -31.09375 C 29.195312 -30.8125 29.328125 -30.375 29.328125 -29.78125 L 29.328125 -23.734375 C 29.328125 -23.171875 29.195312 -22.75 28.9375 -22.46875 C 28.6875 -22.195312 28.257812 -22.0625 27.65625 -22.0625 L 21.484375 -22.0625 C 21.140625 -22.0625 20.890625 -21.984375 20.734375 -21.828125 C 20.585938 -21.679688 20.515625 -21.4375 20.515625 -21.09375 L 20.515625 -1.671875 C 20.515625 -1.066406 20.375 -0.632812 20.09375 -0.375 C 19.8125 -0.125 19.375 0 18.78125 0 L 11.515625 0 C 10.953125 0 10.53125 -0.140625 10.25 -0.421875 C 9.976562 -0.703125 9.84375 -1.117188 9.84375 -1.671875 Z M 9.84375 -21.09375 "/></g></g></g><g fill="#000000" fill-opacity="1"><g transform="translate(383.093051, 106.500015)"><g><path d="M 4.1875 -30.359375 C 4.1875 -31.128906 4.632812 -31.515625 5.53125 -31.515625 L 19.484375 -31.515625 C 24.117188 -31.515625 27.632812 -30.828125 30.03125 -29.453125 C 32.4375 -28.078125 33.640625 -25.828125 33.640625 -22.703125 C 33.640625 -21.160156 33.1875 -19.84375 32.28125 -18.75 C 31.382812 -17.65625 30.226562 -16.875 28.8125 -16.40625 C 30.613281 -15.96875 32.0625 -15.117188 33.15625 -13.859375 C 34.25 -12.597656 34.796875 -11.128906 34.796875 -9.453125 C 34.796875 -3.148438 29.691406 0 19.484375 0 L 5.53125 0 C 4.632812 0 4.1875 -0.382812 4.1875 -1.15625 Z M 18.140625 -19.234375 C 19.890625 -19.234375 21.109375 -19.445312 21.796875 -19.875 C 22.484375 -20.300781 22.828125 -21.007812 22.828125 -22 C 22.828125 -22.976562 22.484375 -23.671875 21.796875 -24.078125 C 21.109375 -24.492188 19.890625 -24.703125 18.140625 -24.703125 L 15.5 -24.703125 C 15.195312 -24.703125 14.992188 -24.644531 14.890625 -24.53125 C 14.785156 -24.425781 14.734375 -24.242188 14.734375 -23.984375 L 14.734375 -19.9375 C 14.734375 -19.675781 14.785156 -19.492188 14.890625 -19.390625 C 14.992188 -19.285156 15.195312 -19.234375 15.5 -19.234375 Z M 18.78125 -6.8125 C 20.707031 -6.8125 22.035156 -7.035156 22.765625 -7.484375 C 23.492188 -7.941406 23.859375 -8.6875 23.859375 -9.71875 C 23.859375 -10.695312 23.472656 -11.398438 22.703125 -11.828125 C 21.929688 -12.265625 20.625 -12.484375 18.78125 -12.484375 L 15.5 -12.484375 C 15.195312 -12.484375 14.992188 -12.4375 14.890625 -12.34375 C 14.785156 -12.257812 14.734375 -12.066406 14.734375 -11.765625 L 14.734375 -7.53125 C 14.734375 -7.269531 14.785156 -7.082031 14.890625 -6.96875 C 14.992188 -6.863281 15.195312 -6.8125 15.5 -6.8125 Z M 18.78125 -6.8125 "/></g></g></g><g fill="#000000" fill-opacity="1"><g transform="translate(416.856953, 106.500015)"><g><path d="M 32.859375 -5.59375 C 33.078125 -5.164062 33.1875 -4.800781 33.1875 -4.5 C 33.1875 -4.03125 32.863281 -3.5625 32.21875 -3.09375 C 30.375 -1.757812 28.378906 -0.78125 26.234375 -0.15625 C 24.097656 0.457031 21.613281 0.765625 18.78125 0.765625 C 15.4375 0.765625 12.519531 0.0703125 10.03125 -1.3125 C 7.539062 -2.707031 5.617188 -4.648438 4.265625 -7.140625 C 2.921875 -9.628906 2.25 -12.457031 2.25 -15.625 C 2.25 -18.84375 2.929688 -21.71875 4.296875 -24.25 C 5.671875 -26.78125 7.601562 -28.75 10.09375 -30.15625 C 12.582031 -31.570312 15.4375 -32.28125 18.65625 -32.28125 C 21.863281 -32.28125 24.675781 -31.582031 27.09375 -30.1875 C 29.519531 -28.800781 31.398438 -26.875 32.734375 -24.40625 C 34.066406 -21.9375 34.734375 -19.097656 34.734375 -15.890625 L 34.734375 -14.15625 C 34.734375 -13.71875 34.644531 -13.410156 34.46875 -13.234375 C 34.300781 -13.066406 34.023438 -12.984375 33.640625 -12.984375 L 13.1875 -12.984375 C 13.4375 -11.273438 14.171875 -9.945312 15.390625 -9 C 16.617188 -8.0625 18.113281 -7.59375 19.875 -7.59375 C 21.457031 -7.59375 22.890625 -7.796875 24.171875 -8.203125 C 25.460938 -8.609375 26.753906 -9.195312 28.046875 -9.96875 C 28.640625 -10.351562 29.109375 -10.546875 29.453125 -10.546875 C 29.835938 -10.546875 30.179688 -10.289062 30.484375 -9.78125 Z M 23.734375 -19.75 C 23.597656 -21.207031 23.09375 -22.375 22.21875 -23.25 C 21.34375 -24.125 20.15625 -24.5625 18.65625 -24.5625 C 17.320312 -24.5625 16.191406 -24.15625 15.265625 -23.34375 C 14.347656 -22.53125 13.695312 -21.332031 13.3125 -19.75 Z M 23.734375 -19.75 "/></g></g></g><g fill="#000000" fill-opacity="1"><g transform="translate(450.878108, 106.500015)"><g><path d="M 4.1875 -29.84375 C 4.1875 -30.4375 4.320312 -30.863281 4.59375 -31.125 C 4.875 -31.382812 5.296875 -31.515625 5.859375 -31.515625 L 13.25 -31.515625 C 13.851562 -31.515625 14.289062 -31.382812 14.5625 -31.125 C 14.84375 -30.863281 14.984375 -30.4375 14.984375 -29.84375 L 14.984375 -21.28125 C 14.984375 -20.851562 15.195312 -20.640625 15.625 -20.640625 L 23.46875 -20.640625 C 23.894531 -20.640625 24.109375 -20.851562 24.109375 -21.28125 L 24.109375 -29.84375 C 24.109375 -30.4375 24.25 -30.863281 24.53125 -31.125 C 24.8125 -31.382812 25.253906 -31.515625 25.859375 -31.515625 L 33.25 -31.515625 C 33.851562 -31.515625 34.28125 -31.382812 34.53125 -31.125 C 34.789062 -30.863281 34.921875 -30.4375 34.921875 -29.84375 L 34.921875 -1.671875 C 34.921875 -1.117188 34.789062 -0.703125 34.53125 -0.421875 C 34.28125 -0.140625 33.851562 0 33.25 0 L 25.859375 0 C 25.253906 0 24.8125 -0.125 24.53125 -0.375 C 24.25 -0.632812 24.109375 -1.066406 24.109375 -1.671875 L 24.109375 -10.484375 C 24.109375 -10.953125 23.894531 -11.1875 23.46875 -11.1875 L 15.625 -11.1875 C 15.195312 -11.1875 14.984375 -10.953125 14.984375 -10.484375 L 14.984375 -1.671875 C 14.984375 -1.066406 14.84375 -0.632812 14.5625 -0.375 C 14.289062 -0.125 13.851562 0 13.25 0 L 5.859375 0 C 5.296875 0 4.875 -0.140625 4.59375 -0.421875 C 4.320312 -0.703125 4.1875 -1.117188 4.1875 -1.671875 Z M 4.1875 -29.84375 "/></g></g></g><g fill="#000000" fill-opacity="1"><g transform="translate(487.021592, 106.500015)"><g><path d="M 32.859375 -5.59375 C 33.078125 -5.164062 33.1875 -4.800781 33.1875 -4.5 C 33.1875 -4.03125 32.863281 -3.5625 32.21875 -3.09375 C 30.375 -1.757812 28.378906 -0.78125 26.234375 -0.15625 C 24.097656 0.457031 21.613281 0.765625 18.78125 0.765625 C 15.4375 0.765625 12.519531 0.0703125 10.03125 -1.3125 C 7.539062 -2.707031 5.617188 -4.648438 4.265625 -7.140625 C 2.921875 -9.628906 2.25 -12.457031 2.25 -15.625 C 2.25 -18.84375 2.929688 -21.71875 4.296875 -24.25 C 5.671875 -26.78125 7.601562 -28.75 10.09375 -30.15625 C 12.582031 -31.570312 15.4375 -32.28125 18.65625 -32.28125 C 21.863281 -32.28125 24.675781 -31.582031 27.09375 -30.1875 C 29.519531 -28.800781 31.398438 -26.875 32.734375 -24.40625 C 34.066406 -21.9375 34.734375 -19.097656 34.734375 -15.890625 L 34.734375 -14.15625 C 34.734375 -13.71875 34.644531 -13.410156 34.46875 -13.234375 C 34.300781 -13.066406 34.023438 -12.984375 33.640625 -12.984375 L 13.1875 -12.984375 C 13.4375 -11.273438 14.171875 -9.945312 15.390625 -9 C 16.617188 -8.0625 18.113281 -7.59375 19.875 -7.59375 C 21.457031 -7.59375 22.890625 -7.796875 24.171875 -8.203125 C 25.460938 -8.609375 26.753906 -9.195312 28.046875 -9.96875 C 28.640625 -10.351562 29.109375 -10.546875 29.453125 -10.546875 C 29.835938 -10.546875 30.179688 -10.289062 30.484375 -9.78125 Z M 23.734375 -19.75 C 23.597656 -21.207031 23.09375 -22.375 22.21875 -23.25 C 21.34375 -24.125 20.15625 -24.5625 18.65625 -24.5625 C 17.320312 -24.5625 16.191406 -24.15625 15.265625 -23.34375 C 14.347656 -22.53125 13.695312 -21.332031 13.3125 -19.75 Z M 23.734375 -19.75 "/></g></g></g></svg>