<svg xmlns="http://www.w3.org/2000/svg" xmlns:xlink="http://www.w3.org/1999/xlink" width="1080" zoomAndPan="magnify" viewBox="0 0 810 809.999993" height="1080" preserveAspectRatio="xMidYMid meet" version="1.0"><defs><g/><clipPath id="23a911ddd2"><path d="M 36.164062 685 L 774 685 L 774 688 L 36.164062 688 Z M 36.164062 685 " clip-rule="nonzero"/></clipPath><clipPath id="adec8863ab"><path d="M 221 629 L 376 629 L 376 777.855469 L 221 777.855469 Z M 221 629 " clip-rule="nonzero"/></clipPath><clipPath id="d719a20576"><path d="M 552 209.355469 L 632 209.355469 L 632 323 L 552 323 Z M 552 209.355469 " clip-rule="nonzero"/></clipPath><clipPath id="64ecbf5681"><path d="M 68.21875 63.082031 L 741.71875 63.082031 L 741.71875 188 L 68.21875 188 Z M 68.21875 63.082031 " clip-rule="nonzero"/></clipPath></defs><rect x="-81" width="972" fill="#ffffff" y="-80.999999" height="971.999992" fill-opacity="1"/><rect x="-81" width="972" fill="#fff9f0" y="-80.999999" height="971.999992" fill-opacity="1"/><g clip-path="url(#23a911ddd2)"><path fill="#3f3d56" d="M 773.96875 686.746094 C 773.96875 687.414062 773.433594 687.949219 772.769531 687.949219 L 37.558594 687.949219 C 36.890625 687.949219 36.355469 687.414062 36.355469 686.746094 C 36.355469 686.421875 36.476562 686.140625 36.679688 685.929688 L 127.253906 685.929688 C 129.179688 685.929688 131.070312 685.796875 132.925781 685.542969 L 772.769531 685.542969 C 773.433594 685.542969 773.96875 686.078125 773.96875 686.746094 Z M 773.96875 686.746094 " fill-opacity="1" fill-rule="nonzero"/></g><path fill="#e6e6e6" d="M 112.019531 487.0625 L 186.34375 487.0625 L 186.34375 670.363281 L 112.019531 670.363281 Z M 112.019531 487.0625 " fill-opacity="1" fill-rule="nonzero"/><path fill="#e6e6e6" d="M 151.320312 540.015625 C 151.320312 558.574219 136.277344 573.621094 117.722656 573.621094 C 99.167969 573.621094 84.125 558.574219 84.125 540.015625 C 84.125 521.457031 99.167969 506.410156 117.722656 506.410156 C 136.277344 506.410156 151.320312 521.457031 151.320312 540.015625 Z M 151.320312 540.015625 " fill-opacity="1" fill-rule="nonzero"/><path fill="#e6e6e6" d="M 96.039062 540.21875 C 96.039062 540.835938 95.980469 541.445312 95.859375 542.046875 C 95.738281 542.652344 95.5625 543.238281 95.324219 543.804688 C 95.089844 544.375 94.800781 544.914062 94.460938 545.425781 C 94.117188 545.9375 93.730469 546.410156 93.296875 546.84375 C 92.859375 547.28125 92.386719 547.667969 91.875 548.011719 C 91.363281 548.351562 90.824219 548.640625 90.257812 548.875 C 89.6875 549.113281 89.101562 549.289062 88.5 549.410156 C 87.894531 549.527344 87.285156 549.589844 86.671875 549.589844 C 86.054688 549.589844 85.449219 549.527344 84.84375 549.410156 C 84.242188 549.289062 83.65625 549.113281 83.085938 548.875 C 82.519531 548.640625 81.980469 548.351562 81.46875 548.011719 C 80.957031 547.667969 80.484375 547.28125 80.046875 546.84375 C 79.613281 546.410156 79.226562 545.9375 78.882812 545.425781 C 78.542969 544.914062 78.253906 544.375 78.015625 543.804688 C 77.78125 543.238281 77.605469 542.652344 77.484375 542.046875 C 77.363281 541.445312 77.304688 540.835938 77.304688 540.21875 C 77.304688 539.605469 77.363281 538.996094 77.484375 538.390625 C 77.605469 537.789062 77.78125 537.203125 78.015625 536.632812 C 78.253906 536.066406 78.542969 535.527344 78.882812 535.015625 C 79.226562 534.503906 79.613281 534.03125 80.046875 533.59375 C 80.484375 533.160156 80.957031 532.773438 81.46875 532.429688 C 81.980469 532.089844 82.519531 531.800781 83.085938 531.5625 C 83.65625 531.328125 84.242188 531.152344 84.84375 531.03125 C 85.449219 530.910156 86.054688 530.851562 86.671875 530.851562 C 87.285156 530.851562 87.894531 530.910156 88.5 531.03125 C 89.101562 531.152344 89.6875 531.328125 90.257812 531.5625 C 90.824219 531.800781 91.363281 532.089844 91.875 532.429688 C 92.386719 532.773438 92.859375 533.160156 93.296875 533.59375 C 93.730469 534.03125 94.117188 534.503906 94.460938 535.015625 C 94.800781 535.527344 95.089844 536.066406 95.324219 536.632812 C 95.5625 537.203125 95.738281 537.789062 95.859375 538.390625 C 95.980469 538.996094 96.039062 539.605469 96.039062 540.21875 Z M 96.039062 540.21875 " fill-opacity="1" fill-rule="nonzero"/><path fill="#e6e6e6" d="M 210.371094 539.8125 C 210.371094 550.609375 201.621094 559.363281 190.824219 559.363281 C 180.027344 559.363281 171.277344 550.609375 171.277344 539.8125 C 171.277344 529.015625 180.027344 520.261719 190.824219 520.261719 C 201.621094 520.261719 210.371094 529.015625 210.371094 539.8125 Z M 210.371094 539.8125 " fill-opacity="1" fill-rule="nonzero"/><path fill="#e6e6e6" d="M 219.738281 539.8125 C 219.738281 540.429688 219.679688 541.039062 219.558594 541.640625 C 219.441406 542.246094 219.261719 542.832031 219.027344 543.398438 C 218.792969 543.96875 218.503906 544.507812 218.160156 545.019531 C 217.820312 545.53125 217.429688 546.003906 216.996094 546.4375 C 216.5625 546.871094 216.089844 547.261719 215.578125 547.601562 C 215.066406 547.945312 214.527344 548.234375 213.957031 548.46875 C 213.390625 548.703125 212.804688 548.882812 212.199219 549.003906 C 211.597656 549.121094 210.988281 549.183594 210.371094 549.183594 C 209.757812 549.183594 209.148438 549.121094 208.546875 549.003906 C 207.941406 548.882812 207.355469 548.703125 206.789062 548.46875 C 206.21875 548.234375 205.679688 547.945312 205.167969 547.601562 C 204.65625 547.261719 204.183594 546.875 203.75 546.4375 C 203.3125 546.003906 202.925781 545.53125 202.585938 545.019531 C 202.242188 544.507812 201.953125 543.96875 201.71875 543.398438 C 201.484375 542.832031 201.304688 542.246094 201.1875 541.640625 C 201.066406 541.039062 201.003906 540.429688 201.003906 539.8125 C 201.003906 539.199219 201.066406 538.589844 201.1875 537.984375 C 201.304688 537.382812 201.484375 536.796875 201.71875 536.226562 C 201.953125 535.660156 202.242188 535.121094 202.585938 534.609375 C 202.925781 534.097656 203.3125 533.625 203.75 533.1875 C 204.183594 532.753906 204.65625 532.363281 205.167969 532.023438 C 205.679688 531.679688 206.21875 531.394531 206.789062 531.15625 C 207.355469 530.921875 207.941406 530.746094 208.546875 530.625 C 209.148438 530.503906 209.757812 530.445312 210.371094 530.445312 C 210.988281 530.445312 211.597656 530.503906 212.199219 530.625 C 212.804688 530.746094 213.390625 530.921875 213.957031 531.15625 C 214.527344 531.394531 215.066406 531.679688 215.578125 532.023438 C 216.089844 532.363281 216.5625 532.753906 216.996094 533.1875 C 217.429688 533.625 217.820312 534.097656 218.160156 534.609375 C 218.503906 535.121094 218.792969 535.660156 219.027344 536.226562 C 219.261719 536.796875 219.441406 537.382812 219.558594 537.984375 C 219.679688 538.589844 219.738281 539.199219 219.738281 539.8125 Z M 219.738281 539.8125 " fill-opacity="1" fill-rule="nonzero"/><path fill="#e6e6e6" d="M 159.464844 420.871094 C 159.464844 421.488281 159.40625 422.097656 159.285156 422.699219 C 159.167969 423.304688 158.988281 423.890625 158.753906 424.457031 C 158.519531 425.027344 158.230469 425.566406 157.886719 426.078125 C 157.546875 426.589844 157.15625 427.0625 156.722656 427.496094 C 156.289062 427.933594 155.816406 428.320312 155.304688 428.664062 C 154.792969 429.003906 154.253906 429.292969 153.683594 429.527344 C 153.117188 429.765625 152.53125 429.941406 151.925781 430.0625 C 151.324219 430.183594 150.714844 430.242188 150.097656 430.242188 C 149.484375 430.242188 148.875 430.183594 148.273438 430.0625 C 147.667969 429.941406 147.082031 429.765625 146.515625 429.527344 C 145.945312 429.292969 145.40625 429.003906 144.894531 428.664062 C 144.382812 428.320312 143.910156 427.933594 143.476562 427.496094 C 143.039062 427.0625 142.652344 426.589844 142.3125 426.078125 C 141.96875 425.566406 141.679688 425.027344 141.445312 424.457031 C 141.210938 423.890625 141.03125 423.304688 140.914062 422.699219 C 140.792969 422.097656 140.730469 421.488281 140.730469 420.871094 C 140.730469 420.257812 140.792969 419.648438 140.914062 419.046875 C 141.03125 418.441406 141.210938 417.855469 141.445312 417.289062 C 141.679688 416.71875 141.96875 416.179688 142.3125 415.667969 C 142.652344 415.15625 143.039062 414.683594 143.476562 414.246094 C 143.910156 413.8125 144.382812 413.425781 144.894531 413.082031 C 145.40625 412.742188 145.945312 412.453125 146.515625 412.21875 C 147.082031 411.980469 147.667969 411.804688 148.273438 411.683594 C 148.875 411.5625 149.484375 411.503906 150.097656 411.503906 C 150.714844 411.503906 151.324219 411.5625 151.925781 411.683594 C 152.53125 411.804688 153.117188 411.980469 153.683594 412.21875 C 154.253906 412.453125 154.792969 412.742188 155.304688 413.082031 C 155.816406 413.425781 156.289062 413.8125 156.722656 414.246094 C 157.15625 414.683594 157.546875 415.15625 157.886719 415.667969 C 158.230469 416.179688 158.519531 416.71875 158.753906 417.289062 C 158.988281 417.855469 159.167969 418.441406 159.285156 419.046875 C 159.40625 419.648438 159.464844 420.257812 159.464844 420.871094 Z M 159.464844 420.871094 " fill-opacity="1" fill-rule="nonzero"/><path fill="#e6e6e6" d="M 104.894531 473.011719 L 196.933594 473.011719 C 201.65625 473.011719 205.484375 476.839844 205.484375 481.566406 C 205.484375 486.289062 201.65625 490.117188 196.933594 490.117188 L 104.894531 490.117188 C 100.171875 490.117188 96.34375 486.289062 96.34375 481.566406 C 96.34375 476.839844 100.171875 473.011719 104.894531 473.011719 Z M 104.894531 473.011719 " fill-opacity="1" fill-rule="nonzero"/><path fill="#e6e6e6" d="M 150.914062 430.242188 C 170.46875 430.242188 186.34375 446.121094 186.34375 465.679688 L 186.34375 478.304688 L 115.484375 478.304688 L 115.484375 465.679688 C 115.484375 446.121094 131.359375 430.242188 150.914062 430.242188 Z M 150.914062 430.242188 " fill-opacity="1" fill-rule="nonzero"/><path fill="#e6e6e6" d="M 91.964844 667.308594 L 206.402344 667.308594 L 206.402344 685.636719 L 91.964844 685.636719 Z M 91.964844 667.308594 " fill-opacity="1" fill-rule="nonzero"/><path fill="#3f3d56" d="M 246.554688 574.164062 C 255.605469 579.621094 256.5 582.199219 261.980469 584.449219 C 264.757812 585.589844 269.953125 587.15625 279.984375 585.738281 C 293.800781 583.777344 302.320312 578.195312 326.269531 565.160156 C 343.351562 555.863281 351.703125 551.796875 363.558594 549.726562 C 372.4375 548.179688 377.601562 548.742188 381.558594 549.726562 C 395.363281 553.164062 402.898438 563.8125 404.703125 566.445312 C 410.9375 575.542969 411.730469 584.429688 412.417969 592.167969 C 413.28125 601.914062 414.53125 615.996094 407.273438 626.890625 C 398.175781 640.539062 385.503906 634.488281 363.558594 647.464844 C 339.300781 661.804688 343.355469 675.949219 323.699219 683.472656 C 298.546875 693.101562 271.160156 677.882812 269.695312 677.042969 C 243.65625 662.105469 238.324219 634.996094 224.695312 637.175781 C 216.550781 638.480469 215.738281 648.589844 202.835938 651.324219 C 200.421875 651.835938 190.488281 653.9375 183.550781 647.464844 C 179.289062 643.488281 179.421875 652.390625 181.621094 646.820312 C 184.449219 639.671875 190.148438 625.714844 193.835938 617.886719 C 195.808594 613.703125 193.585938 612.414062 195.121094 601.167969 C 195.875 595.675781 196.25 592.902344 197.695312 589.59375 C 201.269531 581.394531 208.207031 577.164062 213.125 574.164062 C 219.105469 570.511719 224.984375 566.925781 232.410156 567.734375 C 236.660156 568.195312 239.957031 570.183594 246.554688 574.164062 Z M 246.554688 574.164062 " fill-opacity="1" fill-rule="nonzero"/><path fill="#3f3d56" d="M 403.414062 605.027344 C 405.695312 606.894531 406.238281 610.683594 407.273438 617.886719 C 408.230469 624.550781 407.648438 628.636719 407.273438 635.890625 C 406.710938 646.777344 407.597656 645.765625 407.273438 660.324219 C 407.007812 672.304688 406.871094 678.296875 405.988281 683.472656 C 404.394531 692.78125 403.546875 689.203125 395.703125 713.050781 C 394.109375 717.890625 392.84375 721.996094 389.273438 723.339844 C 384.800781 725.023438 379.648438 721.261719 378.984375 720.765625 C 377.902344 719.957031 374.082031 717.09375 373.84375 713.050781 C 373.539062 707.921875 379.34375 706.625 384.128906 698.90625 C 387.117188 694.085938 387.835938 689.261719 389.273438 679.617188 C 390.640625 670.441406 391.320312 665.851562 389.273438 661.609375 C 385.53125 653.871094 376.976562 651.472656 376.414062 651.324219 C 371.296875 649.96875 369.640625 651.886719 363.558594 651.324219 C 357.867188 650.796875 348.492188 648.117188 346.84375 643.605469 C 342.316406 631.242188 392.519531 596.097656 403.414062 605.027344 Z M 403.414062 605.027344 " fill-opacity="1" fill-rule="nonzero"/><path fill="#3f3d56" d="M 382.84375 587.023438 C 385.125 588.890625 385.667969 592.679688 386.699219 599.882812 C 387.65625 606.546875 387.074219 610.632812 386.699219 617.886719 C 386.140625 628.773438 387.023438 627.757812 386.699219 642.320312 C 386.433594 654.300781 386.300781 660.292969 385.414062 665.46875 C 383.824219 674.777344 382.972656 671.199219 375.128906 695.046875 C 373.539062 699.886719 372.269531 703.992188 368.699219 705.335938 C 364.226562 707.019531 359.074219 703.257812 358.414062 702.761719 C 357.332031 701.949219 353.511719 699.085938 353.269531 695.046875 C 352.96875 689.917969 358.773438 688.617188 363.558594 680.902344 C 366.546875 676.082031 367.261719 671.257812 368.699219 661.609375 C 370.066406 652.4375 370.75 647.847656 368.699219 643.605469 C 364.960938 635.867188 356.40625 633.46875 355.84375 633.320312 C 350.722656 631.964844 349.070312 633.882812 342.984375 633.320312 C 337.292969 632.792969 327.921875 630.113281 326.269531 625.601562 C 321.746094 613.238281 371.949219 578.09375 382.84375 587.023438 Z M 382.84375 587.023438 " fill-opacity="1" fill-rule="nonzero"/><g clip-path="url(#adec8863ab)"><path fill="#3f3d56" d="M 344.269531 650.035156 C 345.71875 652.246094 347.378906 657.9375 350.699219 669.328125 C 352.179688 674.40625 361.769531 707.820312 364.84375 718.195312 C 365.726562 721.179688 366.871094 724.902344 369.984375 728.484375 C 372.609375 731.5 374.007812 731.402344 375.128906 733.628906 C 378.046875 739.414062 372.355469 747.578125 371.273438 749.058594 C 370.011719 750.785156 364.164062 758.800781 355.84375 758.0625 C 354.972656 757.984375 349.351562 757.484375 348.128906 754.203125 C 346.253906 749.175781 357.269531 744.457031 357.128906 736.199219 C 357.042969 731.324219 353.136719 729.304688 348.128906 723.339844 C 337.378906 710.542969 341.964844 703.898438 333.984375 693.761719 C 322.050781 678.601562 299.867188 678.324219 296.699219 678.328125 C 288.484375 678.339844 277.054688 678.359375 269.695312 686.046875 C 259.4375 696.761719 263.679688 715.511719 259.410156 743.914062 C 259.410156 743.914062 258.71875 748.519531 256.839844 755.488281 C 253.738281 766.988281 251.261719 769.960938 250.410156 770.921875 C 249.253906 772.230469 245.863281 775.949219 240.125 777.351562 C 239.332031 777.546875 235.675781 778.382812 231.125 777.351562 C 228.101562 776.667969 225.347656 776.042969 223.410156 773.492188 C 221.550781 771.046875 220.84375 767.359375 222.125 764.492188 C 223.671875 761.019531 226.859375 761.582031 231.125 758.0625 C 234.132812 755.578125 235.703125 752.117188 238.839844 745.203125 C 240.226562 742.140625 242.308594 737.496094 243.980469 731.054688 C 245.917969 723.601562 246.15625 717.839844 246.554688 706.621094 C 246.886719 697.171875 246.726562 689.316406 246.554688 680.902344 C 246.351562 671.105469 246.078125 667.90625 246.554688 661.609375 C 247.050781 655.007812 247.539062 648.578125 249.125 644.894531 C 257.664062 625.074219 325.421875 621.285156 344.269531 650.035156 Z M 344.269531 650.035156 " fill-opacity="1" fill-rule="nonzero"/></g><path fill="#3f3d56" d="M 398.273438 562.589844 C 403.769531 559.546875 404.554688 552.433594 405.988281 539.441406 C 407.03125 529.972656 407.652344 524.335938 404.703125 517.578125 C 400.714844 508.453125 393.238281 504.195312 391.84375 503.433594 C 390.324219 502.597656 380.335938 497.296875 369.984375 500.859375 C 368.542969 501.355469 364.71875 504.199219 357.128906 509.863281 C 348.070312 516.621094 346.742188 517.910156 345.554688 520.148438 C 342.382812 526.144531 342.71875 534.25 345.554688 535.582031 C 347.710938 536.59375 351.4375 533.757812 353.269531 531.722656 C 355.464844 529.296875 355.136719 527.824219 357.128906 525.292969 C 358.707031 523.289062 360.195312 522.589844 364.84375 520.148438 C 376.355469 514.109375 376.9375 513.304688 378.984375 513.71875 C 384.085938 514.75 386.519531 520.953125 386.699219 521.4375 C 388.257812 525.570312 387.191406 529.332031 385.414062 535.582031 C 384.476562 538.890625 383.410156 541.441406 381.558594 545.871094 C 378.207031 553.886719 377.324219 554.488281 377.699219 556.160156 C 378.9375 561.632812 391.015625 566.605469 398.273438 562.589844 Z M 398.273438 562.589844 " fill-opacity="1" fill-rule="nonzero"/><path fill="#f8a62c" d="M 266.480469 585.09375 C 268.609375 585.445312 269.640625 597.601562 266.480469 608.242188 C 264.324219 615.519531 259.96875 622.882812 259.191406 624.183594 C 258.578125 625.207031 257.988281 626.140625 256.195312 628.816406 C 247.425781 641.914062 242.996094 648.457031 240.765625 648.109375 C 237.796875 647.644531 245.929688 640.613281 246.554688 633.890625 C 247.714844 621.398438 253.324219 619.851562 263.269531 601.742188 C 268.648438 591.941406 264.824219 584.820312 266.480469 585.09375 Z M 266.480469 585.09375 " fill-opacity="1" fill-rule="nonzero"/><path fill="#2f2e41" d="M 221.480469 581.234375 C 220.40625 575.761719 226.515625 568.164062 233.050781 567.089844 C 242.582031 565.523438 250.855469 578.183594 253.625 586.378906 C 257.433594 597.652344 253.15625 607.339844 251.054688 612.101562 C 248.414062 618.070312 246.445312 618.464844 245.910156 618.53125 C 242.019531 619.015625 237.410156 611.890625 235.625 605.667969 C 234.054688 600.195312 235.824219 599.449219 234.339844 595.382812 C 231.277344 587.011719 222.628906 587.074219 221.480469 581.234375 Z M 221.480469 581.234375 " fill-opacity="1" fill-rule="nonzero"/><path fill="#f8a62c" d="M 264.589844 608.667969 L 519.722656 442.128906 L 515.960938 441.277344 L 260.828125 607.816406 Z M 264.589844 608.667969 " fill-opacity="1" fill-rule="nonzero"/><path fill="#a0616a" d="M 581.28125 290.1875 L 575.691406 269.695312 L 600.835938 260.378906 L 603.632812 279.007812 Z M 581.28125 290.1875 " fill-opacity="1" fill-rule="nonzero"/><path fill="#000000" d="M 581.28125 290.1875 L 575.691406 269.695312 L 590.5 263.445312 L 585.898438 287.605469 Z M 581.28125 290.1875 " fill-opacity="0.1" fill-rule="nonzero"/><path fill="#a0616a" d="M 507.671875 465.816406 C 502.867188 462.960938 502.613281 454.523438 507.105469 446.972656 C 509.070312 443.667969 511.617188 441.082031 514.265625 439.460938 L 516.902344 435.148438 L 550.261719 375.335938 C 550.261719 375.335938 564.867188 318.921875 570.8125 312.101562 C 576.757812 305.277344 585.351562 306.886719 585.351562 306.886719 L 592.976562 313.660156 L 565.765625 393.5625 L 532.183594 440.859375 L 527.683594 447.445312 C 527.519531 450.546875 526.464844 454.019531 524.496094 457.324219 C 520.007812 464.875 512.472656 468.675781 507.671875 465.816406 Z M 507.671875 465.816406 " fill-opacity="1" fill-rule="nonzero"/><path fill="#f8a62c" d="M 579.90625 284.332031 C 579.90625 284.332031 590.515625 283.921875 597.210938 292.167969 C 603.90625 300.410156 568.832031 393.328125 568.832031 393.328125 L 540.265625 392.316406 Z M 579.90625 284.332031 " fill-opacity="1" fill-rule="nonzero"/><path fill="#a0616a" d="M 608.753906 246.871094 C 608.753906 247.726562 608.710938 248.578125 608.628906 249.429688 C 608.542969 250.277344 608.417969 251.121094 608.253906 251.960938 C 608.085938 252.796875 607.878906 253.625 607.628906 254.441406 C 607.382812 255.261719 607.09375 256.0625 606.769531 256.851562 C 606.441406 257.640625 606.078125 258.414062 605.675781 259.167969 C 605.269531 259.917969 604.832031 260.652344 604.359375 261.363281 C 603.882812 262.070312 603.375 262.757812 602.835938 263.417969 C 602.292969 264.078125 601.71875 264.710938 601.117188 265.3125 C 600.511719 265.917969 599.878906 266.492188 599.21875 267.03125 C 598.558594 267.574219 597.875 268.082031 597.164062 268.558594 C 596.453125 269.03125 595.722656 269.472656 594.96875 269.875 C 594.214844 270.277344 593.445312 270.640625 592.65625 270.96875 C 591.867188 271.292969 591.0625 271.582031 590.246094 271.832031 C 589.429688 272.078125 588.601562 272.285156 587.765625 272.453125 C 586.925781 272.617188 586.082031 272.742188 585.234375 272.828125 C 584.382812 272.910156 583.53125 272.953125 582.675781 272.953125 C 581.824219 272.953125 580.972656 272.910156 580.121094 272.828125 C 579.269531 272.742188 578.425781 272.617188 577.589844 272.453125 C 576.75 272.285156 575.925781 272.078125 575.105469 271.832031 C 574.289062 271.582031 573.488281 271.292969 572.699219 270.96875 C 571.910156 270.640625 571.136719 270.277344 570.382812 269.875 C 569.632812 269.472656 568.898438 269.03125 568.1875 268.558594 C 567.480469 268.082031 566.792969 267.574219 566.132812 267.03125 C 565.472656 266.492188 564.839844 265.917969 564.238281 265.3125 C 563.632812 264.710938 563.0625 264.078125 562.519531 263.417969 C 561.976562 262.757812 561.46875 262.070312 560.996094 261.363281 C 560.519531 260.652344 560.082031 259.917969 559.679688 259.167969 C 559.277344 258.414062 558.910156 257.640625 558.585938 256.851562 C 558.257812 256.0625 557.972656 255.261719 557.722656 254.441406 C 557.476562 253.625 557.269531 252.796875 557.101562 251.960938 C 556.933594 251.121094 556.808594 250.277344 556.726562 249.429688 C 556.640625 248.578125 556.601562 247.726562 556.601562 246.871094 C 556.601562 246.015625 556.640625 245.164062 556.726562 244.316406 C 556.808594 243.464844 556.933594 242.621094 557.101562 241.785156 C 557.269531 240.945312 557.476562 240.117188 557.722656 239.300781 C 557.972656 238.484375 558.257812 237.679688 558.585938 236.890625 C 558.910156 236.101562 559.277344 235.332031 559.679688 234.578125 C 560.082031 233.824219 560.519531 233.09375 560.996094 232.382812 C 561.46875 231.671875 561.976562 230.984375 562.519531 230.324219 C 563.0625 229.664062 563.632812 229.035156 564.238281 228.429688 C 564.839844 227.824219 565.472656 227.253906 566.132812 226.710938 C 566.792969 226.167969 567.480469 225.660156 568.1875 225.1875 C 568.898438 224.710938 569.632812 224.273438 570.382812 223.871094 C 571.136719 223.46875 571.910156 223.101562 572.699219 222.777344 C 573.488281 222.449219 574.289062 222.160156 575.105469 221.914062 C 575.925781 221.664062 576.75 221.457031 577.589844 221.292969 C 578.425781 221.125 579.269531 221 580.121094 220.914062 C 580.972656 220.832031 581.824219 220.789062 582.675781 220.789062 C 583.53125 220.789062 584.382812 220.832031 585.234375 220.914062 C 586.082031 221 586.925781 221.125 587.765625 221.292969 C 588.601562 221.457031 589.429688 221.664062 590.246094 221.914062 C 591.0625 222.160156 591.867188 222.449219 592.65625 222.777344 C 593.445312 223.101562 594.214844 223.46875 594.96875 223.871094 C 595.722656 224.273438 596.453125 224.710938 597.164062 225.1875 C 597.875 225.660156 598.558594 226.167969 599.21875 226.710938 C 599.878906 227.253906 600.511719 227.824219 601.117188 228.429688 C 601.71875 229.035156 602.292969 229.664062 602.835938 230.324219 C 603.375 230.984375 603.882812 231.671875 604.359375 232.382812 C 604.832031 233.09375 605.269531 233.824219 605.675781 234.578125 C 606.078125 235.332031 606.441406 236.101562 606.769531 236.890625 C 607.09375 237.679688 607.382812 238.484375 607.628906 239.300781 C 607.878906 240.117188 608.085938 240.945312 608.253906 241.785156 C 608.417969 242.621094 608.542969 243.464844 608.628906 244.316406 C 608.710938 245.164062 608.753906 246.015625 608.753906 246.871094 Z M 608.753906 246.871094 " fill-opacity="1" fill-rule="nonzero"/><path fill="#a0616a" d="M 521.675781 625.523438 L 503.980469 669.304688 L 493.738281 659.058594 L 490.011719 639.496094 L 504.914062 620.867188 Z M 521.675781 625.523438 " fill-opacity="1" fill-rule="nonzero"/><path fill="#a0616a" d="M 687.449219 609.6875 L 705.144531 630.183594 L 696.761719 646.949219 L 678.136719 644.15625 L 668.824219 618.074219 Z M 687.449219 609.6875 " fill-opacity="1" fill-rule="nonzero"/><path fill="#a0616a" d="M 569.640625 365.171875 L 567.308594 402.898438 L 625.050781 392.652344 L 621.328125 369.363281 Z M 569.640625 365.171875 " fill-opacity="1" fill-rule="nonzero"/><path fill="#2f2e41" d="M 566.84375 403.363281 L 625.050781 384.269531 C 625.050781 384.269531 646.472656 427.117188 623.1875 454.128906 C 599.90625 481.144531 522.605469 634.839844 522.605469 634.839844 L 499.324219 623.660156 L 532.851562 525.855469 L 570.105469 435.5 Z M 566.84375 403.363281 " fill-opacity="1" fill-rule="nonzero"/><path fill="#2f2e41" d="M 623.1875 438.292969 L 645.539062 536.101562 L 692.105469 611.550781 L 667.890625 625.523438 L 602.699219 536.101562 L 581.28125 467.171875 Z M 623.1875 438.292969 " fill-opacity="1" fill-rule="nonzero"/><path fill="#2f2e41" d="M 481.628906 635.769531 L 465.5 635.769531 C 465.5 635.769531 446.679688 628.320312 442.269531 635.769531 C 437.859375 643.222656 461.949219 664.359375 461.949219 664.359375 C 461.949219 664.359375 495.597656 683.277344 500.257812 682.347656 C 504.914062 681.414062 506.773438 670.238281 506.773438 670.238281 L 512.363281 657.195312 L 503.980469 659.988281 C 503.980469 659.988281 492.804688 653.46875 495.597656 642.292969 Z M 481.628906 635.769531 " fill-opacity="1" fill-rule="nonzero"/><path fill="#2f2e41" d="M 701.417969 632.976562 L 701.417969 623.660156 L 712.246094 632.976562 C 712.246094 632.976562 730.289062 639.496094 716.320312 653.46875 C 702.351562 667.441406 684.65625 682.347656 684.65625 682.347656 C 684.65625 682.347656 656.714844 689.796875 654.855469 681.414062 C 652.992188 673.03125 654.855469 669.640625 654.855469 669.640625 L 665.097656 664.648438 L 674.410156 640.429688 L 689.3125 642.292969 Z M 701.417969 632.976562 " fill-opacity="1" fill-rule="nonzero"/><g clip-path="url(#d719a20576)"><path fill="#2f2e41" d="M 590.59375 251.996094 L 582.210938 251.0625 L 566.84375 235.695312 C 566.84375 235.695312 552.875 243.144531 552.875 237.558594 C 552.875 211.476562 568.707031 212.40625 581.746094 210.542969 C 594.785156 208.679688 593.386719 208.214844 597.578125 215.203125 C 599.496094 218.394531 606.425781 220.324219 606.425781 220.324219 C 606.425781 220.324219 619.464844 202.625 625.984375 224.050781 C 632.503906 245.476562 624.121094 311.609375 630.640625 317.199219 C 637.160156 322.789062 603.871094 328.371094 607.476562 306.484375 C 611.082031 284.597656 617.601562 251.0625 613.875 243.613281 C 610.152344 236.160156 609.21875 238.023438 609.21875 238.023438 C 613.835938 236.136719 616.851562 269.34375 599.445312 270.972656 L 598.976562 254.789062 C 598.976562 254.789062 596.179688 246.40625 590.59375 251.996094 Z M 590.59375 251.996094 " fill-opacity="1" fill-rule="nonzero"/></g><path fill="#f8a62c" d="M 578.953125 284.132812 L 606.890625 272.953125 L 644.144531 384.734375 L 567.496094 381.941406 L 560.59375 348.578125 C 560.59375 348.578125 553.855469 331.214844 559.445312 320.96875 C 565.03125 310.722656 578.953125 284.132812 578.953125 284.132812 Z M 578.953125 284.132812 " fill-opacity="1" fill-rule="nonzero"/><path fill="#a0616a" d="M 651.65625 471.375 C 646.085938 471.855469 640.964844 465.148438 640.210938 456.398438 C 639.882812 452.566406 640.445312 448.976562 641.652344 446.113281 L 641.28125 441.074219 L 633.519531 373.023438 C 633.519531 373.023438 619.074219 317.359375 619.929688 308.351562 C 620.785156 299.34375 622.132812 296.949219 622.132812 296.949219 L 632.277344 298.007812 L 656.738281 378.792969 L 657.023438 436.804688 L 657.207031 444.777344 C 658.878906 447.394531 660.046875 450.832031 660.375 454.664062 C 661.128906 463.414062 657.222656 470.898438 651.65625 471.375 Z M 651.65625 471.375 " fill-opacity="1" fill-rule="nonzero"/><path fill="#f8a62c" d="M 604.5625 281.804688 C 604.5625 281.804688 612.945312 275.28125 623.1875 278.078125 C 633.433594 280.871094 659.097656 376.816406 659.097656 376.816406 L 635.296875 392.652344 Z M 604.5625 281.804688 " fill-opacity="1" fill-rule="nonzero"/><g clip-path="url(#64ecbf5681)"><path fill="#f8a62c" d="M 715.363281 74.339844 C 711.527344 72.996094 706.417969 72.492188 701.222656 72.054688 C 701.574219 71.785156 701.707031 71.375 701.667969 70.859375 C 698.757812 70.761719 697.535156 71.757812 694.386719 71.511719 C 695.363281 70.886719 694.574219 70.378906 693.011719 70.625 C 693.914062 69.855469 696.738281 70.324219 696.660156 71.191406 C 697.238281 71.109375 697.121094 70.597656 696.65625 70.597656 C 704.074219 70.996094 711.71875 69.765625 718.074219 71.03125 C 714.34375 68.457031 702.234375 68.511719 696.632812 67.015625 C 696.984375 66.324219 699.449219 66.707031 698.914062 67.597656 C 699.515625 67.292969 700.609375 67.296875 700.730469 66.6875 C 705.671875 67.664062 711.289062 68.03125 716.222656 67.769531 C 721.855469 69.914062 729.449219 70.761719 732.671875 74.515625 C 732.875 76.941406 732.226562 78.230469 732.714844 80.1875 C 731.261719 82.710938 729.660156 85.148438 726.839844 86.792969 C 728.824219 89.246094 729.984375 91.09375 730.082031 93.632812 C 729.488281 94.121094 726.730469 94.730469 728.726562 95.136719 C 727.785156 95.515625 726.8125 95.878906 726.003906 96.351562 C 726.234375 97.132812 728.523438 97.339844 727.382812 98.128906 C 725.804688 98.378906 725.632812 97.699219 724.195312 97.851562 C 724.542969 99.605469 727.886719 100.335938 728.785156 102.59375 C 729.894531 105.378906 727.824219 108.710938 727.945312 112.152344 C 723.488281 112.179688 725.070312 116.570312 718.863281 116.09375 C 723.550781 118.007812 730.390625 119.972656 736.203125 120.144531 C 737.25 121.355469 738.75 124.558594 736.242188 125.515625 C 736.773438 126.058594 737.4375 126.519531 738.078125 126.996094 C 737.121094 127.738281 733.425781 127.035156 734.898438 128.511719 C 730.347656 129.253906 724.464844 128.183594 721.25 130.699219 C 721.304688 131.464844 722.953125 131.167969 723.535156 131.578125 C 723.679688 132.339844 722.695312 133.328125 723.101562 133.96875 C 725.65625 134.589844 724.386719 135.097656 726.753906 135.136719 C 726.191406 135.964844 725.324219 136.59375 723.574219 136.652344 C 724.96875 137.417969 727.523438 137.414062 728.140625 138.707031 C 722.949219 140.128906 720.6875 139.15625 714.9375 139.402344 C 723.175781 140.914062 730.546875 143.003906 737.300781 145.503906 C 737.390625 146.808594 737.476562 148.113281 736.40625 147.902344 C 737.269531 148.835938 737.945312 148.144531 738.679688 147.585938 C 739.179688 150.15625 739.4375 151.726562 741.914062 153.234375 C 741.011719 155.355469 737.839844 154.519531 735.09375 155.070312 C 735.503906 156.503906 736.121094 157.792969 738.304688 158.03125 C 736.875 160.753906 729.128906 160.375 726.488281 161.402344 C 727.53125 163.179688 730.382812 161.707031 732.863281 161.351562 C 732.242188 162.566406 733.863281 162.285156 733.789062 163.136719 C 725.683594 163.4375 724.957031 165.882812 716.492188 165.054688 C 716.269531 172.824219 710.292969 176.894531 707.058594 182.730469 C 703.101562 182.003906 701.359375 183.320312 699.328125 184.578125 C 699.125 185.410156 701.804688 184.320312 701.605469 185.15625 C 698.050781 186.199219 693.046875 186.035156 687.949219 186.453125 C 683.195312 186.84375 679.179688 186.851562 676.105469 185.648438 C 652.65625 188.609375 634.28125 186.273438 609.609375 187.628906 C 609.203125 186.675781 611.109375 187.210938 610.964844 186.425781 C 603.382812 186.394531 590.097656 188.628906 582.726562 186.929688 C 581.261719 187.210938 582.082031 185.960938 581.351562 185.746094 C 575.59375 185.925781 570.414062 187.84375 566.777344 185.851562 C 558.585938 185.394531 549.503906 187.84375 543.542969 186.027344 C 519.605469 186.4375 500.316406 187.515625 480.21875 185.300781 C 468.769531 184.746094 459.425781 185.542969 447.871094 184.941406 C 449.492188 183.515625 453.304688 183.496094 456.511719 183.089844 C 452.300781 182.59375 445.441406 182.496094 439.660156 182.914062 C 420.324219 184.308594 400.175781 183.851562 380.441406 183.054688 C 379.53125 182.367188 380.554688 182.71875 380.890625 182.15625 C 377.011719 181.195312 372.941406 182.53125 369.507812 182.835938 C 368.648438 182.277344 369.449219 182.085938 369.496094 181.339844 C 365.601562 180.960938 366.746094 182.242188 364.492188 182.570312 C 362.375 182.851562 365.117188 181.796875 363.578125 181.679688 C 362.605469 181.550781 362.710938 182.117188 362.671875 182.585938 C 357.453125 182.171875 353.277344 181.90625 347.183594 182.402344 C 345.308594 182.554688 347.53125 181.652344 346.265625 181.214844 C 338.605469 181.109375 327.738281 182.847656 319.394531 182.007812 C 315.4375 181.617188 312.929688 182.058594 308.460938 182.097656 C 304.636719 182.125 300.898438 180.558594 296.605469 180.09375 C 293.078125 179.714844 287.824219 180.941406 282.484375 180.195312 C 282.582031 179.765625 283.839844 180.082031 283.839844 179.589844 C 268.347656 180.128906 249.328125 180.199219 234.660156 181.742188 C 216.957031 180.601562 196.480469 183.496094 180.464844 183.335938 C 180.851562 182.886719 181.605469 182.683594 182.738281 182.71875 C 167.074219 181.523438 143.023438 181.316406 123.0625 181.96875 C 121.171875 182.140625 121.121094 183.488281 118.519531 183.195312 C 117.308594 184.90625 113.644531 185.027344 111.246094 185.636719 C 110.824219 185.746094 109.464844 186.535156 108.972656 186.546875 C 101.699219 186.859375 103.867188 181.339844 99.800781 178.558594 C 97.652344 179.433594 95.425781 179.777344 93.425781 178.609375 C 93.574219 176.71875 96.902344 176.894531 97.957031 175.59375 C 97.371094 175.171875 95.398438 174.636719 95.230469 175.613281 C 94.195312 175.011719 94.214844 174.058594 95.214844 173.523438 C 93.597656 173.371094 94.105469 174.585938 92.492188 174.4375 C 92.292969 173.8125 92.796875 173.644531 92.941406 173.238281 C 91.484375 173.070312 91.53125 173.808594 90.65625 173.257812 C 90.535156 171.394531 90.769531 169.761719 92.453125 169.066406 C 83.292969 167.164062 75.871094 162.320312 68.21875 158.507812 C 68.421875 156.660156 70.734375 156.171875 70.925781 154.3125 C 76.503906 153.214844 80.09375 152.667969 86.847656 152.402344 C 87.933594 151.808594 86.007812 150.734375 87.289062 150.011719 C 89.207031 150.292969 91.882812 150.203125 93.207031 148.773438 C 91.53125 148.347656 90.710938 148.683594 88.648438 148.210938 C 88.949219 147.511719 90.160156 147.398438 90.457031 146.699219 C 87.566406 144.992188 92.171875 142.332031 90.410156 140.433594 C 91.183594 139.742188 92.980469 140.902344 94.511719 140.707031 C 92.117188 139.785156 96.957031 140.171875 97.691406 139.484375 C 97.5 138.867188 93.890625 140.160156 94.957031 138.910156 C 90.402344 139.378906 91.742188 138.714844 88.125 138.964844 C 88.679688 134.425781 95.683594 132.667969 103.097656 130.496094 C 102.058594 129.589844 100.335938 127.863281 101.246094 126.628906 C 100.625 126.058594 98.695312 127.140625 97.605469 127.25 C 97.605469 126.359375 98.78125 126.226562 98.957031 125.453125 C 97.875 124.734375 98.109375 125.902344 96.679688 125.761719 C 98.023438 124.007812 100.492188 124.574219 102.589844 123.632812 C 100.519531 122.5 98.355469 123.585938 95.757812 123.6875 C 95.949219 123.214844 97.183594 123.417969 96.660156 122.488281 C 95.363281 122.445312 95.777344 123.503906 93.933594 123.101562 C 93.707031 122.167969 95.328125 122.414062 94.832031 121.308594 C 92.484375 121.65625 89.621094 121.941406 87.546875 121.65625 C 87.535156 120.5625 89.132812 120.503906 89.808594 119.851562 C 88.300781 119.367188 87.242188 120.160156 85.261719 120.179688 C 85.074219 118.867188 85.0625 117.488281 88.425781 117.175781 C 88.277344 116.484375 88.492188 116.027344 88.871094 115.675781 C 86.960938 114.835938 86.121094 115.351562 82.035156 115.128906 C 81.308594 113.792969 83.921875 112.789062 83.375 111.835938 C 82.121094 109.660156 79.582031 110.070312 76.058594 110.101562 C 77.519531 108.894531 76.835938 108.121094 78.3125 107.101562 C 76.039062 106.203125 77.71875 105.101562 77.828125 103.222656 C 78.648438 103.179688 78.792969 103.582031 79.652344 103.507812 C 80.6875 100.316406 88.660156 101.59375 89.636719 98.367188 C 87.53125 97.769531 88.832031 94.90625 86.871094 94.203125 C 89.414062 90.300781 87.125 83.277344 95.441406 83.101562 C 94.957031 81.816406 93.472656 81.210938 90.875 81.34375 C 91.289062 79.972656 89.902344 79.789062 88.136719 79.867188 C 88.863281 78.347656 89.136719 78.242188 87.207031 77.492188 C 89.273438 74.863281 88.734375 72.21875 90.78125 68.511719 C 109.605469 69.550781 135.714844 69.496094 152.296875 70.441406 C 152.738281 70.433594 152.648438 70.074219 152.75 69.839844 C 156.359375 71.492188 161.9375 70.527344 165.5 69.449219 C 165.261719 69.691406 165.027344 69.9375 165.054688 70.347656 C 167.042969 70.542969 167.613281 69.828125 169.601562 70.019531 C 173.519531 70.648438 188.039062 68.777344 197.375 68.621094 C 207.625 68.449219 218.292969 67.054688 223.320312 65.742188 C 224.953125 68.296875 230.164062 67.3125 235.632812 67.140625 C 237.015625 67.019531 236.410156 68.226562 237.460938 68.320312 C 240.253906 66.992188 248.367188 69.039062 251.574219 67.324219 C 251.847656 66.546875 251.386719 66.25 250.207031 66.433594 C 253.433594 65.378906 257.484375 66.542969 261.132812 65.757812 C 260.832031 65.457031 260.082031 65.457031 260.21875 64.867188 C 266.445312 65.199219 273.058594 66.183594 277.089844 67.726562 C 279.304688 67.113281 280.675781 68.035156 282.5625 68.285156 C 287.976562 68.988281 296.15625 67.617188 302.601562 67.539062 C 322.464844 67.292969 341.976562 68.925781 360.457031 67.707031 C 360.757812 68.007812 361.507812 68.007812 361.371094 68.597656 C 375.796875 68.367188 387.289062 67.292969 401.445312 67.40625 C 401.582031 66.617188 400.492188 66.644531 399.617188 66.523438 C 403.242188 66.203125 406.652344 67.316406 409.648438 67.941406 C 412.804688 65.847656 415.253906 68.226562 419.667969 68.167969 C 419.929688 68.824219 418.808594 68.597656 418.765625 69.070312 C 433.585938 70.097656 446.835938 65.453125 462.027344 67.851562 C 462.613281 67.339844 463.523438 67.035156 464.757812 66.941406 C 464.332031 68.847656 460.113281 68.300781 457.941406 69.078125 C 464.921875 69.125 473.347656 68.148438 481.628906 69.796875 C 484.507812 67 492.761719 68.699219 499.378906 67.875 C 499.511719 68.359375 498.953125 68.394531 498.929688 68.777344 C 501.078125 68.746094 502.390625 69.28125 504.402344 69.332031 C 504.429688 68.316406 502.707031 68.460938 501.207031 68.460938 C 504.84375 66.980469 509.941406 69.527344 511.667969 66.589844 C 514.136719 66.9375 515.792969 66.9375 517.132812 65.949219 C 517.261719 66.433594 516.707031 66.46875 516.683594 66.855469 C 529.292969 68.511719 543.644531 68.308594 559.964844 68.328125 C 559.753906 67.171875 556.824219 67.824219 555.859375 67.164062 C 571.328125 65.675781 588.777344 70.089844 604.59375 66.800781 C 602.332031 65.875 597.21875 66.050781 595.472656 65.679688 C 594.527344 65.511719 592.488281 66.070312 592.289062 65.40625 C 597.484375 65.519531 599.277344 64.636719 603.675781 64.722656 C 604.375 64.382812 604.613281 63.746094 605.945312 63.8125 C 604.957031 64.441406 606.175781 64.664062 605.957031 65.601562 C 607.925781 65.882812 608.480469 65.25 609.597656 64.976562 C 612.097656 66.289062 614.40625 65.765625 617.34375 64.921875 C 633.152344 67.820312 653.34375 65.265625 671.101562 66.308594 C 666.816406 67.785156 660.441406 66.300781 656.539062 68.210938 C 657.328125 68.984375 661.058594 67.804688 660.195312 69.675781 C 662.144531 69.847656 662.042969 68.691406 663.835938 68.757812 C 664.421875 69.144531 664.425781 69.855469 663.84375 70.253906 C 667.546875 69.527344 674.40625 69.664062 678.882812 71.335938 C 677.519531 71.347656 676.15625 71.355469 674.78125 71.367188 C 684.25 72.082031 698.871094 73.808594 709.875 73.496094 C 710.867188 75.019531 711.804688 73.539062 715.363281 74.339844 Z M 387.800781 69.300781 C 390.054688 69.140625 392.441406 69.492188 390.539062 70.46875 C 392.394531 70.578125 392.867188 69.796875 394.175781 69.550781 C 392.25 69.546875 393.089844 68.878906 393.710938 68.359375 C 391.953125 69.453125 388.074219 67.332031 387.800781 69.300781 Z M 609.171875 67.363281 C 608.601562 67.300781 608.238281 66.90625 608.261719 67.664062 C 610.59375 67.609375 612.816406 67.339844 614.183594 67.621094 C 614.042969 66.351562 610.234375 66.570312 609.171875 67.363281 Z M 483.5 74.855469 C 483.0625 75.949219 486.046875 75.472656 485.777344 74.839844 C 484.644531 74.816406 484.363281 74.292969 483.5 74.855469 Z M 486.691406 75.429688 C 488.222656 75.226562 490.925781 75.785156 491.699219 75.097656 C 489.269531 74.953125 488.253906 74.128906 486.691406 75.429688 Z M 418.925781 89.660156 C 420.226562 90.554688 422.800781 89.4375 423.03125 90.527344 C 424.386719 90.535156 425.339844 89.632812 426.222656 90.207031 C 426.214844 89.8125 426.214844 89.414062 426.210938 89.011719 C 423.953125 89.335938 420.847656 89.113281 418.925781 89.660156 Z M 632.222656 104.203125 C 633.585938 103.898438 635.53125 103.953125 635.855469 102.980469 C 634.070312 103.015625 631.855469 102.777344 632.222656 104.203125 Z M 642.257812 106.214844 C 648.5625 105.625 639.53125 105.351562 638.613281 106.242188 C 640.128906 106.175781 641.316406 106.300781 642.257812 106.214844 Z M 229.234375 125.679688 C 229.59375 125.921875 232.023438 125.976562 231.960938 125.066406 C 230.753906 125.082031 229.277344 124.921875 229.234375 125.679688 Z M 365.101562 141.988281 C 365.683594 140.878906 362.394531 140.820312 361.910156 141.417969 C 363.695312 141.121094 363.070312 142.441406 365.101562 141.988281 Z M 372.390625 141.929688 C 376.441406 142.449219 379.816406 141.921875 384.691406 142.136719 C 382.199219 141.714844 374.910156 140.789062 372.390625 141.929688 Z M 396.082031 142.058594 C 395.363281 142.035156 394.503906 142.113281 394.710938 141.46875 C 391.953125 142.105469 387.761719 141.425781 385.601562 141.539062 C 390.609375 142.523438 392.988281 142.742188 396.082031 142.058594 Z M 348.257812 143.605469 C 345.164062 144.085938 340.792969 142.835938 339.609375 143.964844 C 344.949219 144.765625 356.757812 145.085938 362.839844 143.792969 C 358.023438 143.488281 355.078125 142.78125 350.539062 143.289062 C 354.074219 144.375 347.375 142.910156 347.347656 143.011719 C 347.859375 143.078125 348.054688 143.34375 348.257812 143.605469 Z M 399.277344 143.226562 C 400.34375 143.222656 401.398438 143.210938 402.464844 143.203125 C 402.648438 142.003906 399.371094 142.734375 399.277344 143.226562 Z M 364.207031 143.78125 C 363.925781 143.800781 363.671875 143.835938 363.753906 144.082031 C 365.75 144.226562 371.953125 143.835938 366.9375 143.761719 C 365.988281 143.113281 365.464844 144.039062 364.65625 143.484375 C 364.628906 143.300781 364.585938 143.128906 364.199219 143.183594 C 364.203125 143.386719 364.203125 143.585938 364.207031 143.78125 Z M 338.257812 145.765625 C 337.796875 146.367188 336.5625 146.464844 335.988281 146.976562 C 345.902344 147.441406 362.824219 147.035156 374.25 146.691406 C 364.136719 145.085938 350.222656 146.789062 338.257812 145.765625 Z M 665.417969 157.671875 C 670.097656 159.5625 676.890625 160.257812 682.738281 159.933594 C 676.769531 159.667969 670.207031 156.742188 665.417969 157.671875 Z M 645.394531 160.804688 C 646.859375 161.699219 650.726562 161.511719 652.226562 160.757812 C 652.105469 161.441406 652.34375 161.875 653.144531 161.941406 C 653.929688 161.328125 652.800781 161.363281 653.589844 160.742188 C 651.070312 159.570312 648.398438 160.175781 645.394531 160.804688 Z M 637.199219 161.164062 C 639.023438 161.050781 639.726562 161.675781 641.753906 161.429688 C 641.601562 159.90625 637.226562 160.542969 637.199219 161.164062 Z M 676.847656 163.558594 C 678.332031 163.8125 679.683594 163.757812 682.3125 163.816406 C 682.265625 162.441406 678.371094 163.300781 676.847656 163.558594 Z M 271.070312 177.300781 C 269.945312 177.8125 266.648438 176.765625 265.148438 177.644531 C 266.164062 178.542969 270.402344 178.375 271.070312 177.300781 Z M 469.238281 178.824219 C 467.570312 179.058594 466.703125 178.109375 465.59375 178.855469 C 467.289062 180.203125 471.082031 179.785156 474.25 179.683594 C 479.367188 179.523438 484.195312 178.765625 489.28125 179.273438 C 484.4375 177.640625 473.023438 178.550781 469.238281 178.824219 Z M 496.566406 178.917969 C 498.570312 179.28125 503.273438 178.945312 506.132812 178.25 C 502.789062 178.609375 497.039062 177.132812 496.566406 178.917969 Z M 524.351562 178.113281 C 524.253906 179.441406 519.902344 178.015625 519.808594 179.34375 C 522.085938 179.816406 523.714844 179.40625 525.730469 179.003906 C 525.953125 179.789062 526.09375 180.007812 527.109375 180.78125 C 536.585938 178.15625 545.773438 182.339844 554.890625 179.683594 C 544.847656 178.386719 534.367188 179.832031 524.351562 178.113281 Z M 440.542969 179.929688 C 438.226562 179.933594 435.285156 178.660156 434.175781 180.578125 C 442.375 181.054688 450.515625 180.828125 458.761719 179.203125 C 452.84375 179.171875 446.273438 179.914062 440.542969 179.929688 Z M 440.542969 179.929688 " fill-opacity="1" fill-rule="evenodd"/></g><g fill="#000000" fill-opacity="1"><g transform="translate(166.181537, 117.284311)"><g><path d="M 4.140625 -37.28125 C 4.140625 -37.800781 4.257812 -38.171875 4.5 -38.390625 C 4.75 -38.609375 5.113281 -38.71875 5.59375 -38.71875 L 28.765625 -38.71875 C 29.753906 -38.71875 30.25 -38.238281 30.25 -37.28125 L 30.25 -31.3125 C 30.25 -30.789062 30.128906 -30.421875 29.890625 -30.203125 C 29.648438 -29.984375 29.273438 -29.875 28.765625 -29.875 L 14.609375 -29.875 C 14.273438 -29.875 14.050781 -29.804688 13.9375 -29.671875 C 13.820312 -29.546875 13.765625 -29.332031 13.765625 -29.03125 L 13.765625 -1.4375 C 13.765625 -0.914062 13.644531 -0.546875 13.40625 -0.328125 C 13.164062 -0.109375 12.789062 0 12.28125 0 L 5.59375 0 C 5.113281 0 4.75 -0.117188 4.5 -0.359375 C 4.257812 -0.597656 4.140625 -0.957031 4.140625 -1.4375 Z M 4.140625 -37.28125 "/></g></g></g><g fill="#000000" fill-opacity="1"><g transform="translate(194.722586, 117.284311)"><g><path d="M 3.59375 -25.71875 C 3.59375 -26.195312 3.703125 -26.546875 3.921875 -26.765625 C 4.148438 -26.992188 4.503906 -27.109375 4.984375 -27.109375 L 14.609375 -27.109375 C 19.835938 -27.109375 23.867188 -25.984375 26.703125 -23.734375 C 29.546875 -21.484375 30.96875 -18.144531 30.96875 -13.71875 C 30.96875 -10.726562 30.296875 -8.207031 28.953125 -6.15625 C 27.609375 -4.113281 25.679688 -2.578125 23.171875 -1.546875 C 20.671875 -0.515625 17.703125 0 14.265625 0 L 13.65625 0 C 13.363281 0 13.160156 0.0507812 13.046875 0.15625 C 12.941406 0.269531 12.890625 0.476562 12.890625 0.78125 L 12.890625 11.34375 C 12.890625 11.820312 12.769531 12.171875 12.53125 12.390625 C 12.289062 12.609375 11.929688 12.71875 11.453125 12.71875 L 4.984375 12.71875 C 4.503906 12.71875 4.148438 12.609375 3.921875 12.390625 C 3.703125 12.171875 3.59375 11.820312 3.59375 11.34375 Z M 14.265625 -8.078125 C 16.554688 -8.078125 18.328125 -8.5625 19.578125 -9.53125 C 20.835938 -10.507812 21.46875 -11.882812 21.46875 -13.65625 C 21.46875 -17.195312 19.066406 -18.96875 14.265625 -18.96875 L 13.65625 -18.96875 C 13.363281 -18.96875 13.160156 -18.898438 13.046875 -18.765625 C 12.941406 -18.640625 12.890625 -18.429688 12.890625 -18.140625 L 12.890625 -8.84375 C 12.890625 -8.550781 12.941406 -8.347656 13.046875 -8.234375 C 13.160156 -8.128906 13.363281 -8.078125 13.65625 -8.078125 Z M 14.265625 -8.078125 "/></g></g></g><g fill="#000000" fill-opacity="1"><g transform="translate(225.088944, 117.284311)"><g><path d="M 3.59375 -25.671875 C 3.59375 -26.179688 3.710938 -26.546875 3.953125 -26.765625 C 4.191406 -26.992188 4.550781 -27.109375 5.03125 -27.109375 L 11.390625 -27.109375 C 11.910156 -27.109375 12.289062 -26.992188 12.53125 -26.765625 C 12.769531 -26.546875 12.890625 -26.179688 12.890625 -25.671875 L 12.890625 -15.765625 L 20.90625 -22.515625 C 21.425781 -22.921875 21.960938 -23.398438 22.515625 -23.953125 C 24.054688 -25.273438 25.25 -26.269531 26.09375 -26.9375 C 26.945312 -27.601562 27.578125 -27.9375 27.984375 -27.9375 C 28.285156 -27.9375 28.5 -27.84375 28.625 -27.65625 C 28.75 -27.46875 28.828125 -27.085938 28.859375 -26.515625 C 28.898438 -25.953125 28.921875 -25.265625 28.921875 -24.453125 L 28.921875 -1.4375 C 28.921875 -0.957031 28.8125 -0.597656 28.59375 -0.359375 C 28.375 -0.117188 28.003906 0 27.484375 0 L 21.125 0 C 20.613281 0 20.238281 -0.109375 20 -0.328125 C 19.757812 -0.546875 19.640625 -0.914062 19.640625 -1.4375 L 19.640625 -11.34375 L 11.609375 -4.59375 C 11.097656 -4.1875 10.566406 -3.707031 10.015625 -3.15625 C 8.460938 -1.820312 7.257812 -0.820312 6.40625 -0.15625 C 5.5625 0.5 4.9375 0.828125 4.53125 0.828125 C 4.238281 0.828125 4.023438 0.734375 3.890625 0.546875 C 3.765625 0.367188 3.679688 -0.00390625 3.640625 -0.578125 C 3.609375 -1.148438 3.59375 -1.84375 3.59375 -2.65625 Z M 3.59375 -25.671875 "/></g></g></g><g fill="#000000" fill-opacity="1"><g transform="translate(255.068114, 117.284311)"><g><path d="M 1.265625 -25.78125 C 1.117188 -25.957031 1.046875 -26.175781 1.046875 -26.4375 C 1.046875 -26.882812 1.304688 -27.109375 1.828125 -27.109375 L 9.953125 -27.109375 C 10.429688 -27.109375 10.816406 -27.03125 11.109375 -26.875 C 11.410156 -26.726562 11.671875 -26.453125 11.890625 -26.046875 L 18.421875 -14.71875 C 18.640625 -14.382812 18.75 -14.066406 18.75 -13.765625 C 18.75 -13.515625 18.640625 -13.1875 18.421875 -12.78125 L 11.34375 -1 C 11.082031 -0.59375 10.832031 -0.320312 10.59375 -0.1875 C 10.351562 -0.0625 9.957031 0 9.40625 0 L 0.890625 0 C 0.628906 0 0.425781 -0.0625 0.28125 -0.1875 C 0.132812 -0.320312 0.0625 -0.476562 0.0625 -0.65625 C 0.0625 -0.769531 0.132812 -0.972656 0.28125 -1.265625 L 8.40625 -14.046875 Z M 19.46875 -25.671875 C 19.46875 -26.179688 19.585938 -26.546875 19.828125 -26.765625 C 20.066406 -26.992188 20.445312 -27.109375 20.96875 -27.109375 L 27.265625 -27.109375 C 27.785156 -27.109375 28.15625 -26.992188 28.375 -26.765625 C 28.59375 -26.546875 28.703125 -26.179688 28.703125 -25.671875 L 28.703125 -1.4375 C 28.703125 -0.957031 28.59375 -0.597656 28.375 -0.359375 C 28.15625 -0.117188 27.785156 0 27.265625 0 L 20.96875 0 C 20.445312 0 20.066406 -0.109375 19.828125 -0.328125 C 19.585938 -0.546875 19.46875 -0.914062 19.46875 -1.4375 Z M 29.765625 -12.78125 C 29.535156 -13.1875 29.421875 -13.515625 29.421875 -13.765625 C 29.421875 -14.066406 29.535156 -14.382812 29.765625 -14.71875 L 36.28125 -26.046875 C 36.5 -26.453125 36.753906 -26.726562 37.046875 -26.875 C 37.347656 -27.03125 37.738281 -27.109375 38.21875 -27.109375 L 46.359375 -27.109375 C 46.867188 -27.109375 47.125 -26.882812 47.125 -26.4375 C 47.125 -26.175781 47.050781 -25.957031 46.90625 -25.78125 L 39.765625 -14.046875 L 47.90625 -1.265625 C 48.050781 -0.972656 48.125 -0.769531 48.125 -0.65625 C 48.125 -0.476562 48.046875 -0.320312 47.890625 -0.1875 C 47.742188 -0.0625 47.546875 0 47.296875 0 L 38.78125 0 C 38.257812 0 37.867188 -0.0625 37.609375 -0.1875 C 37.347656 -0.320312 37.09375 -0.59375 36.84375 -1 Z M 29.765625 -12.78125 "/></g></g></g><g fill="#000000" fill-opacity="1"><g transform="translate(300.70073, 117.284311)"><g><path d="M 17.96875 -1.21875 C 16.457031 -0.0390625 14.429688 0.546875 11.890625 0.546875 C 9.859375 0.546875 8.078125 0.1875 6.546875 -0.53125 C 5.023438 -1.25 3.859375 -2.257812 3.046875 -3.5625 C 2.234375 -4.875 1.828125 -6.394531 1.828125 -8.125 C 1.828125 -9.894531 2.238281 -11.425781 3.0625 -12.71875 C 3.894531 -14.007812 5.066406 -15.003906 6.578125 -15.703125 C 8.085938 -16.410156 9.859375 -16.765625 11.890625 -16.765625 C 13.109375 -16.765625 14.242188 -16.613281 15.296875 -16.3125 C 16.347656 -16.019531 17.238281 -15.597656 17.96875 -15.046875 C 17.863281 -16.515625 17.320312 -17.644531 16.34375 -18.4375 C 15.363281 -19.238281 14.007812 -19.640625 12.28125 -19.640625 L 10.5625 -19.578125 C 10.226562 -19.546875 9.804688 -19.53125 9.296875 -19.53125 C 8.847656 -19.53125 8.539062 -19.617188 8.375 -19.796875 C 8.207031 -19.984375 8.085938 -20.335938 8.015625 -20.859375 L 7.46875 -25.671875 C 7.425781 -26.222656 7.5 -26.617188 7.6875 -26.859375 C 7.875 -27.097656 8.222656 -27.269531 8.734375 -27.375 C 10.023438 -27.632812 11.554688 -27.765625 13.328125 -27.765625 C 18.015625 -27.765625 21.488281 -26.546875 23.75 -24.109375 C 26.019531 -21.679688 27.15625 -18.234375 27.15625 -13.765625 L 27.15625 -1 C 27.15625 -0.625 27.082031 -0.363281 26.9375 -0.21875 C 26.789062 -0.0703125 26.550781 0 26.21875 0 L 18.96875 0 C 18.632812 0 18.382812 -0.0703125 18.21875 -0.21875 C 18.050781 -0.363281 17.96875 -0.625 17.96875 -1 Z M 11.234375 -8.125 C 11.234375 -7.0625 11.554688 -6.222656 12.203125 -5.609375 C 12.847656 -5.003906 13.664062 -4.703125 14.65625 -4.703125 C 15.613281 -4.703125 16.425781 -5.003906 17.09375 -5.609375 C 17.757812 -6.222656 18.09375 -7.023438 18.09375 -8.015625 C 18.09375 -9.117188 17.769531 -9.972656 17.125 -10.578125 C 16.476562 -11.191406 15.65625 -11.5 14.65625 -11.5 C 13.664062 -11.5 12.847656 -11.191406 12.203125 -10.578125 C 11.554688 -9.972656 11.234375 -9.15625 11.234375 -8.125 Z M 11.234375 -8.125 "/></g></g></g><g fill="#000000" fill-opacity="1"><g transform="translate(328.633342, 117.284311)"><g/></g></g><g fill="#000000" fill-opacity="1"><g transform="translate(341.299697, 117.284311)"><g><path d="M 3.421875 -7.796875 C 3.648438 -8.171875 3.910156 -8.359375 4.203125 -8.359375 C 4.460938 -8.359375 4.722656 -8.28125 4.984375 -8.125 C 5.898438 -7.613281 6.890625 -7.207031 7.953125 -6.90625 C 9.023438 -6.613281 10.242188 -6.46875 11.609375 -6.46875 C 14.304688 -6.46875 15.65625 -7.242188 15.65625 -8.796875 C 15.65625 -10.265625 14.269531 -11 11.5 -11 L 8.515625 -11 C 8.148438 -11 7.890625 -11.070312 7.734375 -11.21875 C 7.585938 -11.375 7.515625 -11.632812 7.515625 -12 L 7.515625 -15.8125 C 7.515625 -16.1875 7.585938 -16.445312 7.734375 -16.59375 C 7.890625 -16.738281 8.148438 -16.8125 8.515625 -16.8125 L 10.453125 -16.8125 C 11.929688 -16.8125 13.046875 -16.945312 13.796875 -17.21875 C 14.554688 -17.5 14.9375 -17.992188 14.9375 -18.703125 C 14.9375 -19.398438 14.617188 -19.90625 13.984375 -20.21875 C 13.359375 -20.53125 12.441406 -20.6875 11.234375 -20.6875 C 10.160156 -20.6875 9.109375 -20.546875 8.078125 -20.265625 C 7.046875 -19.992188 6.160156 -19.691406 5.421875 -19.359375 C 5.160156 -19.210938 4.921875 -19.140625 4.703125 -19.140625 C 4.367188 -19.140625 4.128906 -19.34375 3.984375 -19.75 L 1.9375 -23.953125 C 1.894531 -23.984375 1.847656 -24.082031 1.796875 -24.25 C 1.742188 -24.414062 1.71875 -24.554688 1.71875 -24.671875 C 1.71875 -25.003906 1.898438 -25.28125 2.265625 -25.5 C 3.441406 -26.238281 4.90625 -26.800781 6.65625 -27.1875 C 8.414062 -27.570312 10.289062 -27.765625 12.28125 -27.765625 C 16.300781 -27.765625 19.316406 -27.0625 21.328125 -25.65625 C 23.335938 -24.257812 24.34375 -22.34375 24.34375 -19.90625 C 24.34375 -18.65625 23.984375 -17.519531 23.265625 -16.5 C 22.546875 -15.488281 21.648438 -14.765625 20.578125 -14.328125 C 21.972656 -13.804688 23.066406 -12.984375 23.859375 -11.859375 C 24.660156 -10.734375 25.0625 -9.453125 25.0625 -8.015625 C 25.0625 -5.398438 24.035156 -3.300781 21.984375 -1.71875 C 19.941406 -0.132812 16.78125 0.65625 12.5 0.65625 C 9.84375 0.65625 7.644531 0.398438 5.90625 -0.109375 C 4.175781 -0.628906 2.78125 -1.253906 1.71875 -1.984375 C 1.3125 -2.285156 1.109375 -2.601562 1.109375 -2.9375 C 1.109375 -3.039062 1.132812 -3.175781 1.1875 -3.34375 C 1.238281 -3.507812 1.285156 -3.613281 1.328125 -3.65625 Z M 3.421875 -7.796875 "/></g></g></g><g fill="#000000" fill-opacity="1"><g transform="translate(365.58169, 117.284311)"><g><path d="M 17.96875 -1.21875 C 16.457031 -0.0390625 14.429688 0.546875 11.890625 0.546875 C 9.859375 0.546875 8.078125 0.1875 6.546875 -0.53125 C 5.023438 -1.25 3.859375 -2.257812 3.046875 -3.5625 C 2.234375 -4.875 1.828125 -6.394531 1.828125 -8.125 C 1.828125 -9.894531 2.238281 -11.425781 3.0625 -12.71875 C 3.894531 -14.007812 5.066406 -15.003906 6.578125 -15.703125 C 8.085938 -16.410156 9.859375 -16.765625 11.890625 -16.765625 C 13.109375 -16.765625 14.242188 -16.613281 15.296875 -16.3125 C 16.347656 -16.019531 17.238281 -15.597656 17.96875 -15.046875 C 17.863281 -16.515625 17.320312 -17.644531 16.34375 -18.4375 C 15.363281 -19.238281 14.007812 -19.640625 12.28125 -19.640625 L 10.5625 -19.578125 C 10.226562 -19.546875 9.804688 -19.53125 9.296875 -19.53125 C 8.847656 -19.53125 8.539062 -19.617188 8.375 -19.796875 C 8.207031 -19.984375 8.085938 -20.335938 8.015625 -20.859375 L 7.46875 -25.671875 C 7.425781 -26.222656 7.5 -26.617188 7.6875 -26.859375 C 7.875 -27.097656 8.222656 -27.269531 8.734375 -27.375 C 10.023438 -27.632812 11.554688 -27.765625 13.328125 -27.765625 C 18.015625 -27.765625 21.488281 -26.546875 23.75 -24.109375 C 26.019531 -21.679688 27.15625 -18.234375 27.15625 -13.765625 L 27.15625 -1 C 27.15625 -0.625 27.082031 -0.363281 26.9375 -0.21875 C 26.789062 -0.0703125 26.550781 0 26.21875 0 L 18.96875 0 C 18.632812 0 18.382812 -0.0703125 18.21875 -0.21875 C 18.050781 -0.363281 17.96875 -0.625 17.96875 -1 Z M 11.234375 -8.125 C 11.234375 -7.0625 11.554688 -6.222656 12.203125 -5.609375 C 12.847656 -5.003906 13.664062 -4.703125 14.65625 -4.703125 C 15.613281 -4.703125 16.425781 -5.003906 17.09375 -5.609375 C 17.757812 -6.222656 18.09375 -7.023438 18.09375 -8.015625 C 18.09375 -9.117188 17.769531 -9.972656 17.125 -10.578125 C 16.476562 -11.191406 15.65625 -11.5 14.65625 -11.5 C 13.664062 -11.5 12.847656 -11.191406 12.203125 -10.578125 C 11.554688 -9.972656 11.234375 -9.15625 11.234375 -8.125 Z M 11.234375 -8.125 "/></g></g></g><g fill="#000000" fill-opacity="1"><g transform="translate(393.51429, 117.284311)"><g/></g></g><g fill="#000000" fill-opacity="1"><g transform="translate(406.180656, 117.284311)"><g><path d="M 0.546875 -6.6875 C 0.546875 -7.207031 0.664062 -7.578125 0.90625 -7.796875 C 1.144531 -8.015625 1.523438 -8.125 2.046875 -8.125 L 2.875 -8.125 C 3.207031 -8.125 3.460938 -8.1875 3.640625 -8.3125 C 3.828125 -8.445312 4.015625 -8.703125 4.203125 -9.078125 L 13.5 -26.109375 C 13.90625 -26.847656 14.242188 -27.363281 14.515625 -27.65625 C 14.796875 -27.945312 15.140625 -28.09375 15.546875 -28.09375 C 15.953125 -28.09375 16.289062 -27.945312 16.5625 -27.65625 C 16.84375 -27.363281 17.1875 -26.847656 17.59375 -26.109375 L 26.828125 -9.078125 C 27.015625 -8.703125 27.207031 -8.445312 27.40625 -8.3125 C 27.613281 -8.1875 27.9375 -8.125 28.375 -8.125 L 29.265625 -8.125 C 29.773438 -8.125 30.148438 -8.015625 30.390625 -7.796875 C 30.628906 -7.578125 30.75 -7.207031 30.75 -6.6875 L 30.75 7.40625 C 30.75 7.925781 30.628906 8.296875 30.390625 8.515625 C 30.148438 8.734375 29.773438 8.84375 29.265625 8.84375 L 23.734375 8.84375 C 23.253906 8.84375 22.894531 8.734375 22.65625 8.515625 C 22.414062 8.296875 22.296875 7.925781 22.296875 7.40625 L 22.296875 0.828125 C 22.296875 0.535156 22.238281 0.320312 22.125 0.1875 C 22.007812 0.0625 21.789062 0 21.46875 0 L 9.84375 0 C 9.507812 0 9.285156 0.0625 9.171875 0.1875 C 9.066406 0.320312 9.015625 0.535156 9.015625 0.828125 L 9.015625 7.40625 C 9.015625 7.925781 8.90625 8.296875 8.6875 8.515625 C 8.46875 8.734375 8.097656 8.84375 7.578125 8.84375 L 2.046875 8.84375 C 1.523438 8.84375 1.144531 8.734375 0.90625 8.515625 C 0.664062 8.296875 0.546875 7.925781 0.546875 7.40625 Z M 15.484375 -14.4375 L 11.609375 -7.03125 L 19.296875 -7.03125 Z M 15.484375 -14.4375 "/></g></g></g><g fill="#000000" fill-opacity="1"><g transform="translate(434.942953, 117.284311)"><g><path d="M 1.9375 -13.4375 C 1.9375 -16.207031 2.570312 -18.675781 3.84375 -20.84375 C 5.113281 -23.019531 6.882812 -24.71875 9.15625 -25.9375 C 11.425781 -27.15625 14.015625 -27.765625 16.921875 -27.765625 C 19.835938 -27.765625 22.4375 -27.15625 24.71875 -25.9375 C 27.007812 -24.71875 28.789062 -23.03125 30.0625 -20.875 C 31.332031 -18.71875 31.96875 -16.273438 31.96875 -13.546875 C 31.96875 -10.816406 31.332031 -8.375 30.0625 -6.21875 C 28.789062 -4.0625 27 -2.375 24.6875 -1.15625 C 22.382812 0.0507812 19.78125 0.65625 16.875 0.65625 C 13.957031 0.65625 11.363281 0.0546875 9.09375 -1.140625 C 6.832031 -2.335938 5.070312 -4.015625 3.8125 -6.171875 C 2.5625 -8.328125 1.9375 -10.75 1.9375 -13.4375 Z M 16.875 -7.6875 C 17.863281 -7.6875 18.78125 -7.9375 19.625 -8.4375 C 20.476562 -8.9375 21.160156 -9.628906 21.671875 -10.515625 C 22.191406 -11.398438 22.453125 -12.410156 22.453125 -13.546875 C 22.453125 -14.691406 22.191406 -15.707031 21.671875 -16.59375 C 21.160156 -17.476562 20.476562 -18.171875 19.625 -18.671875 C 18.78125 -19.171875 17.863281 -19.421875 16.875 -19.421875 C 15.875 -19.421875 14.957031 -19.171875 14.125 -18.671875 C 13.300781 -18.171875 12.648438 -17.476562 12.171875 -16.59375 C 11.691406 -15.707031 11.453125 -14.691406 11.453125 -13.546875 C 11.453125 -12.410156 11.691406 -11.398438 12.171875 -10.515625 C 12.648438 -9.628906 13.300781 -8.9375 14.125 -8.4375 C 14.957031 -7.9375 15.875 -7.6875 16.875 -7.6875 Z M 16.875 -7.6875 "/></g></g></g><g fill="#000000" fill-opacity="1"><g transform="translate(466.304935, 117.284311)"><g><path d="M 3.59375 -24.453125 C 3.59375 -25.515625 3.609375 -26.265625 3.640625 -26.703125 C 3.679688 -27.148438 3.800781 -27.46875 4 -27.65625 C 4.207031 -27.84375 4.535156 -27.9375 4.984375 -27.9375 C 5.390625 -27.9375 5.941406 -27.675781 6.640625 -27.15625 C 7.335938 -26.644531 8.3125 -25.722656 9.5625 -24.390625 L 17.921875 -15.765625 L 26.328125 -24.390625 C 27.617188 -25.722656 28.601562 -26.644531 29.28125 -27.15625 C 29.96875 -27.675781 30.515625 -27.9375 30.921875 -27.9375 C 31.359375 -27.9375 31.675781 -27.84375 31.875 -27.65625 C 32.082031 -27.46875 32.203125 -27.148438 32.234375 -26.703125 C 32.273438 -26.265625 32.296875 -25.515625 32.296875 -24.453125 L 32.296875 -1.4375 C 32.296875 -0.957031 32.1875 -0.597656 31.96875 -0.359375 C 31.75 -0.117188 31.378906 0 30.859375 0 L 24.5 0 C 23.988281 0 23.613281 -0.109375 23.375 -0.328125 C 23.132812 -0.546875 23.015625 -0.914062 23.015625 -1.4375 L 23.015625 -10.171875 L 20.078125 -7.1875 C 19.554688 -6.675781 19.128906 -6.300781 18.796875 -6.0625 C 18.472656 -5.820312 18.179688 -5.703125 17.921875 -5.703125 C 17.660156 -5.703125 17.382812 -5.8125 17.09375 -6.03125 C 16.800781 -6.25 16.375 -6.632812 15.8125 -7.1875 L 12.890625 -10.171875 L 12.890625 -1.4375 C 12.890625 -0.914062 12.769531 -0.546875 12.53125 -0.328125 C 12.289062 -0.109375 11.910156 0 11.390625 0 L 5.03125 0 C 4.550781 0 4.191406 -0.117188 3.953125 -0.359375 C 3.710938 -0.597656 3.59375 -0.957031 3.59375 -1.4375 Z M 3.59375 -24.453125 "/></g></g></g><g fill="#000000" fill-opacity="1"><g transform="translate(499.65819, 117.284311)"><g><path d="M 17.96875 -1.21875 C 16.457031 -0.0390625 14.429688 0.546875 11.890625 0.546875 C 9.859375 0.546875 8.078125 0.1875 6.546875 -0.53125 C 5.023438 -1.25 3.859375 -2.257812 3.046875 -3.5625 C 2.234375 -4.875 1.828125 -6.394531 1.828125 -8.125 C 1.828125 -9.894531 2.238281 -11.425781 3.0625 -12.71875 C 3.894531 -14.007812 5.066406 -15.003906 6.578125 -15.703125 C 8.085938 -16.410156 9.859375 -16.765625 11.890625 -16.765625 C 13.109375 -16.765625 14.242188 -16.613281 15.296875 -16.3125 C 16.347656 -16.019531 17.238281 -15.597656 17.96875 -15.046875 C 17.863281 -16.515625 17.320312 -17.644531 16.34375 -18.4375 C 15.363281 -19.238281 14.007812 -19.640625 12.28125 -19.640625 L 10.5625 -19.578125 C 10.226562 -19.546875 9.804688 -19.53125 9.296875 -19.53125 C 8.847656 -19.53125 8.539062 -19.617188 8.375 -19.796875 C 8.207031 -19.984375 8.085938 -20.335938 8.015625 -20.859375 L 7.46875 -25.671875 C 7.425781 -26.222656 7.5 -26.617188 7.6875 -26.859375 C 7.875 -27.097656 8.222656 -27.269531 8.734375 -27.375 C 10.023438 -27.632812 11.554688 -27.765625 13.328125 -27.765625 C 18.015625 -27.765625 21.488281 -26.546875 23.75 -24.109375 C 26.019531 -21.679688 27.15625 -18.234375 27.15625 -13.765625 L 27.15625 -1 C 27.15625 -0.625 27.082031 -0.363281 26.9375 -0.21875 C 26.789062 -0.0703125 26.550781 0 26.21875 0 L 18.96875 0 C 18.632812 0 18.382812 -0.0703125 18.21875 -0.21875 C 18.050781 -0.363281 17.96875 -0.625 17.96875 -1 Z M 11.234375 -8.125 C 11.234375 -7.0625 11.554688 -6.222656 12.203125 -5.609375 C 12.847656 -5.003906 13.664062 -4.703125 14.65625 -4.703125 C 15.613281 -4.703125 16.425781 -5.003906 17.09375 -5.609375 C 17.757812 -6.222656 18.09375 -7.023438 18.09375 -8.015625 C 18.09375 -9.117188 17.769531 -9.972656 17.125 -10.578125 C 16.476562 -11.191406 15.65625 -11.5 14.65625 -11.5 C 13.664062 -11.5 12.847656 -11.191406 12.203125 -10.578125 C 11.554688 -9.972656 11.234375 -9.15625 11.234375 -8.125 Z M 11.234375 -8.125 "/></g></g></g><g fill="#000000" fill-opacity="1"><g transform="translate(527.59079, 117.284311)"><g><path d="M 3.59375 -25.671875 C 3.59375 -26.179688 3.710938 -26.546875 3.953125 -26.765625 C 4.191406 -26.992188 4.550781 -27.109375 5.03125 -27.109375 L 11.390625 -27.109375 C 11.910156 -27.109375 12.289062 -26.992188 12.53125 -26.765625 C 12.769531 -26.546875 12.890625 -26.179688 12.890625 -25.671875 L 12.890625 -8.515625 C 12.890625 -8.253906 13.070312 -8.125 13.4375 -8.125 L 19.078125 -8.125 C 19.453125 -8.125 19.640625 -8.253906 19.640625 -8.515625 L 19.640625 -25.671875 C 19.640625 -26.179688 19.757812 -26.546875 20 -26.765625 C 20.238281 -26.992188 20.597656 -27.109375 21.078125 -27.109375 L 27.4375 -27.109375 C 27.945312 -27.109375 28.320312 -26.992188 28.5625 -26.765625 C 28.800781 -26.546875 28.921875 -26.179688 28.921875 -25.671875 L 28.921875 -8.40625 C 28.960938 -8.289062 29.03125 -8.210938 29.125 -8.171875 C 29.21875 -8.140625 29.335938 -8.125 29.484375 -8.125 L 35.125 -8.125 C 35.488281 -8.125 35.671875 -8.253906 35.671875 -8.515625 L 35.671875 -25.671875 C 35.671875 -26.179688 35.789062 -26.546875 36.03125 -26.765625 C 36.269531 -26.992188 36.648438 -27.109375 37.171875 -27.109375 L 43.53125 -27.109375 C 44.050781 -27.109375 44.421875 -26.992188 44.640625 -26.765625 C 44.859375 -26.546875 44.96875 -26.179688 44.96875 -25.671875 L 44.96875 -1.4375 C 44.96875 -0.957031 44.859375 -0.597656 44.640625 -0.359375 C 44.421875 -0.117188 44.050781 0 43.53125 0 L 5.03125 0 C 4.550781 0 4.191406 -0.117188 3.953125 -0.359375 C 3.710938 -0.597656 3.59375 -0.957031 3.59375 -1.4375 Z M 3.59375 -25.671875 "/></g></g></g><g fill="#000000" fill-opacity="1"><g transform="translate(573.610594, 117.284311)"><g><path d="M 28.265625 -4.8125 C 28.453125 -4.445312 28.546875 -4.132812 28.546875 -3.875 C 28.546875 -3.46875 28.269531 -3.0625 27.71875 -2.65625 C 26.125 -1.507812 24.40625 -0.671875 22.5625 -0.140625 C 20.71875 0.390625 18.582031 0.65625 16.15625 0.65625 C 13.28125 0.65625 10.769531 0.0546875 8.625 -1.140625 C 6.488281 -2.335938 4.835938 -4.003906 3.671875 -6.140625 C 2.515625 -8.273438 1.9375 -10.707031 1.9375 -13.4375 C 1.9375 -16.207031 2.523438 -18.675781 3.703125 -20.84375 C 4.878906 -23.019531 6.535156 -24.71875 8.671875 -25.9375 C 10.816406 -27.15625 13.273438 -27.765625 16.046875 -27.765625 C 18.804688 -27.765625 21.226562 -27.164062 23.3125 -25.96875 C 25.394531 -24.769531 27.007812 -23.109375 28.15625 -20.984375 C 29.300781 -18.867188 29.875 -16.425781 29.875 -13.65625 L 29.875 -12.171875 C 29.875 -11.796875 29.796875 -11.535156 29.640625 -11.390625 C 29.492188 -11.242188 29.253906 -11.171875 28.921875 -11.171875 L 11.34375 -11.171875 C 11.5625 -9.691406 12.195312 -8.546875 13.25 -7.734375 C 14.300781 -6.929688 15.582031 -6.53125 17.09375 -6.53125 C 18.457031 -6.53125 19.691406 -6.703125 20.796875 -7.046875 C 21.898438 -7.398438 23.003906 -7.910156 24.109375 -8.578125 C 24.628906 -8.910156 25.035156 -9.078125 25.328125 -9.078125 C 25.660156 -9.078125 25.957031 -8.851562 26.21875 -8.40625 Z M 20.40625 -16.984375 C 20.300781 -18.234375 19.867188 -19.234375 19.109375 -19.984375 C 18.347656 -20.742188 17.328125 -21.125 16.046875 -21.125 C 14.898438 -21.125 13.929688 -20.773438 13.140625 -20.078125 C 12.347656 -19.378906 11.785156 -18.347656 11.453125 -16.984375 Z M 20.40625 -16.984375 "/></g></g></g><g fill="#000000" fill-opacity="1"><g transform="translate(602.870709, 117.284311)"><g><path d="M 3.59375 -25.671875 C 3.59375 -26.179688 3.710938 -26.546875 3.953125 -26.765625 C 4.191406 -26.992188 4.550781 -27.109375 5.03125 -27.109375 L 11.390625 -27.109375 C 11.910156 -27.109375 12.289062 -26.992188 12.53125 -26.765625 C 12.769531 -26.546875 12.890625 -26.179688 12.890625 -25.671875 L 12.890625 -18.3125 C 12.890625 -17.9375 13.070312 -17.75 13.4375 -17.75 L 20.1875 -17.75 C 20.550781 -17.75 20.734375 -17.9375 20.734375 -18.3125 L 20.734375 -25.671875 C 20.734375 -26.179688 20.851562 -26.546875 21.09375 -26.765625 C 21.34375 -26.992188 21.722656 -27.109375 22.234375 -27.109375 L 28.59375 -27.109375 C 29.113281 -27.109375 29.484375 -26.992188 29.703125 -26.765625 C 29.921875 -26.546875 30.03125 -26.179688 30.03125 -25.671875 L 30.03125 -1.4375 C 30.03125 -0.957031 29.921875 -0.597656 29.703125 -0.359375 C 29.484375 -0.117188 29.113281 0 28.59375 0 L 22.234375 0 C 21.722656 0 21.34375 -0.109375 21.09375 -0.328125 C 20.851562 -0.546875 20.734375 -0.914062 20.734375 -1.4375 L 20.734375 -9.015625 C 20.734375 -9.421875 20.550781 -9.625 20.1875 -9.625 L 13.4375 -9.625 C 13.070312 -9.625 12.890625 -9.421875 12.890625 -9.015625 L 12.890625 -1.4375 C 12.890625 -0.914062 12.769531 -0.546875 12.53125 -0.328125 C 12.289062 -0.109375 11.910156 0 11.390625 0 L 5.03125 0 C 4.550781 0 4.191406 -0.117188 3.953125 -0.359375 C 3.710938 -0.597656 3.59375 -0.957031 3.59375 -1.4375 Z M 3.59375 -25.671875 "/></g></g></g><g fill="#000000" fill-opacity="1"><g transform="translate(283.556531, 173.534308)"><g><path d="M 14 -26.109375 C 14.40625 -26.804688 14.753906 -27.3125 15.046875 -27.625 C 15.335938 -27.9375 15.648438 -28.09375 15.984375 -28.09375 C 16.316406 -28.09375 16.628906 -27.945312 16.921875 -27.65625 C 17.222656 -27.363281 17.570312 -26.847656 17.96875 -26.109375 L 31.46875 -1.328125 C 31.613281 -1.066406 31.6875 -0.828125 31.6875 -0.609375 C 31.6875 -0.203125 31.394531 0 30.8125 0 L 22.84375 0 C 22.363281 0 22.019531 -0.0820312 21.8125 -0.25 C 21.613281 -0.414062 21.382812 -0.753906 21.125 -1.265625 L 15.765625 -11.890625 L 10.5625 -1.265625 C 10.300781 -0.785156 10.0625 -0.453125 9.84375 -0.265625 C 9.625 -0.0859375 9.289062 0 8.84375 0 L 1.21875 0 C 0.925781 0 0.6875 -0.0625 0.5 -0.1875 C 0.3125 -0.320312 0.21875 -0.5 0.21875 -0.71875 C 0.21875 -0.9375 0.289062 -1.140625 0.4375 -1.328125 Z M 14 -26.109375 "/></g></g></g><g fill="#000000" fill-opacity="1"><g transform="translate(312.982586, 173.534308)"><g><path d="M 3.59375 -25.671875 C 3.59375 -26.179688 3.710938 -26.546875 3.953125 -26.765625 C 4.191406 -26.992188 4.550781 -27.109375 5.03125 -27.109375 L 11.390625 -27.109375 C 11.910156 -27.109375 12.289062 -26.992188 12.53125 -26.765625 C 12.769531 -26.546875 12.890625 -26.179688 12.890625 -25.671875 L 12.890625 -18.3125 C 12.890625 -17.9375 13.070312 -17.75 13.4375 -17.75 L 18.03125 -17.75 C 18.582031 -19.738281 19.539062 -21.488281 20.90625 -23 C 22.269531 -24.519531 23.925781 -25.691406 25.875 -26.515625 C 27.832031 -27.347656 30.007812 -27.765625 32.40625 -27.765625 C 35.320312 -27.765625 37.921875 -27.15625 40.203125 -25.9375 C 42.492188 -24.71875 44.273438 -23.03125 45.546875 -20.875 C 46.816406 -18.71875 47.453125 -16.273438 47.453125 -13.546875 C 47.453125 -10.816406 46.816406 -8.375 45.546875 -6.21875 C 44.273438 -4.0625 42.488281 -2.375 40.1875 -1.15625 C 37.882812 0.0507812 35.273438 0.65625 32.359375 0.65625 C 29.921875 0.65625 27.695312 0.234375 25.6875 -0.609375 C 23.675781 -1.453125 22.007812 -2.648438 20.6875 -4.203125 C 19.363281 -5.753906 18.421875 -7.5625 17.859375 -9.625 L 13.4375 -9.625 C 13.070312 -9.625 12.890625 -9.421875 12.890625 -9.015625 L 12.890625 -1.4375 C 12.890625 -0.914062 12.769531 -0.546875 12.53125 -0.328125 C 12.289062 -0.109375 11.910156 0 11.390625 0 L 5.03125 0 C 4.550781 0 4.191406 -0.117188 3.953125 -0.359375 C 3.710938 -0.597656 3.59375 -0.957031 3.59375 -1.4375 Z M 32.359375 -7.6875 C 33.347656 -7.6875 34.265625 -7.9375 35.109375 -8.4375 C 35.960938 -8.9375 36.644531 -9.628906 37.15625 -10.515625 C 37.675781 -11.398438 37.9375 -12.410156 37.9375 -13.546875 C 37.9375 -14.691406 37.675781 -15.707031 37.15625 -16.59375 C 36.644531 -17.476562 35.960938 -18.171875 35.109375 -18.671875 C 34.265625 -19.171875 33.347656 -19.421875 32.359375 -19.421875 C 31.359375 -19.421875 30.441406 -19.171875 29.609375 -18.671875 C 28.785156 -18.171875 28.132812 -17.476562 27.65625 -16.59375 C 27.175781 -15.707031 26.9375 -14.691406 26.9375 -13.546875 C 26.9375 -12.410156 27.175781 -11.398438 27.65625 -10.515625 C 28.132812 -9.628906 28.785156 -8.9375 29.609375 -8.4375 C 30.441406 -7.9375 31.359375 -7.6875 32.359375 -7.6875 Z M 32.359375 -7.6875 "/></g></g></g><g fill="#000000" fill-opacity="1"><g transform="translate(359.832074, 173.534308)"><g><path d="M 26.765625 -41.375 C 26.878906 -41.445312 27.03125 -41.484375 27.21875 -41.484375 C 27.507812 -41.484375 27.742188 -41.332031 27.921875 -41.03125 C 28.109375 -40.738281 28.203125 -40.375 28.203125 -39.9375 L 28.203125 -35.296875 C 28.203125 -34.585938 28.117188 -34.113281 27.953125 -33.875 C 27.796875 -33.632812 27.585938 -33.457031 27.328125 -33.34375 C 27.066406 -33.238281 26.878906 -33.148438 26.765625 -33.078125 L 18.96875 -28.921875 L 17.140625 -27.984375 C 15.816406 -27.359375 14.757812 -26.816406 13.96875 -26.359375 C 13.175781 -25.898438 12.59375 -25.429688 12.21875 -24.953125 C 12.40625 -24.984375 12.789062 -25.109375 13.375 -25.328125 C 13.96875 -25.554688 14.671875 -25.75 15.484375 -25.90625 C 16.296875 -26.070312 17.125 -26.15625 17.96875 -26.15625 C 20.519531 -26.15625 22.851562 -25.617188 24.96875 -24.546875 C 27.09375 -23.484375 28.789062 -21.957031 30.0625 -19.96875 C 31.332031 -17.976562 31.96875 -15.65625 31.96875 -13 C 31.96875 -10.269531 31.332031 -7.867188 30.0625 -5.796875 C 28.789062 -3.734375 27.007812 -2.140625 24.71875 -1.015625 C 22.4375 0.0976562 19.820312 0.65625 16.875 0.65625 C 13.882812 0.65625 11.265625 0.0507812 9.015625 -1.15625 C 6.765625 -2.375 5.019531 -4.144531 3.78125 -6.46875 C 2.550781 -8.789062 1.9375 -11.554688 1.9375 -14.765625 C 1.9375 -19.078125 3.03125 -22.929688 5.21875 -26.328125 C 7.414062 -29.722656 10.691406 -32.617188 15.046875 -35.015625 Z M 11.453125 -13 C 11.453125 -11.894531 11.691406 -10.941406 12.171875 -10.140625 C 12.648438 -9.347656 13.300781 -8.738281 14.125 -8.3125 C 14.957031 -7.894531 15.875 -7.6875 16.875 -7.6875 C 17.863281 -7.6875 18.789062 -7.894531 19.65625 -8.3125 C 20.53125 -8.738281 21.210938 -9.359375 21.703125 -10.171875 C 22.203125 -10.984375 22.453125 -11.925781 22.453125 -13 C 22.453125 -14.070312 22.203125 -15.007812 21.703125 -15.8125 C 21.210938 -16.625 20.53125 -17.242188 19.65625 -17.671875 C 18.789062 -18.097656 17.863281 -18.3125 16.875 -18.3125 C 15.875 -18.3125 14.957031 -18.097656 14.125 -17.671875 C 13.300781 -17.242188 12.648438 -16.632812 12.171875 -15.84375 C 11.691406 -15.050781 11.453125 -14.101562 11.453125 -13 Z M 11.453125 -13 "/></g></g></g><g fill="#000000" fill-opacity="1"><g transform="translate(391.194057, 173.534308)"><g><path d="M 3.59375 -25.671875 C 3.59375 -26.179688 3.710938 -26.546875 3.953125 -26.765625 C 4.191406 -26.992188 4.550781 -27.109375 5.03125 -27.109375 L 11.390625 -27.109375 C 11.910156 -27.109375 12.289062 -26.992188 12.53125 -26.765625 C 12.769531 -26.546875 12.890625 -26.179688 12.890625 -25.671875 L 12.890625 -15.765625 L 20.90625 -22.515625 C 21.425781 -22.921875 21.960938 -23.398438 22.515625 -23.953125 C 24.054688 -25.273438 25.25 -26.269531 26.09375 -26.9375 C 26.945312 -27.601562 27.578125 -27.9375 27.984375 -27.9375 C 28.285156 -27.9375 28.5 -27.84375 28.625 -27.65625 C 28.75 -27.46875 28.828125 -27.085938 28.859375 -26.515625 C 28.898438 -25.953125 28.921875 -25.265625 28.921875 -24.453125 L 28.921875 -1.4375 C 28.921875 -0.957031 28.8125 -0.597656 28.59375 -0.359375 C 28.375 -0.117188 28.003906 0 27.484375 0 L 21.125 0 C 20.613281 0 20.238281 -0.109375 20 -0.328125 C 19.757812 -0.546875 19.640625 -0.914062 19.640625 -1.4375 L 19.640625 -11.34375 L 11.609375 -4.59375 C 11.097656 -4.1875 10.566406 -3.707031 10.015625 -3.15625 C 8.460938 -1.820312 7.257812 -0.820312 6.40625 -0.15625 C 5.5625 0.5 4.9375 0.828125 4.53125 0.828125 C 4.238281 0.828125 4.023438 0.734375 3.890625 0.546875 C 3.765625 0.367188 3.679688 -0.00390625 3.640625 -0.578125 C 3.609375 -1.148438 3.59375 -1.84375 3.59375 -2.65625 Z M 3.59375 -25.671875 "/></g></g></g><g fill="#000000" fill-opacity="1"><g transform="translate(421.173227, 173.534308)"><g><path d="M 3.59375 -24.453125 C 3.59375 -25.515625 3.609375 -26.265625 3.640625 -26.703125 C 3.679688 -27.148438 3.800781 -27.46875 4 -27.65625 C 4.207031 -27.84375 4.535156 -27.9375 4.984375 -27.9375 C 5.390625 -27.9375 5.941406 -27.675781 6.640625 -27.15625 C 7.335938 -26.644531 8.3125 -25.722656 9.5625 -24.390625 L 17.921875 -15.765625 L 26.328125 -24.390625 C 27.617188 -25.722656 28.601562 -26.644531 29.28125 -27.15625 C 29.96875 -27.675781 30.515625 -27.9375 30.921875 -27.9375 C 31.359375 -27.9375 31.675781 -27.84375 31.875 -27.65625 C 32.082031 -27.46875 32.203125 -27.148438 32.234375 -26.703125 C 32.273438 -26.265625 32.296875 -25.515625 32.296875 -24.453125 L 32.296875 -1.4375 C 32.296875 -0.957031 32.1875 -0.597656 31.96875 -0.359375 C 31.75 -0.117188 31.378906 0 30.859375 0 L 24.5 0 C 23.988281 0 23.613281 -0.109375 23.375 -0.328125 C 23.132812 -0.546875 23.015625 -0.914062 23.015625 -1.4375 L 23.015625 -10.171875 L 20.078125 -7.1875 C 19.554688 -6.675781 19.128906 -6.300781 18.796875 -6.0625 C 18.472656 -5.820312 18.179688 -5.703125 17.921875 -5.703125 C 17.660156 -5.703125 17.382812 -5.8125 17.09375 -6.03125 C 16.800781 -6.25 16.375 -6.632812 15.8125 -7.1875 L 12.890625 -10.171875 L 12.890625 -1.4375 C 12.890625 -0.914062 12.769531 -0.546875 12.53125 -0.328125 C 12.289062 -0.109375 11.910156 0 11.390625 0 L 5.03125 0 C 4.550781 0 4.191406 -0.117188 3.953125 -0.359375 C 3.710938 -0.597656 3.59375 -0.957031 3.59375 -1.4375 Z M 3.59375 -24.453125 "/></g></g></g><g fill="#000000" fill-opacity="1"><g transform="translate(454.52647, 173.534308)"><g><path d="M 28.265625 -4.8125 C 28.453125 -4.445312 28.546875 -4.132812 28.546875 -3.875 C 28.546875 -3.46875 28.269531 -3.0625 27.71875 -2.65625 C 26.125 -1.507812 24.40625 -0.671875 22.5625 -0.140625 C 20.71875 0.390625 18.582031 0.65625 16.15625 0.65625 C 13.28125 0.65625 10.769531 0.0546875 8.625 -1.140625 C 6.488281 -2.335938 4.835938 -4.003906 3.671875 -6.140625 C 2.515625 -8.273438 1.9375 -10.707031 1.9375 -13.4375 C 1.9375 -16.207031 2.523438 -18.675781 3.703125 -20.84375 C 4.878906 -23.019531 6.535156 -24.71875 8.671875 -25.9375 C 10.816406 -27.15625 13.273438 -27.765625 16.046875 -27.765625 C 18.804688 -27.765625 21.226562 -27.164062 23.3125 -25.96875 C 25.394531 -24.769531 27.007812 -23.109375 28.15625 -20.984375 C 29.300781 -18.867188 29.875 -16.425781 29.875 -13.65625 L 29.875 -12.171875 C 29.875 -11.796875 29.796875 -11.535156 29.640625 -11.390625 C 29.492188 -11.242188 29.253906 -11.171875 28.921875 -11.171875 L 11.34375 -11.171875 C 11.5625 -9.691406 12.195312 -8.546875 13.25 -7.734375 C 14.300781 -6.929688 15.582031 -6.53125 17.09375 -6.53125 C 18.457031 -6.53125 19.691406 -6.703125 20.796875 -7.046875 C 21.898438 -7.398438 23.003906 -7.910156 24.109375 -8.578125 C 24.628906 -8.910156 25.035156 -9.078125 25.328125 -9.078125 C 25.660156 -9.078125 25.957031 -8.851562 26.21875 -8.40625 Z M 20.40625 -16.984375 C 20.300781 -18.234375 19.867188 -19.234375 19.109375 -19.984375 C 18.347656 -20.742188 17.328125 -21.125 16.046875 -21.125 C 14.898438 -21.125 13.929688 -20.773438 13.140625 -20.078125 C 12.347656 -19.378906 11.785156 -18.347656 11.453125 -16.984375 Z M 20.40625 -16.984375 "/></g></g></g><g fill="#000000" fill-opacity="1"><g transform="translate(483.786586, 173.534308)"><g><path d="M 3.59375 -25.671875 C 3.59375 -26.179688 3.710938 -26.546875 3.953125 -26.765625 C 4.191406 -26.992188 4.550781 -27.109375 5.03125 -27.109375 L 11.390625 -27.109375 C 11.910156 -27.109375 12.289062 -26.992188 12.53125 -26.765625 C 12.769531 -26.546875 12.890625 -26.179688 12.890625 -25.671875 L 12.890625 -8.515625 C 12.890625 -8.253906 13.070312 -8.125 13.4375 -8.125 L 20.25 -8.125 C 20.613281 -8.125 20.796875 -8.253906 20.796875 -8.515625 L 20.796875 -25.671875 C 20.796875 -26.179688 20.914062 -26.546875 21.15625 -26.765625 C 21.394531 -26.992188 21.773438 -27.109375 22.296875 -27.109375 L 28.65625 -27.109375 C 29.164062 -27.109375 29.53125 -26.992188 29.75 -26.765625 C 29.976562 -26.546875 30.09375 -26.179688 30.09375 -25.671875 L 30.09375 -8.734375 C 30.09375 -8.515625 30.132812 -8.359375 30.21875 -8.265625 C 30.3125 -8.171875 30.453125 -8.125 30.640625 -8.125 L 33.296875 -8.125 C 33.816406 -8.125 34.195312 -8.015625 34.4375 -7.796875 C 34.675781 -7.578125 34.796875 -7.207031 34.796875 -6.6875 L 34.796875 7.40625 C 34.796875 7.925781 34.675781 8.296875 34.4375 8.515625 C 34.195312 8.734375 33.816406 8.84375 33.296875 8.84375 L 27.765625 8.84375 C 27.285156 8.84375 26.925781 8.734375 26.6875 8.515625 C 26.445312 8.296875 26.328125 7.925781 26.328125 7.40625 L 26.328125 0.828125 C 26.328125 0.273438 26.066406 0 25.546875 0 L 5.03125 0 C 4.550781 0 4.191406 -0.117188 3.953125 -0.359375 C 3.710938 -0.597656 3.59375 -0.957031 3.59375 -1.4375 Z M 3.59375 -25.671875 "/></g></g></g></svg>