<svg xmlns="http://www.w3.org/2000/svg" xmlns:xlink="http://www.w3.org/1999/xlink" width="1080" zoomAndPan="magnify" viewBox="0 0 810 809.999993" height="1080" preserveAspectRatio="xMidYMid meet" version="1.0"><defs><g/><clipPath id="40c85fb859"><path d="M 36.164062 685 L 774 685 L 774 688 L 36.164062 688 Z M 36.164062 685 " clip-rule="nonzero"/></clipPath><clipPath id="ad4ba31743"><path d="M 221 629 L 376 629 L 376 777.855469 L 221 777.855469 Z M 221 629 " clip-rule="nonzero"/></clipPath><clipPath id="82e7f07afc"><path d="M 552 209.355469 L 632 209.355469 L 632 323 L 552 323 Z M 552 209.355469 " clip-rule="nonzero"/></clipPath><clipPath id="6ed5230536"><path d="M 117 35 L 693 35 L 693 141 L 117 141 Z M 117 35 " clip-rule="nonzero"/></clipPath></defs><rect x="-81" width="972" fill="#ffffff" y="-80.999999" height="971.999992" fill-opacity="1"/><rect x="-81" width="972" fill="#fff9f0" y="-80.999999" height="971.999992" fill-opacity="1"/><g clip-path="url(#40c85fb859)"><path fill="#3f3d56" d="M 773.96875 686.746094 C 773.96875 687.414062 773.433594 687.949219 772.769531 687.949219 L 37.558594 687.949219 C 36.890625 687.949219 36.355469 687.414062 36.355469 686.746094 C 36.355469 686.421875 36.476562 686.140625 36.679688 685.929688 L 127.253906 685.929688 C 129.179688 685.929688 131.070312 685.796875 132.925781 685.542969 L 772.769531 685.542969 C 773.433594 685.542969 773.96875 686.078125 773.96875 686.746094 Z M 773.96875 686.746094 " fill-opacity="1" fill-rule="nonzero"/></g><path fill="#e6e6e6" d="M 112.019531 487.0625 L 186.34375 487.0625 L 186.34375 670.363281 L 112.019531 670.363281 Z M 112.019531 487.0625 " fill-opacity="1" fill-rule="nonzero"/><path fill="#e6e6e6" d="M 151.320312 540.015625 C 151.320312 558.574219 136.277344 573.621094 117.722656 573.621094 C 99.167969 573.621094 84.125 558.574219 84.125 540.015625 C 84.125 521.457031 99.167969 506.410156 117.722656 506.410156 C 136.277344 506.410156 151.320312 521.457031 151.320312 540.015625 Z M 151.320312 540.015625 " fill-opacity="1" fill-rule="nonzero"/><path fill="#e6e6e6" d="M 96.039062 540.21875 C 96.039062 540.835938 95.980469 541.445312 95.859375 542.046875 C 95.738281 542.652344 95.5625 543.238281 95.324219 543.804688 C 95.089844 544.375 94.800781 544.914062 94.460938 545.425781 C 94.117188 545.9375 93.730469 546.410156 93.296875 546.84375 C 92.859375 547.28125 92.386719 547.667969 91.875 548.011719 C 91.363281 548.351562 90.824219 548.640625 90.257812 548.875 C 89.6875 549.109375 89.101562 549.289062 88.5 549.410156 C 87.894531 549.527344 87.285156 549.589844 86.671875 549.589844 C 86.054688 549.589844 85.449219 549.527344 84.84375 549.410156 C 84.242188 549.289062 83.65625 549.109375 83.085938 548.875 C 82.519531 548.640625 81.980469 548.351562 81.46875 548.011719 C 80.957031 547.667969 80.484375 547.28125 80.046875 546.84375 C 79.613281 546.410156 79.226562 545.9375 78.882812 545.425781 C 78.542969 544.914062 78.253906 544.375 78.015625 543.804688 C 77.78125 543.238281 77.605469 542.652344 77.484375 542.046875 C 77.363281 541.445312 77.304688 540.835938 77.304688 540.21875 C 77.304688 539.605469 77.363281 538.996094 77.484375 538.390625 C 77.605469 537.789062 77.78125 537.203125 78.015625 536.632812 C 78.253906 536.066406 78.542969 535.527344 78.882812 535.015625 C 79.226562 534.503906 79.613281 534.03125 80.046875 533.59375 C 80.484375 533.160156 80.957031 532.773438 81.46875 532.429688 C 81.980469 532.089844 82.519531 531.800781 83.085938 531.5625 C 83.65625 531.328125 84.242188 531.152344 84.84375 531.03125 C 85.449219 530.910156 86.054688 530.851562 86.671875 530.851562 C 87.285156 530.851562 87.894531 530.910156 88.5 531.03125 C 89.101562 531.152344 89.6875 531.328125 90.257812 531.5625 C 90.824219 531.800781 91.363281 532.089844 91.875 532.429688 C 92.386719 532.773438 92.859375 533.160156 93.296875 533.59375 C 93.730469 534.03125 94.117188 534.503906 94.460938 535.015625 C 94.800781 535.527344 95.089844 536.066406 95.324219 536.632812 C 95.5625 537.203125 95.738281 537.789062 95.859375 538.390625 C 95.980469 538.996094 96.039062 539.605469 96.039062 540.21875 Z M 96.039062 540.21875 " fill-opacity="1" fill-rule="nonzero"/><path fill="#e6e6e6" d="M 210.371094 539.8125 C 210.371094 550.609375 201.621094 559.363281 190.824219 559.363281 C 180.027344 559.363281 171.277344 550.609375 171.277344 539.8125 C 171.277344 529.015625 180.027344 520.261719 190.824219 520.261719 C 201.621094 520.261719 210.371094 529.015625 210.371094 539.8125 Z M 210.371094 539.8125 " fill-opacity="1" fill-rule="nonzero"/><path fill="#e6e6e6" d="M 219.738281 539.8125 C 219.738281 540.429688 219.679688 541.039062 219.558594 541.640625 C 219.441406 542.246094 219.261719 542.832031 219.027344 543.398438 C 218.792969 543.96875 218.503906 544.507812 218.160156 545.019531 C 217.820312 545.53125 217.429688 546.003906 216.996094 546.4375 C 216.5625 546.871094 216.089844 547.261719 215.578125 547.601562 C 215.066406 547.945312 214.527344 548.234375 213.957031 548.46875 C 213.390625 548.703125 212.804688 548.882812 212.199219 549.003906 C 211.597656 549.121094 210.988281 549.183594 210.371094 549.183594 C 209.757812 549.183594 209.148438 549.121094 208.546875 549.003906 C 207.941406 548.882812 207.355469 548.703125 206.789062 548.46875 C 206.21875 548.234375 205.679688 547.945312 205.167969 547.601562 C 204.65625 547.261719 204.183594 546.871094 203.75 546.4375 C 203.3125 546.003906 202.925781 545.53125 202.585938 545.019531 C 202.242188 544.507812 201.953125 543.96875 201.71875 543.398438 C 201.484375 542.832031 201.304688 542.246094 201.1875 541.640625 C 201.066406 541.039062 201.003906 540.429688 201.003906 539.8125 C 201.003906 539.199219 201.066406 538.589844 201.1875 537.984375 C 201.304688 537.382812 201.484375 536.796875 201.71875 536.226562 C 201.953125 535.660156 202.242188 535.121094 202.585938 534.609375 C 202.925781 534.097656 203.3125 533.625 203.75 533.1875 C 204.183594 532.753906 204.65625 532.363281 205.167969 532.023438 C 205.679688 531.679688 206.21875 531.394531 206.789062 531.15625 C 207.355469 530.921875 207.941406 530.746094 208.546875 530.625 C 209.148438 530.503906 209.757812 530.445312 210.371094 530.445312 C 210.988281 530.445312 211.597656 530.503906 212.199219 530.625 C 212.804688 530.746094 213.390625 530.921875 213.957031 531.15625 C 214.527344 531.394531 215.066406 531.679688 215.578125 532.023438 C 216.089844 532.363281 216.5625 532.753906 216.996094 533.1875 C 217.429688 533.625 217.820312 534.097656 218.160156 534.609375 C 218.503906 535.121094 218.792969 535.660156 219.027344 536.226562 C 219.261719 536.796875 219.441406 537.382812 219.558594 537.984375 C 219.679688 538.589844 219.738281 539.199219 219.738281 539.8125 Z M 219.738281 539.8125 " fill-opacity="1" fill-rule="nonzero"/><path fill="#e6e6e6" d="M 159.464844 420.871094 C 159.464844 421.488281 159.40625 422.097656 159.285156 422.699219 C 159.167969 423.304688 158.988281 423.890625 158.753906 424.457031 C 158.519531 425.027344 158.230469 425.566406 157.886719 426.078125 C 157.546875 426.589844 157.15625 427.0625 156.722656 427.496094 C 156.289062 427.933594 155.816406 428.320312 155.304688 428.664062 C 154.792969 429.003906 154.253906 429.292969 153.683594 429.527344 C 153.117188 429.765625 152.53125 429.941406 151.925781 430.0625 C 151.324219 430.183594 150.714844 430.242188 150.097656 430.242188 C 149.484375 430.242188 148.875 430.183594 148.273438 430.0625 C 147.667969 429.941406 147.082031 429.765625 146.515625 429.527344 C 145.945312 429.292969 145.40625 429.003906 144.894531 428.664062 C 144.382812 428.320312 143.910156 427.933594 143.476562 427.496094 C 143.039062 427.0625 142.652344 426.589844 142.3125 426.078125 C 141.96875 425.566406 141.679688 425.027344 141.445312 424.457031 C 141.210938 423.890625 141.03125 423.304688 140.914062 422.699219 C 140.792969 422.097656 140.730469 421.488281 140.730469 420.871094 C 140.730469 420.257812 140.792969 419.648438 140.914062 419.046875 C 141.03125 418.441406 141.210938 417.855469 141.445312 417.289062 C 141.679688 416.71875 141.96875 416.179688 142.3125 415.667969 C 142.652344 415.15625 143.039062 414.683594 143.476562 414.246094 C 143.910156 413.8125 144.382812 413.425781 144.894531 413.082031 C 145.40625 412.742188 145.945312 412.453125 146.515625 412.21875 C 147.082031 411.980469 147.667969 411.804688 148.273438 411.683594 C 148.875 411.5625 149.484375 411.503906 150.097656 411.503906 C 150.714844 411.503906 151.324219 411.5625 151.925781 411.683594 C 152.53125 411.804688 153.117188 411.980469 153.683594 412.21875 C 154.253906 412.453125 154.792969 412.742188 155.304688 413.082031 C 155.816406 413.425781 156.289062 413.8125 156.722656 414.246094 C 157.15625 414.683594 157.546875 415.15625 157.886719 415.667969 C 158.230469 416.179688 158.519531 416.71875 158.753906 417.289062 C 158.988281 417.855469 159.167969 418.441406 159.285156 419.046875 C 159.40625 419.648438 159.464844 420.257812 159.464844 420.871094 Z M 159.464844 420.871094 " fill-opacity="1" fill-rule="nonzero"/><path fill="#e6e6e6" d="M 104.894531 473.011719 L 196.933594 473.011719 C 201.65625 473.011719 205.484375 476.839844 205.484375 481.566406 C 205.484375 486.289062 201.65625 490.117188 196.933594 490.117188 L 104.894531 490.117188 C 100.171875 490.117188 96.34375 486.289062 96.34375 481.566406 C 96.34375 476.839844 100.171875 473.011719 104.894531 473.011719 Z M 104.894531 473.011719 " fill-opacity="1" fill-rule="nonzero"/><path fill="#e6e6e6" d="M 150.914062 430.242188 C 170.46875 430.242188 186.34375 446.121094 186.34375 465.679688 L 186.34375 478.304688 L 115.484375 478.304688 L 115.484375 465.679688 C 115.484375 446.121094 131.359375 430.242188 150.914062 430.242188 Z M 150.914062 430.242188 " fill-opacity="1" fill-rule="nonzero"/><path fill="#e6e6e6" d="M 91.964844 667.304688 L 206.402344 667.304688 L 206.402344 685.636719 L 91.964844 685.636719 Z M 91.964844 667.304688 " fill-opacity="1" fill-rule="nonzero"/><path fill="#3f3d56" d="M 246.554688 574.164062 C 255.605469 579.621094 256.5 582.199219 261.980469 584.449219 C 264.757812 585.589844 269.953125 587.15625 279.984375 585.738281 C 293.800781 583.777344 302.320312 578.195312 326.269531 565.160156 C 343.351562 555.863281 351.703125 551.796875 363.558594 549.726562 C 372.4375 548.179688 377.601562 548.742188 381.558594 549.726562 C 395.363281 553.164062 402.898438 563.8125 404.703125 566.445312 C 410.9375 575.542969 411.730469 584.429688 412.417969 592.167969 C 413.28125 601.914062 414.53125 615.996094 407.273438 626.890625 C 398.175781 640.539062 385.503906 634.488281 363.558594 647.464844 C 339.300781 661.804688 343.355469 675.949219 323.699219 683.472656 C 298.546875 693.101562 271.160156 677.882812 269.695312 677.042969 C 243.65625 662.105469 238.324219 634.996094 224.695312 637.175781 C 216.550781 638.480469 215.738281 648.589844 202.835938 651.324219 C 200.421875 651.835938 190.488281 653.9375 183.550781 647.464844 C 179.289062 643.488281 179.421875 652.390625 181.621094 646.820312 C 184.449219 639.671875 190.148438 625.714844 193.835938 617.886719 C 195.808594 613.703125 193.585938 612.414062 195.121094 601.167969 C 195.875 595.675781 196.25 592.902344 197.695312 589.59375 C 201.269531 581.394531 208.207031 577.160156 213.125 574.164062 C 219.105469 570.511719 224.984375 566.925781 232.410156 567.734375 C 236.660156 568.195312 239.957031 570.183594 246.554688 574.164062 Z M 246.554688 574.164062 " fill-opacity="1" fill-rule="nonzero"/><path fill="#3f3d56" d="M 403.414062 605.027344 C 405.695312 606.894531 406.238281 610.683594 407.273438 617.886719 C 408.230469 624.550781 407.648438 628.636719 407.273438 635.890625 C 406.710938 646.777344 407.597656 645.765625 407.273438 660.324219 C 407.007812 672.304688 406.871094 678.296875 405.988281 683.472656 C 404.394531 692.78125 403.546875 689.203125 395.703125 713.050781 C 394.109375 717.890625 392.84375 721.996094 389.273438 723.339844 C 384.800781 725.023438 379.648438 721.261719 378.984375 720.765625 C 377.902344 719.957031 374.082031 717.09375 373.84375 713.050781 C 373.539062 707.921875 379.34375 706.621094 384.128906 698.90625 C 387.117188 694.085938 387.835938 689.261719 389.273438 679.613281 C 390.640625 670.441406 391.320312 665.851562 389.273438 661.609375 C 385.53125 653.871094 376.976562 651.472656 376.414062 651.324219 C 371.296875 649.96875 369.640625 651.886719 363.558594 651.324219 C 357.867188 650.796875 348.492188 648.117188 346.84375 643.605469 C 342.316406 631.242188 392.519531 596.097656 403.414062 605.027344 Z M 403.414062 605.027344 " fill-opacity="1" fill-rule="nonzero"/><path fill="#3f3d56" d="M 382.84375 587.023438 C 385.125 588.890625 385.667969 592.679688 386.699219 599.882812 C 387.65625 606.546875 387.074219 610.632812 386.699219 617.886719 C 386.140625 628.773438 387.023438 627.757812 386.699219 642.320312 C 386.433594 654.300781 386.300781 660.292969 385.414062 665.46875 C 383.824219 674.777344 382.972656 671.199219 375.128906 695.046875 C 373.539062 699.886719 372.269531 703.992188 368.699219 705.335938 C 364.226562 707.019531 359.074219 703.257812 358.414062 702.761719 C 357.332031 701.949219 353.511719 699.085938 353.269531 695.046875 C 352.96875 689.917969 358.773438 688.617188 363.558594 680.902344 C 366.546875 676.082031 367.261719 671.257812 368.699219 661.609375 C 370.066406 652.4375 370.75 647.847656 368.699219 643.605469 C 364.960938 635.867188 356.40625 633.46875 355.84375 633.320312 C 350.722656 631.964844 349.070312 633.882812 342.984375 633.320312 C 337.292969 632.792969 327.921875 630.113281 326.269531 625.601562 C 321.746094 613.238281 371.949219 578.09375 382.84375 587.023438 Z M 382.84375 587.023438 " fill-opacity="1" fill-rule="nonzero"/><g clip-path="url(#ad4ba31743)"><path fill="#3f3d56" d="M 344.269531 650.035156 C 345.71875 652.246094 347.378906 657.9375 350.699219 669.328125 C 352.179688 674.40625 361.769531 707.820312 364.84375 718.195312 C 365.726562 721.179688 366.871094 724.902344 369.984375 728.484375 C 372.609375 731.5 374.007812 731.402344 375.128906 733.628906 C 378.046875 739.414062 372.355469 747.578125 371.273438 749.058594 C 370.011719 750.785156 364.164062 758.800781 355.84375 758.0625 C 354.972656 757.984375 349.351562 757.484375 348.128906 754.203125 C 346.253906 749.175781 357.269531 744.457031 357.128906 736.199219 C 357.042969 731.324219 353.136719 729.304688 348.128906 723.339844 C 337.378906 710.542969 341.964844 703.898438 333.984375 693.761719 C 322.050781 678.601562 299.867188 678.324219 296.699219 678.328125 C 288.484375 678.339844 277.054688 678.359375 269.695312 686.046875 C 259.4375 696.761719 263.679688 715.511719 259.410156 743.914062 C 259.410156 743.914062 258.71875 748.519531 256.839844 755.488281 C 253.738281 766.988281 251.261719 769.960938 250.410156 770.921875 C 249.253906 772.230469 245.863281 775.949219 240.125 777.351562 C 239.332031 777.546875 235.675781 778.382812 231.125 777.351562 C 228.101562 776.667969 225.347656 776.042969 223.410156 773.492188 C 221.550781 771.046875 220.84375 767.359375 222.125 764.492188 C 223.671875 761.019531 226.859375 761.582031 231.125 758.0625 C 234.132812 755.578125 235.703125 752.117188 238.839844 745.203125 C 240.226562 742.140625 242.308594 737.496094 243.980469 731.054688 C 245.917969 723.601562 246.15625 717.839844 246.554688 706.621094 C 246.886719 697.171875 246.726562 689.316406 246.554688 680.902344 C 246.351562 671.105469 246.078125 667.90625 246.554688 661.609375 C 247.050781 655.007812 247.539062 648.578125 249.125 644.894531 C 257.664062 625.074219 325.421875 621.285156 344.269531 650.035156 Z M 344.269531 650.035156 " fill-opacity="1" fill-rule="nonzero"/></g><path fill="#3f3d56" d="M 398.273438 562.589844 C 403.769531 559.546875 404.554688 552.433594 405.988281 539.441406 C 407.03125 529.972656 407.652344 524.335938 404.703125 517.578125 C 400.714844 508.453125 393.238281 504.195312 391.84375 503.433594 C 390.324219 502.597656 380.335938 497.296875 369.984375 500.859375 C 368.542969 501.355469 364.71875 504.199219 357.128906 509.863281 C 348.070312 516.621094 346.742188 517.910156 345.554688 520.148438 C 342.382812 526.144531 342.71875 534.25 345.554688 535.582031 C 347.710938 536.59375 351.4375 533.757812 353.269531 531.722656 C 355.464844 529.296875 355.136719 527.824219 357.128906 525.292969 C 358.707031 523.289062 360.195312 522.589844 364.84375 520.148438 C 376.355469 514.109375 376.9375 513.304688 378.984375 513.71875 C 384.085938 514.75 386.519531 520.953125 386.699219 521.4375 C 388.257812 525.570312 387.191406 529.332031 385.414062 535.582031 C 384.476562 538.890625 383.410156 541.441406 381.558594 545.871094 C 378.207031 553.886719 377.324219 554.488281 377.699219 556.160156 C 378.9375 561.632812 391.015625 566.605469 398.273438 562.589844 Z M 398.273438 562.589844 " fill-opacity="1" fill-rule="nonzero"/><path fill="#f8a62c" d="M 266.480469 585.09375 C 268.609375 585.445312 269.640625 597.601562 266.480469 608.242188 C 264.324219 615.519531 259.96875 622.882812 259.191406 624.183594 C 258.578125 625.207031 257.988281 626.140625 256.195312 628.816406 C 247.425781 641.914062 242.996094 648.457031 240.765625 648.109375 C 237.796875 647.644531 245.929688 640.613281 246.554688 633.890625 C 247.714844 621.398438 253.324219 619.851562 263.269531 601.742188 C 268.648438 591.941406 264.824219 584.820312 266.480469 585.09375 Z M 266.480469 585.09375 " fill-opacity="1" fill-rule="nonzero"/><path fill="#2f2e41" d="M 221.480469 581.234375 C 220.40625 575.761719 226.515625 568.164062 233.050781 567.089844 C 242.582031 565.523438 250.855469 578.183594 253.625 586.378906 C 257.433594 597.652344 253.15625 607.339844 251.054688 612.101562 C 248.414062 618.070312 246.445312 618.464844 245.910156 618.53125 C 242.019531 619.015625 237.410156 611.890625 235.625 605.667969 C 234.054688 600.195312 235.824219 599.449219 234.339844 595.382812 C 231.277344 587.011719 222.628906 587.074219 221.480469 581.234375 Z M 221.480469 581.234375 " fill-opacity="1" fill-rule="nonzero"/><path fill="#f8a62c" d="M 264.589844 608.667969 L 519.722656 442.128906 L 515.960938 441.277344 L 260.828125 607.816406 Z M 264.589844 608.667969 " fill-opacity="1" fill-rule="nonzero"/><path fill="#a0616a" d="M 581.28125 290.1875 L 575.691406 269.695312 L 600.835938 260.378906 L 603.632812 279.007812 Z M 581.28125 290.1875 " fill-opacity="1" fill-rule="nonzero"/><path fill="#000000" d="M 581.28125 290.1875 L 575.691406 269.695312 L 590.5 263.445312 L 585.898438 287.605469 Z M 581.28125 290.1875 " fill-opacity="0.1" fill-rule="nonzero"/><path fill="#a0616a" d="M 507.671875 465.816406 C 502.867188 462.960938 502.613281 454.523438 507.105469 446.972656 C 509.070312 443.667969 511.617188 441.082031 514.265625 439.460938 L 516.902344 435.148438 L 550.261719 375.335938 C 550.261719 375.335938 564.867188 318.921875 570.8125 312.101562 C 576.757812 305.277344 585.351562 306.886719 585.351562 306.886719 L 592.976562 313.660156 L 565.765625 393.5625 L 532.183594 440.859375 L 527.683594 447.445312 C 527.519531 450.546875 526.464844 454.019531 524.496094 457.324219 C 520.007812 464.875 512.472656 468.675781 507.671875 465.816406 Z M 507.671875 465.816406 " fill-opacity="1" fill-rule="nonzero"/><path fill="#f8a62c" d="M 579.90625 284.332031 C 579.90625 284.332031 590.515625 283.921875 597.210938 292.167969 C 603.90625 300.410156 568.832031 393.328125 568.832031 393.328125 L 540.265625 392.316406 Z M 579.90625 284.332031 " fill-opacity="1" fill-rule="nonzero"/><path fill="#a0616a" d="M 608.753906 246.871094 C 608.753906 247.726562 608.710938 248.578125 608.628906 249.429688 C 608.542969 250.277344 608.417969 251.121094 608.253906 251.960938 C 608.085938 252.796875 607.878906 253.625 607.628906 254.441406 C 607.382812 255.261719 607.09375 256.0625 606.769531 256.851562 C 606.441406 257.640625 606.078125 258.414062 605.675781 259.167969 C 605.269531 259.917969 604.832031 260.652344 604.359375 261.363281 C 603.882812 262.070312 603.375 262.757812 602.835938 263.417969 C 602.292969 264.078125 601.71875 264.710938 601.117188 265.3125 C 600.511719 265.917969 599.878906 266.492188 599.21875 267.03125 C 598.558594 267.574219 597.875 268.082031 597.164062 268.558594 C 596.453125 269.03125 595.722656 269.472656 594.96875 269.875 C 594.214844 270.277344 593.445312 270.640625 592.65625 270.96875 C 591.867188 271.292969 591.0625 271.582031 590.246094 271.832031 C 589.429688 272.078125 588.601562 272.285156 587.765625 272.453125 C 586.925781 272.617188 586.082031 272.742188 585.234375 272.828125 C 584.382812 272.910156 583.53125 272.953125 582.675781 272.953125 C 581.824219 272.953125 580.972656 272.910156 580.121094 272.828125 C 579.269531 272.742188 578.425781 272.617188 577.589844 272.453125 C 576.75 272.285156 575.925781 272.078125 575.105469 271.832031 C 574.289062 271.582031 573.488281 271.292969 572.699219 270.96875 C 571.910156 270.640625 571.136719 270.277344 570.382812 269.875 C 569.632812 269.472656 568.898438 269.03125 568.1875 268.558594 C 567.480469 268.082031 566.792969 267.574219 566.132812 267.03125 C 565.472656 266.492188 564.839844 265.917969 564.238281 265.3125 C 563.632812 264.710938 563.0625 264.078125 562.519531 263.417969 C 561.976562 262.757812 561.46875 262.070312 560.996094 261.363281 C 560.519531 260.652344 560.082031 259.917969 559.679688 259.167969 C 559.277344 258.414062 558.910156 257.640625 558.585938 256.851562 C 558.257812 256.0625 557.972656 255.261719 557.722656 254.441406 C 557.476562 253.625 557.269531 252.796875 557.101562 251.960938 C 556.933594 251.121094 556.808594 250.277344 556.726562 249.429688 C 556.640625 248.578125 556.601562 247.726562 556.601562 246.871094 C 556.601562 246.015625 556.640625 245.164062 556.726562 244.316406 C 556.808594 243.464844 556.933594 242.621094 557.101562 241.785156 C 557.269531 240.945312 557.476562 240.117188 557.722656 239.300781 C 557.972656 238.484375 558.257812 237.679688 558.585938 236.890625 C 558.910156 236.101562 559.277344 235.332031 559.679688 234.578125 C 560.082031 233.824219 560.519531 233.09375 560.996094 232.382812 C 561.46875 231.671875 561.976562 230.984375 562.519531 230.324219 C 563.0625 229.664062 563.632812 229.035156 564.238281 228.429688 C 564.839844 227.824219 565.472656 227.253906 566.132812 226.710938 C 566.792969 226.167969 567.480469 225.660156 568.1875 225.1875 C 568.898438 224.710938 569.632812 224.273438 570.382812 223.871094 C 571.136719 223.46875 571.910156 223.101562 572.699219 222.777344 C 573.488281 222.449219 574.289062 222.160156 575.105469 221.914062 C 575.925781 221.664062 576.75 221.457031 577.589844 221.292969 C 578.425781 221.125 579.269531 221 580.121094 220.914062 C 580.972656 220.832031 581.824219 220.789062 582.675781 220.789062 C 583.53125 220.789062 584.382812 220.832031 585.234375 220.914062 C 586.082031 221 586.925781 221.125 587.765625 221.292969 C 588.601562 221.457031 589.429688 221.664062 590.246094 221.914062 C 591.0625 222.160156 591.867188 222.449219 592.65625 222.777344 C 593.445312 223.101562 594.214844 223.46875 594.96875 223.871094 C 595.722656 224.273438 596.453125 224.710938 597.164062 225.1875 C 597.875 225.660156 598.558594 226.167969 599.21875 226.710938 C 599.878906 227.253906 600.511719 227.824219 601.117188 228.429688 C 601.71875 229.035156 602.292969 229.664062 602.835938 230.324219 C 603.375 230.984375 603.882812 231.671875 604.359375 232.382812 C 604.832031 233.09375 605.269531 233.824219 605.675781 234.578125 C 606.078125 235.332031 606.441406 236.101562 606.769531 236.890625 C 607.09375 237.679688 607.382812 238.484375 607.628906 239.300781 C 607.878906 240.117188 608.085938 240.945312 608.253906 241.785156 C 608.417969 242.621094 608.542969 243.464844 608.628906 244.316406 C 608.710938 245.164062 608.753906 246.015625 608.753906 246.871094 Z M 608.753906 246.871094 " fill-opacity="1" fill-rule="nonzero"/><path fill="#a0616a" d="M 521.675781 625.523438 L 503.980469 669.304688 L 493.738281 659.058594 L 490.011719 639.496094 L 504.914062 620.867188 Z M 521.675781 625.523438 " fill-opacity="1" fill-rule="nonzero"/><path fill="#a0616a" d="M 687.449219 609.6875 L 705.144531 630.183594 L 696.761719 646.949219 L 678.136719 644.15625 L 668.824219 618.074219 Z M 687.449219 609.6875 " fill-opacity="1" fill-rule="nonzero"/><path fill="#a0616a" d="M 569.640625 365.171875 L 567.308594 402.898438 L 625.050781 392.652344 L 621.328125 369.363281 Z M 569.640625 365.171875 " fill-opacity="1" fill-rule="nonzero"/><path fill="#2f2e41" d="M 566.84375 403.363281 L 625.050781 384.265625 C 625.050781 384.265625 646.472656 427.117188 623.1875 454.128906 C 599.90625 481.144531 522.605469 634.839844 522.605469 634.839844 L 499.324219 623.660156 L 532.851562 525.855469 L 570.105469 435.5 Z M 566.84375 403.363281 " fill-opacity="1" fill-rule="nonzero"/><path fill="#2f2e41" d="M 623.1875 438.292969 L 645.539062 536.101562 L 692.105469 611.550781 L 667.890625 625.523438 L 602.699219 536.101562 L 581.28125 467.171875 Z M 623.1875 438.292969 " fill-opacity="1" fill-rule="nonzero"/><path fill="#2f2e41" d="M 481.628906 635.769531 L 465.5 635.769531 C 465.5 635.769531 446.679688 628.320312 442.269531 635.769531 C 437.859375 643.222656 461.949219 664.359375 461.949219 664.359375 C 461.949219 664.359375 495.597656 683.277344 500.257812 682.347656 C 504.914062 681.414062 506.773438 670.238281 506.773438 670.238281 L 512.363281 657.195312 L 503.980469 659.988281 C 503.980469 659.988281 492.804688 653.46875 495.597656 642.292969 Z M 481.628906 635.769531 " fill-opacity="1" fill-rule="nonzero"/><path fill="#2f2e41" d="M 701.417969 632.976562 L 701.417969 623.660156 L 712.246094 632.976562 C 712.246094 632.976562 730.289062 639.496094 716.320312 653.46875 C 702.351562 667.441406 684.65625 682.347656 684.65625 682.347656 C 684.65625 682.347656 656.714844 689.796875 654.855469 681.414062 C 652.992188 673.03125 654.855469 669.640625 654.855469 669.640625 L 665.097656 664.648438 L 674.410156 640.429688 L 689.3125 642.292969 Z M 701.417969 632.976562 " fill-opacity="1" fill-rule="nonzero"/><g clip-path="url(#82e7f07afc)"><path fill="#2f2e41" d="M 590.59375 251.996094 L 582.210938 251.0625 L 566.84375 235.695312 C 566.84375 235.695312 552.875 243.144531 552.875 237.558594 C 552.875 211.476562 568.707031 212.40625 581.746094 210.542969 C 594.785156 208.679688 593.386719 208.214844 597.578125 215.203125 C 599.496094 218.394531 606.425781 220.324219 606.425781 220.324219 C 606.425781 220.324219 619.464844 202.625 625.984375 224.050781 C 632.503906 245.476562 624.121094 311.609375 630.640625 317.199219 C 637.160156 322.789062 603.871094 328.371094 607.476562 306.484375 C 611.082031 284.597656 617.601562 251.0625 613.875 243.613281 C 610.152344 236.160156 609.21875 238.023438 609.21875 238.023438 C 613.835938 236.136719 616.851562 269.34375 599.445312 270.972656 L 598.976562 254.789062 C 598.976562 254.789062 596.179688 246.40625 590.59375 251.996094 Z M 590.59375 251.996094 " fill-opacity="1" fill-rule="nonzero"/></g><path fill="#f8a62c" d="M 578.953125 284.132812 L 606.890625 272.953125 L 644.144531 384.734375 L 567.496094 381.941406 L 560.59375 348.578125 C 560.59375 348.578125 553.855469 331.214844 559.445312 320.96875 C 565.03125 310.722656 578.953125 284.132812 578.953125 284.132812 Z M 578.953125 284.132812 " fill-opacity="1" fill-rule="nonzero"/><path fill="#a0616a" d="M 651.65625 471.375 C 646.085938 471.855469 640.964844 465.148438 640.210938 456.394531 C 639.882812 452.566406 640.445312 448.976562 641.652344 446.113281 L 641.28125 441.074219 L 633.519531 373.023438 C 633.519531 373.023438 619.074219 317.359375 619.929688 308.351562 C 620.785156 299.34375 622.132812 296.949219 622.132812 296.949219 L 632.277344 298.007812 L 656.738281 378.792969 L 657.023438 436.804688 L 657.207031 444.777344 C 658.878906 447.394531 660.046875 450.832031 660.375 454.664062 C 661.128906 463.414062 657.222656 470.898438 651.65625 471.375 Z M 651.65625 471.375 " fill-opacity="1" fill-rule="nonzero"/><path fill="#f8a62c" d="M 604.5625 281.804688 C 604.5625 281.804688 612.945312 275.28125 623.1875 278.078125 C 633.433594 280.871094 659.097656 376.816406 659.097656 376.816406 L 635.296875 392.652344 Z M 604.5625 281.804688 " fill-opacity="1" fill-rule="nonzero"/><g clip-path="url(#6ed5230536)"><path fill="#f8a62c" d="M 670.410156 44.058594 C 667.128906 42.90625 662.761719 42.476562 658.320312 42.101562 C 658.617188 41.875 658.734375 41.523438 658.699219 41.078125 C 656.210938 40.996094 655.167969 41.847656 652.472656 41.636719 C 653.308594 41.105469 652.632812 40.667969 651.296875 40.878906 C 652.066406 40.222656 654.484375 40.625 654.417969 41.363281 C 654.910156 41.292969 654.8125 40.855469 654.414062 40.855469 C 660.757812 41.199219 667.296875 40.144531 672.726562 41.226562 C 669.539062 39.027344 659.183594 39.070312 654.394531 37.792969 C 654.695312 37.203125 656.800781 37.527344 656.347656 38.289062 C 656.859375 38.027344 657.792969 38.035156 657.898438 37.511719 C 662.121094 38.347656 666.925781 38.664062 671.148438 38.4375 C 675.964844 40.273438 682.457031 40.996094 685.210938 44.207031 C 685.386719 46.28125 684.832031 47.386719 685.25 49.058594 C 684.007812 51.214844 682.636719 53.296875 680.226562 54.703125 C 681.921875 56.804688 682.914062 58.382812 683 60.554688 C 682.488281 60.972656 680.132812 61.496094 681.839844 61.84375 C 681.03125 62.164062 680.203125 62.476562 679.511719 62.882812 C 679.707031 63.546875 681.667969 63.726562 680.691406 64.398438 C 679.339844 64.617188 679.191406 64.03125 677.960938 64.164062 C 678.261719 65.664062 681.121094 66.285156 681.890625 68.21875 C 682.835938 70.597656 681.066406 73.449219 681.167969 76.390625 C 677.359375 76.417969 678.710938 80.167969 673.402344 79.765625 C 677.414062 81.398438 683.261719 83.078125 688.234375 83.226562 C 689.125 84.261719 690.410156 87 688.265625 87.820312 C 688.722656 88.285156 689.289062 88.675781 689.835938 89.085938 C 689.019531 89.71875 685.859375 89.121094 687.117188 90.382812 C 683.226562 91.015625 678.195312 90.101562 675.445312 92.253906 C 675.492188 92.90625 676.902344 92.652344 677.398438 93.003906 C 677.523438 93.65625 676.679688 94.5 677.027344 95.050781 C 679.210938 95.578125 678.128906 96.015625 680.152344 96.046875 C 679.671875 96.753906 678.929688 97.292969 677.433594 97.34375 C 678.625 98 680.808594 97.996094 681.339844 99.101562 C 676.898438 100.316406 674.960938 99.484375 670.046875 99.695312 C 677.09375 100.988281 683.394531 102.773438 689.171875 104.914062 C 689.246094 106.027344 689.320312 107.144531 688.40625 106.964844 C 689.144531 107.761719 689.722656 107.167969 690.351562 106.695312 C 690.777344 108.890625 690.996094 110.234375 693.117188 111.523438 C 692.347656 113.339844 689.632812 112.625 687.285156 113.09375 C 687.632812 114.320312 688.164062 115.421875 690.027344 115.628906 C 688.808594 117.953125 682.183594 117.628906 679.925781 118.507812 C 680.816406 120.03125 683.253906 118.769531 685.378906 118.464844 C 684.84375 119.503906 686.230469 119.265625 686.167969 119.992188 C 679.238281 120.25 678.617188 122.339844 671.375 121.632812 C 671.183594 128.277344 666.074219 131.757812 663.308594 136.746094 C 659.925781 136.128906 658.4375 137.253906 656.699219 138.328125 C 656.523438 139.039062 658.816406 138.109375 658.648438 138.820312 C 655.605469 139.714844 651.328125 139.574219 646.96875 139.929688 C 642.902344 140.265625 639.46875 140.273438 636.839844 139.242188 C 616.789062 141.773438 601.070312 139.777344 579.976562 140.933594 C 579.628906 140.121094 581.257812 140.578125 581.136719 139.910156 C 574.652344 139.878906 563.289062 141.792969 556.984375 140.339844 C 555.730469 140.578125 556.4375 139.511719 555.8125 139.324219 C 550.886719 139.480469 546.453125 141.121094 543.347656 139.417969 C 536.34375 139.027344 528.574219 141.121094 523.476562 139.566406 C 503.007812 139.917969 486.511719 140.839844 469.324219 138.945312 C 459.535156 138.472656 451.542969 139.152344 441.660156 138.640625 C 443.046875 137.417969 446.308594 137.402344 449.050781 137.054688 C 445.453125 136.632812 439.585938 136.550781 434.640625 136.90625 C 418.105469 138.097656 400.875 137.707031 384 137.023438 C 383.222656 136.4375 384.09375 136.738281 384.382812 136.253906 C 381.066406 135.4375 377.585938 136.578125 374.648438 136.839844 C 373.914062 136.359375 374.597656 136.199219 374.640625 135.558594 C 371.308594 135.234375 372.289062 136.328125 370.359375 136.609375 C 368.546875 136.851562 370.894531 135.949219 369.578125 135.851562 C 368.746094 135.738281 368.839844 136.222656 368.804688 136.625 C 364.339844 136.273438 360.769531 136.042969 355.558594 136.464844 C 353.953125 136.597656 355.859375 135.824219 354.773438 135.453125 C 348.222656 135.363281 338.929688 136.847656 331.796875 136.132812 C 328.410156 135.796875 326.265625 136.171875 322.445312 136.207031 C 319.175781 136.230469 315.976562 134.890625 312.304688 134.492188 C 309.289062 134.167969 304.796875 135.214844 300.230469 134.578125 C 300.3125 134.210938 301.390625 134.484375 301.390625 134.0625 C 288.140625 134.523438 271.878906 134.582031 259.332031 135.902344 C 244.195312 134.925781 226.683594 137.402344 212.988281 137.265625 C 213.320312 136.878906 213.964844 136.707031 214.933594 136.738281 C 201.539062 135.71875 180.96875 135.539062 163.898438 136.097656 C 162.28125 136.242188 162.238281 137.398438 160.011719 137.144531 C 158.980469 138.609375 155.847656 138.714844 153.792969 139.234375 C 153.433594 139.324219 152.273438 140 151.847656 140.011719 C 145.628906 140.277344 147.484375 135.558594 144.007812 133.179688 C 142.171875 133.929688 140.265625 134.222656 138.554688 133.222656 C 138.683594 131.609375 141.53125 131.757812 142.429688 130.644531 C 141.929688 130.285156 140.242188 129.824219 140.097656 130.660156 C 139.210938 130.148438 139.230469 129.332031 140.085938 128.875 C 138.703125 128.746094 139.136719 129.785156 137.753906 129.65625 C 137.585938 129.121094 138.015625 128.976562 138.140625 128.628906 C 136.894531 128.488281 136.9375 129.117188 136.1875 128.644531 C 136.082031 127.050781 136.28125 125.65625 137.722656 125.0625 C 129.890625 123.4375 123.542969 119.292969 117 116.035156 C 117.171875 114.453125 119.152344 114.035156 119.3125 112.445312 C 124.085938 111.507812 127.15625 111.039062 132.929688 110.8125 C 133.859375 110.304688 132.210938 109.386719 133.308594 108.765625 C 134.945312 109.007812 137.234375 108.933594 138.367188 107.707031 C 136.9375 107.34375 136.234375 107.632812 134.46875 107.226562 C 134.726562 106.632812 135.761719 106.53125 136.019531 105.9375 C 133.542969 104.476562 137.484375 102.199219 135.976562 100.578125 C 136.636719 99.988281 138.171875 100.980469 139.484375 100.808594 C 137.4375 100.023438 141.574219 100.355469 142.203125 99.765625 C 142.039062 99.238281 138.953125 100.34375 139.867188 99.273438 C 135.96875 99.675781 137.113281 99.109375 134.023438 99.320312 C 134.496094 95.4375 140.488281 93.9375 146.828125 92.078125 C 145.9375 91.304688 144.464844 89.828125 145.242188 88.773438 C 144.710938 88.285156 143.0625 89.210938 142.128906 89.300781 C 142.128906 88.539062 143.136719 88.429688 143.285156 87.765625 C 142.363281 87.152344 142.558594 88.152344 141.339844 88.03125 C 142.484375 86.53125 144.601562 87.015625 146.390625 86.210938 C 144.621094 85.242188 142.769531 86.167969 140.550781 86.257812 C 140.714844 85.851562 141.769531 86.023438 141.324219 85.230469 C 140.214844 85.191406 140.566406 86.097656 138.988281 85.757812 C 138.792969 84.957031 140.179688 85.167969 139.757812 84.222656 C 137.75 84.519531 135.300781 84.761719 133.527344 84.519531 C 133.519531 83.582031 134.882812 83.535156 135.464844 82.976562 C 134.171875 82.5625 133.265625 83.238281 131.574219 83.257812 C 131.414062 82.136719 131.402344 80.957031 134.28125 80.6875 C 134.152344 80.09375 134.339844 79.707031 134.660156 79.40625 C 133.027344 78.6875 132.308594 79.128906 128.8125 78.9375 C 128.191406 77.792969 130.425781 76.9375 129.960938 76.121094 C 128.886719 74.261719 126.714844 74.613281 123.703125 74.636719 C 124.953125 73.605469 124.371094 72.945312 125.632812 72.070312 C 123.6875 71.304688 125.121094 70.363281 125.21875 68.757812 C 125.917969 68.71875 126.042969 69.0625 126.777344 69 C 127.664062 66.269531 134.480469 67.363281 135.316406 64.601562 C 133.515625 64.09375 134.628906 61.644531 132.953125 61.042969 C 135.125 57.703125 133.167969 51.699219 140.28125 51.546875 C 139.867188 50.453125 138.597656 49.933594 136.375 50.046875 C 136.730469 48.875 135.542969 48.71875 134.03125 48.785156 C 134.652344 47.484375 134.886719 47.394531 133.238281 46.75 C 135.003906 44.503906 134.542969 42.242188 136.296875 39.070312 C 152.390625 39.960938 174.71875 39.917969 188.902344 40.722656 C 189.277344 40.714844 189.199219 40.410156 189.285156 40.210938 C 192.371094 41.621094 197.144531 40.796875 200.1875 39.875 C 199.984375 40.082031 199.789062 40.292969 199.808594 40.644531 C 201.507812 40.808594 201.996094 40.199219 203.699219 40.363281 C 207.050781 40.902344 219.464844 39.300781 227.449219 39.167969 C 236.214844 39.019531 245.339844 37.828125 249.636719 36.703125 C 251.03125 38.890625 255.488281 38.046875 260.164062 37.902344 C 261.347656 37.796875 260.832031 38.828125 261.726562 38.910156 C 264.117188 37.773438 271.054688 39.523438 273.796875 38.058594 C 274.03125 37.390625 273.636719 37.140625 272.628906 37.296875 C 275.386719 36.394531 278.851562 37.386719 281.972656 36.71875 C 281.714844 36.460938 281.074219 36.460938 281.1875 35.957031 C 286.515625 36.242188 292.171875 37.082031 295.617188 38.402344 C 297.511719 37.875 298.683594 38.667969 300.296875 38.878906 C 304.929688 39.480469 311.921875 38.304688 317.433594 38.238281 C 334.417969 38.027344 351.109375 39.429688 366.910156 38.386719 C 367.167969 38.640625 367.808594 38.640625 367.691406 39.144531 C 380.027344 38.949219 389.855469 38.027344 401.960938 38.128906 C 402.078125 37.453125 401.148438 37.476562 400.398438 37.371094 C 403.496094 37.097656 406.414062 38.050781 408.976562 38.582031 C 411.675781 36.796875 413.769531 38.828125 417.546875 38.777344 C 417.769531 39.339844 416.808594 39.144531 416.773438 39.550781 C 429.445312 40.429688 440.777344 36.457031 453.769531 38.507812 C 454.269531 38.070312 455.046875 37.808594 456.101562 37.730469 C 455.738281 39.363281 452.132812 38.894531 450.273438 39.554688 C 456.246094 39.597656 463.449219 38.761719 470.53125 40.171875 C 472.996094 37.78125 480.050781 39.234375 485.710938 38.53125 C 485.820312 38.945312 485.347656 38.972656 485.324219 39.300781 C 487.164062 39.273438 488.285156 39.730469 490.003906 39.773438 C 490.03125 38.90625 488.558594 39.03125 487.273438 39.03125 C 490.382812 37.765625 494.742188 39.941406 496.21875 37.429688 C 498.332031 37.726562 499.746094 37.726562 500.890625 36.882812 C 501.003906 37.296875 500.527344 37.324219 500.507812 37.65625 C 511.292969 39.070312 523.5625 38.898438 537.519531 38.914062 C 537.339844 37.925781 534.835938 38.484375 534.007812 37.921875 C 547.238281 36.648438 562.160156 40.421875 575.683594 37.609375 C 573.753906 36.816406 569.378906 36.96875 567.886719 36.652344 C 567.078125 36.507812 565.332031 36.988281 565.164062 36.414062 C 569.605469 36.515625 571.136719 35.757812 574.898438 35.832031 C 575.5 35.542969 575.703125 34.996094 576.839844 35.054688 C 575.996094 35.59375 577.039062 35.78125 576.851562 36.585938 C 578.535156 36.824219 579.007812 36.28125 579.964844 36.050781 C 582.101562 37.171875 584.078125 36.726562 586.589844 36 C 600.109375 38.480469 617.375 36.296875 632.5625 37.1875 C 628.894531 38.453125 623.445312 37.179688 620.105469 38.816406 C 620.78125 39.476562 623.972656 38.46875 623.234375 40.070312 C 624.902344 40.214844 624.816406 39.226562 626.347656 39.28125 C 626.847656 39.613281 626.851562 40.222656 626.355469 40.5625 C 629.519531 39.941406 635.386719 40.058594 639.214844 41.488281 C 638.046875 41.496094 636.882812 41.503906 635.707031 41.511719 C 643.804688 42.125 656.308594 43.601562 665.71875 43.335938 C 666.566406 44.636719 667.371094 43.371094 670.410156 44.058594 Z M 390.292969 39.746094 C 392.222656 39.609375 394.261719 39.910156 392.636719 40.746094 C 394.21875 40.839844 394.625 40.171875 395.742188 39.960938 C 394.097656 39.957031 394.816406 39.386719 395.347656 38.945312 C 393.84375 39.878906 390.527344 38.0625 390.292969 39.746094 Z M 579.601562 38.089844 C 579.113281 38.039062 578.800781 37.699219 578.820312 38.347656 C 580.816406 38.300781 582.714844 38.070312 583.886719 38.308594 C 583.765625 37.226562 580.511719 37.414062 579.601562 38.089844 Z M 472.128906 44.496094 C 471.757812 45.433594 474.308594 45.027344 474.078125 44.484375 C 473.109375 44.464844 472.871094 44.015625 472.128906 44.496094 Z M 474.859375 44.988281 C 476.167969 44.816406 478.480469 45.292969 479.144531 44.703125 C 477.066406 44.578125 476.195312 43.875 474.859375 44.988281 Z M 416.910156 57.160156 C 418.023438 57.925781 420.222656 56.96875 420.421875 57.898438 C 421.582031 57.90625 422.394531 57.132812 423.148438 57.625 C 423.144531 57.285156 423.144531 56.949219 423.140625 56.605469 C 421.207031 56.882812 418.550781 56.691406 416.910156 57.160156 Z M 599.3125 69.59375 C 600.480469 69.332031 602.144531 69.382812 602.421875 68.550781 C 600.894531 68.578125 599 68.375 599.3125 69.59375 Z M 607.894531 71.316406 C 613.285156 70.808594 605.5625 70.578125 604.777344 71.339844 C 606.074219 71.28125 607.089844 71.390625 607.894531 71.316406 Z M 254.695312 87.960938 C 255 88.167969 257.078125 88.214844 257.023438 87.4375 C 255.992188 87.449219 254.730469 87.3125 254.695312 87.960938 Z M 370.882812 101.90625 C 371.378906 100.957031 368.566406 100.910156 368.152344 101.417969 C 369.679688 101.164062 369.144531 102.296875 370.882812 101.90625 Z M 377.113281 101.855469 C 380.578125 102.300781 383.464844 101.847656 387.632812 102.035156 C 385.503906 101.675781 379.269531 100.878906 377.113281 101.855469 Z M 397.375 101.96875 C 396.761719 101.949219 396.023438 102.015625 396.203125 101.464844 C 393.84375 102.003906 390.261719 101.425781 388.410156 101.523438 C 392.695312 102.367188 394.730469 102.550781 397.375 101.96875 Z M 356.480469 103.289062 C 353.832031 103.703125 350.09375 102.628906 349.078125 103.597656 C 353.648438 104.28125 363.746094 104.554688 368.945312 103.449219 C 364.828125 103.1875 362.308594 102.585938 358.425781 103.019531 C 361.453125 103.945312 355.722656 102.695312 355.699219 102.785156 C 356.136719 102.835938 356.304688 103.066406 356.480469 103.289062 Z M 400.109375 102.964844 C 401.019531 102.960938 401.921875 102.953125 402.832031 102.945312 C 402.988281 101.917969 400.1875 102.542969 400.109375 102.964844 Z M 370.117188 103.441406 C 369.878906 103.457031 369.65625 103.488281 369.726562 103.699219 C 371.4375 103.820312 376.742188 103.488281 372.449219 103.425781 C 371.640625 102.871094 371.191406 103.660156 370.503906 103.183594 C 370.476562 103.027344 370.441406 102.882812 370.109375 102.929688 C 370.113281 103.101562 370.113281 103.273438 370.117188 103.441406 Z M 347.925781 105.136719 C 347.53125 105.652344 346.476562 105.734375 345.984375 106.171875 C 354.464844 106.570312 368.933594 106.222656 378.703125 105.929688 C 370.054688 104.554688 358.160156 106.011719 347.925781 105.136719 Z M 627.699219 115.316406 C 631.699219 116.933594 637.511719 117.53125 642.511719 117.253906 C 637.40625 117.027344 631.796875 114.523438 627.699219 115.316406 Z M 610.578125 118 C 611.832031 118.765625 615.136719 118.601562 616.417969 117.957031 C 616.316406 118.539062 616.519531 118.914062 617.207031 118.972656 C 617.875 118.445312 616.910156 118.476562 617.585938 117.945312 C 615.429688 116.945312 613.144531 117.460938 610.578125 118 Z M 603.566406 118.304688 C 605.125 118.210938 605.730469 118.742188 607.464844 118.53125 C 607.332031 117.230469 603.589844 117.773438 603.566406 118.304688 Z M 637.472656 120.351562 C 638.742188 120.570312 639.898438 120.523438 642.148438 120.574219 C 642.109375 119.398438 638.777344 120.132812 637.472656 120.351562 Z M 290.46875 132.105469 C 289.507812 132.542969 286.6875 131.644531 285.40625 132.398438 C 286.273438 133.167969 289.898438 133.023438 290.46875 132.105469 Z M 459.933594 133.410156 C 458.507812 133.605469 457.765625 132.796875 456.820312 133.433594 C 458.265625 134.585938 461.511719 134.226562 464.222656 134.140625 C 468.597656 134.003906 472.726562 133.359375 477.074219 133.792969 C 472.933594 132.394531 463.171875 133.171875 459.933594 133.410156 Z M 483.304688 133.488281 C 485.019531 133.796875 489.042969 133.511719 491.488281 132.917969 C 488.628906 133.222656 483.707031 131.960938 483.304688 133.488281 Z M 507.066406 132.800781 C 506.984375 133.933594 503.257812 132.71875 503.179688 133.851562 C 505.128906 134.257812 506.519531 133.90625 508.246094 133.5625 C 508.4375 134.230469 508.554688 134.417969 509.425781 135.082031 C 517.527344 132.835938 525.386719 136.414062 533.179688 134.140625 C 524.59375 133.03125 515.632812 134.269531 507.066406 132.800781 Z M 435.398438 134.351562 C 433.414062 134.355469 430.898438 133.269531 429.953125 134.90625 C 436.960938 135.316406 443.925781 135.121094 450.976562 133.730469 C 445.914062 133.707031 440.296875 134.339844 435.398438 134.351562 Z M 435.398438 134.351562 " fill-opacity="1" fill-rule="evenodd"/></g><g fill="#000000" fill-opacity="1"><g transform="translate(191.206514, 80.877003)"><g><path d="M 3.765625 -33.890625 C 3.765625 -34.359375 3.875 -34.691406 4.09375 -34.890625 C 4.3125 -35.097656 4.640625 -35.203125 5.078125 -35.203125 L 26.140625 -35.203125 C 27.046875 -35.203125 27.5 -34.765625 27.5 -33.890625 L 27.5 -28.453125 C 27.5 -27.984375 27.390625 -27.648438 27.171875 -27.453125 C 26.953125 -27.253906 26.609375 -27.15625 26.140625 -27.15625 L 13.28125 -27.15625 C 12.976562 -27.15625 12.773438 -27.09375 12.671875 -26.96875 C 12.566406 -26.851562 12.515625 -26.660156 12.515625 -26.390625 L 12.515625 -1.3125 C 12.515625 -0.84375 12.40625 -0.503906 12.1875 -0.296875 C 11.96875 -0.0976562 11.625 0 11.15625 0 L 5.078125 0 C 4.640625 0 4.3125 -0.109375 4.09375 -0.328125 C 3.875 -0.546875 3.765625 -0.875 3.765625 -1.3125 Z M 3.765625 -33.890625 "/></g></g></g><g fill="#000000" fill-opacity="1"><g transform="translate(217.153251, 80.877003)"><g><path d="M 3.265625 -23.375 C 3.265625 -23.8125 3.363281 -24.128906 3.5625 -24.328125 C 3.769531 -24.535156 4.09375 -24.640625 4.53125 -24.640625 L 13.28125 -24.640625 C 18.039062 -24.640625 21.707031 -23.613281 24.28125 -21.5625 C 26.863281 -19.519531 28.15625 -16.488281 28.15625 -12.46875 C 28.15625 -9.75 27.539062 -7.457031 26.3125 -5.59375 C 25.09375 -3.738281 23.34375 -2.34375 21.0625 -1.40625 C 18.789062 -0.46875 16.09375 0 12.96875 0 L 12.421875 0 C 12.148438 0 11.960938 0.046875 11.859375 0.140625 C 11.765625 0.242188 11.71875 0.429688 11.71875 0.703125 L 11.71875 10.3125 C 11.71875 10.75 11.609375 11.066406 11.390625 11.265625 C 11.171875 11.460938 10.84375 11.5625 10.40625 11.5625 L 4.53125 11.5625 C 4.09375 11.5625 3.769531 11.460938 3.5625 11.265625 C 3.363281 11.066406 3.265625 10.75 3.265625 10.3125 Z M 12.96875 -7.34375 C 15.050781 -7.34375 16.660156 -7.785156 17.796875 -8.671875 C 18.941406 -9.554688 19.515625 -10.804688 19.515625 -12.421875 C 19.515625 -15.640625 17.332031 -17.25 12.96875 -17.25 L 12.421875 -17.25 C 12.148438 -17.25 11.960938 -17.1875 11.859375 -17.0625 C 11.765625 -16.945312 11.71875 -16.757812 11.71875 -16.5 L 11.71875 -8.046875 C 11.71875 -7.773438 11.765625 -7.585938 11.859375 -7.484375 C 11.960938 -7.390625 12.148438 -7.34375 12.421875 -7.34375 Z M 12.96875 -7.34375 "/></g></g></g><g fill="#000000" fill-opacity="1"><g transform="translate(244.759382, 80.877003)"><g><path d="M 3.265625 -23.328125 C 3.265625 -23.796875 3.375 -24.128906 3.59375 -24.328125 C 3.8125 -24.535156 4.140625 -24.640625 4.578125 -24.640625 L 10.359375 -24.640625 C 10.828125 -24.640625 11.171875 -24.535156 11.390625 -24.328125 C 11.609375 -24.128906 11.71875 -23.796875 11.71875 -23.328125 L 11.71875 -14.328125 L 19 -20.46875 C 19.46875 -20.832031 19.957031 -21.265625 20.46875 -21.765625 C 21.875 -22.972656 22.960938 -23.878906 23.734375 -24.484375 C 24.503906 -25.085938 25.070312 -25.390625 25.4375 -25.390625 C 25.707031 -25.390625 25.898438 -25.304688 26.015625 -25.140625 C 26.140625 -24.972656 26.21875 -24.628906 26.25 -24.109375 C 26.28125 -23.585938 26.296875 -22.957031 26.296875 -22.21875 L 26.296875 -1.3125 C 26.296875 -0.875 26.191406 -0.546875 25.984375 -0.328125 C 25.785156 -0.109375 25.453125 0 24.984375 0 L 19.203125 0 C 18.734375 0 18.390625 -0.0976562 18.171875 -0.296875 C 17.953125 -0.503906 17.84375 -0.84375 17.84375 -1.3125 L 17.84375 -10.3125 L 10.5625 -4.171875 C 10.09375 -3.804688 9.601562 -3.367188 9.09375 -2.859375 C 7.6875 -1.660156 6.597656 -0.757812 5.828125 -0.15625 C 5.054688 0.445312 4.488281 0.75 4.125 0.75 C 3.851562 0.75 3.660156 0.664062 3.546875 0.5 C 3.429688 0.332031 3.351562 -0.0078125 3.3125 -0.53125 C 3.28125 -1.050781 3.265625 -1.675781 3.265625 -2.40625 Z M 3.265625 -23.328125 "/></g></g></g><g fill="#000000" fill-opacity="1"><g transform="translate(272.01352, 80.877003)"><g><path d="M 1.15625 -23.4375 C 1.019531 -23.601562 0.953125 -23.800781 0.953125 -24.03125 C 0.953125 -24.4375 1.1875 -24.640625 1.65625 -24.640625 L 9.046875 -24.640625 C 9.484375 -24.640625 9.835938 -24.570312 10.109375 -24.4375 C 10.378906 -24.300781 10.613281 -24.050781 10.8125 -23.6875 L 16.75 -13.375 C 16.945312 -13.070312 17.046875 -12.785156 17.046875 -12.515625 C 17.046875 -12.285156 16.945312 -11.984375 16.75 -11.609375 L 10.3125 -0.90625 C 10.070312 -0.539062 9.84375 -0.296875 9.625 -0.171875 C 9.40625 -0.0546875 9.046875 0 8.546875 0 L 0.796875 0 C 0.566406 0 0.382812 -0.0546875 0.25 -0.171875 C 0.113281 -0.296875 0.046875 -0.441406 0.046875 -0.609375 C 0.046875 -0.703125 0.113281 -0.882812 0.25 -1.15625 L 7.640625 -12.765625 Z M 17.703125 -23.328125 C 17.703125 -23.796875 17.8125 -24.128906 18.03125 -24.328125 C 18.25 -24.535156 18.59375 -24.640625 19.0625 -24.640625 L 24.78125 -24.640625 C 25.257812 -24.640625 25.597656 -24.535156 25.796875 -24.328125 C 25.992188 -24.128906 26.09375 -23.796875 26.09375 -23.328125 L 26.09375 -1.3125 C 26.09375 -0.875 25.992188 -0.546875 25.796875 -0.328125 C 25.597656 -0.109375 25.257812 0 24.78125 0 L 19.0625 0 C 18.59375 0 18.25 -0.0976562 18.03125 -0.296875 C 17.8125 -0.503906 17.703125 -0.84375 17.703125 -1.3125 Z M 27.046875 -11.609375 C 26.847656 -11.984375 26.75 -12.285156 26.75 -12.515625 C 26.75 -12.785156 26.847656 -13.070312 27.046875 -13.375 L 32.984375 -23.6875 C 33.179688 -24.050781 33.414062 -24.300781 33.6875 -24.4375 C 33.957031 -24.570312 34.3125 -24.640625 34.75 -24.640625 L 42.140625 -24.640625 C 42.609375 -24.640625 42.84375 -24.4375 42.84375 -24.03125 C 42.84375 -23.800781 42.773438 -23.601562 42.640625 -23.4375 L 36.15625 -12.765625 L 43.546875 -1.15625 C 43.679688 -0.882812 43.75 -0.703125 43.75 -0.609375 C 43.75 -0.441406 43.679688 -0.296875 43.546875 -0.171875 C 43.410156 -0.0546875 43.222656 0 42.984375 0 L 35.25 0 C 34.78125 0 34.425781 -0.0546875 34.1875 -0.171875 C 33.957031 -0.296875 33.722656 -0.539062 33.484375 -0.90625 Z M 27.046875 -11.609375 "/></g></g></g><g fill="#000000" fill-opacity="1"><g transform="translate(313.498243, 80.877003)"><g><path d="M 16.34375 -1.109375 C 14.96875 -0.0351562 13.125 0.5 10.8125 0.5 C 8.96875 0.5 7.347656 0.175781 5.953125 -0.46875 C 4.566406 -1.125 3.503906 -2.046875 2.765625 -3.234375 C 2.023438 -4.429688 1.65625 -5.816406 1.65625 -7.390625 C 1.65625 -9.003906 2.03125 -10.394531 2.78125 -11.5625 C 3.539062 -12.738281 4.609375 -13.644531 5.984375 -14.28125 C 7.359375 -14.914062 8.96875 -15.234375 10.8125 -15.234375 C 11.914062 -15.234375 12.941406 -15.097656 13.890625 -14.828125 C 14.847656 -14.566406 15.664062 -14.179688 16.34375 -13.671875 C 16.238281 -15.015625 15.742188 -16.046875 14.859375 -16.765625 C 13.972656 -17.484375 12.738281 -17.84375 11.15625 -17.84375 L 9.609375 -17.796875 C 9.304688 -17.765625 8.921875 -17.75 8.453125 -17.75 C 8.046875 -17.75 7.765625 -17.832031 7.609375 -18 C 7.460938 -18.164062 7.359375 -18.484375 7.296875 -18.953125 L 6.78125 -23.328125 C 6.75 -23.828125 6.816406 -24.1875 6.984375 -24.40625 C 7.148438 -24.625 7.46875 -24.785156 7.9375 -24.890625 C 9.113281 -25.117188 10.507812 -25.234375 12.125 -25.234375 C 16.375 -25.234375 19.53125 -24.128906 21.59375 -21.921875 C 23.65625 -19.710938 24.6875 -16.578125 24.6875 -12.515625 L 24.6875 -0.90625 C 24.6875 -0.570312 24.617188 -0.335938 24.484375 -0.203125 C 24.347656 -0.0664062 24.128906 0 23.828125 0 L 17.25 0 C 16.945312 0 16.71875 -0.0664062 16.5625 -0.203125 C 16.414062 -0.335938 16.34375 -0.570312 16.34375 -0.90625 Z M 10.203125 -7.390625 C 10.203125 -6.421875 10.492188 -5.660156 11.078125 -5.109375 C 11.671875 -4.554688 12.421875 -4.28125 13.328125 -4.28125 C 14.191406 -4.28125 14.925781 -4.554688 15.53125 -5.109375 C 16.132812 -5.660156 16.4375 -6.390625 16.4375 -7.296875 C 16.4375 -8.296875 16.144531 -9.070312 15.5625 -9.625 C 14.976562 -10.175781 14.234375 -10.453125 13.328125 -10.453125 C 12.421875 -10.453125 11.671875 -10.175781 11.078125 -9.625 C 10.492188 -9.070312 10.203125 -8.328125 10.203125 -7.390625 Z M 10.203125 -7.390625 "/></g></g></g><g fill="#000000" fill-opacity="1"><g transform="translate(338.891849, 80.877003)"><g/></g></g><g fill="#000000" fill-opacity="1"><g transform="translate(350.406864, 80.877003)"><g><path d="M 3.125 -7.09375 C 3.320312 -7.425781 3.554688 -7.59375 3.828125 -7.59375 C 4.054688 -7.59375 4.289062 -7.523438 4.53125 -7.390625 C 5.363281 -6.921875 6.265625 -6.550781 7.234375 -6.28125 C 8.210938 -6.019531 9.320312 -5.890625 10.5625 -5.890625 C 13.007812 -5.890625 14.234375 -6.59375 14.234375 -8 C 14.234375 -9.332031 12.972656 -10 10.453125 -10 L 7.75 -10 C 7.40625 -10 7.164062 -10.066406 7.03125 -10.203125 C 6.90625 -10.335938 6.84375 -10.570312 6.84375 -10.90625 L 6.84375 -14.375 C 6.84375 -14.71875 6.90625 -14.953125 7.03125 -15.078125 C 7.164062 -15.210938 7.40625 -15.28125 7.75 -15.28125 L 9.5 -15.28125 C 10.84375 -15.28125 11.859375 -15.40625 12.546875 -15.65625 C 13.234375 -15.914062 13.578125 -16.363281 13.578125 -17 C 13.578125 -17.632812 13.289062 -18.09375 12.71875 -18.375 C 12.144531 -18.664062 11.304688 -18.8125 10.203125 -18.8125 C 9.234375 -18.8125 8.28125 -18.679688 7.34375 -18.421875 C 6.40625 -18.171875 5.597656 -17.894531 4.921875 -17.59375 C 4.691406 -17.457031 4.476562 -17.390625 4.28125 -17.390625 C 3.976562 -17.390625 3.757812 -17.578125 3.625 -17.953125 L 1.765625 -21.765625 C 1.722656 -21.804688 1.675781 -21.898438 1.625 -22.046875 C 1.582031 -22.203125 1.5625 -22.328125 1.5625 -22.421875 C 1.5625 -22.722656 1.726562 -22.972656 2.0625 -23.171875 C 3.132812 -23.847656 4.46875 -24.359375 6.0625 -24.703125 C 7.65625 -25.054688 9.351562 -25.234375 11.15625 -25.234375 C 14.8125 -25.234375 17.550781 -24.597656 19.375 -23.328125 C 21.207031 -22.054688 22.125 -20.3125 22.125 -18.09375 C 22.125 -16.957031 21.796875 -15.925781 21.140625 -15 C 20.484375 -14.082031 19.671875 -13.421875 18.703125 -13.015625 C 19.972656 -12.546875 20.96875 -11.800781 21.6875 -10.78125 C 22.414062 -9.757812 22.78125 -8.597656 22.78125 -7.296875 C 22.78125 -4.910156 21.847656 -2.992188 19.984375 -1.546875 C 18.128906 -0.109375 15.253906 0.609375 11.359375 0.609375 C 8.953125 0.609375 6.957031 0.375 5.375 -0.09375 C 3.800781 -0.5625 2.53125 -1.132812 1.5625 -1.8125 C 1.1875 -2.082031 1 -2.367188 1 -2.671875 C 1 -2.765625 1.023438 -2.882812 1.078125 -3.03125 C 1.128906 -3.1875 1.171875 -3.28125 1.203125 -3.3125 Z M 3.125 -7.09375 "/></g></g></g><g fill="#000000" fill-opacity="1"><g transform="translate(372.481683, 80.877003)"><g><path d="M 16.34375 -1.109375 C 14.96875 -0.0351562 13.125 0.5 10.8125 0.5 C 8.96875 0.5 7.347656 0.175781 5.953125 -0.46875 C 4.566406 -1.125 3.503906 -2.046875 2.765625 -3.234375 C 2.023438 -4.429688 1.65625 -5.816406 1.65625 -7.390625 C 1.65625 -9.003906 2.03125 -10.394531 2.78125 -11.5625 C 3.539062 -12.738281 4.609375 -13.644531 5.984375 -14.28125 C 7.359375 -14.914062 8.96875 -15.234375 10.8125 -15.234375 C 11.914062 -15.234375 12.941406 -15.097656 13.890625 -14.828125 C 14.847656 -14.566406 15.664062 -14.179688 16.34375 -13.671875 C 16.238281 -15.015625 15.742188 -16.046875 14.859375 -16.765625 C 13.972656 -17.484375 12.738281 -17.84375 11.15625 -17.84375 L 9.609375 -17.796875 C 9.304688 -17.765625 8.921875 -17.75 8.453125 -17.75 C 8.046875 -17.75 7.765625 -17.832031 7.609375 -18 C 7.460938 -18.164062 7.359375 -18.484375 7.296875 -18.953125 L 6.78125 -23.328125 C 6.75 -23.828125 6.816406 -24.1875 6.984375 -24.40625 C 7.148438 -24.625 7.46875 -24.785156 7.9375 -24.890625 C 9.113281 -25.117188 10.507812 -25.234375 12.125 -25.234375 C 16.375 -25.234375 19.53125 -24.128906 21.59375 -21.921875 C 23.65625 -19.710938 24.6875 -16.578125 24.6875 -12.515625 L 24.6875 -0.90625 C 24.6875 -0.570312 24.617188 -0.335938 24.484375 -0.203125 C 24.347656 -0.0664062 24.128906 0 23.828125 0 L 17.25 0 C 16.945312 0 16.71875 -0.0664062 16.5625 -0.203125 C 16.414062 -0.335938 16.34375 -0.570312 16.34375 -0.90625 Z M 10.203125 -7.390625 C 10.203125 -6.421875 10.492188 -5.660156 11.078125 -5.109375 C 11.671875 -4.554688 12.421875 -4.28125 13.328125 -4.28125 C 14.191406 -4.28125 14.925781 -4.554688 15.53125 -5.109375 C 16.132812 -5.660156 16.4375 -6.390625 16.4375 -7.296875 C 16.4375 -8.296875 16.144531 -9.070312 15.5625 -9.625 C 14.976562 -10.175781 14.234375 -10.453125 13.328125 -10.453125 C 12.421875 -10.453125 11.671875 -10.175781 11.078125 -9.625 C 10.492188 -9.070312 10.203125 -8.328125 10.203125 -7.390625 Z M 10.203125 -7.390625 "/></g></g></g><g fill="#000000" fill-opacity="1"><g transform="translate(397.875279, 80.877003)"><g/></g></g><g fill="#000000" fill-opacity="1"><g transform="translate(409.390304, 80.877003)"><g><path d="M 0.5 -6.078125 C 0.5 -6.546875 0.609375 -6.878906 0.828125 -7.078125 C 1.046875 -7.285156 1.390625 -7.390625 1.859375 -7.390625 L 2.609375 -7.390625 C 2.910156 -7.390625 3.144531 -7.445312 3.3125 -7.5625 C 3.476562 -7.6875 3.648438 -7.914062 3.828125 -8.25 L 12.265625 -23.734375 C 12.640625 -24.398438 12.953125 -24.867188 13.203125 -25.140625 C 13.453125 -25.410156 13.757812 -25.546875 14.125 -25.546875 C 14.5 -25.546875 14.8125 -25.410156 15.0625 -25.140625 C 15.3125 -24.867188 15.617188 -24.398438 15.984375 -23.734375 L 24.390625 -8.25 C 24.554688 -7.914062 24.726562 -7.6875 24.90625 -7.5625 C 25.09375 -7.445312 25.390625 -7.390625 25.796875 -7.390625 L 26.59375 -7.390625 C 27.0625 -7.390625 27.40625 -7.285156 27.625 -7.078125 C 27.84375 -6.878906 27.953125 -6.546875 27.953125 -6.078125 L 27.953125 6.734375 C 27.953125 7.203125 27.84375 7.535156 27.625 7.734375 C 27.40625 7.941406 27.0625 8.046875 26.59375 8.046875 L 21.578125 8.046875 C 21.140625 8.046875 20.8125 7.941406 20.59375 7.734375 C 20.375 7.535156 20.265625 7.203125 20.265625 6.734375 L 20.265625 0.75 C 20.265625 0.488281 20.210938 0.296875 20.109375 0.171875 C 20.015625 0.0546875 19.816406 0 19.515625 0 L 8.953125 0 C 8.648438 0 8.445312 0.0546875 8.34375 0.171875 C 8.25 0.296875 8.203125 0.488281 8.203125 0.75 L 8.203125 6.734375 C 8.203125 7.203125 8.097656 7.535156 7.890625 7.734375 C 7.691406 7.941406 7.359375 8.046875 6.890625 8.046875 L 1.859375 8.046875 C 1.390625 8.046875 1.046875 7.941406 0.828125 7.734375 C 0.609375 7.535156 0.5 7.203125 0.5 6.734375 Z M 14.078125 -13.125 L 10.5625 -6.390625 L 17.546875 -6.390625 Z M 14.078125 -13.125 "/></g></g></g><g fill="#000000" fill-opacity="1"><g transform="translate(435.538179, 80.877003)"><g><path d="M 1.765625 -12.21875 C 1.765625 -14.726562 2.34375 -16.972656 3.5 -18.953125 C 4.65625 -20.929688 6.257812 -22.472656 8.3125 -23.578125 C 10.375 -24.679688 12.734375 -25.234375 15.390625 -25.234375 C 18.035156 -25.234375 20.394531 -24.679688 22.46875 -23.578125 C 24.550781 -22.472656 26.171875 -20.941406 27.328125 -18.984375 C 28.484375 -17.023438 29.0625 -14.800781 29.0625 -12.3125 C 29.0625 -9.832031 28.484375 -7.613281 27.328125 -5.65625 C 26.171875 -3.695312 24.546875 -2.160156 22.453125 -1.046875 C 20.359375 0.0546875 17.984375 0.609375 15.328125 0.609375 C 12.679688 0.609375 10.328125 0.0625 8.265625 -1.03125 C 6.203125 -2.125 4.601562 -3.648438 3.46875 -5.609375 C 2.332031 -7.566406 1.765625 -9.769531 1.765625 -12.21875 Z M 15.328125 -6.984375 C 16.234375 -6.984375 17.070312 -7.207031 17.84375 -7.65625 C 18.613281 -8.113281 19.234375 -8.742188 19.703125 -9.546875 C 20.179688 -10.359375 20.421875 -11.28125 20.421875 -12.3125 C 20.421875 -13.351562 20.179688 -14.273438 19.703125 -15.078125 C 19.234375 -15.890625 18.613281 -16.519531 17.84375 -16.96875 C 17.070312 -17.425781 16.234375 -17.65625 15.328125 -17.65625 C 14.429688 -17.65625 13.601562 -17.425781 12.84375 -16.96875 C 12.09375 -16.519531 11.5 -15.890625 11.0625 -15.078125 C 10.625 -14.273438 10.40625 -13.351562 10.40625 -12.3125 C 10.40625 -11.28125 10.625 -10.359375 11.0625 -9.546875 C 11.5 -8.742188 12.09375 -8.113281 12.84375 -7.65625 C 13.601562 -7.207031 14.429688 -6.984375 15.328125 -6.984375 Z M 15.328125 -6.984375 "/></g></g></g><g fill="#000000" fill-opacity="1"><g transform="translate(464.049434, 80.877003)"><g><path d="M 3.265625 -22.21875 C 3.265625 -23.195312 3.28125 -23.882812 3.3125 -24.28125 C 3.351562 -24.6875 3.460938 -24.972656 3.640625 -25.140625 C 3.828125 -25.304688 4.125 -25.390625 4.53125 -25.390625 C 4.894531 -25.390625 5.394531 -25.15625 6.03125 -24.6875 C 6.664062 -24.21875 7.554688 -23.378906 8.703125 -22.171875 L 16.296875 -14.328125 L 23.9375 -22.171875 C 25.101562 -23.378906 25.992188 -24.21875 26.609375 -24.6875 C 27.234375 -25.15625 27.734375 -25.390625 28.109375 -25.390625 C 28.503906 -25.390625 28.796875 -25.304688 28.984375 -25.140625 C 29.171875 -24.972656 29.28125 -24.6875 29.3125 -24.28125 C 29.34375 -23.882812 29.359375 -23.195312 29.359375 -22.21875 L 29.359375 -1.3125 C 29.359375 -0.875 29.257812 -0.546875 29.0625 -0.328125 C 28.863281 -0.109375 28.53125 0 28.0625 0 L 22.28125 0 C 21.8125 0 21.46875 -0.0976562 21.25 -0.296875 C 21.03125 -0.503906 20.921875 -0.84375 20.921875 -1.3125 L 20.921875 -9.25 L 18.25 -6.53125 C 17.78125 -6.0625 17.394531 -5.71875 17.09375 -5.5 C 16.789062 -5.28125 16.523438 -5.171875 16.296875 -5.171875 C 16.054688 -5.171875 15.800781 -5.269531 15.53125 -5.46875 C 15.269531 -5.675781 14.882812 -6.03125 14.375 -6.53125 L 11.71875 -9.25 L 11.71875 -1.3125 C 11.71875 -0.84375 11.609375 -0.503906 11.390625 -0.296875 C 11.171875 -0.0976562 10.828125 0 10.359375 0 L 4.578125 0 C 4.140625 0 3.8125 -0.109375 3.59375 -0.328125 C 3.375 -0.546875 3.265625 -0.875 3.265625 -1.3125 Z M 3.265625 -22.21875 "/></g></g></g><g fill="#000000" fill-opacity="1"><g transform="translate(494.37096, 80.877003)"><g><path d="M 16.34375 -1.109375 C 14.96875 -0.0351562 13.125 0.5 10.8125 0.5 C 8.96875 0.5 7.347656 0.175781 5.953125 -0.46875 C 4.566406 -1.125 3.503906 -2.046875 2.765625 -3.234375 C 2.023438 -4.429688 1.65625 -5.816406 1.65625 -7.390625 C 1.65625 -9.003906 2.03125 -10.394531 2.78125 -11.5625 C 3.539062 -12.738281 4.609375 -13.644531 5.984375 -14.28125 C 7.359375 -14.914062 8.96875 -15.234375 10.8125 -15.234375 C 11.914062 -15.234375 12.941406 -15.097656 13.890625 -14.828125 C 14.847656 -14.566406 15.664062 -14.179688 16.34375 -13.671875 C 16.238281 -15.015625 15.742188 -16.046875 14.859375 -16.765625 C 13.972656 -17.484375 12.738281 -17.84375 11.15625 -17.84375 L 9.609375 -17.796875 C 9.304688 -17.765625 8.921875 -17.75 8.453125 -17.75 C 8.046875 -17.75 7.765625 -17.832031 7.609375 -18 C 7.460938 -18.164062 7.359375 -18.484375 7.296875 -18.953125 L 6.78125 -23.328125 C 6.75 -23.828125 6.816406 -24.1875 6.984375 -24.40625 C 7.148438 -24.625 7.46875 -24.785156 7.9375 -24.890625 C 9.113281 -25.117188 10.507812 -25.234375 12.125 -25.234375 C 16.375 -25.234375 19.53125 -24.128906 21.59375 -21.921875 C 23.65625 -19.710938 24.6875 -16.578125 24.6875 -12.515625 L 24.6875 -0.90625 C 24.6875 -0.570312 24.617188 -0.335938 24.484375 -0.203125 C 24.347656 -0.0664062 24.128906 0 23.828125 0 L 17.25 0 C 16.945312 0 16.71875 -0.0664062 16.5625 -0.203125 C 16.414062 -0.335938 16.34375 -0.570312 16.34375 -0.90625 Z M 10.203125 -7.390625 C 10.203125 -6.421875 10.492188 -5.660156 11.078125 -5.109375 C 11.671875 -4.554688 12.421875 -4.28125 13.328125 -4.28125 C 14.191406 -4.28125 14.925781 -4.554688 15.53125 -5.109375 C 16.132812 -5.660156 16.4375 -6.390625 16.4375 -7.296875 C 16.4375 -8.296875 16.144531 -9.070312 15.5625 -9.625 C 14.976562 -10.175781 14.234375 -10.453125 13.328125 -10.453125 C 12.421875 -10.453125 11.671875 -10.175781 11.078125 -9.625 C 10.492188 -9.070312 10.203125 -8.328125 10.203125 -7.390625 Z M 10.203125 -7.390625 "/></g></g></g><g fill="#000000" fill-opacity="1"><g transform="translate(519.764556, 80.877003)"><g><path d="M 3.265625 -23.328125 C 3.265625 -23.796875 3.375 -24.128906 3.59375 -24.328125 C 3.8125 -24.535156 4.140625 -24.640625 4.578125 -24.640625 L 10.359375 -24.640625 C 10.828125 -24.640625 11.171875 -24.535156 11.390625 -24.328125 C 11.609375 -24.128906 11.71875 -23.796875 11.71875 -23.328125 L 11.71875 -7.75 C 11.71875 -7.507812 11.882812 -7.390625 12.21875 -7.390625 L 17.34375 -7.390625 C 17.675781 -7.390625 17.84375 -7.507812 17.84375 -7.75 L 17.84375 -23.328125 C 17.84375 -23.796875 17.953125 -24.128906 18.171875 -24.328125 C 18.390625 -24.535156 18.71875 -24.640625 19.15625 -24.640625 L 24.9375 -24.640625 C 25.40625 -24.640625 25.75 -24.535156 25.96875 -24.328125 C 26.1875 -24.128906 26.296875 -23.796875 26.296875 -23.328125 L 26.296875 -7.640625 C 26.328125 -7.535156 26.382812 -7.46875 26.46875 -7.4375 C 26.550781 -7.40625 26.660156 -7.390625 26.796875 -7.390625 L 31.921875 -7.390625 C 32.265625 -7.390625 32.4375 -7.507812 32.4375 -7.75 L 32.4375 -23.328125 C 32.4375 -23.796875 32.539062 -24.128906 32.75 -24.328125 C 32.96875 -24.535156 33.3125 -24.640625 33.78125 -24.640625 L 39.578125 -24.640625 C 40.046875 -24.640625 40.378906 -24.535156 40.578125 -24.328125 C 40.773438 -24.128906 40.875 -23.796875 40.875 -23.328125 L 40.875 -1.3125 C 40.875 -0.875 40.773438 -0.546875 40.578125 -0.328125 C 40.378906 -0.109375 40.046875 0 39.578125 0 L 4.578125 0 C 4.140625 0 3.8125 -0.109375 3.59375 -0.328125 C 3.375 -0.546875 3.265625 -0.875 3.265625 -1.3125 Z M 3.265625 -23.328125 "/></g></g></g><g fill="#000000" fill-opacity="1"><g transform="translate(561.601272, 80.877003)"><g><path d="M 25.6875 -4.375 C 25.851562 -4.039062 25.9375 -3.753906 25.9375 -3.515625 C 25.9375 -3.148438 25.6875 -2.78125 25.1875 -2.40625 C 23.75 -1.375 22.191406 -0.613281 20.515625 -0.125 C 18.835938 0.363281 16.894531 0.609375 14.6875 0.609375 C 12.070312 0.609375 9.789062 0.0625 7.84375 -1.03125 C 5.894531 -2.125 4.394531 -3.640625 3.34375 -5.578125 C 2.289062 -7.523438 1.765625 -9.738281 1.765625 -12.21875 C 1.765625 -14.726562 2.300781 -16.972656 3.375 -18.953125 C 4.445312 -20.929688 5.953125 -22.472656 7.890625 -23.578125 C 9.835938 -24.679688 12.066406 -25.234375 14.578125 -25.234375 C 17.097656 -25.234375 19.300781 -24.6875 21.1875 -23.59375 C 23.082031 -22.507812 24.550781 -21.003906 25.59375 -19.078125 C 26.632812 -17.148438 27.15625 -14.929688 27.15625 -12.421875 L 27.15625 -11.0625 C 27.15625 -10.726562 27.085938 -10.492188 26.953125 -10.359375 C 26.816406 -10.222656 26.597656 -10.15625 26.296875 -10.15625 L 10.3125 -10.15625 C 10.507812 -8.8125 11.082031 -7.769531 12.03125 -7.03125 C 12.988281 -6.300781 14.15625 -5.9375 15.53125 -5.9375 C 16.769531 -5.9375 17.894531 -6.09375 18.90625 -6.40625 C 19.914062 -6.726562 20.921875 -7.191406 21.921875 -7.796875 C 22.390625 -8.097656 22.757812 -8.25 23.03125 -8.25 C 23.332031 -8.25 23.597656 -8.046875 23.828125 -7.640625 Z M 18.546875 -15.4375 C 18.453125 -16.570312 18.0625 -17.484375 17.375 -18.171875 C 16.6875 -18.859375 15.753906 -19.203125 14.578125 -19.203125 C 13.535156 -19.203125 12.65625 -18.882812 11.9375 -18.25 C 11.21875 -17.613281 10.707031 -16.675781 10.40625 -15.4375 Z M 18.546875 -15.4375 "/></g></g></g><g fill="#000000" fill-opacity="1"><g transform="translate(588.201715, 80.877003)"><g><path d="M 3.265625 -23.328125 C 3.265625 -23.796875 3.375 -24.128906 3.59375 -24.328125 C 3.8125 -24.535156 4.140625 -24.640625 4.578125 -24.640625 L 10.359375 -24.640625 C 10.828125 -24.640625 11.171875 -24.535156 11.390625 -24.328125 C 11.609375 -24.128906 11.71875 -23.796875 11.71875 -23.328125 L 11.71875 -16.640625 C 11.71875 -16.304688 11.882812 -16.140625 12.21875 -16.140625 L 18.359375 -16.140625 C 18.691406 -16.140625 18.859375 -16.304688 18.859375 -16.640625 L 18.859375 -23.328125 C 18.859375 -23.796875 18.96875 -24.128906 19.1875 -24.328125 C 19.40625 -24.535156 19.75 -24.640625 20.21875 -24.640625 L 26 -24.640625 C 26.46875 -24.640625 26.800781 -24.535156 27 -24.328125 C 27.195312 -24.128906 27.296875 -23.796875 27.296875 -23.328125 L 27.296875 -1.3125 C 27.296875 -0.875 27.195312 -0.546875 27 -0.328125 C 26.800781 -0.109375 26.46875 0 26 0 L 20.21875 0 C 19.75 0 19.40625 -0.0976562 19.1875 -0.296875 C 18.96875 -0.503906 18.859375 -0.84375 18.859375 -1.3125 L 18.859375 -8.203125 C 18.859375 -8.566406 18.691406 -8.75 18.359375 -8.75 L 12.21875 -8.75 C 11.882812 -8.75 11.71875 -8.566406 11.71875 -8.203125 L 11.71875 -1.3125 C 11.71875 -0.84375 11.609375 -0.503906 11.390625 -0.296875 C 11.171875 -0.0976562 10.828125 0 10.359375 0 L 4.578125 0 C 4.140625 0 3.8125 -0.109375 3.59375 -0.328125 C 3.375 -0.546875 3.265625 -0.875 3.265625 -1.3125 Z M 3.265625 -23.328125 "/></g></g></g><g fill="#000000" fill-opacity="1"><g transform="translate(297.91241, 132.014014)"><g><path d="M 12.71875 -23.734375 C 13.09375 -24.367188 13.410156 -24.828125 13.671875 -25.109375 C 13.941406 -25.398438 14.226562 -25.546875 14.53125 -25.546875 C 14.832031 -25.546875 15.113281 -25.410156 15.375 -25.140625 C 15.644531 -24.867188 15.96875 -24.398438 16.34375 -23.734375 L 28.609375 -1.203125 C 28.742188 -0.972656 28.8125 -0.753906 28.8125 -0.546875 C 28.8125 -0.179688 28.539062 0 28 0 L 20.765625 0 C 20.328125 0 20.015625 -0.0703125 19.828125 -0.21875 C 19.648438 -0.375 19.441406 -0.6875 19.203125 -1.15625 L 14.328125 -10.8125 L 9.609375 -1.15625 C 9.367188 -0.71875 9.144531 -0.414062 8.9375 -0.25 C 8.738281 -0.0820312 8.441406 0 8.046875 0 L 1.109375 0 C 0.835938 0 0.617188 -0.0546875 0.453125 -0.171875 C 0.285156 -0.296875 0.203125 -0.457031 0.203125 -0.65625 C 0.203125 -0.851562 0.269531 -1.035156 0.40625 -1.203125 Z M 12.71875 -23.734375 "/></g></g></g><g fill="#000000" fill-opacity="1"><g transform="translate(324.663708, 132.014014)"><g><path d="M 3.265625 -23.328125 C 3.265625 -23.796875 3.375 -24.128906 3.59375 -24.328125 C 3.8125 -24.535156 4.140625 -24.640625 4.578125 -24.640625 L 10.359375 -24.640625 C 10.828125 -24.640625 11.171875 -24.535156 11.390625 -24.328125 C 11.609375 -24.128906 11.71875 -23.796875 11.71875 -23.328125 L 11.71875 -16.640625 C 11.71875 -16.304688 11.882812 -16.140625 12.21875 -16.140625 L 16.390625 -16.140625 C 16.890625 -17.953125 17.757812 -19.546875 19 -20.921875 C 20.238281 -22.296875 21.75 -23.359375 23.53125 -24.109375 C 25.3125 -24.859375 27.289062 -25.234375 29.46875 -25.234375 C 32.113281 -25.234375 34.472656 -24.679688 36.546875 -23.578125 C 38.628906 -22.472656 40.25 -20.941406 41.40625 -18.984375 C 42.5625 -17.023438 43.140625 -14.800781 43.140625 -12.3125 C 43.140625 -9.832031 42.5625 -7.613281 41.40625 -5.65625 C 40.25 -3.695312 38.625 -2.160156 36.53125 -1.046875 C 34.4375 0.0546875 32.066406 0.609375 29.421875 0.609375 C 27.203125 0.609375 25.175781 0.222656 23.34375 -0.546875 C 21.519531 -1.316406 20.003906 -2.40625 18.796875 -3.8125 C 17.597656 -5.226562 16.742188 -6.875 16.234375 -8.75 L 12.21875 -8.75 C 11.882812 -8.75 11.71875 -8.566406 11.71875 -8.203125 L 11.71875 -1.3125 C 11.71875 -0.84375 11.609375 -0.503906 11.390625 -0.296875 C 11.171875 -0.0976562 10.828125 0 10.359375 0 L 4.578125 0 C 4.140625 0 3.8125 -0.109375 3.59375 -0.328125 C 3.375 -0.546875 3.265625 -0.875 3.265625 -1.3125 Z M 29.421875 -6.984375 C 30.316406 -6.984375 31.148438 -7.207031 31.921875 -7.65625 C 32.691406 -8.113281 33.3125 -8.742188 33.78125 -9.546875 C 34.257812 -10.359375 34.5 -11.28125 34.5 -12.3125 C 34.5 -13.351562 34.257812 -14.273438 33.78125 -15.078125 C 33.3125 -15.890625 32.691406 -16.519531 31.921875 -16.96875 C 31.148438 -17.425781 30.316406 -17.65625 29.421875 -17.65625 C 28.515625 -17.65625 27.679688 -17.425781 26.921875 -16.96875 C 26.171875 -16.519531 25.578125 -15.890625 25.140625 -15.078125 C 24.703125 -14.273438 24.484375 -13.351562 24.484375 -12.3125 C 24.484375 -11.28125 24.703125 -10.359375 25.140625 -9.546875 C 25.578125 -8.742188 26.171875 -8.113281 26.921875 -7.65625 C 27.679688 -7.207031 28.515625 -6.984375 29.421875 -6.984375 Z M 29.421875 -6.984375 "/></g></g></g><g fill="#000000" fill-opacity="1"><g transform="translate(367.254694, 132.014014)"><g><path d="M 24.34375 -37.609375 C 24.4375 -37.679688 24.566406 -37.71875 24.734375 -37.71875 C 25.003906 -37.71875 25.222656 -37.582031 25.390625 -37.3125 C 25.554688 -37.039062 25.640625 -36.703125 25.640625 -36.296875 L 25.640625 -32.078125 C 25.640625 -31.441406 25.5625 -31.015625 25.40625 -30.796875 C 25.257812 -30.578125 25.066406 -30.414062 24.828125 -30.3125 C 24.597656 -30.21875 24.4375 -30.132812 24.34375 -30.0625 L 17.25 -26.296875 L 15.59375 -25.4375 C 14.382812 -24.875 13.414062 -24.378906 12.6875 -23.953125 C 11.96875 -23.535156 11.441406 -23.109375 11.109375 -22.671875 C 11.273438 -22.710938 11.625 -22.832031 12.15625 -23.03125 C 12.695312 -23.226562 13.335938 -23.398438 14.078125 -23.546875 C 14.816406 -23.703125 15.570312 -23.78125 16.34375 -23.78125 C 18.65625 -23.78125 20.773438 -23.289062 22.703125 -22.3125 C 24.628906 -21.34375 26.171875 -19.953125 27.328125 -18.140625 C 28.484375 -16.335938 29.0625 -14.226562 29.0625 -11.8125 C 29.0625 -9.332031 28.484375 -7.15625 27.328125 -5.28125 C 26.171875 -3.40625 24.550781 -1.953125 22.46875 -0.921875 C 20.394531 0.0976562 18.015625 0.609375 15.328125 0.609375 C 12.617188 0.609375 10.238281 0.0546875 8.1875 -1.046875 C 6.144531 -2.160156 4.5625 -3.769531 3.4375 -5.875 C 2.320312 -7.988281 1.765625 -10.503906 1.765625 -13.421875 C 1.765625 -17.347656 2.757812 -20.851562 4.75 -23.9375 C 6.75 -27.019531 9.722656 -29.648438 13.671875 -31.828125 Z M 10.40625 -11.8125 C 10.40625 -10.8125 10.625 -9.945312 11.0625 -9.21875 C 11.5 -8.5 12.09375 -7.945312 12.84375 -7.5625 C 13.601562 -7.175781 14.429688 -6.984375 15.328125 -6.984375 C 16.234375 -6.984375 17.082031 -7.175781 17.875 -7.5625 C 18.664062 -7.945312 19.285156 -8.507812 19.734375 -9.25 C 20.191406 -9.988281 20.421875 -10.84375 20.421875 -11.8125 C 20.421875 -12.789062 20.191406 -13.644531 19.734375 -14.375 C 19.285156 -15.113281 18.664062 -15.675781 17.875 -16.0625 C 17.082031 -16.445312 16.234375 -16.640625 15.328125 -16.640625 C 14.429688 -16.640625 13.601562 -16.445312 12.84375 -16.0625 C 12.09375 -15.675781 11.5 -15.125 11.0625 -14.40625 C 10.625 -13.6875 10.40625 -12.820312 10.40625 -11.8125 Z M 10.40625 -11.8125 "/></g></g></g><g fill="#000000" fill-opacity="1"><g transform="translate(395.76595, 132.014014)"><g><path d="M 3.265625 -23.328125 C 3.265625 -23.796875 3.375 -24.128906 3.59375 -24.328125 C 3.8125 -24.535156 4.140625 -24.640625 4.578125 -24.640625 L 10.359375 -24.640625 C 10.828125 -24.640625 11.171875 -24.535156 11.390625 -24.328125 C 11.609375 -24.128906 11.71875 -23.796875 11.71875 -23.328125 L 11.71875 -14.328125 L 19 -20.46875 C 19.46875 -20.832031 19.957031 -21.265625 20.46875 -21.765625 C 21.875 -22.972656 22.960938 -23.878906 23.734375 -24.484375 C 24.503906 -25.085938 25.070312 -25.390625 25.4375 -25.390625 C 25.707031 -25.390625 25.898438 -25.304688 26.015625 -25.140625 C 26.140625 -24.972656 26.21875 -24.628906 26.25 -24.109375 C 26.28125 -23.585938 26.296875 -22.957031 26.296875 -22.21875 L 26.296875 -1.3125 C 26.296875 -0.875 26.191406 -0.546875 25.984375 -0.328125 C 25.785156 -0.109375 25.453125 0 24.984375 0 L 19.203125 0 C 18.734375 0 18.390625 -0.0976562 18.171875 -0.296875 C 17.953125 -0.503906 17.84375 -0.84375 17.84375 -1.3125 L 17.84375 -10.3125 L 10.5625 -4.171875 C 10.09375 -3.804688 9.601562 -3.367188 9.09375 -2.859375 C 7.6875 -1.660156 6.597656 -0.757812 5.828125 -0.15625 C 5.054688 0.445312 4.488281 0.75 4.125 0.75 C 3.851562 0.75 3.660156 0.664062 3.546875 0.5 C 3.429688 0.332031 3.351562 -0.0078125 3.3125 -0.53125 C 3.28125 -1.050781 3.265625 -1.675781 3.265625 -2.40625 Z M 3.265625 -23.328125 "/></g></g></g><g fill="#000000" fill-opacity="1"><g transform="translate(423.020087, 132.014014)"><g><path d="M 3.265625 -22.21875 C 3.265625 -23.195312 3.28125 -23.882812 3.3125 -24.28125 C 3.351562 -24.6875 3.460938 -24.972656 3.640625 -25.140625 C 3.828125 -25.304688 4.125 -25.390625 4.53125 -25.390625 C 4.894531 -25.390625 5.394531 -25.15625 6.03125 -24.6875 C 6.664062 -24.21875 7.554688 -23.378906 8.703125 -22.171875 L 16.296875 -14.328125 L 23.9375 -22.171875 C 25.101562 -23.378906 25.992188 -24.21875 26.609375 -24.6875 C 27.234375 -25.15625 27.734375 -25.390625 28.109375 -25.390625 C 28.503906 -25.390625 28.796875 -25.304688 28.984375 -25.140625 C 29.171875 -24.972656 29.28125 -24.6875 29.3125 -24.28125 C 29.34375 -23.882812 29.359375 -23.195312 29.359375 -22.21875 L 29.359375 -1.3125 C 29.359375 -0.875 29.257812 -0.546875 29.0625 -0.328125 C 28.863281 -0.109375 28.53125 0 28.0625 0 L 22.28125 0 C 21.8125 0 21.46875 -0.0976562 21.25 -0.296875 C 21.03125 -0.503906 20.921875 -0.84375 20.921875 -1.3125 L 20.921875 -9.25 L 18.25 -6.53125 C 17.78125 -6.0625 17.394531 -5.71875 17.09375 -5.5 C 16.789062 -5.28125 16.523438 -5.171875 16.296875 -5.171875 C 16.054688 -5.171875 15.800781 -5.269531 15.53125 -5.46875 C 15.269531 -5.675781 14.882812 -6.03125 14.375 -6.53125 L 11.71875 -9.25 L 11.71875 -1.3125 C 11.71875 -0.84375 11.609375 -0.503906 11.390625 -0.296875 C 11.171875 -0.0976562 10.828125 0 10.359375 0 L 4.578125 0 C 4.140625 0 3.8125 -0.109375 3.59375 -0.328125 C 3.375 -0.546875 3.265625 -0.875 3.265625 -1.3125 Z M 3.265625 -22.21875 "/></g></g></g><g fill="#000000" fill-opacity="1"><g transform="translate(453.341603, 132.014014)"><g><path d="M 25.6875 -4.375 C 25.851562 -4.039062 25.9375 -3.753906 25.9375 -3.515625 C 25.9375 -3.148438 25.6875 -2.78125 25.1875 -2.40625 C 23.75 -1.375 22.191406 -0.613281 20.515625 -0.125 C 18.835938 0.363281 16.894531 0.609375 14.6875 0.609375 C 12.070312 0.609375 9.789062 0.0625 7.84375 -1.03125 C 5.894531 -2.125 4.394531 -3.640625 3.34375 -5.578125 C 2.289062 -7.523438 1.765625 -9.738281 1.765625 -12.21875 C 1.765625 -14.726562 2.300781 -16.972656 3.375 -18.953125 C 4.445312 -20.929688 5.953125 -22.472656 7.890625 -23.578125 C 9.835938 -24.679688 12.066406 -25.234375 14.578125 -25.234375 C 17.097656 -25.234375 19.300781 -24.6875 21.1875 -23.59375 C 23.082031 -22.507812 24.550781 -21.003906 25.59375 -19.078125 C 26.632812 -17.148438 27.15625 -14.929688 27.15625 -12.421875 L 27.15625 -11.0625 C 27.15625 -10.726562 27.085938 -10.492188 26.953125 -10.359375 C 26.816406 -10.222656 26.597656 -10.15625 26.296875 -10.15625 L 10.3125 -10.15625 C 10.507812 -8.8125 11.082031 -7.769531 12.03125 -7.03125 C 12.988281 -6.300781 14.15625 -5.9375 15.53125 -5.9375 C 16.769531 -5.9375 17.894531 -6.09375 18.90625 -6.40625 C 19.914062 -6.726562 20.921875 -7.191406 21.921875 -7.796875 C 22.390625 -8.097656 22.757812 -8.25 23.03125 -8.25 C 23.332031 -8.25 23.597656 -8.046875 23.828125 -7.640625 Z M 18.546875 -15.4375 C 18.453125 -16.570312 18.0625 -17.484375 17.375 -18.171875 C 16.6875 -18.859375 15.753906 -19.203125 14.578125 -19.203125 C 13.535156 -19.203125 12.65625 -18.882812 11.9375 -18.25 C 11.21875 -17.613281 10.707031 -16.675781 10.40625 -15.4375 Z M 18.546875 -15.4375 "/></g></g></g><g fill="#000000" fill-opacity="1"><g transform="translate(479.942045, 132.014014)"><g><path d="M 3.265625 -23.328125 C 3.265625 -23.796875 3.375 -24.128906 3.59375 -24.328125 C 3.8125 -24.535156 4.140625 -24.640625 4.578125 -24.640625 L 10.359375 -24.640625 C 10.828125 -24.640625 11.171875 -24.535156 11.390625 -24.328125 C 11.609375 -24.128906 11.71875 -23.796875 11.71875 -23.328125 L 11.71875 -7.75 C 11.71875 -7.507812 11.882812 -7.390625 12.21875 -7.390625 L 18.40625 -7.390625 C 18.738281 -7.390625 18.90625 -7.507812 18.90625 -7.75 L 18.90625 -23.328125 C 18.90625 -23.796875 19.015625 -24.128906 19.234375 -24.328125 C 19.453125 -24.535156 19.796875 -24.640625 20.265625 -24.640625 L 26.046875 -24.640625 C 26.515625 -24.640625 26.847656 -24.535156 27.046875 -24.328125 C 27.253906 -24.128906 27.359375 -23.796875 27.359375 -23.328125 L 27.359375 -7.9375 C 27.359375 -7.738281 27.398438 -7.597656 27.484375 -7.515625 C 27.566406 -7.429688 27.691406 -7.390625 27.859375 -7.390625 L 30.265625 -7.390625 C 30.734375 -7.390625 31.078125 -7.285156 31.296875 -7.078125 C 31.515625 -6.878906 31.625 -6.546875 31.625 -6.078125 L 31.625 6.734375 C 31.625 7.203125 31.515625 7.535156 31.296875 7.734375 C 31.078125 7.941406 30.734375 8.046875 30.265625 8.046875 L 25.234375 8.046875 C 24.804688 8.046875 24.484375 7.941406 24.265625 7.734375 C 24.046875 7.535156 23.9375 7.203125 23.9375 6.734375 L 23.9375 0.75 C 23.9375 0.25 23.703125 0 23.234375 0 L 4.578125 0 C 4.140625 0 3.8125 -0.109375 3.59375 -0.328125 C 3.375 -0.546875 3.265625 -0.875 3.265625 -1.3125 Z M 3.265625 -23.328125 "/></g></g></g></svg>