<svg xmlns="http://www.w3.org/2000/svg" xmlns:xlink="http://www.w3.org/1999/xlink" width="500" zoomAndPan="magnify" viewBox="0 0 375 525.000007" height="700" preserveAspectRatio="xMidYMid meet" version="1.0"><defs><g/><clipPath id="cd1689d1a0"><path d="M 0.355469 0 L 374.640625 0 L 374.640625 524 L 0.355469 524 Z M 0.355469 0 " clip-rule="nonzero"/></clipPath><clipPath id="2bda77bb93"><path d="M 142 285 L 341.5625 285 L 341.5625 305 L 142 305 Z M 142 285 " clip-rule="nonzero"/></clipPath><clipPath id="7b65e71f83"><path d="M 270 185.75 L 299 185.75 L 299 219 L 270 219 Z M 270 185.75 " clip-rule="nonzero"/></clipPath><clipPath id="c9ad951266"><path d="M 147 185.75 L 167 185.75 L 167 205 L 147 205 Z M 147 185.75 " clip-rule="nonzero"/></clipPath><clipPath id="650ce5c04c"><path d="M 166 185.75 L 233 185.75 L 233 224 L 166 224 Z M 166 185.75 " clip-rule="nonzero"/></clipPath><clipPath id="cf395b4253"><path d="M 85.867188 384 L 200 384 L 200 460.476562 L 85.867188 460.476562 Z M 85.867188 384 " clip-rule="nonzero"/></clipPath><clipPath id="b6d4fd7d34"><path d="M 85.867188 384 L 200 384 L 200 433 L 85.867188 433 Z M 85.867188 384 " clip-rule="nonzero"/></clipPath><clipPath id="4a88675b1e"><path d="M 282 18 L 354.5625 18 L 354.5625 92 L 282 92 Z M 282 18 " clip-rule="nonzero"/></clipPath><clipPath id="da5d37016a"><path d="M 335.703125 101 L 347.554688 101 L 347.554688 113 L 335.703125 113 Z M 335.703125 101 " clip-rule="nonzero"/></clipPath><clipPath id="9feda3cf60"><path d="M 178.667969 240 L 190.519531 240 L 190.519531 252 L 178.667969 252 Z M 178.667969 240 " clip-rule="nonzero"/></clipPath><clipPath id="f507f0bd27"><path d="M 317 434 L 341.273438 434 L 341.273438 459 L 317 459 Z M 317 434 " clip-rule="nonzero"/></clipPath><clipPath id="4c237b0196"><path d="M 58.332031 423.113281 L 73.300781 423.113281 L 73.300781 439 L 58.332031 439 Z M 58.332031 423.113281 " clip-rule="nonzero"/></clipPath><clipPath id="85b06bea8a"><path d="M 32 454 L 66.070312 454 L 66.070312 488 L 32 488 Z M 32 454 " clip-rule="nonzero"/></clipPath></defs><g clip-path="url(#cd1689d1a0)"><path fill="#ffffff" d="M 0.355469 0 L 374.644531 0 L 374.644531 524 L 0.355469 524 Z M 0.355469 0 " fill-opacity="1" fill-rule="nonzero"/><path fill="#bd4e27" d="M 0.355469 0 L 374.644531 0 L 374.644531 524 L 0.355469 524 Z M 0.355469 0 " fill-opacity="1" fill-rule="nonzero"/></g><path fill="#5498d7" d="M 175.636719 451.003906 L 308.355469 451.003906 L 327.3125 304.167969 L 156.675781 304.167969 L 175.636719 451.003906 " fill-opacity="1" fill-rule="nonzero"/><g clip-path="url(#2bda77bb93)"><path fill="#5498d7" d="M 142.457031 304.167969 L 341.53125 304.167969 L 341.53125 285.21875 L 142.457031 285.21875 L 142.457031 304.167969 " fill-opacity="1" fill-rule="nonzero"/></g><path fill="#4a8bcb" d="M 327.3125 304.167969 L 324.871094 323.113281 L 159.121094 323.113281 L 156.675781 304.167969 L 327.3125 304.167969 " fill-opacity="1" fill-rule="nonzero"/><path fill="#6c5e94" d="M 251.476562 285.21875 L 317.832031 285.21875 L 317.832031 242.589844 L 298.875 218.90625 L 270.433594 218.90625 L 251.476562 242.589844 L 251.476562 285.21875 " fill-opacity="1" fill-rule="nonzero"/><g clip-path="url(#7b65e71f83)"><path fill="#e94240" d="M 270.433594 218.90625 L 298.875 218.90625 L 298.875 185.75 L 270.433594 185.75 L 270.433594 218.90625 " fill-opacity="1" fill-rule="nonzero"/></g><path fill="#7566a0" d="M 251.476562 285.21875 L 317.832031 285.21875 L 317.832031 242.589844 L 251.476562 242.589844 L 251.476562 285.21875 " fill-opacity="1" fill-rule="nonzero"/><path fill="#e6561c" d="M 165.65625 244.71875 L 185.003906 205.972656 L 176.527344 201.738281 L 157.175781 240.460938 L 165.65625 244.71875 " fill-opacity="1" fill-rule="nonzero"/><g clip-path="url(#c9ad951266)"><path fill="#f35f19" d="M 166.15625 204.695312 L 147.199219 204.695312 L 147.199219 185.75 L 166.15625 185.75 L 166.15625 204.695312 " fill-opacity="1" fill-rule="nonzero"/></g><g clip-path="url(#650ce5c04c)"><path fill="#f35f19" d="M 189.855469 223.644531 L 232.515625 223.644531 C 232.515625 202.71875 215.539062 185.75 194.597656 185.75 L 166.15625 185.75 L 166.15625 204.695312 L 189.855469 223.644531 " fill-opacity="1" fill-rule="nonzero"/></g><path fill="#d5d5d3" d="M 189.855469 242.589844 L 218.296875 242.589844 L 218.296875 223.644531 L 189.855469 223.644531 L 189.855469 242.589844 " fill-opacity="1" fill-rule="nonzero"/><path fill="#ededed" d="M 218.296875 242.589844 L 189.855469 242.589844 L 166.15625 266.273438 L 166.15625 285.21875 L 232.515625 285.21875 L 232.515625 256.800781 L 218.296875 242.589844 " fill-opacity="1" fill-rule="nonzero"/><g clip-path="url(#cf395b4253)"><path fill="#f49925" d="M 109.277344 384.691406 L 116.703125 384.691406 C 121.164062 384.691406 125.589844 385.726562 129.570312 387.726562 C 137.679688 391.777344 147.234375 391.777344 155.34375 387.726562 C 159.324219 385.726562 163.75 384.691406 168.210938 384.691406 L 175.636719 384.691406 C 188.726562 384.691406 199.335938 395.292969 199.335938 408.375 L 199.335938 436.792969 C 199.335938 449.875 188.726562 460.476562 175.636719 460.476562 L 168.210938 460.476562 C 163.75 460.476562 159.324219 459.441406 155.34375 457.441406 C 147.234375 453.390625 137.679688 453.390625 129.570312 457.441406 C 125.589844 459.441406 121.164062 460.476562 116.703125 460.476562 L 109.277344 460.476562 C 96.1875 460.476562 85.578125 449.875 85.578125 436.792969 L 85.578125 408.375 C 85.578125 395.292969 96.1875 384.691406 109.277344 384.691406 " fill-opacity="1" fill-rule="nonzero"/></g><g clip-path="url(#b6d4fd7d34)"><path fill="#f7ac36" d="M 109.277344 432.058594 L 116.703125 432.058594 C 121.164062 432.058594 125.589844 431.019531 129.570312 429.023438 C 137.679688 424.96875 147.234375 424.96875 155.34375 429.023438 C 159.324219 431.019531 163.75 432.058594 168.210938 432.058594 L 175.636719 432.058594 C 188.726562 432.058594 199.335938 421.453125 199.335938 408.375 C 199.335938 395.292969 188.726562 384.691406 175.636719 384.691406 L 168.210938 384.691406 C 163.75 384.691406 159.324219 385.726562 155.34375 387.726562 C 147.234375 391.777344 137.679688 391.777344 129.570312 387.726562 C 125.589844 385.726562 121.164062 384.691406 116.703125 384.691406 L 109.277344 384.691406 C 96.1875 384.691406 85.578125 395.292969 85.578125 408.375 C 85.578125 421.453125 96.1875 432.058594 109.277344 432.058594 " fill-opacity="1" fill-rule="nonzero"/></g><path fill="#f49925" d="M 104.539062 408.375 L 114.019531 408.375 L 114.019531 398.898438 L 104.539062 398.898438 L 104.539062 408.375 " fill-opacity="1" fill-rule="nonzero"/><path fill="#f49925" d="M 151.9375 408.375 L 161.417969 408.375 L 161.417969 398.898438 L 151.9375 398.898438 L 151.9375 408.375 " fill-opacity="1" fill-rule="nonzero"/><path fill="#f49925" d="M 170.898438 413.109375 L 180.375 413.109375 L 180.375 403.636719 L 170.898438 403.636719 L 170.898438 413.109375 " fill-opacity="1" fill-rule="nonzero"/><path fill="#f49925" d="M 123.496094 413.109375 L 132.976562 413.109375 L 132.976562 403.636719 L 123.496094 403.636719 L 123.496094 413.109375 " fill-opacity="1" fill-rule="nonzero"/><path fill="#9ddae8" d="M 218.296875 323.113281 L 218.296875 285.21875 L 294.132812 285.21875 L 294.132812 394.164062 C 294.132812 402.007812 287.765625 408.375 279.914062 408.375 L 232.515625 408.375 C 224.664062 408.375 218.296875 402.007812 218.296875 394.164062 L 218.296875 346.796875 L 199.058594 356.417969 C 193.96875 358.953125 187.800781 356.898438 185.265625 351.8125 L 185.136719 351.589844 C 182.507812 346.296875 184.597656 339.949219 189.839844 337.34375 C 201.058594 331.71875 218.296875 323.113281 218.296875 323.113281 " fill-opacity="1" fill-rule="nonzero"/><path fill="#90d0e0" d="M 189.839844 337.34375 C 201.058594 331.71875 218.296875 323.113281 218.296875 323.113281 L 218.296875 285.21875 L 221.886719 285.21875 C 239.089844 341.746094 269.285156 376.308594 293.929688 396.253906 C 292.914062 403.101562 287.0625 408.375 279.914062 408.375 L 232.515625 408.375 C 224.664062 408.375 218.296875 402.007812 218.296875 394.164062 L 218.296875 346.796875 L 199.058594 356.417969 C 193.96875 358.953125 187.800781 356.898438 185.265625 351.8125 L 185.136719 351.589844 C 182.507812 346.296875 184.597656 339.949219 189.839844 337.34375 " fill-opacity="1" fill-rule="nonzero"/><path fill="#82c2d3" d="M 270.433594 408.375 L 279.914062 408.375 L 279.914062 361.007812 L 270.433594 361.007812 L 270.433594 408.375 " fill-opacity="1" fill-rule="nonzero"/><path fill="#82c2d3" d="M 251.476562 408.375 L 260.953125 408.375 L 260.953125 361.007812 L 251.476562 361.007812 L 251.476562 408.375 " fill-opacity="1" fill-rule="nonzero"/><path fill="#82c2d3" d="M 232.515625 408.375 L 241.996094 408.375 L 241.996094 361.007812 L 232.515625 361.007812 L 232.515625 408.375 " fill-opacity="1" fill-rule="nonzero"/><g clip-path="url(#4a88675b1e)"><path fill="#fdfdfd" d="M 318.550781 91.257812 C 315.167969 83.882812 312.585938 77.449219 309.257812 71.425781 C 307.671875 68.550781 305.019531 65.820312 302.183594 64.210938 C 296.171875 60.8125 289.714844 58.195312 282.277344 54.695312 C 289.796875 51.132812 296.464844 48.261719 302.804688 44.816406 C 305.21875 43.511719 307.542969 41.222656 308.839844 38.804688 C 312.199219 32.535156 314.96875 25.949219 318.527344 18.304688 C 322.019531 25.71875 324.808594 32.347656 328.21875 38.617188 C 329.609375 41.1875 332.011719 43.660156 334.558594 45.050781 C 340.792969 48.414062 347.386719 51.121094 355.035156 54.648438 C 347.714844 58.023438 341.316406 60.519531 335.386719 63.871094 C 332.375 65.574219 329.515625 68.410156 327.820312 71.425781 C 324.460938 77.402344 321.9375 83.859375 318.550781 91.257812 " fill-opacity="1" fill-rule="nonzero"/></g><g clip-path="url(#da5d37016a)"><path fill="#fdfdfd" d="M 341.707031 112.871094 C 341.171875 111.707031 340.765625 110.695312 340.242188 109.742188 C 339.992188 109.292969 339.574219 108.859375 339.125 108.605469 C 338.179688 108.070312 337.160156 107.660156 335.988281 107.105469 C 337.171875 106.546875 338.222656 106.09375 339.222656 105.550781 C 339.605469 105.34375 339.96875 104.984375 340.175781 104.601562 C 340.703125 103.613281 341.140625 102.574219 341.703125 101.371094 C 342.253906 102.539062 342.691406 103.582031 343.230469 104.574219 C 343.449219 104.976562 343.828125 105.367188 344.230469 105.585938 C 345.210938 106.117188 346.253906 106.542969 347.457031 107.097656 C 346.304688 107.632812 345.296875 108.023438 344.359375 108.554688 C 343.886719 108.820312 343.433594 109.269531 343.167969 109.742188 C 342.636719 110.6875 342.238281 111.703125 341.707031 112.871094 " fill-opacity="1" fill-rule="nonzero"/></g><g clip-path="url(#9feda3cf60)"><path fill="#fdfdfd" d="M 184.671875 251.691406 C 184.136719 250.527344 183.730469 249.515625 183.207031 248.5625 C 182.957031 248.109375 182.539062 247.679688 182.089844 247.425781 C 181.140625 246.890625 180.125 246.480469 178.953125 245.925781 C 180.136719 245.367188 181.1875 244.914062 182.1875 244.371094 C 182.570312 244.164062 182.933594 243.800781 183.140625 243.421875 C 183.667969 242.433594 184.105469 241.394531 184.667969 240.191406 C 185.21875 241.359375 185.65625 242.402344 186.195312 243.390625 C 186.414062 243.796875 186.792969 244.1875 187.195312 244.40625 C 188.175781 244.9375 189.214844 245.363281 190.421875 245.917969 C 189.269531 246.449219 188.257812 246.84375 187.324219 247.375 C 186.851562 247.640625 186.398438 248.089844 186.132812 248.5625 C 185.601562 249.507812 185.203125 250.523438 184.671875 251.691406 " fill-opacity="1" fill-rule="nonzero"/></g><g clip-path="url(#f507f0bd27)"><path fill="#fdfdfd" d="M 329.367188 458.667969 C 328.230469 456.191406 327.363281 454.027344 326.246094 452.003906 C 325.710938 451.039062 324.820312 450.121094 323.867188 449.582031 C 321.847656 448.4375 319.679688 447.558594 317.179688 446.382812 C 319.707031 445.1875 321.945312 444.222656 324.074219 443.066406 C 324.886719 442.625 325.667969 441.855469 326.105469 441.042969 C 327.234375 438.9375 328.164062 436.726562 329.359375 434.15625 C 330.53125 436.648438 331.46875 438.875 332.617188 440.980469 C 333.082031 441.84375 333.890625 442.675781 334.746094 443.144531 C 336.839844 444.273438 339.058594 445.183594 341.625 446.367188 C 339.167969 447.5 337.015625 448.339844 335.023438 449.46875 C 334.011719 450.039062 333.050781 450.992188 332.480469 452.003906 C 331.351562 454.011719 330.503906 456.183594 329.367188 458.667969 " fill-opacity="1" fill-rule="nonzero"/></g><g clip-path="url(#4c237b0196)"><path fill="#fdfdfd" d="M 66.175781 438.640625 C 65.476562 437.121094 64.945312 435.796875 64.261719 434.554688 C 63.933594 433.964844 63.386719 433.402344 62.804688 433.070312 C 61.566406 432.371094 60.234375 431.832031 58.703125 431.109375 C 60.25 430.375 61.625 429.785156 62.929688 429.074219 C 63.429688 428.804688 63.90625 428.335938 64.171875 427.835938 C 64.867188 426.546875 65.4375 425.191406 66.167969 423.613281 C 66.886719 425.140625 67.464844 426.507812 68.164062 427.800781 C 68.453125 428.328125 68.945312 428.835938 69.472656 429.125 C 70.753906 429.816406 72.113281 430.375 73.6875 431.101562 C 72.179688 431.796875 70.863281 432.308594 69.640625 433 C 69.019531 433.351562 68.433594 433.933594 68.082031 434.554688 C 67.390625 435.785156 66.871094 437.117188 66.175781 438.640625 " fill-opacity="1" fill-rule="nonzero"/></g><g clip-path="url(#85b06bea8a)"><path fill="#f2e205" d="M 49.230469 487.800781 C 47.667969 484.394531 46.476562 481.421875 44.941406 478.640625 C 44.207031 477.3125 42.980469 476.050781 41.671875 475.308594 C 38.894531 473.738281 35.914062 472.53125 32.476562 470.914062 C 35.949219 469.269531 39.03125 467.941406 41.957031 466.351562 C 43.074219 465.746094 44.148438 464.691406 44.746094 463.574219 C 46.296875 460.679688 47.578125 457.636719 49.222656 454.105469 C 50.832031 457.527344 52.121094 460.589844 53.695312 463.488281 C 54.339844 464.671875 55.449219 465.816406 56.625 466.457031 C 59.503906 468.011719 62.550781 469.261719 66.082031 470.890625 C 62.703125 472.449219 59.746094 473.601562 57.007812 475.152344 C 55.617188 475.9375 54.296875 477.25 53.511719 478.640625 C 51.960938 481.402344 50.796875 484.382812 49.230469 487.800781 " fill-opacity="1" fill-rule="nonzero"/></g><g fill="#f6fafd" fill-opacity="1"><g transform="translate(18.826145, 69.118928)"><g><path d="M 0.921875 0 L 6.265625 -25.25 L 24.75 -25.25 L 19.40625 0 L 14.140625 0 L 18.5625 -20.796875 L 10.609375 -20.796875 L 6.1875 0 Z M 0.921875 0 "/></g></g></g><g fill="#f6fafd" fill-opacity="1"><g transform="translate(43.392149, 69.118928)"><g><path d="M 11.484375 0.359375 C 8.421875 0.359375 6.09375 -0.519531 4.5 -2.28125 C 2.914062 -4.039062 2.125 -6.367188 2.125 -9.265625 C 2.125 -11.242188 2.390625 -13.195312 2.921875 -15.125 C 3.453125 -17.0625 4.265625 -18.816406 5.359375 -20.390625 C 6.453125 -21.972656 7.832031 -23.242188 9.5 -24.203125 C 11.175781 -25.160156 13.171875 -25.640625 15.484375 -25.640625 C 18.546875 -25.640625 20.847656 -24.773438 22.390625 -23.046875 C 23.941406 -21.328125 24.71875 -19.039062 24.71875 -16.1875 C 24.71875 -14.144531 24.457031 -12.140625 23.9375 -10.171875 C 23.414062 -8.203125 22.617188 -6.421875 21.546875 -4.828125 C 20.472656 -3.234375 19.101562 -1.96875 17.4375 -1.03125 C 15.78125 -0.101562 13.796875 0.359375 11.484375 0.359375 Z M 11.875 -4.140625 C 13.25 -4.140625 14.5 -4.628906 15.625 -5.609375 C 16.757812 -6.585938 17.660156 -7.972656 18.328125 -9.765625 C 19.003906 -11.554688 19.34375 -13.648438 19.34375 -16.046875 C 19.34375 -17.609375 18.984375 -18.851562 18.265625 -19.78125 C 17.546875 -20.71875 16.476562 -21.1875 15.0625 -21.1875 C 13.976562 -21.1875 12.96875 -20.875 12.03125 -20.25 C 11.101562 -19.625 10.300781 -18.753906 9.625 -17.640625 C 8.957031 -16.535156 8.4375 -15.269531 8.0625 -13.84375 C 7.6875 -12.414062 7.5 -10.890625 7.5 -9.265625 C 7.5 -7.585938 7.882812 -6.3125 8.65625 -5.4375 C 9.4375 -4.570312 10.507812 -4.140625 11.875 -4.140625 Z M 11.875 -4.140625 "/></g></g></g><g fill="#f6fafd" fill-opacity="1"><g transform="translate(69.195294, 69.118928)"><g><path d="M 13.359375 0 L 15.421875 -9.6875 C 14.566406 -9.3125 13.613281 -8.96875 12.5625 -8.65625 C 11.519531 -8.351562 10.46875 -8.203125 9.40625 -8.203125 C 8.363281 -8.203125 7.363281 -8.378906 6.40625 -8.734375 C 5.457031 -9.085938 4.679688 -9.671875 4.078125 -10.484375 C 3.484375 -11.296875 3.1875 -12.382812 3.1875 -13.75 C 3.1875 -14.34375 3.253906 -15.015625 3.390625 -15.765625 L 5.34375 -25.25 L 10.609375 -25.25 L 8.734375 -16.34375 C 8.679688 -16.082031 8.640625 -15.832031 8.609375 -15.59375 C 8.578125 -15.351562 8.5625 -15.128906 8.5625 -14.921875 C 8.5625 -13.410156 9.441406 -12.65625 11.203125 -12.65625 C 12.097656 -12.65625 12.960938 -12.769531 13.796875 -13 C 14.640625 -13.238281 15.472656 -13.550781 16.296875 -13.9375 L 18.703125 -25.25 L 23.96875 -25.25 L 18.640625 0 Z M 13.359375 0 "/></g></g></g><g fill="#f6fafd" fill-opacity="1"><g transform="translate(92.983677, 69.118928)"><g><path d="M 0.921875 0 L 6.265625 -25.25 L 11.109375 -25.25 L 8.5625 -13.296875 C 8.375 -12.398438 8.140625 -11.378906 7.859375 -10.234375 C 7.585938 -9.085938 7.335938 -8.082031 7.109375 -7.21875 L 7.28125 -7.21875 L 20.46875 -25.25 L 26.875 -25.25 L 21.53125 0 L 16.765625 0 L 19.265625 -11.875 C 19.484375 -12.914062 19.707031 -13.953125 19.9375 -14.984375 C 20.175781 -16.023438 20.4375 -17.132812 20.71875 -18.3125 L 20.578125 -18.34375 L 7.390625 0 Z M 0.921875 0 "/></g></g></g><g fill="#f6fafd" fill-opacity="1"><g transform="translate(119.670488, 69.118928)"><g><path d="M 11.390625 0.359375 C 8.316406 0.359375 6.003906 -0.535156 4.453125 -2.328125 C 2.898438 -4.117188 2.125 -6.523438 2.125 -9.546875 C 2.125 -11.035156 2.289062 -12.539062 2.625 -14.0625 C 2.96875 -15.582031 3.488281 -17.03125 4.1875 -18.40625 C 4.882812 -19.78125 5.765625 -21.015625 6.828125 -22.109375 C 7.890625 -23.210938 9.148438 -24.078125 10.609375 -24.703125 C 12.066406 -25.328125 13.738281 -25.640625 15.625 -25.640625 C 17.226562 -25.640625 18.585938 -25.488281 19.703125 -25.1875 C 20.828125 -24.894531 21.941406 -24.441406 23.046875 -23.828125 L 21 -19.515625 C 20.195312 -19.984375 19.363281 -20.378906 18.5 -20.703125 C 17.644531 -21.023438 16.6875 -21.1875 15.625 -21.1875 C 14.207031 -21.1875 12.988281 -20.832031 11.96875 -20.125 C 10.945312 -19.414062 10.101562 -18.492188 9.4375 -17.359375 C 8.78125 -16.234375 8.289062 -15.003906 7.96875 -13.671875 C 7.65625 -12.335938 7.5 -11.054688 7.5 -9.828125 C 7.5 -7.921875 7.890625 -6.492188 8.671875 -5.546875 C 9.460938 -4.609375 10.722656 -4.140625 12.453125 -4.140625 C 13.390625 -4.140625 14.351562 -4.257812 15.34375 -4.5 C 16.332031 -4.75 17.3125 -5.078125 18.28125 -5.484375 L 18.28125 -0.984375 C 17.570312 -0.703125 16.628906 -0.40625 15.453125 -0.09375 C 14.273438 0.207031 12.921875 0.359375 11.390625 0.359375 Z M 11.390625 0.359375 "/></g></g></g><g fill="#f6fafd" fill-opacity="1"><g transform="translate(141.30271, 69.118928)"><g><path d="M 4.59375 0 L 8.984375 -20.796875 L 2.90625 -20.796875 L 3.859375 -25.25 L 21.28125 -25.25 L 20.328125 -20.796875 L 14.25 -20.796875 L 9.859375 0 Z M 4.59375 0 "/></g></g></g><g fill="#f6fafd" fill-opacity="1"><g transform="translate(160.071845, 69.118928)"><g><path d="M 0.921875 0 L 6.265625 -25.25 L 13.609375 -25.25 C 16.015625 -25.25 17.945312 -24.8125 19.40625 -23.9375 C 20.875 -23.0625 21.609375 -21.625 21.609375 -19.625 C 21.609375 -17.90625 21.125 -16.488281 20.15625 -15.375 C 19.1875 -14.269531 17.832031 -13.53125 16.09375 -13.15625 L 16.09375 -13.015625 C 17.25 -12.703125 18.164062 -12.140625 18.84375 -11.328125 C 19.53125 -10.515625 19.875 -9.484375 19.875 -8.234375 C 19.875 -6.328125 19.4375 -4.765625 18.5625 -3.546875 C 17.6875 -2.335938 16.492188 -1.441406 14.984375 -0.859375 C 13.484375 -0.285156 11.800781 0 9.9375 0 Z M 9.40625 -15.234375 L 11.984375 -15.234375 C 13.234375 -15.234375 14.238281 -15.488281 15 -16 C 15.769531 -16.507812 16.15625 -17.34375 16.15625 -18.5 C 16.15625 -20.070312 15.175781 -20.859375 13.21875 -20.859375 L 10.609375 -20.859375 Z M 7.109375 -4.421875 L 10.21875 -4.421875 C 11.507812 -4.421875 12.550781 -4.742188 13.34375 -5.390625 C 14.132812 -6.035156 14.53125 -6.972656 14.53125 -8.203125 C 14.53125 -9.097656 14.269531 -9.785156 13.75 -10.265625 C 13.238281 -10.753906 12.453125 -11 11.390625 -11 L 8.515625 -11 Z M 7.109375 -4.421875 "/></g></g></g><g fill="#f6fafd" fill-opacity="1"><g transform="translate(181.986839, 69.118928)"><g><path d="M -2.125 0 L 11.109375 -25.25 L 17.53125 -25.25 L 20.078125 0 L 14.953125 0 L 14.53125 -6.015625 L 6.359375 -6.015625 L 3.390625 0 Z M 8.515625 -10.5 L 14.28125 -10.5 L 13.828125 -17.015625 C 13.773438 -17.691406 13.722656 -18.382812 13.671875 -19.09375 C 13.628906 -19.800781 13.625 -20.519531 13.65625 -21.25 L 13.578125 -21.25 C 13.335938 -20.613281 13.078125 -19.984375 12.796875 -19.359375 C 12.515625 -18.734375 12.195312 -18.054688 11.84375 -17.328125 Z M 8.515625 -10.5 "/></g></g></g><g fill="#f6fafd" fill-opacity="1"><g transform="translate(204.184616, 69.118928)"><g><path d="M 0.921875 0 L 6.265625 -25.25 L 11.53125 -25.25 L 9.4375 -15.34375 L 17.578125 -15.34375 L 19.65625 -25.25 L 24.921875 -25.25 L 19.59375 0 L 14.328125 0 L 16.625 -10.890625 L 8.484375 -10.890625 L 6.1875 0 Z M 0.921875 0 "/></g></g></g><g fill="#f6fafd" fill-opacity="1"><g transform="translate(228.927357, 69.118928)"><g><path d="M 0.921875 0 L 6.265625 -25.25 L 20.359375 -25.25 L 19.453125 -20.859375 L 10.609375 -20.859375 L 9.4375 -15.3125 L 17.6875 -15.3125 L 16.71875 -10.921875 L 8.484375 -10.921875 L 7.109375 -4.421875 L 15.953125 -4.421875 L 15.03125 0 Z M 0.921875 0 "/></g></g></g><g fill="#f6fafd" fill-opacity="1"><g transform="translate(87.774186, 130.419155)"><g><path d="M 0.921875 0 L 6.265625 -25.25 L 11.53125 -25.25 L 9.4375 -15.34375 L 17.578125 -15.34375 L 19.65625 -25.25 L 24.921875 -25.25 L 19.59375 0 L 14.328125 0 L 16.625 -10.890625 L 8.484375 -10.890625 L 6.1875 0 Z M 0.921875 0 "/></g></g></g><g fill="#f6fafd" fill-opacity="1"><g transform="translate(112.516928, 130.419155)"><g><path d="M -2.125 0 L 11.109375 -25.25 L 17.53125 -25.25 L 20.078125 0 L 14.953125 0 L 14.53125 -6.015625 L 6.359375 -6.015625 L 3.390625 0 Z M 8.515625 -10.5 L 14.28125 -10.5 L 13.828125 -17.015625 C 13.773438 -17.691406 13.722656 -18.382812 13.671875 -19.09375 C 13.628906 -19.800781 13.625 -20.519531 13.65625 -21.25 L 13.578125 -21.25 C 13.335938 -20.613281 13.078125 -19.984375 12.796875 -19.359375 C 12.515625 -18.734375 12.195312 -18.054688 11.84375 -17.328125 Z M 8.515625 -10.5 "/></g></g></g><g fill="#f6fafd" fill-opacity="1"><g transform="translate(134.714704, 130.419155)"><g/></g></g><g fill="#f6fafd" fill-opacity="1"><g transform="translate(141.571978, 130.419155)"><g><path d="M 0.921875 0 L 6.265625 -25.25 L 11.53125 -25.25 L 9.015625 -13.4375 L 18.34375 -25.25 L 24.296875 -25.25 L 14.25 -12.765625 L 19.34375 0 L 13.5 0 L 8.796875 -12.40625 L 6.1875 0 Z M 0.921875 0 "/></g></g></g><g fill="#f6fafd" fill-opacity="1"><g transform="translate(162.603305, 130.419155)"><g><path d="M 4.59375 0 L 8.984375 -20.796875 L 2.90625 -20.796875 L 3.859375 -25.25 L 15.203125 -25.25 L 13.15625 -15.5625 L 14.328125 -15.5625 C 17.296875 -15.5625 19.441406 -14.90625 20.765625 -13.59375 C 22.097656 -12.289062 22.765625 -10.585938 22.765625 -8.484375 C 22.765625 -5.660156 21.820312 -3.539062 19.9375 -2.125 C 18.050781 -0.707031 15.457031 0 12.15625 0 Z M 10.78125 -4.390625 L 12.515625 -4.390625 C 13.742188 -4.390625 14.71875 -4.566406 15.4375 -4.921875 C 16.15625 -5.273438 16.664062 -5.742188 16.96875 -6.328125 C 17.28125 -6.921875 17.4375 -7.554688 17.4375 -8.234375 C 17.4375 -10.191406 16.328125 -11.171875 14.109375 -11.171875 L 12.234375 -11.171875 Z M 10.78125 -4.390625 "/></g></g></g><g fill="#f6fafd" fill-opacity="1"><g transform="translate(187.204661, 130.419155)"><g><path d="M 27.125 7.359375 L 28.71875 0 L 0.921875 0 L 6.265625 -25.25 L 11.671875 -25.25 L 7.25 -4.453125 L 13.828125 -4.453125 L 18.25 -25.25 L 23.6875 -25.25 L 19.265625 -4.453125 L 25.84375 -4.453125 L 30.265625 -25.25 L 35.671875 -25.25 L 31.21875 -4.25 L 34.828125 -4.25 L 32.359375 7.359375 Z M 27.125 7.359375 "/></g></g></g><g fill="#f6fafd" fill-opacity="1"><g transform="translate(224.036002, 130.419155)"><g><path d="M -2.125 0 L 11.109375 -25.25 L 17.53125 -25.25 L 20.078125 0 L 14.953125 0 L 14.53125 -6.015625 L 6.359375 -6.015625 L 3.390625 0 Z M 8.515625 -10.5 L 14.28125 -10.5 L 13.828125 -17.015625 C 13.773438 -17.691406 13.722656 -18.382812 13.671875 -19.09375 C 13.628906 -19.800781 13.625 -20.519531 13.65625 -21.25 L 13.578125 -21.25 C 13.335938 -20.613281 13.078125 -19.984375 12.796875 -19.359375 C 12.515625 -18.734375 12.195312 -18.054688 11.84375 -17.328125 Z M 8.515625 -10.5 "/></g></g></g><g fill="#f6fafd" fill-opacity="1"><g transform="translate(246.233779, 130.419155)"><g><path d="M 4.59375 0 L 8.984375 -20.796875 L 2.90625 -20.796875 L 3.859375 -25.25 L 21.28125 -25.25 L 20.328125 -20.796875 L 14.25 -20.796875 L 9.859375 0 Z M 4.59375 0 "/></g></g></g><g fill="#f6fafd" fill-opacity="1"><g transform="translate(265.002913, 130.419155)"><g><path d="M -2.125 0 L 11.109375 -25.25 L 17.53125 -25.25 L 20.078125 0 L 14.953125 0 L 14.53125 -6.015625 L 6.359375 -6.015625 L 3.390625 0 Z M 8.515625 -10.5 L 14.28125 -10.5 L 13.828125 -17.015625 C 13.773438 -17.691406 13.722656 -18.382812 13.671875 -19.09375 C 13.628906 -19.800781 13.625 -20.519531 13.65625 -21.25 L 13.578125 -21.25 C 13.335938 -20.613281 13.078125 -19.984375 12.796875 -19.359375 C 12.515625 -18.734375 12.195312 -18.054688 11.84375 -17.328125 Z M 8.515625 -10.5 "/></g></g></g></svg>