<svg xmlns="http://www.w3.org/2000/svg" xmlns:xlink="http://www.w3.org/1999/xlink" width="1920" zoomAndPan="magnify" viewBox="0 0 1440 809.999993" height="1080" preserveAspectRatio="xMidYMid meet" version="1.0"><defs><filter x="0%" y="0%" width="100%" height="100%" id="89222adb19"><feColorMatrix values="0 0 0 0 1 0 0 0 0 1 0 0 0 0 1 0 0 0 1 0" color-interpolation-filters="sRGB"/></filter><clipPath id="23526853fc"><path d="M 0 0 L 118.503906 0 L 118.503906 102.023438 L 0 102.023438 Z M 0 0 " clip-rule="nonzero"/></clipPath><clipPath id="ac0794f97d"><path d="M 49.742188 -35.503906 C 11.765625 -35.503906 -19.019531 -4.714844 -19.019531 33.261719 C -19.019531 71.238281 11.765625 102.023438 49.742188 102.023438 C 87.71875 102.023438 118.503906 71.238281 118.503906 33.261719 C 118.503906 -4.714844 87.71875 -35.503906 49.742188 -35.503906 Z M 49.742188 -35.503906 " clip-rule="nonzero"/></clipPath><clipPath id="8014ff2bf0"><path d="M 985.449219 211.964844 L 1437.699219 211.964844 L 1437.699219 809.714844 L 985.449219 809.714844 Z M 985.449219 211.964844 " clip-rule="nonzero"/></clipPath><clipPath id="e60222ec5c"><path d="M 985.449219 211.964844 L 1437.699219 211.964844 L 1437.699219 809.714844 L 985.449219 809.714844 Z M 985.449219 211.964844 " clip-rule="nonzero"/></clipPath><clipPath id="ab3e7d6918"><path d="M 823 618 L 964 618 L 964 785 L 823 785 Z M 823 618 " clip-rule="nonzero"/></clipPath><clipPath id="94737684c0"><path d="M 784.441406 675.5625 L 946.640625 601.035156 L 1013.335938 746.195312 L 851.140625 820.722656 Z M 784.441406 675.5625 " clip-rule="nonzero"/></clipPath><clipPath id="c493634788"><path d="M 784.441406 675.5625 L 946.640625 601.035156 L 1013.335938 746.195312 L 851.140625 820.722656 Z M 784.441406 675.5625 " clip-rule="nonzero"/></clipPath><clipPath id="f61668294e"><path d="M 794 615 L 1007 615 L 1007 810 L 794 810 Z M 794 615 " clip-rule="nonzero"/></clipPath><clipPath id="aceb14ca71"><path d="M 784.441406 675.5625 L 946.640625 601.035156 L 1013.335938 746.195312 L 851.140625 820.722656 Z M 784.441406 675.5625 " clip-rule="nonzero"/></clipPath><clipPath id="c7641d8363"><path d="M 784.441406 675.5625 L 946.640625 601.035156 L 1013.335938 746.195312 L 851.140625 820.722656 Z M 784.441406 675.5625 " clip-rule="nonzero"/></clipPath><mask id="a6c0cb1f55"><g filter="url(#89222adb19)"><rect x="-144" width="1728" fill="#000000" y="-80.999999" height="971.999992" fill-opacity="0.3"/></g></mask><clipPath id="a67ff4ab98"><path d="M 14 14 L 164 14 L 164 167 L 14 167 Z M 14 14 " clip-rule="nonzero"/></clipPath><clipPath id="035458adf6"><path d="M -9.558594 60.5625 L 152.640625 -13.964844 L 219.335938 131.195312 L 57.140625 205.722656 Z M -9.558594 60.5625 " clip-rule="nonzero"/></clipPath><clipPath id="81c9167d17"><path d="M -9.558594 60.5625 L 152.640625 -13.964844 L 219.335938 131.195312 L 57.140625 205.722656 Z M -9.558594 60.5625 " clip-rule="nonzero"/></clipPath><clipPath id="e1b42116bf"><rect x="0" width="213" y="0" height="195"/></clipPath><clipPath id="6c13e6373c"><path d="M 880 629.738281 L 914 629.738281 L 914 664 L 880 664 Z M 880 629.738281 " clip-rule="nonzero"/></clipPath><clipPath id="a721987c29"><path d="M 847 745 L 882 745 L 882 778.988281 L 847 778.988281 Z M 847 745 " clip-rule="nonzero"/></clipPath><clipPath id="9dde6c8491"><path d="M 809.367188 712 L 832 712 L 832 735 L 809.367188 735 Z M 809.367188 712 " clip-rule="nonzero"/></clipPath><clipPath id="dd0200e8f1"><path d="M 0 0 L 117 0 L 117 97 L 0 97 Z M 0 0 " clip-rule="nonzero"/></clipPath><clipPath id="b62b3e3bfb"><path d="M 118.503906 96.0625 L -176.1875 102.011719 L -178.839844 -29.210938 L 115.851562 -35.164062 Z M 118.503906 96.0625 " clip-rule="nonzero"/></clipPath><clipPath id="2b7a8d9bd1"><path d="M 118.503906 96.0625 L -176.1875 102.011719 L -178.839844 -29.210938 L 115.851562 -35.164062 Z M 118.503906 96.0625 " clip-rule="nonzero"/></clipPath></defs><rect x="-144" width="1728" fill="#ffffff" y="-80.999999" height="971.999992" fill-opacity="1"/><rect x="-144" width="1728" fill="#f8a62c" y="-80.999999" height="971.999992" fill-opacity="1"/><g clip-path="url(#23526853fc)"><g clip-path="url(#ac0794f97d)"><path fill="#1966b4" d="M -19.019531 -35.503906 L 118.503906 -35.503906 L 118.503906 102.023438 L -19.019531 102.023438 Z M -19.019531 -35.503906 " fill-opacity="1" fill-rule="nonzero"/></g></g><g clip-path="url(#8014ff2bf0)"><path fill="#f4eded" d="M 1382.054688 624.289062 L 1370.433594 621.722656 C 1368.113281 621.207031 1365.917969 620.230469 1363.984375 618.847656 L 1351.828125 610.167969 L 1359.292969 610.351562 L 1374.890625 533.234375 C 1377.117188 522.222656 1371.785156 511.070312 1361.816406 505.886719 L 1292.96875 470.097656 L 1292.980469 400.777344 C 1301.957031 394.234375 1313.644531 385.484375 1320.085938 379.734375 C 1331.519531 369.535156 1334.199219 364.023438 1341.6875 351.480469 C 1342.867188 349.507812 1344.191406 347.09375 1345.597656 344.414062 L 1348.769531 342.441406 L 1364.144531 366.378906 L 1377.371094 341.191406 L 1402.75 354.050781 L 1401.40625 325.632812 L 1429.800781 323.875 L 1414.253906 300.046875 L 1437.851562 284.15625 L 1412.382812 271.480469 L 1424.683594 245.828125 L 1396.300781 247.789062 L 1393.925781 219.441406 L 1373.328125 233.527344 L 1360.773438 211.964844 L 1346.457031 236.546875 L 1321.664062 222.59375 L 1321.765625 251.042969 L 1293.320312 251.5625 L 1307.8125 276.046875 L 1283.546875 290.894531 L 1308.4375 304.667969 L 1295.027344 329.761719 L 1322.996094 329.050781 L 1309.519531 347.789062 L 1273.324219 371.316406 L 1273.257812 369.222656 C 1273.191406 367.09375 1274.605469 365.203125 1276.664062 364.664062 L 1281.832031 363.308594 C 1283.839844 362.671875 1285.070312 360.652344 1284.71875 358.574219 L 1283.605469 352.027344 C 1283.390625 350.777344 1283.710938 349.492188 1284.484375 348.484375 L 1285.859375 346.691406 C 1286.890625 345.449219 1286.695312 343.394531 1285.226562 342.726562 C 1282.644531 341.5625 1279.4375 339.605469 1279.050781 337.554688 C 1278.695312 335.683594 1278.378906 332.878906 1277.390625 329.773438 C 1277.121094 328.925781 1276.714844 328.074219 1276.238281 327.25 C 1272.457031 320.070312 1263.058594 318.890625 1253.386719 321.320312 C 1243.710938 323.753906 1237.585938 332.992188 1239.882812 342.59375 C 1242.179688 352.191406 1251.277344 361.960938 1251.277344 361.960938 L 1251.820312 371.316406 C 1251.820312 371.316406 1234.21875 374.964844 1224.378906 381.074219 C 1215.097656 386.839844 1192.933594 436.839844 1188.4375 446.59375 C 1183.945312 456.34375 1186.386719 467.484375 1199.660156 472 C 1202.644531 473.015625 1206.804688 474.109375 1211.414062 475.1875 L 1205.808594 484.1875 L 1226.328125 496.96875 L 1193.539062 693.109375 C 1189.535156 701.152344 1191.636719 710.015625 1192.058594 711.585938 L 1135.566406 711.585938 L 1135.566406 727.015625 L 1135.75 727.015625 L 1135.75 794.589844 L 985.582031 794.589844 L 985.582031 810.019531 L 1151.179688 810.019531 L 1151.179688 727.015625 L 1301.164062 727.015625 L 1301.164062 711.585938 L 1301.070312 711.585938 L 1301.070312 642.8125 L 1435.808594 642.8125 L 1435.808594 627.382812 L 1385.03125 627.382812 C 1384.757812 625.867188 1383.601562 624.628906 1382.054688 624.289062 Z M 1225.160156 453.113281 L 1228.417969 447.882812 Z M 1330.886719 609.648438 C 1327.339844 616.917969 1328.722656 624.824219 1329.320312 627.382812 L 1285.644531 627.382812 L 1285.644531 711.585938 L 1247.675781 711.585938 C 1247.632812 709.808594 1246.386719 708.28125 1244.644531 707.894531 L 1233.023438 705.328125 C 1230.703125 704.816406 1228.507812 703.839844 1226.574219 702.457031 L 1214.996094 694.1875 L 1223.578125 694.617188 L 1272.078125 504.683594 L 1338.492188 539.648438 L 1329.855469 609.621094 Z M 1276.242188 327.238281 C 1276.238281 327.242188 1276.238281 327.246094 1276.238281 327.25 C 1276.203125 327.191406 1276.167969 327.132812 1276.132812 327.074219 C 1276.167969 327.128906 1276.207031 327.179688 1276.242188 327.238281 Z M 1276.242188 327.238281 " fill-opacity="1" fill-rule="nonzero"/></g><path fill="#7b95f9" d="M 1385.097656 628.074219 L 1385.097656 629.710938 C 1385.097656 630.707031 1384.289062 631.511719 1383.292969 631.511719 L 1351.460938 631.511719 C 1349.8125 631.511719 1348.1875 631.105469 1346.734375 630.328125 L 1343.03125 628.339844 L 1329.542969 628.242188 C 1329.542969 628.242188 1329.449219 627.925781 1329.320312 627.382812 C 1328.722656 624.824219 1327.339844 616.917969 1330.886719 609.648438 L 1351.828125 610.167969 L 1363.984375 618.851562 C 1365.917969 620.234375 1368.113281 621.207031 1370.433594 621.722656 L 1382.054688 624.289062 C 1383.601562 624.632812 1384.757812 625.871094 1385.03125 627.382812 C 1385.074219 627.609375 1385.097656 627.839844 1385.097656 628.074219 Z M 1244.644531 707.898438 L 1233.023438 705.328125 C 1230.703125 704.816406 1228.507812 703.839844 1226.574219 702.457031 L 1214.996094 694.1875 L 1193.539062 693.109375 C 1189.539062 701.152344 1191.636719 710.015625 1192.058594 711.585938 C 1192.101562 711.742188 1192.132812 711.851562 1192.132812 711.851562 L 1205.621094 711.949219 L 1209.324219 713.9375 C 1210.777344 714.714844 1212.402344 715.121094 1214.050781 715.121094 L 1245.882812 715.121094 C 1246.878906 715.121094 1247.6875 714.3125 1247.6875 713.316406 L 1247.6875 711.683594 C 1247.6875 711.652344 1247.679688 711.617188 1247.675781 711.585938 C 1247.632812 709.808594 1246.386719 708.28125 1244.644531 707.898438 Z M 1244.644531 707.898438 " fill-opacity="1" fill-rule="nonzero"/><path fill="#1966b4" d="M 1239.882812 342.59375 C 1237.585938 332.996094 1243.710938 323.753906 1253.386719 321.320312 C 1263.0625 318.886719 1272.457031 320.070312 1276.238281 327.25 C 1276.238281 327.25 1268.082031 334.832031 1262.714844 334.449219 L 1261.117188 344.265625 C 1259.59375 343.179688 1257.09375 341.976562 1253.898438 342.519531 C 1248.453125 343.441406 1248.160156 348.9375 1250.496094 351.90625 C 1251.671875 353.402344 1253.007812 354.328125 1254.328125 354.898438 L 1251.277344 361.960938 C 1251.277344 361.960938 1242.183594 352.191406 1239.882812 342.59375 Z M 1361.816406 505.886719 L 1292.96875 470.097656 L 1276.605469 470.097656 C 1276.667969 470.363281 1276.738281 470.621094 1276.773438 470.894531 L 1277.609375 477.984375 C 1277.976562 481.066406 1276.535156 484.082031 1273.90625 485.734375 L 1269.503906 488.496094 C 1268.476562 489.144531 1267.140625 489.019531 1266.25 488.1875 L 1264.5625 486.613281 C 1264.5625 486.613281 1264.433594 486.636719 1264.246094 486.664062 L 1257.730469 497.132812 L 1249.027344 511.105469 L 1226.328125 496.96875 L 1193.539062 693.109375 L 1214.996094 694.1875 L 1223.578125 694.621094 L 1272.078125 504.6875 L 1338.492188 539.648438 L 1329.855469 609.621094 L 1330.886719 609.648438 L 1351.828125 610.167969 L 1359.292969 610.351562 L 1374.890625 533.234375 C 1377.117188 522.222656 1371.785156 511.070312 1361.816406 505.886719 Z M 1361.816406 505.886719 " fill-opacity="1" fill-rule="nonzero"/><g clip-path="url(#e60222ec5c)"><path fill="#ffd581" d="M 1283.546875 290.894531 L 1307.8125 276.042969 L 1293.320312 251.5625 L 1321.765625 251.042969 L 1321.664062 222.59375 L 1346.457031 236.546875 L 1360.773438 211.964844 L 1373.328125 233.527344 L 1393.925781 219.441406 L 1396.304688 247.789062 L 1424.683594 245.828125 L 1412.382812 271.480469 L 1437.851562 284.15625 L 1414.253906 300.046875 L 1429.800781 323.875 L 1401.40625 325.632812 L 1402.75 354.050781 L 1377.371094 341.191406 L 1364.144531 366.378906 L 1348.769531 342.441406 L 1345.597656 344.414062 C 1348.109375 339.621094 1350.878906 333.953125 1353.570312 328.28125 C 1353.703125 328 1353.832031 327.71875 1353.964844 327.441406 C 1359.125 316.523438 1363.886719 305.785156 1365.769531 301.503906 C 1366.316406 300.257812 1366.628906 299.539062 1366.628906 299.539062 L 1367.054688 298.523438 C 1367.082031 298.453125 1367.117188 298.386719 1367.144531 298.3125 L 1369.964844 291.550781 L 1370.863281 289.398438 C 1371.128906 288.890625 1371.367188 288.375 1371.582031 287.851562 C 1372.027344 286.757812 1372.363281 285.621094 1372.582031 284.457031 C 1372.65625 284.0625 1372.710938 283.664062 1372.757812 283.261719 C 1372.773438 283.128906 1372.804688 282.996094 1372.816406 282.863281 L 1373.113281 279.851562 C 1373.390625 277.023438 1371.996094 274.289062 1369.539062 272.859375 L 1359.976562 267.277344 C 1357.804688 266.011719 1355.015625 266.871094 1353.9375 269.140625 L 1351.75 273.730469 L 1348.734375 275.539062 C 1346.28125 277.007812 1345.023438 279.867188 1345.605469 282.667969 L 1348.039062 294.398438 L 1347.933594 294.371094 L 1332.589844 315.710938 L 1322.996094 329.046875 L 1295.027344 329.757812 L 1308.4375 304.667969 Z M 1385.097656 628.074219 L 1385.097656 629.710938 C 1385.097656 630.707031 1384.289062 631.511719 1383.292969 631.511719 L 1351.460938 631.511719 C 1349.8125 631.511719 1348.1875 631.105469 1346.734375 630.328125 L 1343.03125 628.339844 L 1329.542969 628.242188 C 1329.542969 628.242188 1329.449219 627.925781 1329.320312 627.382812 L 1285.644531 627.382812 L 1285.644531 711.585938 L 1247.675781 711.585938 C 1247.679688 711.617188 1247.6875 711.648438 1247.6875 711.683594 L 1247.6875 713.316406 C 1247.6875 714.3125 1246.878906 715.121094 1245.882812 715.121094 L 1214.050781 715.121094 C 1212.402344 715.121094 1210.777344 714.714844 1209.324219 713.933594 L 1205.621094 711.949219 L 1192.132812 711.851562 C 1192.132812 711.851562 1192.101562 711.742188 1192.058594 711.585938 L 1135.566406 711.585938 L 1135.566406 727.015625 L 1135.75 727.015625 L 1135.75 794.589844 L 985.582031 794.589844 L 985.582031 810.019531 L 1151.179688 810.019531 L 1151.179688 727.015625 L 1301.164062 727.015625 L 1301.164062 711.585938 L 1301.070312 711.585938 L 1301.070312 642.8125 L 1435.808594 642.8125 L 1435.808594 627.382812 L 1385.03125 627.382812 C 1385.074219 627.609375 1385.097656 627.839844 1385.097656 628.074219 Z M 1249.027344 511.105469 L 1257.726562 497.132812 L 1264.246094 486.664062 C 1262.550781 486.921875 1253.640625 487.914062 1246.550781 482.074219 L 1246.542969 482.085938 C 1246.542969 482.085938 1226.523438 478.71875 1211.414062 475.183594 L 1205.804688 484.1875 L 1226.328125 496.96875 Z M 1270.15625 464.773438 C 1272.542969 464.871094 1274.617188 466.1875 1275.792969 468.125 L 1287.867188 448.738281 L 1276.417969 441.609375 L 1256.09375 428.953125 L 1244.648438 421.824219 L 1228.417969 447.882812 L 1225.160156 453.113281 L 1252.871094 463.679688 Z M 1270.15625 464.773438 " fill-opacity="1" fill-rule="nonzero"/></g><path fill="#f04624" d="M 1366.628906 299.539062 C 1366.628906 299.539062 1366.316406 300.257812 1365.769531 301.503906 C 1363.886719 305.789062 1359.121094 316.523438 1353.964844 327.441406 C 1353.832031 327.71875 1353.699219 328 1353.566406 328.28125 C 1350.878906 333.953125 1348.109375 339.621094 1345.597656 344.414062 C 1344.191406 347.09375 1342.863281 349.507812 1341.6875 351.480469 C 1334.195312 364.023438 1331.519531 369.535156 1320.085938 379.734375 C 1313.640625 385.484375 1301.953125 394.234375 1292.980469 400.777344 L 1292.96875 470.097656 L 1276.605469 470.097656 C 1276.433594 469.386719 1276.160156 468.726562 1275.792969 468.125 L 1287.867188 448.734375 L 1276.417969 441.605469 L 1277.695312 439.554688 C 1278.730469 437.898438 1278.222656 435.714844 1276.5625 434.683594 L 1262.246094 425.765625 C 1260.585938 424.734375 1258.402344 425.238281 1257.371094 426.898438 L 1256.09375 428.949219 L 1244.648438 421.820312 L 1228.417969 447.882812 L 1225.160156 453.113281 L 1252.871094 463.675781 L 1246.550781 482.070312 L 1246.546875 482.085938 C 1246.546875 482.085938 1226.523438 478.714844 1211.414062 475.183594 C 1206.804688 474.105469 1202.644531 473.015625 1199.660156 472 C 1186.386719 467.484375 1183.945312 456.34375 1188.4375 446.589844 C 1192.933594 436.839844 1215.097656 386.835938 1224.378906 381.070312 C 1234.21875 374.960938 1251.820312 371.3125 1251.820312 371.3125 L 1273.324219 371.3125 L 1309.519531 347.785156 L 1322.996094 329.046875 L 1332.589844 315.707031 L 1347.933594 294.371094 L 1348.039062 294.398438 Z M 1366.628906 299.539062 " fill-opacity="1" fill-rule="nonzero"/><g clip-path="url(#ab3e7d6918)"><g clip-path="url(#94737684c0)"><g clip-path="url(#c493634788)"><path fill="#f04624" d="M 842.277344 766.761719 C 823.460938 760.347656 818.421875 746.449219 827.160156 725.058594 C 835.898438 703.671875 844.339844 688.472656 852.480469 679.457031 C 860.625 670.441406 868.203125 662.019531 875.214844 654.195312 C 882.226562 646.367188 892.796875 636.605469 906.917969 624.914062 C 921.042969 613.222656 929.679688 616.558594 932.835938 634.925781 C 935.988281 653.292969 938.515625 667.125 940.417969 676.417969 C 942.320312 685.710938 948.210938 700.296875 958.089844 720.171875 C 967.972656 740.042969 964.84375 756.664062 948.703125 770.023438 C 932.5625 783.386719 915.492188 787.785156 897.496094 783.222656 C 879.496094 778.660156 861.089844 773.175781 842.277344 766.761719 Z M 842.277344 766.761719 " fill-opacity="1" fill-rule="nonzero"/></g></g></g><g clip-path="url(#f61668294e)"><g clip-path="url(#aceb14ca71)"><g clip-path="url(#c7641d8363)"><g mask="url(#a6c0cb1f55)"><g transform="matrix(1, 0, 0, 1, 794, 615)"><g clip-path="url(#e1b42116bf)"><g clip-path="url(#a67ff4ab98)"><g clip-path="url(#035458adf6)"><g clip-path="url(#81c9167d17)"><path fill="#f04624" d="M 23.8125 115.839844 C 9.589844 101.953125 11.027344 87.234375 28.121094 71.695312 C 45.214844 56.152344 59.378906 46.066406 70.609375 41.433594 C 81.835938 36.800781 92.300781 32.464844 102.003906 28.417969 C 111.703125 24.371094 125.441406 20.113281 143.222656 15.640625 C 161.003906 11.167969 167.363281 17.898438 162.304688 35.835938 C 157.242188 53.769531 153.570312 67.339844 151.285156 76.546875 C 149 85.753906 148.039062 101.457031 148.402344 123.648438 C 148.765625 145.839844 138.785156 159.492188 118.464844 164.601562 C 98.144531 169.714844 80.84375 166.335938 66.5625 154.472656 C 52.28125 142.605469 38.03125 129.726562 23.8125 115.839844 Z M 23.8125 115.839844 " fill-opacity="1" fill-rule="nonzero"/></g></g></g></g></g></g></g></g></g><g clip-path="url(#6c13e6373c)"><path fill="#f8a62c" d="M 906.140625 663.050781 L 888.5 663.050781 C 884.175781 663.050781 880.660156 659.535156 880.660156 655.210938 L 880.660156 637.574219 C 880.660156 633.253906 884.175781 629.738281 888.5 629.738281 L 906.140625 629.738281 C 910.464844 629.738281 913.980469 633.253906 913.980469 637.574219 L 913.980469 655.214844 C 913.972656 659.535156 910.464844 663.050781 906.140625 663.050781 Z M 888.5 631.527344 C 885.167969 631.527344 882.457031 634.238281 882.457031 637.570312 L 882.457031 655.210938 C 882.457031 658.542969 885.167969 661.253906 888.5 661.253906 L 906.140625 661.253906 C 909.472656 661.253906 912.183594 658.542969 912.183594 655.210938 L 912.183594 637.574219 C 912.183594 634.242188 909.472656 631.53125 906.140625 631.53125 L 888.5 631.53125 Z M 888.5 631.527344 " fill-opacity="1" fill-rule="nonzero"/></g><path fill="#f8a62c" d="M 964.25 755.839844 L 931.660156 755.839844 C 924.097656 755.839844 917.945312 749.683594 917.945312 742.121094 L 917.945312 709.535156 C 917.945312 701.96875 924.097656 695.816406 931.660156 695.816406 L 964.25 695.816406 C 971.8125 695.816406 977.96875 701.96875 977.96875 709.535156 L 977.96875 742.121094 C 977.96875 749.683594 971.8125 755.839844 964.25 755.839844 Z M 931.660156 697.605469 C 925.089844 697.605469 919.734375 702.953125 919.734375 709.535156 L 919.734375 742.121094 C 919.734375 748.695312 925.082031 754.050781 931.660156 754.050781 L 964.25 754.050781 C 970.824219 754.050781 976.175781 748.703125 976.175781 742.121094 L 976.175781 709.535156 C 976.175781 702.960938 970.828125 697.605469 964.25 697.605469 Z M 931.660156 697.605469 " fill-opacity="1" fill-rule="nonzero"/><path fill="#f8a62c" d="M 1022.550781 687.003906 L 995.738281 687.003906 C 989.429688 687.003906 984.292969 681.867188 984.292969 675.558594 L 984.292969 648.75 C 984.292969 642.441406 989.429688 637.304688 995.738281 637.304688 L 1022.550781 637.304688 C 1028.855469 637.304688 1033.992188 642.441406 1033.992188 648.75 L 1033.992188 675.558594 C 1033.992188 681.867188 1028.855469 687.003906 1022.550781 687.003906 Z M 995.738281 639.09375 C 990.414062 639.09375 986.085938 643.425781 986.085938 648.742188 L 986.085938 675.558594 C 986.085938 680.882812 990.414062 685.214844 995.738281 685.214844 L 1022.550781 685.214844 C 1027.875 685.214844 1032.203125 680.882812 1032.203125 675.558594 L 1032.203125 648.75 C 1032.203125 643.429688 1027.875 639.101562 1022.550781 639.101562 L 995.738281 639.101562 Z M 995.738281 639.09375 " fill-opacity="1" fill-rule="nonzero"/><path fill="#f8a62c" d="M 896.433594 717.9375 L 884.890625 717.9375 C 881.890625 717.9375 879.453125 715.5 879.453125 712.5 L 879.453125 700.957031 C 879.453125 697.960938 881.890625 695.519531 884.890625 695.519531 L 896.433594 695.519531 C 899.433594 695.519531 901.871094 697.960938 901.871094 700.957031 L 901.871094 712.5 C 901.871094 715.5 899.433594 717.9375 896.433594 717.9375 Z M 884.890625 697.316406 C 882.882812 697.316406 881.242188 698.953125 881.242188 700.964844 L 881.242188 712.507812 C 881.242188 714.515625 882.882812 716.152344 884.890625 716.152344 L 896.433594 716.152344 C 898.441406 716.152344 900.078125 714.515625 900.078125 712.507812 L 900.078125 700.964844 C 900.078125 698.953125 898.441406 697.316406 896.433594 697.316406 Z M 884.890625 697.316406 " fill-opacity="1" fill-rule="nonzero"/><g clip-path="url(#a721987c29)"><path fill="#f8a62c" d="M 873.410156 778.863281 L 855.769531 778.863281 C 851.445312 778.863281 847.929688 775.347656 847.929688 771.023438 L 847.929688 753.382812 C 847.929688 749.058594 851.445312 745.542969 855.769531 745.542969 L 873.410156 745.542969 C 877.734375 745.542969 881.25 749.058594 881.25 753.382812 L 881.25 771.023438 C 881.242188 775.347656 877.734375 778.863281 873.410156 778.863281 Z M 855.769531 747.339844 C 852.4375 747.339844 849.726562 750.050781 849.726562 753.382812 L 849.726562 771.023438 C 849.726562 774.359375 852.4375 777.066406 855.769531 777.066406 L 873.410156 777.066406 C 876.742188 777.066406 879.453125 774.359375 879.453125 771.023438 L 879.453125 753.382812 C 879.453125 750.050781 876.742188 747.339844 873.410156 747.339844 Z M 855.769531 747.339844 " fill-opacity="1" fill-rule="nonzero"/></g><g clip-path="url(#9dde6c8491)"><path fill="#f8a62c" d="M 826.421875 734.953125 L 814.875 734.953125 C 811.878906 734.953125 809.441406 732.515625 809.441406 729.519531 L 809.441406 717.972656 C 809.441406 714.976562 811.878906 712.539062 814.875 712.539062 L 826.421875 712.539062 C 829.417969 712.539062 831.855469 714.976562 831.855469 717.972656 L 831.855469 729.519531 C 831.855469 732.515625 829.417969 734.953125 826.421875 734.953125 Z M 814.875 714.328125 C 812.867188 714.328125 811.230469 715.964844 811.230469 717.972656 L 811.230469 729.519531 C 811.230469 731.527344 812.867188 733.164062 814.875 733.164062 L 826.421875 733.164062 C 828.429688 733.164062 830.066406 731.527344 830.066406 729.519531 L 830.066406 717.972656 C 830.066406 715.964844 828.429688 714.328125 826.421875 714.328125 Z M 814.875 714.328125 " fill-opacity="1" fill-rule="nonzero"/></g><g clip-path="url(#dd0200e8f1)"><g clip-path="url(#b62b3e3bfb)"><g clip-path="url(#2b7a8d9bd1)"><path fill="#f8a62c" d="M 82.441406 96.425781 C 87.757812 96.230469 93.152344 95.179688 98.050781 92.792969 C 102.960938 90.398438 107.316406 86.621094 109.949219 81.691406 C 111.867188 78.097656 112.761719 74.132812 113.128906 70.242188 C 113.496094 66.359375 113.355469 62.539062 113.253906 58.8125 C 112.925781 46.589844 112.929688 34.378906 114.613281 22.410156 C 115.457031 16.40625 116.78125 10.230469 116.636719 3.789062 C 116.566406 0.566406 116.117188 -2.710938 115.042969 -5.851562 C 113.964844 -8.996094 112.253906 -11.984375 109.832031 -14.394531 C 107.195312 -17.015625 103.890625 -18.773438 100.476562 -19.871094 C 97.070312 -20.964844 93.558594 -21.417969 90.128906 -21.625 C 84.824219 -21.945312 79.554688 -21.6875 74.359375 -21.3125 C 63.71875 -20.539062 53.1875 -19.257812 42.675781 -18.554688 C 23.324219 -17.261719 3.800781 -17.914062 -15.789062 -17.375 C -49.800781 -16.441406 -84.40625 -12.121094 -116.15625 -22.300781 C -124.851562 -25.089844 -133.660156 -29.140625 -143.390625 -29.730469 C -148.265625 -30.027344 -153.328125 -29.398438 -157.894531 -27.28125 C -162.484375 -25.15625 -166.484375 -21.488281 -168.492188 -16.6875 C -169.847656 -13.445312 -170.179688 -10.078125 -170.554688 -6.972656 C -171.316406 -0.664062 -172.308594 5.71875 -172.574219 12.253906 C -172.902344 20.414062 -172.097656 28.398438 -172.757812 36.125 C -173.550781 45.390625 -176.523438 54.738281 -176.828125 64.671875 C -176.980469 69.644531 -176.429688 74.769531 -174.554688 79.542969 C -172.675781 84.335938 -169.417969 88.726562 -164.875 91.453125 C -160.742188 93.933594 -155.96875 94.8125 -151.382812 94.910156 C -146.8125 95.007812 -142.382812 94.371094 -138.082031 93.890625 C -106.433594 90.347656 -74.21875 93.847656 -41.933594 92.964844 C -10.371094 92.101562 21.148438 87.105469 51.703125 92.273438 C 61.660156 93.960938 71.824219 96.820312 82.441406 96.425781 Z M 82.300781 92.632812 C 72.46875 92.996094 62.558594 90.257812 52.335938 88.527344 C 20.964844 83.21875 -10.8125 88.3125 -42.035156 89.167969 C -73.976562 90.039062 -106.300781 86.507812 -138.503906 90.113281 C -142.882812 90.605469 -147.140625 91.203125 -151.300781 91.113281 C -155.449219 91.023438 -159.5625 90.210938 -162.917969 88.195312 C -166.597656 85.988281 -169.398438 82.289062 -171.019531 78.15625 C -172.644531 74.007812 -173.171875 69.398438 -173.03125 64.789062 C -172.746094 55.558594 -169.816406 46.28125 -168.972656 36.449219 C -168.273438 28.253906 -169.09375 20.210938 -168.777344 12.40625 C -168.523438 6.160156 -167.554688 -0.125 -166.785156 -6.515625 C -166.40625 -9.660156 -166.058594 -12.65625 -164.988281 -15.222656 C -163.410156 -18.984375 -160.132812 -22.058594 -156.296875 -23.832031 C -152.445312 -25.617188 -148.007812 -26.203125 -143.621094 -25.9375 C -134.820312 -25.402344 -126.300781 -21.566406 -117.316406 -18.683594 C -84.507812 -8.164062 -49.441406 -12.652344 -15.683594 -13.578125 C 3.75 -14.113281 23.324219 -13.453125 42.929688 -14.765625 C 53.578125 -15.476562 64.117188 -16.761719 74.632812 -17.523438 C 79.765625 -17.894531 84.867188 -18.136719 89.898438 -17.835938 C 93.152344 -17.636719 96.34375 -17.210938 99.3125 -16.253906 C 102.277344 -15.304688 105.042969 -13.800781 107.152344 -11.699219 C 109.09375 -9.773438 110.53125 -7.292969 111.449219 -4.621094 C 112.363281 -1.941406 112.773438 0.949219 112.839844 3.871094 C 112.96875 9.726562 111.71875 15.703125 110.851562 21.882812 C 109.121094 34.199219 109.125 46.621094 109.457031 58.914062 C 109.558594 62.660156 109.683594 66.328125 109.34375 69.886719 C 109.007812 73.4375 108.199219 76.90625 106.597656 79.902344 C 104.40625 84 100.671875 87.285156 96.382812 89.378906 C 92.085938 91.476562 87.210938 92.449219 82.300781 92.632812 Z M 82.300781 92.632812 " fill-opacity="1" fill-rule="nonzero"/></g></g></g></svg>