<svg xmlns="http://www.w3.org/2000/svg" xmlns:xlink="http://www.w3.org/1999/xlink" width="495" zoomAndPan="magnify" viewBox="0 0 371.25 141.000003" height="188" preserveAspectRatio="xMidYMid meet" version="1.0"><defs><g/><clipPath id="7564174b00"><path d="M 137.226562 47.820312 L 184.890625 47.820312 L 184.890625 100.695312 L 137.226562 100.695312 Z M 137.226562 47.820312 " clip-rule="nonzero"/></clipPath><clipPath id="9b58cec353"><path d="M 270.417969 34.90625 L 286.800781 34.90625 L 286.800781 51.289062 L 270.417969 51.289062 Z M 270.417969 34.90625 " clip-rule="nonzero"/></clipPath></defs><g fill="#f8a62c" fill-opacity="1"><g transform="translate(40.375843, 89.45311)"><g><path d="M 41.859375 -16.765625 L 14.96875 -16.765625 C 14.96875 -14.171875 15.8125 -12.242188 17.5 -10.984375 C 19.1875 -9.734375 21.015625 -9.109375 22.984375 -9.109375 C 25.054688 -9.109375 26.695312 -9.382812 27.90625 -9.9375 C 29.113281 -10.488281 30.488281 -11.585938 32.03125 -13.234375 L 41.28125 -8.609375 C 37.425781 -2.148438 31.015625 1.078125 22.046875 1.078125 C 16.460938 1.078125 11.664062 -0.832031 7.65625 -4.65625 C 3.65625 -8.488281 1.65625 -13.101562 1.65625 -18.5 C 1.65625 -23.90625 3.65625 -28.535156 7.65625 -32.390625 C 11.664062 -36.242188 16.460938 -38.171875 22.046875 -38.171875 C 27.929688 -38.171875 32.71875 -36.472656 36.40625 -33.078125 C 40.09375 -29.679688 41.9375 -24.828125 41.9375 -18.515625 C 41.9375 -17.640625 41.910156 -17.054688 41.859375 -16.765625 Z M 15.328125 -23.859375 L 29.421875 -23.859375 C 29.128906 -25.785156 28.367188 -27.265625 27.140625 -28.296875 C 25.910156 -29.335938 24.332031 -29.859375 22.40625 -29.859375 C 20.289062 -29.859375 18.601562 -29.300781 17.34375 -28.1875 C 16.09375 -27.082031 15.421875 -25.640625 15.328125 -23.859375 Z M 15.328125 -23.859375 "/></g></g></g><g fill="#f8a62c" fill-opacity="1"><g transform="translate(78.330571, 89.45311)"><g><path d="M 4.34375 0 L 4.34375 -37.09375 L 17.140625 -37.09375 L 17.140625 -31.734375 L 17.28125 -31.734375 C 17.375 -31.929688 17.53125 -32.171875 17.75 -32.453125 C 17.96875 -32.742188 18.4375 -33.25 19.15625 -33.96875 C 19.882812 -34.695312 20.65625 -35.347656 21.46875 -35.921875 C 22.289062 -36.503906 23.351562 -37.023438 24.65625 -37.484375 C 25.957031 -37.941406 27.28125 -38.171875 28.625 -38.171875 C 30.019531 -38.171875 31.394531 -37.976562 32.75 -37.59375 C 34.101562 -37.207031 35.09375 -36.820312 35.71875 -36.4375 L 36.734375 -35.859375 L 31.375 -25.015625 C 29.78125 -26.359375 27.5625 -27.03125 24.71875 -27.03125 C 23.175781 -27.03125 21.851562 -26.691406 20.75 -26.015625 C 19.644531 -25.347656 18.863281 -24.53125 18.40625 -23.5625 C 17.945312 -22.601562 17.617188 -21.785156 17.421875 -21.109375 C 17.234375 -20.429688 17.140625 -19.898438 17.140625 -19.515625 L 17.140625 0 Z M 4.34375 0 "/></g></g></g><g fill="#f8a62c" fill-opacity="1"><g transform="translate(108.69423, 89.45311)"><g><path d="M 4.34375 0 L 4.34375 -37.09375 L 17.140625 -37.09375 L 17.140625 -31.734375 L 17.28125 -31.734375 C 17.375 -31.929688 17.53125 -32.171875 17.75 -32.453125 C 17.96875 -32.742188 18.4375 -33.25 19.15625 -33.96875 C 19.882812 -34.695312 20.65625 -35.347656 21.46875 -35.921875 C 22.289062 -36.503906 23.351562 -37.023438 24.65625 -37.484375 C 25.957031 -37.941406 27.28125 -38.171875 28.625 -38.171875 C 30.019531 -38.171875 31.394531 -37.976562 32.75 -37.59375 C 34.101562 -37.207031 35.09375 -36.820312 35.71875 -36.4375 L 36.734375 -35.859375 L 31.375 -25.015625 C 29.78125 -26.359375 27.5625 -27.03125 24.71875 -27.03125 C 23.175781 -27.03125 21.851562 -26.691406 20.75 -26.015625 C 19.644531 -25.347656 18.863281 -24.53125 18.40625 -23.5625 C 17.945312 -22.601562 17.617188 -21.785156 17.421875 -21.109375 C 17.234375 -20.429688 17.140625 -19.898438 17.140625 -19.515625 L 17.140625 0 Z M 4.34375 0 "/></g></g></g><g fill="#f8a62c" fill-opacity="1"><g transform="translate(139.057893, 89.45311)"><g><path d="M 6.859375 -4.59375 C 3.390625 -8.375 1.65625 -13.007812 1.65625 -18.5 C 1.65625 -24 3.390625 -28.648438 6.859375 -32.453125 C 10.335938 -36.265625 14.75 -38.171875 20.09375 -38.171875 C 25.007812 -38.171875 29.0625 -36.628906 32.25 -33.546875 L 32.25 -37.09375 L 45.046875 -37.09375 L 45.046875 0 L 32.390625 0 L 32.390625 -4.1875 L 32.25 -4.1875 C 29.0625 -0.675781 25.007812 1.078125 20.09375 1.078125 C 14.75 1.078125 10.335938 -0.8125 6.859375 -4.59375 Z M 17.75 -24.796875 C 16.082031 -23.160156 15.25 -21.0625 15.25 -18.5 C 15.25 -15.945312 16.046875 -13.863281 17.640625 -12.25 C 19.234375 -10.632812 21.332031 -9.828125 23.9375 -9.828125 C 26.4375 -9.828125 28.492188 -10.644531 30.109375 -12.28125 C 31.722656 -13.925781 32.53125 -16.003906 32.53125 -18.515625 C 32.53125 -21.066406 31.695312 -23.160156 30.03125 -24.796875 C 28.375 -26.429688 26.34375 -27.25 23.9375 -27.25 C 21.476562 -27.25 19.414062 -26.429688 17.75 -24.796875 Z M 17.75 -24.796875 "/></g></g></g><g fill="#f8a62c" fill-opacity="1"><g transform="translate(182.796286, 89.45311)"><g><path d="M 4.34375 0 L 4.34375 -37.09375 L 17.140625 -37.09375 L 17.140625 -33.1875 L 17.28125 -33.1875 C 20.601562 -36.507812 24.144531 -38.171875 27.90625 -38.171875 C 29.738281 -38.171875 31.554688 -37.929688 33.359375 -37.453125 C 35.171875 -36.972656 36.90625 -36.222656 38.5625 -35.203125 C 40.226562 -34.191406 41.578125 -32.757812 42.609375 -30.90625 C 43.648438 -29.050781 44.171875 -26.894531 44.171875 -24.4375 L 44.171875 0 L 31.375 0 L 31.375 -20.96875 C 31.375 -22.894531 30.757812 -24.582031 29.53125 -26.03125 C 28.300781 -27.476562 26.695312 -28.203125 24.71875 -28.203125 C 22.789062 -28.203125 21.046875 -27.453125 19.484375 -25.953125 C 17.921875 -24.460938 17.140625 -22.800781 17.140625 -20.96875 L 17.140625 0 Z M 4.34375 0 "/></g></g></g><g fill="#f8a62c" fill-opacity="1"><g transform="translate(224.944165, 89.45311)"><g><path d="M 6.859375 -4.59375 C 3.390625 -8.375 1.65625 -13.007812 1.65625 -18.5 C 1.65625 -24 3.390625 -28.648438 6.859375 -32.453125 C 10.335938 -36.265625 14.75 -38.171875 20.09375 -38.171875 C 25.007812 -38.171875 29.0625 -36.628906 32.25 -33.546875 L 32.25 -62.171875 L 45.046875 -62.171875 L 45.046875 0 L 32.390625 0 L 32.390625 -4.1875 L 32.25 -4.1875 C 29.0625 -0.675781 25.007812 1.078125 20.09375 1.078125 C 14.75 1.078125 10.335938 -0.8125 6.859375 -4.59375 Z M 17.75 -24.796875 C 16.082031 -23.160156 15.25 -21.0625 15.25 -18.5 C 15.25 -15.945312 16.046875 -13.863281 17.640625 -12.25 C 19.234375 -10.632812 21.332031 -9.828125 23.9375 -9.828125 C 26.4375 -9.828125 28.492188 -10.644531 30.109375 -12.28125 C 31.722656 -13.925781 32.53125 -16.003906 32.53125 -18.515625 C 32.53125 -21.066406 31.695312 -23.160156 30.03125 -24.796875 C 28.375 -26.429688 26.34375 -27.25 23.9375 -27.25 C 21.476562 -27.25 19.414062 -26.429688 17.75 -24.796875 Z M 17.75 -24.796875 "/></g></g></g><g fill="#f04624" fill-opacity="1"><g transform="translate(268.690182, 89.45311)"><g><path d="M 3.328125 0 L 3.328125 -37.09375 L 16.125 -37.09375 L 16.125 0 Z M 3.328125 0 "/></g></g></g><g fill="#f04624" fill-opacity="1"><g transform="translate(282.498097, 89.45311)"><g><path d="M 47.28125 0 L 31.8125 0 L 23.640625 -10.484375 L 15.46875 0 L 0 0 L 15.828125 -19.375 L 2.234375 -37.09375 L 17.203125 -37.09375 L 23.640625 -28.484375 L 30.078125 -37.09375 L 45.046875 -37.09375 L 31.453125 -19.375 Z M 47.28125 0 "/></g></g></g><g clip-path="url(#7564174b00)"><path fill="#ffffff" d="M 195.292969 69.761719 L 186.105469 69.761719 C 170.375 66.359375 166.878906 62.847656 163.476562 47.097656 L 163.476562 38.269531 L 162.3125 38.269531 L 162.3125 47.191406 C 158.917969 62.863281 155.402344 66.367188 139.703125 69.761719 L 133 69.761719 L 133 70.925781 L 139.703125 70.925781 C 155.402344 74.320312 158.917969 77.824219 162.3125 93.496094 L 162.3125 102.253906 L 163.476562 102.253906 L 163.476562 93.589844 C 166.878906 77.835938 170.375 74.328125 186.105469 70.925781 L 195.292969 70.925781 Z M 195.292969 69.761719 " fill-opacity="1" fill-rule="nonzero"/></g><g clip-path="url(#9b58cec353)"><path fill="#f04624" d="M 289.183594 43.035156 L 286.21875 43.035156 C 281.148438 41.9375 280.019531 40.804688 278.921875 35.726562 L 278.921875 32.875 L 278.546875 32.875 L 278.546875 35.753906 C 277.449219 40.8125 276.316406 41.941406 271.25 43.035156 L 269.089844 43.035156 L 269.089844 43.410156 L 271.25 43.410156 C 276.316406 44.507812 277.449219 45.636719 278.546875 50.695312 L 278.546875 53.519531 L 278.921875 53.519531 L 278.921875 50.722656 C 280.019531 45.640625 281.148438 44.511719 286.21875 43.410156 L 289.183594 43.410156 Z M 289.183594 43.035156 " fill-opacity="1" fill-rule="nonzero"/></g></svg>