<svg xmlns="http://www.w3.org/2000/svg" xmlns:xlink="http://www.w3.org/1999/xlink" width="1620" zoomAndPan="magnify" viewBox="0 0 1215 809.999993" height="1080" preserveAspectRatio="xMidYMid meet" version="1.0"><defs><clipPath id="72aad3ae08"><path d="M 408 66.28125 L 761 66.28125 L 761 510 L 408 510 Z M 408 66.28125 " clip-rule="nonzero"/></clipPath><clipPath id="950549fa97"><path d="M 514 66.28125 L 761 66.28125 L 761 185 L 514 185 Z M 514 66.28125 " clip-rule="nonzero"/></clipPath></defs><path fill="#001321" d="M 502.953125 663.691406 L 528.15625 698 L 480.585938 707.914062 L 475.910156 688.917969 Z M 502.953125 663.691406 " fill-opacity="1" fill-rule="nonzero"/><path fill="#da8aa5" d="M 468.695312 379.761719 L 521.09375 684.640625 L 475.910156 688.933594 L 449.792969 566.710938 C 429.613281 627.691406 385.292969 666.574219 385.292969 666.574219 C 385.292969 666.574219 353.738281 658.289062 346.921875 642.789062 C 340.109375 627.292969 398.691406 516.886719 398.839844 516.289062 C 398.988281 515.695312 400.066406 395.226562 399.171875 385.695312 C 415.105469 372.984375 468.695312 379.761719 468.695312 379.761719 Z M 468.695312 379.761719 " fill-opacity="1" fill-rule="nonzero"/><path fill="#f16738" d="M 398.175781 374.957031 C 392.804688 318.75 395.554688 277.230469 395.554688 277.230469 C 397.113281 254.722656 407.214844 244.179688 408.125 243.417969 C 408.125 243.417969 425.964844 237.21875 432.664062 247.675781 C 439.347656 258.136719 447.488281 264.949219 447.488281 264.949219 C 447.488281 264.949219 459.011719 291.136719 461.335938 301.429688 C 463.65625 311.707031 457.40625 318.039062 457.40625 318.039062 L 466.890625 368.558594 C 466.890625 368.558594 449.828125 379.347656 432.683594 379.117188 C 415.503906 378.882812 398.175781 374.957031 398.175781 374.957031 Z M 398.175781 374.957031 " fill-opacity="1" fill-rule="nonzero"/><path fill="#fbb387" d="M 506.386719 206.789062 C 479.9375 231.582031 450.074219 238.5625 445.550781 236.273438 C 443.3125 235.128906 444.273438 232.195312 445.8125 229.527344 C 436.132812 234.515625 416.332031 244.695312 414.195312 245.738281 C 411.34375 247.128906 408.109375 243.433594 408.109375 243.433594 C 408.109375 243.433594 412.703125 233.671875 413.117188 232.296875 C 413.53125 230.921875 406.667969 220.859375 405.089844 215.722656 C 403.515625 210.582031 416.449219 188.6875 424.523438 188.007812 C 432.597656 187.328125 446.609375 192.167969 446.609375 192.167969 C 446.609375 192.167969 449.828125 199.144531 451.238281 206.058594 C 451.238281 206.058594 454.320312 213.796875 454.320312 214.476562 C 454.320312 215.15625 451.949219 215.273438 451.949219 215.273438 L 451.320312 223.59375 C 456.675781 221.109375 472.3125 213.234375 475.976562 211.03125 C 480.351562 208.410156 509.421875 179.570312 509.421875 179.570312 C 509.421875 179.570312 532.832031 181.992188 506.386719 206.789062 Z M 506.386719 206.789062 " fill-opacity="1" fill-rule="nonzero"/><g clip-path="url(#72aad3ae08)"><path fill="#f16738" d="M 614.777344 184.726562 L 492.339844 184.726562 L 626.351562 66.28125 L 760.363281 184.726562 L 637.925781 184.726562 C 637.925781 182.273438 641.257812 176.9375 641.257812 168.796875 C 641.257812 160.660156 634.59375 154.0625 626.351562 154.0625 C 618.128906 154.0625 611.445312 160.660156 611.445312 168.796875 C 611.445312 176.953125 614.777344 182.289062 614.777344 184.726562 Z M 417.792969 508.085938 C 426.25 512.476562 450.773438 504.886719 458.796875 506.84375 C 466.839844 508.796875 472.34375 504.324219 472.34375 504.324219 C 469.144531 502.351562 471.664062 498.371094 469.773438 485.742188 C 467.882812 473.113281 458.980469 467.511719 451.039062 466.929688 C 447.738281 461.511719 433.527344 457.351562 421.6875 465.472656 C 409.847656 473.59375 413.398438 492.65625 408.722656 497.941406 C 408.738281 497.925781 409.335938 503.675781 417.792969 508.085938 Z M 417.792969 508.085938 " fill-opacity="1" fill-rule="nonzero"/></g><g clip-path="url(#950549fa97)"><path fill="#001321" d="M 652.730469 184.59375 L 653.5625 184.59375 L 653.5625 165.398438 L 706.339844 165.398438 L 706.339844 184.59375 L 707.167969 184.59375 L 707.167969 165.398438 L 738.492188 165.398438 L 737.546875 164.570312 L 733.964844 164.570312 L 733.964844 161.40625 L 733.136719 160.675781 L 733.136719 164.570312 L 680.355469 164.570312 L 680.355469 145.660156 L 716.140625 145.660156 L 715.195312 144.832031 L 707.136719 144.832031 L 707.136719 137.71875 L 706.304688 136.992188 L 706.304688 144.847656 L 653.5625 144.847656 L 653.5625 125.917969 L 693.820312 125.917969 L 692.875 125.089844 L 680.355469 125.089844 L 680.355469 114.035156 L 679.527344 113.304688 L 679.527344 125.105469 L 626.75 125.105469 L 626.75 106.175781 L 671.46875 106.175781 L 670.523438 105.347656 L 653.5625 105.347656 L 653.5625 90.332031 L 652.730469 89.601562 L 652.730469 105.347656 L 599.953125 105.347656 L 599.953125 89.601562 L 599.125 90.332031 L 599.125 105.347656 L 582.144531 105.347656 L 581.199219 106.175781 L 625.921875 106.175781 L 625.921875 125.089844 L 573.140625 125.089844 L 573.140625 113.289062 L 572.3125 114.015625 L 572.3125 125.089844 L 559.792969 125.089844 L 558.847656 125.917969 L 599.109375 125.917969 L 599.109375 144.832031 L 546.332031 144.832031 L 546.332031 136.972656 L 545.5 137.703125 L 545.5 144.8125 L 537.441406 144.8125 L 536.496094 145.640625 L 572.28125 145.640625 L 572.28125 164.570312 L 519.5 164.570312 L 519.5 160.675781 L 518.671875 161.40625 L 518.671875 164.570312 L 515.089844 164.570312 L 514.144531 165.398438 L 545.46875 165.398438 L 545.46875 184.59375 L 546.296875 184.59375 L 546.296875 165.398438 L 599.074219 165.398438 L 599.074219 184.59375 L 599.902344 184.59375 L 599.902344 165.398438 L 611.792969 165.398438 C 611.859375 165.117188 611.925781 164.835938 612.007812 164.570312 L 573.09375 164.570312 L 573.09375 145.660156 L 625.871094 145.660156 L 625.871094 154.09375 C 626.003906 154.09375 626.152344 154.078125 626.285156 154.078125 C 626.417969 154.078125 626.566406 154.09375 626.699219 154.09375 L 626.699219 145.660156 L 679.476562 145.660156 L 679.476562 164.570312 L 640.628906 164.570312 C 640.710938 164.835938 640.777344 165.117188 640.84375 165.398438 L 652.75 165.398438 L 652.75 184.59375 Z M 652.730469 144.832031 L 599.953125 144.832031 L 599.953125 125.917969 L 652.730469 125.917969 Z M 603.550781 86.4375 L 604.496094 85.609375 L 625.953125 85.609375 L 625.953125 66.648438 L 626.21875 66.414062 L 626.535156 66.414062 L 626.800781 66.648438 L 626.800781 85.609375 L 648.253906 85.609375 L 649.199219 86.4375 Z M 760.195312 184.59375 L 759.929688 184.59375 L 759.929688 184.363281 Z M 760.195312 184.59375 " fill-opacity="1" fill-rule="nonzero"/></g><path fill="#001321" d="M 784.207031 490.351562 C 782.148438 487.25 780.738281 483.703125 780.144531 480.023438 C 779.761719 477.6875 779.695312 475.300781 779.28125 472.980469 C 778.867188 470.644531 777.738281 467.890625 776.015625 466.265625 C 773.03125 463.464844 768.417969 457.648438 770.441406 447.738281 C 772.464844 437.839844 770.542969 434.640625 766.496094 422.59375 C 762.433594 410.542969 768.238281 395.875 772.199219 394.117188 C 777.554688 386.078125 796.757812 371.757812 815.097656 391.332031 C 833.433594 410.890625 824.996094 413.890625 841.410156 418.167969 C 857.824219 422.441406 850.710938 433.449219 859.085938 439.285156 C 867.460938 445.117188 874.125 442.414062 881.386719 459.503906 C 881.386719 459.503906 859.515625 497.429688 843.367188 506.046875 M 273.203125 733.40625 C 273.203125 733.40625 387 736.820312 401.59375 733.40625 C 416.167969 729.988281 417.875 705.359375 408.308594 686.84375 C 398.738281 668.332031 360.054688 639.109375 360.054688 639.109375 L 400 626.859375 L 428.15625 699.625 C 428.15625 699.625 453.078125 716.234375 462.195312 711.988281 C 471.300781 707.746094 470.785156 692.714844 470.785156 692.714844 L 450.820312 618.175781 C 450.820312 618.175781 403.351562 565.019531 387.78125 565.75 C 372.210938 566.480469 287.363281 589.683594 287.363281 589.683594 C 287.363281 589.683594 266.222656 613.1875 274.464844 638.894531 C 281.410156 658.71875 310.496094 686.398438 310.496094 686.398438 L 272.886719 695.730469 C 272.886719 695.730469 259.058594 718.121094 273.203125 733.40625 Z M 421.441406 187.859375 L 410.214844 183.382812 C 410.214844 183.382812 397.414062 185.953125 396.121094 201.117188 C 394.828125 216.285156 413.132812 232.28125 413.132812 232.28125 L 415.800781 223.578125 C 409.667969 223.3125 405.238281 214.890625 407.675781 212.058594 C 410.113281 209.222656 413.976562 210.964844 413.976562 210.964844 C 424.640625 210.035156 421.722656 196.046875 423.945312 193.660156 Z M 421.441406 187.859375 " fill-opacity="1" fill-rule="nonzero"/><path fill="#da8aa5" d="M 795.25 675.855469 L 828.292969 578.445312 L 858.007812 564.355469 L 897.753906 559.882812 C 897.753906 559.882812 911.332031 638.183594 912.230469 664.4375 C 913.140625 690.691406 811.695312 690.742188 795.25 675.855469 Z M 247.304688 683.414062 C 241.863281 686.066406 227.671875 710.035156 212.351562 718.371094 C 197.027344 726.707031 190.082031 737.464844 197.292969 740.464844 C 204.507812 743.464844 273.203125 733.40625 273.203125 733.40625 C 273.203125 733.40625 273.1875 696.109375 272.90625 695.730469 C 268.710938 689.976562 252.742188 680.777344 247.304688 683.414062 Z M 489.6875 703.6875 L 470.753906 692.714844 L 428.121094 699.625 C 428.355469 700.636719 437.058594 728.746094 438.351562 731.332031 C 439.199219 733.023438 469.195312 732.707031 489.6875 732.292969 Z M 489.6875 703.6875 " fill-opacity="1" fill-rule="nonzero"/><path fill="#fbb387" d="M 825.175781 568.699219 L 811.347656 534.902344 C 811.347656 534.902344 803.671875 531.820312 800.191406 528.15625 L 765.085938 540.441406 C 765.085938 540.441406 746.484375 540.871094 741.175781 523.882812 C 735.871094 506.910156 751.789062 506.078125 751.789062 506.078125 C 751.789062 506.078125 774.769531 499.980469 774.953125 499.714844 C 775.136719 499.464844 804.617188 451.066406 804.617188 451.066406 L 814.648438 446.144531 L 815.0625 450.472656 C 815.0625 450.472656 819.640625 440.078125 827.382812 438.140625 C 835.125 436.199219 851.441406 440.773438 867.160156 470.492188 C 882.878906 500.210938 894.753906 547.234375 894.753906 547.234375 C 894.753906 547.234375 867.308594 564.554688 851.742188 567.921875 C 836.1875 571.269531 825.175781 568.699219 825.175781 568.699219 Z M 445.199219 588.175781 C 445 587.695312 443.574219 584.414062 441.453125 579.605469 L 418.457031 583.800781 L 402.800781 603.140625 C 405.605469 607.601562 408.886719 611.761719 412.570312 614.511719 C 424.804688 623.710938 480.601562 651.144531 480.601562 651.144531 C 480.601562 651.144531 484.664062 650.929688 492.339844 647.996094 C 500.019531 645.058594 495.441406 619.71875 495.226562 618.640625 C 495.027344 617.5625 446.078125 590.378906 445.199219 588.175781 Z M 445.199219 588.175781 " fill-opacity="1" fill-rule="nonzero"/><path fill="#5f9e8b" d="M 934.082031 656.214844 C 934.082031 656.214844 939.96875 665.398438 938.34375 675.855469 C 936.71875 686.316406 910.6875 687.277344 910.6875 687.277344 L 908.960938 665.429688 C 909.378906 665.316406 922.726562 656.777344 934.082031 656.214844 Z M 1016.011719 657.625 C 1016.011719 657.625 999 657.492188 988.902344 659.929688 C 978.804688 662.363281 995.734375 693.375 995.734375 693.375 C 995.734375 693.375 1002.25 705.558594 1002.761719 706.386719 C 1003.277344 707.214844 1001.550781 712.800781 999.246094 714.460938 C 996.941406 716.117188 997.953125 721.238281 1006.675781 719.117188 C 1015.398438 716.996094 1020.355469 713.847656 1022.675781 693.609375 C 1025 673.355469 1016.011719 657.625 1016.011719 657.625 Z M 655.71875 263.902344 C 656.53125 255.816406 650.558594 248.574219 642.367188 247.761719 C 634.179688 246.929688 626.882812 252.816406 626.054688 260.921875 C 625.242188 269.027344 628.007812 274.679688 627.761719 277.097656 L 505.972656 266.175781 L 495.972656 372.421875 C 497.199219 371.972656 499.769531 379.117188 499.769531 379.117188 L 495.09375 381.902344 L 485.511719 483.769531 L 491.894531 489.355469 L 484.613281 493.25 L 481.613281 525.191406 L 603.304688 536.28125 C 603.089844 538.714844 599.324219 543.753906 598.628906 551.859375 C 597.929688 559.964844 604.015625 567.109375 612.222656 567.804688 C 620.433594 568.5 627.628906 562.5 628.324219 554.394531 C 629.019531 546.273438 626.152344 540.671875 626.367188 538.234375 L 748.554688 549.207031 L 751.523438 517.566406 L 747.277344 513.089844 L 752.386719 508.484375 L 761.96875 406.613281 L 757.113281 401.0625 L 762.847656 397.132812 L 772.914062 290.191406 L 650.824219 279.203125 C 651.257812 276.714844 654.921875 271.808594 655.71875 263.902344 Z M 638.605469 596.710938 C 638.605469 604.851562 631.9375 611.445312 623.699219 611.445312 C 615.472656 611.445312 608.792969 604.851562 608.792969 596.710938 C 608.792969 588.554688 612.125 583.21875 612.125 580.78125 L 489.6875 580.78125 L 489.6875 724.488281 L 494.332031 732.640625 L 751.9375 732.640625 L 757.691406 724.488281 L 757.691406 580.78125 L 635.253906 580.78125 C 635.273438 583.21875 638.605469 588.554688 638.605469 596.710938 Z M 433.34375 193.675781 C 440.324219 190.675781 446.644531 192.167969 446.644531 192.167969 C 446.644531 192.167969 445.234375 187.726562 441.96875 184.59375 C 441.96875 184.59375 443.972656 182.171875 443.328125 178.757812 C 441.355469 181.542969 435.832031 180.582031 424.605469 176.835938 C 413.382812 173.089844 410.214844 183.367188 410.214844 183.367188 L 423.925781 193.660156 C 423.925781 193.675781 426.363281 196.660156 433.34375 193.675781 Z M 351.5 631.632812 L 351.136719 631.453125 C 350.9375 631.832031 350.886719 631.949219 359.773438 639.425781 L 360.304688 638.796875 C 357.21875 636.191406 352.195312 631.898438 351.863281 631.453125 Z M 399.570312 626.761719 L 400.363281 626.976562 L 402.96875 616.984375 L 402.171875 616.765625 Z M 310.761719 686.082031 L 310.230469 686.714844 L 329.710938 703.222656 L 330.242188 702.59375 Z M 372.609375 601.003906 L 349.445312 624.65625 C 349.445312 624.65625 336.660156 623.792969 321.023438 616.484375 C 316.066406 626.050781 307.476562 627.722656 302.136719 627.722656 C 300.265625 627.722656 298.789062 627.523438 298.007812 627.375 C 298.441406 629.828125 299.402344 632.265625 301.144531 634.535156 C 304.789062 639.324219 318.949219 650.945312 333.957031 663.242188 C 354.285156 679.917969 375.226562 697.105469 378.34375 703.753906 C 384.183594 705.441406 390.398438 707.214844 395.621094 708.691406 L 395.390625 709.488281 C 391.210938 708.308594 384.929688 706.535156 378.695312 704.730469 C 378.742188 704.945312 378.757812 705.144531 378.757812 705.328125 C 378.726562 705.824219 378.476562 706.238281 378.0625 706.488281 C 371.910156 710.234375 305.636719 712.734375 281.675781 713.515625 C 281.660156 718.621094 281.609375 725 281.527344 733.054688 L 280.699219 733.054688 C 280.746094 727.15625 280.796875 720.0625 280.832031 713.546875 C 276.585938 713.679688 273.816406 713.761719 273.203125 713.78125 L 273.1875 712.953125 C 273.351562 712.953125 276.1875 712.867188 280.832031 712.71875 C 280.878906 702.839844 280.863281 694.453125 280.714844 693.824219 L 281.097656 693.691406 L 280.996094 693.277344 L 281.359375 693.359375 C 281.527344 693.492188 281.742188 693.675781 281.660156 712.6875 C 305.488281 711.890625 371.695312 709.371094 377.617188 705.773438 C 377.816406 705.660156 377.898438 705.492188 377.914062 705.261719 C 377.929688 705.027344 377.863281 704.761719 377.765625 704.449219 C 367.914062 701.597656 358.480469 698.761719 358.066406 698.25 L 358.382812 697.984375 L 358.664062 697.6875 C 359.308594 698.132812 367.648438 700.652344 377.285156 703.453125 C 373.355469 696.675781 351.402344 678.65625 333.410156 663.890625 C 318.371094 651.558594 304.175781 639.90625 300.464844 635.03125 C 291.109375 622.765625 303.015625 605.976562 303.132812 605.8125 L 303.8125 606.292969 C 303.710938 606.425781 296.597656 616.484375 297.875 626.511719 C 300.066406 626.976562 313.511719 629.199219 320.277344 616.136719 C 309.5 610.984375 297.460938 602.777344 287.332031 589.683594 C 287.332031 589.683594 321.585938 541.101562 358.398438 516.289062 C 381.527344 500.777344 392.40625 502.351562 392.40625 502.351562 C 392.40625 502.351562 410.046875 512.097656 413.863281 516.289062 C 417.660156 520.484375 417.808594 526.136719 417.808594 526.136719 C 417.808594 526.136719 433.925781 562.535156 441.4375 579.605469 L 402.785156 603.144531 C 400.960938 600.242188 399.355469 597.207031 397.960938 594.339844 L 398.078125 594.789062 L 372.707031 601.417969 Z M 373.171875 600.425781 L 397.8125 593.992188 C 394.363281 586.800781 392.421875 580.78125 392.421875 580.78125 Z M 468.996094 685.984375 L 449.726562 689.597656 L 428.007812 623.578125 L 427.226562 623.84375 L 448.914062 689.761719 L 426.050781 694.039062 L 426.199219 694.851562 L 449.164062 690.542969 L 450.871094 695.730469 L 451.652344 695.464844 L 449.976562 690.375 L 469.128906 686.777344 Z M 286.085938 624.277344 L 273.367188 618.558594 L 273.019531 619.320312 L 285.738281 625.039062 Z M 286.085938 624.277344 " fill-opacity="1" fill-rule="nonzero"/><path fill="#fbb387" d="M 451.765625 515.859375 C 451.765625 515.859375 448.316406 522.835938 446.5625 524.128906 C 444.820312 525.4375 443.441406 523.75 443.441406 523.75 C 425.21875 538.796875 419.367188 526.75 419.367188 526.75 L 410.113281 529.648438 C 410.113281 529.648438 408.738281 524.148438 405.421875 516.289062 C 400 504.207031 392.421875 502.351562 392.421875 502.351562 L 408.738281 497.925781 C 408.738281 497.925781 413.695312 498.589844 420.628906 495.058594 C 420.628906 495.058594 420.179688 484.285156 426.894531 482.460938 C 433.609375 480.636719 434.074219 485.359375 434.074219 485.359375 C 434.074219 485.359375 441.96875 489.273438 447.605469 479.675781 C 454.851562 481.183594 450.972656 502.316406 458.8125 506.84375 C 458.8125 506.824219 453.410156 514.117188 451.765625 515.859375 Z M 525.320312 646.039062 C 525.539062 642.921875 517.113281 642.34375 513.996094 641.863281 C 510.878906 641.378906 507.347656 639.558594 507.347656 639.558594 C 509.46875 639.789062 512.96875 637.285156 512.605469 636.457031 C 512.238281 635.628906 506.335938 633.804688 503.75 633.34375 C 501.164062 632.878906 489.289062 631.632812 489.289062 631.632812 C 489.125 631.535156 480.550781 651.144531 480.550781 651.144531 C 480.550781 651.144531 491.097656 657.988281 502.789062 659.117188 C 510.300781 659.960938 514.164062 658.089844 515.273438 656.214844 C 515.273438 656.214844 520.910156 655.667969 521.90625 651.542969 C 521.90625 651.542969 525.519531 650.511719 523.53125 647.746094 C 523.5625 647.761719 524.808594 647 525.320312 646.039062 Z M 427.707031 231.515625 L 451.121094 226.792969 C 451.785156 226.429688 477.203125 213.699219 479.160156 211.542969 C 481.097656 209.390625 524.691406 170.605469 525.488281 168.996094 C 525.488281 168.996094 530.394531 158.703125 532.800781 156.648438 C 535.203125 154.59375 546.613281 146.867188 547.324219 147.265625 C 549.945312 149.953125 546.894531 155.105469 546.894531 155.105469 C 550.707031 153.664062 555.019531 152.71875 558.335938 149.503906 C 561.652344 146.273438 564.039062 148.792969 563.855469 149.4375 C 563.691406 150.085938 561.917969 152.785156 561.917969 152.785156 C 563.191406 151.34375 565.679688 151.941406 565.996094 152.605469 C 566.3125 153.265625 564.703125 156.25 564.703125 156.25 C 566.757812 155.191406 567.984375 156.664062 568.050781 157.078125 C 568.117188 157.492188 566.726562 160.59375 566.726562 160.59375 C 567.074219 162.351562 565.101562 171.746094 560.140625 175.644531 C 555.199219 179.539062 543.84375 186.847656 541.9375 188.390625 C 539.464844 190.410156 522.203125 217.03125 501.296875 238.960938 C 488.328125 251.574219 428.734375 276.585938 428.734375 276.585938 C 428.734375 276.585938 422.914062 281.988281 413.050781 278.488281 C 403.183594 274.992188 398.839844 263.753906 402.140625 255.367188 C 405.457031 246.964844 413.945312 246.234375 414.195312 245.703125 Z M 466.871094 368.558594 L 468.695312 379.761719 C 448.5 388.347656 399.320312 386.640625 399.320312 386.640625 C 399.320312 386.640625 397.546875 375.503906 398.175781 374.972656 C 446.542969 374.328125 466.871094 368.558594 466.871094 368.558594 Z M 580.917969 440.261719 C 581.085938 455.691406 576.492188 498.074219 576.492188 498.074219 C 576.492188 498.074219 526.746094 488.644531 526.5 489.703125 C 526.5 489.703125 531.191406 441.105469 531.40625 436.765625 C 531.621094 432.421875 539.699219 417.917969 552.398438 417.074219 C 565.101562 416.226562 580.769531 424.828125 580.917969 440.261719 Z M 591.25 328.894531 C 591.414062 344.324219 586.820312 386.707031 586.820312 386.707031 C 586.820312 386.707031 537.078125 377.277344 536.828125 378.335938 C 536.828125 378.335938 541.523438 329.738281 541.738281 325.398438 C 541.953125 321.054688 550.027344 306.550781 562.730469 305.707031 C 575.414062 304.859375 591.097656 313.464844 591.25 328.894531 Z M 722.589844 399.304688 C 722.589844 399.304688 672.84375 389.875 672.597656 390.933594 C 672.597656 390.933594 677.289062 342.335938 677.503906 337.992188 C 677.71875 333.652344 685.796875 319.148438 698.496094 318.304688 C 711.199219 317.457031 726.867188 326.078125 727.03125 341.492188 C 727.183594 356.90625 722.589844 399.304688 722.589844 399.304688 Z M 716.6875 452.859375 C 716.851562 468.289062 712.257812 510.671875 712.257812 510.671875 C 712.257812 510.671875 662.515625 501.238281 662.265625 502.300781 C 662.265625 502.300781 666.957031 453.703125 667.175781 449.359375 C 667.390625 445.019531 675.464844 430.515625 688.167969 429.667969 C 700.867188 428.824219 716.535156 437.425781 716.6875 452.859375 Z M 716.6875 452.859375 " fill-opacity="1" fill-rule="nonzero"/><path fill="#f16738" d="M 772.929688 428.707031 C 765.1875 416.308594 772.367188 407.660156 772.367188 407.660156 C 778.054688 403.796875 782.761719 411.074219 788.714844 411.074219 C 795.117188 411.519531 796.65625 405.222656 803.871094 408.800781 C 803.871094 408.800781 804.449219 403.53125 809.191406 405.121094 C 813.953125 406.714844 811.515625 415.914062 810.984375 416.957031 C 810.089844 418.714844 810.71875 420.601562 811.433594 422.441406 C 811.980469 423.851562 812.859375 425.113281 813.554688 426.453125 C 815.078125 429.386719 815.710938 432.800781 815.179688 436.050781 C 814.980469 437.246094 814.632812 438.386719 814.464844 439.582031 C 814.117188 442 814.285156 443.707031 814.683594 446.113281 C 809.125 453.96875 804.648438 451.035156 804.648438 451.035156 L 800.851562 441.769531 C 786.609375 451.914062 780.671875 441.121094 772.929688 428.707031 Z M 988.902344 659.945312 L 915.265625 677.695312 L 912.230469 664.4375 L 795.25 675.855469 C 795.25 675.855469 776.761719 719.316406 794.703125 731.167969 C 812.640625 743.019531 865.070312 721.535156 865.070312 721.535156 C 865.070312 721.535156 874.640625 737.914062 901.566406 731.960938 C 932.078125 725.234375 995.734375 693.375 995.734375 693.375 Z M 684.867188 626.859375 L 562.53125 626.859375 L 562.53125 724.46875 L 489.6875 724.46875 L 489.6875 734.730469 L 757.707031 734.730469 L 757.707031 724.46875 L 684.867188 724.46875 Z M 668.121094 397.945312 L 495.109375 381.902344 L 496.007812 372.421875 L 535.867188 376.117188 L 540.328125 327.984375 C 541.6875 313.28125 555.050781 302.507812 569.824219 304.445312 C 583.886719 306.285156 593.734375 319.347656 592.425781 333.453125 L 588.015625 380.957031 L 669 388.464844 L 670.492188 388.597656 L 671.636719 388.695312 L 676.09375 340.5625 C 677.421875 326.191406 690.207031 315.585938 704.597656 316.910156 C 718.972656 318.238281 729.585938 331.015625 728.261719 345.402344 L 723.800781 393.535156 L 762.882812 397.167969 L 761.984375 406.648438 Z M 677.652344 352.398438 C 680.324219 352.496094 686.476562 353.027344 701.332031 354.503906 C 711.148438 355.480469 721.03125 356.492188 724.527344 356.855469 L 725.605469 345.171875 C 726.800781 332.242188 717.265625 320.757812 704.332031 319.5625 C 691.398438 318.371094 679.910156 327.898438 678.714844 340.828125 Z M 674.269531 388.960938 L 721.164062 393.304688 L 724.296875 359.492188 C 707.136719 357.703125 682.726562 355.265625 677.421875 355.015625 Z M 541.886719 339.800781 C 544.554688 339.898438 550.707031 340.429688 565.5625 341.90625 C 575.378906 342.882812 585.261719 343.894531 588.761719 344.257812 L 589.839844 332.574219 C 591.035156 319.644531 581.5 308.160156 568.566406 306.964844 C 555.632812 305.773438 544.140625 315.304688 542.949219 328.230469 Z M 585.378906 380.707031 L 588.511719 346.894531 C 571.351562 345.105469 546.945312 342.667969 541.636719 342.417969 L 538.488281 376.363281 Z M 657.789062 509.3125 L 484.632812 493.269531 L 485.527344 483.785156 L 525.539062 487.5 L 529.996094 439.367188 C 531.324219 424.996094 544.109375 414.386719 558.5 415.714844 C 572.875 417.039062 583.488281 429.820312 582.164062 444.207031 L 577.703125 492.339844 L 658.683594 499.847656 L 661.320312 500.097656 L 665.78125 451.964844 C 667.109375 437.59375 679.890625 426.984375 694.285156 428.3125 C 708.660156 429.636719 719.273438 442.414062 717.945312 456.804688 L 713.484375 504.9375 L 752.417969 508.550781 L 751.523438 518.03125 Z M 667.324219 463.765625 C 669.992188 463.863281 676.144531 464.394531 691 465.871094 C 700.816406 466.847656 710.699219 467.859375 714.199219 468.222656 L 715.277344 456.539062 C 716.46875 443.609375 706.9375 432.121094 694.003906 430.929688 C 681.070312 429.734375 669.578125 439.265625 668.386719 452.195312 Z M 663.941406 500.328125 L 710.832031 504.671875 L 713.96875 470.859375 C 696.804688 469.066406 672.398438 466.632812 667.089844 466.382812 Z M 531.554688 451.167969 C 534.226562 451.265625 540.378906 451.796875 555.234375 453.273438 C 565.050781 454.25 574.933594 455.261719 578.429688 455.625 L 579.507812 443.941406 C 580.703125 431.011719 571.167969 419.527344 558.234375 418.332031 C 545.300781 417.140625 533.8125 426.667969 532.617188 439.597656 Z M 575.050781 492.074219 L 578.183594 458.261719 C 561.019531 456.472656 536.613281 454.035156 531.308594 453.785156 L 528.15625 487.730469 Z M 716.652344 530.261719 C 712.773438 530.046875 701 531.835938 700.136719 532.617188 C 699.191406 538.898438 710.566406 537.738281 710.566406 537.738281 L 686.523438 543.441406 C 687.453125 546.605469 690.089844 546.222656 690.089844 546.222656 C 692.410156 549.289062 696.492188 549.09375 696.492188 549.09375 C 700.238281 552.855469 706.171875 551.742188 706.171875 551.742188 C 715.691406 557.394531 737.132812 550.433594 740.976562 549.09375 C 753.710938 544.632812 765.121094 540.421875 765.121094 540.421875 L 753.082031 519.308594 C 753.066406 519.308594 731.277344 531.074219 716.652344 530.261719 Z M 897.753906 559.882812 L 894.753906 547.203125 C 894.753906 547.203125 838.292969 566.527344 825.160156 568.699219 L 828.277344 578.445312 C 828.292969 578.445312 882.152344 566.246094 897.753906 559.882812 Z M 897.753906 559.882812 " fill-opacity="1" fill-rule="nonzero"/><path fill="#001321" d="M 841.011719 472.945312 L 841.777344 473.277344 C 841.578125 473.742188 820.300781 520.714844 800.355469 528.539062 L 800.058594 527.777344 C 817.101562 521.082031 836.703125 482.824219 841.011719 472.945312 Z M 837.332031 523.765625 L 837.082031 522.96875 C 832.375 524.394531 827.597656 523.433594 823.269531 520.152344 C 823.121094 520.035156 823.023438 519.96875 822.988281 519.953125 L 822.574219 520.664062 C 822.609375 520.683594 822.671875 520.75 822.773438 520.816406 C 825.957031 523.21875 829.371094 524.445312 832.855469 524.445312 C 834.332031 524.445312 835.839844 524.214844 837.332031 523.765625 Z M 815.445312 450.636719 L 814.714844 450.222656 C 814.417969 450.738281 813.71875 451.980469 812.742188 453.738281 C 794.699219 485.824219 785.085938 502.5 784.238281 503.296875 C 783.109375 503.824219 754.109375 518.3125 752.882812 518.941406 L 753.246094 519.6875 C 753.546875 519.539062 783.476562 504.570312 784.585938 504.058594 C 785.167969 503.792969 789.0625 497.558594 813.472656 454.152344 C 814.449219 452.394531 815.144531 451.167969 815.445312 450.636719 Z M 801.019531 442.152344 C 801.132812 442.101562 803.855469 440.726562 806.671875 434.957031 L 805.925781 434.59375 C 803.257812 440.0625 800.6875 441.386719 800.652344 441.40625 L 800.835938 441.769531 Z M 782.714844 433.367188 C 783.375 433.367188 784.273438 432.667969 784.800781 432.171875 L 784.238281 431.558594 C 783.65625 432.089844 782.929688 432.554688 782.777344 432.570312 C 782.316406 432.089844 777.722656 423.933594 777.488281 423.304688 L 777.09375 423.421875 L 776.675781 423.371094 C 776.59375 424.050781 782.183594 433.152344 782.230469 433.199219 C 782.398438 433.332031 782.546875 433.367188 782.714844 433.367188 Z M 785.632812 440.195312 C 785.679688 440.210938 785.746094 440.210938 785.832031 440.210938 C 786.875 440.210938 790.539062 439.464844 791.800781 436.449219 L 791.035156 436.132812 C 789.875 438.933594 786.210938 439.398438 785.78125 439.382812 Z M 779.296875 416.242188 C 779.894531 416.210938 786.542969 411.867188 786.742188 411.089844 C 786.941406 410.308594 779.378906 412.101562 777.886719 414.222656 C 777.507812 414.769531 778.699219 416.261719 779.296875 416.242188 Z M 773.394531 420.46875 C 773.691406 419.757812 773.460938 418.101562 772.546875 418.148438 C 771.984375 418.183594 769.878906 421.714844 769.878906 421.714844 L 770.394531 423.453125 C 770.476562 423.320312 773.078125 421.183594 773.394531 420.46875 Z M 781.285156 420.886719 C 781.21875 420.96875 781.171875 421.050781 781.136719 421.082031 L 781.683594 421.695312 C 781.75 421.632812 781.816406 421.546875 781.949219 421.382812 C 782.117188 421.167969 782.414062 420.785156 782.8125 420.371094 C 783.277344 421.199219 784.453125 423.054688 785.480469 422.609375 C 786.542969 422.144531 785.53125 419.558594 785.117188 418.582031 C 785.832031 418.167969 786.675781 417.769531 787.671875 417.46875 L 787.421875 416.675781 C 783.609375 417.835938 781.867188 420.121094 781.285156 420.886719 Z M 771.917969 426.800781 C 771.867188 426.867188 771.820312 426.933594 771.800781 426.953125 L 772.367188 427.566406 C 772.433594 427.515625 772.480469 427.449219 772.582031 427.300781 C 772.613281 427.265625 772.648438 427.214844 772.679688 427.167969 C 773.097656 427.863281 774.074219 429.15625 775.136719 429.023438 C 776.296875 428.890625 775.167969 426.273438 774.722656 425.292969 C 775.019531 425.128906 775.335938 424.996094 775.664062 424.945312 L 775.535156 424.132812 C 773.726562 424.449219 772.414062 426.15625 771.917969 426.800781 Z M 808.679688 412.929688 C 808.445312 411.289062 808.578125 409.5625 809.042969 407.988281 L 808.25 407.757812 C 807.75 409.464844 807.601562 411.289062 807.851562 413.0625 Z M 850.28125 670.484375 C 850.347656 671.082031 850.996094 676.816406 852.320312 684.375 L 844.378906 686.878906 L 844.628906 687.675781 L 852.46875 685.203125 C 854.660156 697.488281 858.605469 714.144531 864.757812 721.800781 L 865.402344 721.289062 C 855.421875 708.855469 851.160156 670.785156 851.109375 670.402344 Z M 914.867188 677.761719 L 916.027344 683.746094 L 916.839844 683.582031 L 915.679688 677.597656 Z M 817.019531 663.722656 L 817.847656 663.722656 C 818.015625 662.363281 830.847656 618.058594 837.613281 594.820312 L 836.816406 594.589844 C 832.140625 610.585938 816.953125 662.878906 817.019531 663.722656 Z M 849.121094 610.484375 L 848.292969 610.484375 L 848.242188 656.214844 L 849.070312 656.214844 Z M 870.128906 585.359375 L 878.46875 644.132812 L 879.28125 644.015625 L 870.941406 585.242188 Z M 1012.613281 702.128906 C 1009.660156 704.183594 1004.4375 707.050781 1002.996094 706.039062 L 1002.515625 706.71875 C 1002.847656 706.949219 1003.292969 707.066406 1003.792969 707.066406 C 1006.84375 707.066406 1012.363281 703.304688 1013.078125 702.808594 Z M 415.820312 516.058594 C 416.066406 520.515625 418.871094 526.664062 419.003906 526.929688 L 419.75 526.582031 C 419.714844 526.515625 416.878906 520.316406 416.648438 516.007812 Z M 430.09375 519.738281 L 429.828125 520.21875 L 429.582031 520.367188 C 429.632812 520.449219 429.699219 520.648438 429.796875 520.914062 C 430.292969 522.324219 431.339844 525.242188 433.644531 525.921875 L 433.875 525.125 C 431.984375 524.578125 431.039062 521.925781 430.578125 520.648438 C 430.34375 520.035156 430.277344 519.855469 430.09375 519.738281 Z M 426.863281 491.445312 C 427.476562 490.632812 427.789062 489.621094 427.773438 488.609375 C 427.742188 487.597656 427.375 486.605469 426.730469 485.824219 L 426.097656 486.355469 C 426.628906 486.984375 426.929688 487.796875 426.945312 488.625 C 426.960938 489.457031 426.695312 490.285156 426.199219 490.929688 Z M 451.285156 467.261719 L 450.839844 466.566406 C 450.671875 466.664062 446.726562 469.300781 447.191406 479.691406 L 448.019531 479.660156 C 447.589844 469.8125 451.253906 467.277344 451.285156 467.261719 Z M 444.671875 501.4375 C 443.773438 502.117188 450.40625 507.554688 451.054688 508.085938 C 451.683594 508.617188 452.5625 506.777344 452.480469 506.378906 C 452.398438 505.980469 445.617188 500.726562 444.671875 501.4375 Z M 381.195312 551.496094 L 381.546875 551.328125 L 381 551.113281 C 380.847656 551.179688 380.75 551.230469 380.832031 551.644531 C 380.980469 552.40625 381.746094 554.429688 383.867188 560.046875 C 385.640625 564.789062 388.507812 572.246094 392.023438 580.914062 L 392.789062 580.601562 C 386.121094 564.140625 381.679688 551.761719 381.5625 551.363281 Z M 410.511719 529.515625 L 409.71875 529.75 C 411.722656 536.410156 432.929688 588.226562 434.738281 589.980469 C 436.378906 591.589844 487.285156 629.164062 489.457031 630.773438 L 489.953125 630.109375 C 489.421875 629.710938 436.925781 590.960938 435.320312 589.402344 C 433.84375 587.910156 412.75 536.992188 410.511719 529.515625 Z M 510.28125 646.453125 L 510.117188 647.265625 C 510.382812 647.316406 515.570312 648.390625 520.296875 648.390625 C 521.457031 648.390625 522.601562 648.324219 523.628906 648.160156 L 523.496094 647.347656 C 518.441406 648.144531 510.367188 646.46875 510.28125 646.453125 Z M 508.707031 651.425781 L 508.476562 652.222656 C 508.625 652.269531 511.027344 652.964844 514.625 652.964844 C 516.75 652.964844 519.285156 652.71875 522.039062 651.972656 L 521.824219 651.175781 C 514.644531 653.132812 508.773438 651.441406 508.707031 651.425781 Z M 507.230469 655.585938 L 507.097656 655.964844 L 506.851562 656.296875 C 507.148438 656.515625 510.613281 656.710938 513.199219 656.710938 C 514.078125 656.710938 514.859375 656.695312 515.355469 656.644531 L 515.273438 655.816406 C 512.933594 656.050781 507.644531 655.683594 507.230469 655.585938 Z M 251.214844 697.753906 C 244.484375 698.613281 238.25 695.300781 237.1875 694.335938 L 236.640625 694.949219 C 237.6875 695.894531 242.828125 698.714844 248.929688 698.714844 C 249.707031 698.714844 250.519531 698.664062 251.316406 698.5625 C 256.902344 697.851562 261.578125 694.6875 265.246094 689.148438 L 264.546875 688.683594 C 261.03125 694.023438 256.539062 697.074219 251.214844 697.753906 Z M 220.871094 739.867188 L 221.703125 739.867188 L 221.703125 734.019531 L 220.871094 734.019531 Z M 230.125 738.90625 L 230.953125 738.90625 L 230.953125 733.074219 L 230.125 733.074219 Z M 239.476562 737.828125 L 240.304688 737.828125 L 240.304688 732.09375 L 239.476562 732.09375 Z M 248.429688 736.71875 L 249.261719 736.71875 L 249.261719 730.703125 L 248.429688 730.703125 Z M 257.632812 734.960938 L 258.460938 734.960938 L 258.460938 729.726562 L 257.632812 729.726562 Z M 434.441406 716.480469 C 434.089844 716.414062 433.710938 716.347656 433.628906 716.316406 L 433.394531 716.648438 L 432.996094 716.78125 C 433.097656 717.09375 433.34375 717.144531 434.289062 717.308594 C 437.640625 717.890625 447.820312 719.648438 452.464844 732.460938 L 453.242188 732.179688 C 450.058594 723.359375 443.726562 718.089844 434.441406 716.480469 Z M 476.96875 704.8125 L 477.714844 705.175781 L 480.949219 698.597656 L 480.203125 698.234375 Z M 487.882812 702.160156 L 487.664062 702.558594 L 487.285156 702.460938 C 487.203125 702.773438 485.808594 705.890625 484.960938 707.761719 L 485.726562 708.109375 C 488.277344 702.394531 488.277344 702.394531 487.882812 702.160156 Z M 441.652344 184.859375 L 442.28125 184.328125 C 441.003906 182.820312 438.453125 182.058594 435.085938 182.15625 L 434.96875 182.15625 L 434.96875 182.984375 L 435.121094 182.984375 C 438.21875 182.886719 440.542969 183.550781 441.652344 184.859375 Z M 414.375 219.269531 L 415.207031 219.167969 C 414.921875 216.882812 413 214.941406 410.710938 214.660156 L 410.613281 215.488281 C 412.484375 215.703125 414.144531 217.378906 414.375 219.269531 Z M 495.722656 195.863281 C 487.085938 203.671875 479.625 210.402344 478.84375 211.277344 C 478.03125 212.175781 465.132812 218.921875 451.519531 225.929688 L 451.765625 223.644531 L 450.9375 223.542969 L 450.621094 226.378906 C 445.964844 228.765625 441.269531 231.183594 436.960938 233.390625 C 420.894531 241.628906 414.308594 245.027344 413.910156 245.441406 L 414.492188 246.019531 C 415.089844 245.523438 425.898438 239.988281 437.339844 234.121094 C 460.523438 222.234375 478.332031 213.050781 479.457031 211.808594 C 480.21875 210.964844 487.664062 204.234375 496.289062 196.460938 C 513.300781 181.097656 525.386719 170.140625 525.851562 169.179688 L 525.105469 168.8125 C 524.460938 169.890625 507.84375 184.890625 495.722656 195.863281 Z M 439.960938 208.792969 C 440.011719 208.777344 444.835938 206.636719 447.222656 206.722656 L 447.257812 205.890625 C 444.769531 205.84375 439.84375 207.929688 439.628906 208.03125 Z M 444.058594 221.488281 L 444.007812 222.316406 C 444.039062 222.316406 444.273438 222.335938 444.621094 222.335938 C 445.730469 222.335938 448.121094 222.21875 449.746094 221.355469 L 449.363281 220.628906 C 447.421875 221.636719 444.089844 221.488281 444.058594 221.488281 Z M 437.492188 203.074219 C 437.625 203.371094 445.847656 201.136719 446.34375 200.722656 C 446.84375 200.304688 446.230469 198.484375 445.101562 198.449219 C 443.957031 198.398438 436.8125 201.449219 437.492188 203.074219 Z M 457.339844 468.371094 C 457.40625 468.074219 459.113281 460.714844 457.902344 444.339844 L 457.074219 444.40625 C 458.285156 460.648438 456.558594 468.105469 456.542969 468.191406 Z M 450.175781 566.859375 C 456.09375 551.378906 458.515625 528.058594 459.425781 515.742188 L 478.5625 608.859375 L 479.375 608.695312 L 459.910156 513.984375 L 459.542969 514.070312 C 459.824219 510.042969 459.910156 507.539062 459.925781 507.4375 L 459.097656 507.40625 C 459.078125 507.769531 457.671875 544.929688 449.414062 566.5625 Z M 399.503906 404.09375 L 409.351562 404.09375 L 409.351562 403.265625 L 399.503906 403.265625 Z M 437.09375 385.382812 C 436.660156 385.199219 436.679688 385.214844 430.890625 394.050781 C 428.074219 398.359375 424.359375 404.027344 423.03125 405.851562 C 422.898438 402.703125 422.765625 399.820312 422.648438 397.332031 C 422.402344 391.714844 422.203125 387.269531 422.253906 386.875 L 421.855469 386.773438 L 421.507812 386.558594 C 421.375 386.773438 421.355469 386.808594 421.820312 397.367188 C 422.601562 414.734375 424.207031 450.886719 422.765625 464.492188 L 423.59375 464.578125 C 424.824219 453.125 423.878906 425.839844 423.082031 407.0625 C 423.613281 406.582031 425.4375 403.894531 431.585938 394.496094 C 434.191406 390.519531 436.894531 386.394531 437.207031 386.078125 L 436.960938 385.78125 L 437.339844 385.863281 Z M 418.738281 313.628906 L 417.972656 313.960938 C 419.847656 318.203125 423.28125 321.832031 427.425781 323.921875 L 427.789062 323.175781 C 423.828125 321.1875 420.527344 317.707031 418.738281 313.628906 Z M 562.25 153.019531 L 561.566406 152.539062 C 558.699219 156.582031 552.066406 159.898438 552 159.929688 L 552.367188 160.675781 C 552.648438 160.542969 559.261719 157.246094 562.25 153.019531 Z M 565.050781 156.484375 L 564.355469 156.019531 C 560.671875 161.554688 554.207031 164.804688 554.140625 164.835938 L 554.503906 165.582031 C 554.785156 165.449219 561.238281 162.21875 565.050781 156.484375 Z M 556.445312 170.390625 L 556.910156 171.085938 C 557.175781 170.902344 563.574219 166.59375 567.089844 160.824219 L 566.375 160.394531 C 562.945312 165.980469 556.511719 170.339844 556.445312 170.390625 Z M 623.285156 734.746094 L 624.113281 734.746094 L 624.113281 626.859375 L 623.285156 626.859375 Z M 650.046875 641.828125 L 650.460938 641.828125 L 650.460938 674.414062 L 650.046875 674.414062 C 648.40625 674.414062 647.0625 675.757812 647.0625 677.398438 L 647.0625 677.8125 L 637.011719 677.8125 L 637.011719 677.398438 C 637.011719 675.757812 635.671875 674.414062 634.027344 674.414062 L 633.613281 674.414062 L 633.613281 641.828125 L 634.027344 641.828125 C 635.671875 641.828125 637.011719 640.484375 637.011719 638.84375 L 637.011719 638.429688 L 647.0625 638.429688 L 647.0625 638.84375 C 647.0625 640.503906 648.40625 641.828125 650.046875 641.828125 Z M 649.632812 642.640625 C 647.855469 642.441406 646.449219 641.03125 646.265625 639.277344 L 637.84375 639.277344 C 637.644531 641.050781 636.234375 642.457031 634.476562 642.640625 L 634.476562 673.617188 C 636.25 673.816406 637.660156 675.226562 637.84375 676.984375 L 646.265625 676.984375 C 646.464844 675.210938 647.875 673.800781 649.632812 673.617188 Z M 674.519531 641.828125 L 674.933594 641.828125 L 674.933594 674.414062 L 674.519531 674.414062 C 672.878906 674.414062 671.535156 675.757812 671.535156 677.398438 L 671.535156 677.8125 L 661.488281 677.8125 L 661.488281 677.398438 C 661.488281 675.757812 660.144531 674.414062 658.503906 674.414062 L 658.089844 674.414062 L 658.089844 641.828125 L 658.503906 641.828125 C 660.144531 641.828125 661.488281 640.484375 661.488281 638.84375 L 661.488281 638.429688 L 671.535156 638.429688 L 671.535156 638.84375 C 671.535156 640.503906 672.878906 641.828125 674.519531 641.828125 Z M 674.105469 642.640625 C 672.332031 642.441406 670.921875 641.03125 670.738281 639.277344 L 662.316406 639.277344 C 662.117188 641.050781 660.707031 642.457031 658.949219 642.640625 L 658.949219 673.617188 C 660.722656 673.816406 662.132812 675.226562 662.316406 676.984375 L 670.738281 676.984375 C 670.9375 675.210938 672.347656 673.800781 674.105469 673.617188 Z M 706.671875 544.234375 C 706.554688 544.269531 695.113281 546.753906 690.15625 545.828125 L 690.007812 546.640625 C 690.835938 546.789062 691.832031 546.855469 692.925781 546.855469 C 698.511719 546.855469 706.457031 545.128906 706.855469 545.03125 Z M 709.605469 548.03125 C 709.539062 548.046875 702.011719 549.523438 696.539062 548.695312 L 696.425781 549.507812 C 697.683594 549.703125 699.042969 549.769531 700.402344 549.769531 C 705.03125 549.769531 709.539062 548.894531 709.789062 548.84375 Z M 706.140625 551.347656 L 706.171875 552.175781 C 710.320312 552.042969 714.03125 551.230469 714.066406 551.214844 L 713.882812 550.402344 C 713.851562 550.417969 710.203125 551.214844 706.140625 551.347656 Z M 650.046875 687.410156 L 650.460938 687.410156 L 650.460938 719.996094 L 650.046875 719.996094 C 648.40625 719.996094 647.0625 721.339844 647.0625 722.980469 L 647.0625 723.394531 L 637.011719 723.394531 L 637.011719 722.980469 C 637.011719 721.339844 635.671875 719.996094 634.027344 719.996094 L 633.613281 719.996094 L 633.613281 687.410156 L 634.027344 687.410156 C 635.671875 687.410156 637.011719 686.066406 637.011719 684.425781 L 637.011719 684.011719 L 647.0625 684.011719 L 647.0625 684.425781 C 647.0625 686.066406 648.40625 687.410156 650.046875 687.410156 Z M 649.632812 688.203125 C 647.855469 688.007812 646.449219 686.597656 646.265625 684.839844 L 637.84375 684.839844 C 637.644531 686.613281 636.234375 688.023438 634.476562 688.203125 L 634.476562 719.183594 C 636.25 719.382812 637.660156 720.792969 637.84375 722.546875 L 646.265625 722.546875 C 646.464844 720.773438 647.875 719.367188 649.632812 719.183594 Z M 674.519531 687.410156 L 674.933594 687.410156 L 674.933594 719.996094 L 674.519531 719.996094 C 672.878906 719.996094 671.535156 721.339844 671.535156 722.980469 L 671.535156 723.394531 L 661.488281 723.394531 L 661.488281 722.980469 C 661.488281 721.339844 660.144531 719.996094 658.503906 719.996094 L 658.089844 719.996094 L 658.089844 687.410156 L 658.503906 687.410156 C 660.144531 687.410156 661.488281 686.066406 661.488281 684.425781 L 661.488281 684.011719 L 671.535156 684.011719 L 671.535156 684.425781 C 671.535156 686.066406 672.878906 687.410156 674.519531 687.410156 Z M 674.105469 688.203125 C 672.332031 688.007812 670.921875 686.597656 670.738281 684.839844 L 662.316406 684.839844 C 662.117188 686.613281 660.707031 688.023438 658.949219 688.203125 L 658.949219 719.183594 C 660.722656 719.382812 662.132812 720.792969 662.316406 722.546875 L 670.738281 722.546875 C 670.9375 720.773438 672.347656 719.367188 674.105469 719.183594 Z M 588.878906 641.828125 L 589.292969 641.828125 L 589.292969 674.414062 L 588.878906 674.414062 C 587.234375 674.414062 585.894531 675.757812 585.894531 677.398438 L 585.894531 677.8125 L 575.84375 677.8125 L 575.84375 677.398438 C 575.84375 675.757812 574.5 674.414062 572.859375 674.414062 L 572.445312 674.414062 L 572.445312 641.828125 L 572.859375 641.828125 C 574.5 641.828125 575.84375 640.484375 575.84375 638.84375 L 575.84375 638.429688 L 585.894531 638.429688 L 585.894531 638.84375 C 585.894531 640.503906 587.234375 641.828125 588.878906 641.828125 Z M 588.464844 642.640625 C 586.6875 642.441406 585.28125 641.03125 585.097656 639.277344 L 576.675781 639.277344 C 576.476562 641.050781 575.066406 642.457031 573.308594 642.640625 L 573.308594 673.617188 C 575.082031 673.816406 576.492188 675.226562 576.675781 676.984375 L 585.097656 676.984375 C 585.296875 675.210938 586.707031 673.800781 588.464844 673.617188 Z M 613.351562 641.828125 L 613.765625 641.828125 L 613.765625 674.414062 L 613.351562 674.414062 C 611.710938 674.414062 610.367188 675.757812 610.367188 677.398438 L 610.367188 677.8125 L 600.320312 677.8125 L 600.320312 677.398438 C 600.320312 675.757812 598.976562 674.414062 597.335938 674.414062 L 596.917969 674.414062 L 596.917969 641.828125 L 597.351562 641.828125 C 598.992188 641.828125 600.335938 640.484375 600.335938 638.84375 L 600.335938 638.429688 L 610.382812 638.429688 L 610.382812 638.84375 C 610.367188 640.503906 611.710938 641.828125 613.351562 641.828125 Z M 612.9375 642.640625 C 611.164062 642.441406 609.753906 641.03125 609.570312 639.277344 L 601.148438 639.277344 C 600.949219 641.050781 599.539062 642.457031 597.78125 642.640625 L 597.78125 673.617188 C 599.554688 673.816406 600.964844 675.226562 601.148438 676.984375 L 609.570312 676.984375 C 609.769531 675.210938 611.179688 673.800781 612.9375 673.617188 Z M 588.878906 687.410156 L 589.292969 687.410156 L 589.292969 719.996094 L 588.878906 719.996094 C 587.234375 719.996094 585.894531 721.339844 585.894531 722.980469 L 585.894531 723.394531 L 575.84375 723.394531 L 575.84375 722.980469 C 575.84375 721.339844 574.5 719.996094 572.859375 719.996094 L 572.445312 719.996094 L 572.445312 687.410156 L 572.859375 687.410156 C 574.5 687.410156 575.84375 686.066406 575.84375 684.425781 L 575.84375 684.011719 L 585.894531 684.011719 L 585.894531 684.425781 C 585.894531 686.066406 587.234375 687.410156 588.878906 687.410156 Z M 588.464844 688.203125 C 586.6875 688.007812 585.28125 686.597656 585.097656 684.839844 L 576.675781 684.839844 C 576.476562 686.613281 575.066406 688.023438 573.308594 688.203125 L 573.308594 719.183594 C 575.082031 719.382812 576.492188 720.792969 576.675781 722.546875 L 585.097656 722.546875 C 585.296875 720.773438 586.707031 719.367188 588.464844 719.183594 Z M 613.351562 687.410156 L 613.765625 687.410156 L 613.765625 719.996094 L 613.351562 719.996094 C 611.710938 719.996094 610.367188 721.339844 610.367188 722.980469 L 610.367188 723.394531 L 600.320312 723.394531 L 600.320312 722.980469 C 600.320312 721.339844 598.976562 719.996094 597.335938 719.996094 L 596.917969 719.996094 L 596.917969 687.410156 L 597.351562 687.410156 C 598.992188 687.410156 600.335938 686.066406 600.335938 684.425781 L 600.335938 684.011719 L 610.382812 684.011719 L 610.382812 684.425781 C 610.367188 686.066406 611.710938 687.410156 613.351562 687.410156 Z M 612.9375 688.203125 C 611.164062 688.007812 609.753906 686.597656 609.570312 684.839844 L 601.148438 684.839844 C 600.949219 686.613281 599.539062 688.023438 597.78125 688.203125 L 597.78125 719.183594 C 599.554688 719.382812 600.964844 720.792969 601.148438 722.546875 L 609.570312 722.546875 C 609.769531 720.773438 611.179688 719.367188 612.9375 719.183594 Z M 618.523438 678.558594 C 617.214844 678.558594 616.171875 679.617188 616.171875 680.910156 C 616.171875 682.203125 617.230469 683.265625 618.523438 683.265625 C 619.820312 683.265625 620.878906 682.203125 620.878906 680.910156 C 620.878906 679.617188 619.835938 678.558594 618.523438 678.558594 Z M 628.871094 678.558594 C 627.5625 678.558594 626.515625 679.617188 626.515625 680.910156 C 626.515625 682.203125 627.578125 683.265625 628.871094 683.265625 C 630.164062 683.265625 631.226562 682.203125 631.226562 680.910156 C 631.226562 679.617188 630.164062 678.558594 628.871094 678.558594 Z M 441.71875 506.246094 C 441.734375 506.246094 443.226562 506.757812 444.9375 508.019531 C 444.355469 508.699219 443.128906 510.304688 444.007812 511.234375 C 444.886719 512.179688 446.5625 510.820312 447.242188 510.207031 C 447.355469 510.339844 447.472656 510.457031 447.570312 510.589844 L 448.234375 510.089844 C 445.632812 506.660156 442.117188 505.5 441.96875 505.449219 Z M 562.117188 734.746094 L 562.945312 734.746094 L 562.945312 724.488281 L 562.117188 724.488281 Z M 684.453125 734.746094 L 685.28125 734.746094 L 685.28125 724.488281 L 684.453125 724.488281 Z M 684.453125 734.746094 " fill-opacity="1" fill-rule="nonzero"/></svg>